<svg width="30" height="30" viewBox="0 0 30 30" fill="none" xmlns="http://www.w3.org/2000/svg">
<path d="M29.3496 22.8857C28.4132 22.1004 22.9211 18.6225 22.0082 18.7821C21.5796 18.8582 21.2518 19.2236 20.3743 20.2704C19.9685 20.7856 19.5228 21.2681 19.0414 21.7136C18.1594 21.5005 17.3056 21.184 16.4979 20.7707C13.3299 19.2284 10.7707 16.6684 9.22929 13.5C8.81597 12.6922 8.49949 11.8384 8.28643 10.9564C8.73185 10.475 9.21441 10.0294 9.72964 9.62357C10.7754 8.74607 11.1418 8.42036 11.2179 7.98964C11.3775 7.07464 7.89643 1.58464 7.11429 0.648214C6.78643 0.260357 6.48857 0 6.10714 0C5.00143 0 0 6.18429 0 6.98571C0 7.05107 0.107143 13.4893 8.23821 21.7618C16.5107 29.8929 22.9489 30 23.0143 30C23.8157 30 30 24.9986 30 23.8929C30 23.5114 29.7396 23.2136 29.3496 22.8857Z" fill="#171717"/>
<path d="M22.5 13.9286H24.6429C24.6403 11.6561 23.7364 9.47738 22.1295 7.87047C20.5226 6.26357 18.3439 5.35969 16.0714 5.35714V7.5C17.7759 7.5017 19.41 8.17954 20.6152 9.38476C21.8205 10.59 22.4983 12.2241 22.5 13.9286Z" fill="#171717"/>
<path d="M27.8571 13.9286H30C29.9957 10.2358 28.5269 6.69547 25.9157 4.08428C23.3045 1.47309 19.7642 0.00425354 16.0714 0V2.14286C19.1961 2.14654 22.1917 3.38943 24.4011 5.59888C26.6106 7.80834 27.8535 10.8039 27.8571 13.9286Z" fill="#171717"/>
</svg>
