<svg width="30" height="28" viewBox="0 0 30 28" fill="none" xmlns="http://www.w3.org/2000/svg">
<path d="M29.4261 13.2593L25.1221 12.1089C23.1839 11.5978 21.4184 10.63 19.9944 9.29811C18.5705 7.96622 17.5358 6.31481 16.9894 4.50191L15.7594 0.476146C15.6976 0.335298 15.5924 0.21483 15.4571 0.130048C15.3219 0.0452666 15.1628 0 15 0C14.8372 0 14.6781 0.0452666 14.5429 0.130048C14.4076 0.21483 14.3024 0.335298 14.2406 0.476146L13.0106 4.50191C12.4642 6.31481 11.4295 7.96622 10.0056 9.29811C8.58162 10.63 6.81608 11.5978 4.87788 12.1089L0.573879 13.2593C0.40862 13.3032 0.263172 13.3963 0.159604 13.5245C0.0560352 13.6527 0 13.809 0 13.9697C0 14.1304 0.0560352 14.2867 0.159604 14.4149C0.263172 14.5431 0.40862 14.6362 0.573879 14.68L4.87788 15.8305C6.81608 16.3416 8.58162 17.3094 10.0056 18.6413C11.4295 19.9731 12.4642 21.6245 13.0106 23.4375L14.2406 27.4632C14.2875 27.6178 14.387 27.7538 14.5241 27.8507C14.6611 27.9476 14.8282 28 15 28C15.1718 28 15.3389 27.9476 15.4759 27.8507C15.613 27.7538 15.7125 27.6178 15.7594 27.4632L16.9894 23.4375C17.5358 21.6245 18.5705 19.9731 19.9944 18.6413C21.4184 17.3094 23.1839 16.3416 25.1221 15.8305L29.4261 14.68C29.5914 14.6362 29.7368 14.5431 29.8404 14.4149C29.944 14.2867 30 14.1304 30 13.9697C30 13.809 29.944 13.6527 29.8404 13.5245C29.7368 13.3963 29.5914 13.3032 29.4261 13.2593Z" fill="#171717"/>
</svg>
