<svg width="31" height="29" viewBox="0 0 31 29" fill="none" xmlns="http://www.w3.org/2000/svg">
<path d="M30.0797 13.2714L25.7214 12.3478C23.7591 11.9389 21.9454 11.0648 20.4537 9.80925C18.962 8.55371 17.8423 6.95872 17.2017 5.1769L15.7628 1.22102C15.6936 1.0836 15.5822 0.968807 15.4428 0.891219C15.3033 0.81363 15.142 0.776753 14.9794 0.785273C14.8169 0.793793 14.6603 0.847325 14.5297 0.939068C14.3991 1.03081 14.3004 1.15662 14.246 1.30051L13.2284 5.38513C12.7776 7.22415 11.8308 8.92744 10.4785 10.332C9.12619 11.7366 7.41372 12.7955 5.50492 13.4073L1.26703 14.7814C1.1043 14.8339 0.96392 14.9345 0.867203 15.0679C0.770486 15.2014 0.722707 15.3604 0.731117 15.5208C0.739526 15.6813 0.803664 15.8345 0.9138 15.9571C1.02394 16.0797 1.17406 16.165 1.34139 16.2002L5.69969 17.1238C7.66199 17.5328 9.47576 18.4068 10.9675 19.6624C12.4592 20.9179 13.5789 22.5129 14.2194 24.2947L15.6584 28.2506C15.7133 28.4025 15.8198 28.5332 15.9617 28.6227C16.1037 28.7123 16.2733 28.7559 16.4448 28.7469C16.6164 28.7379 16.7805 28.6768 16.9123 28.5729C17.0441 28.469 17.1364 28.3279 17.1752 28.1711L18.1927 24.0865C18.6435 22.2475 19.5904 20.5442 20.9426 19.1396C22.2949 17.735 24.0074 16.6761 25.9162 16.0643L30.1541 14.6902C30.3168 14.6377 30.4572 14.5371 30.5539 14.4037C30.6506 14.2702 30.6984 14.1112 30.69 13.9508C30.6816 13.7903 30.6175 13.6372 30.5073 13.5146C30.3972 13.392 30.2471 13.3066 30.0797 13.2714Z" fill="white"/>
</svg>
