<svg width="54" height="51" viewBox="0 0 54 51" fill="none" xmlns="http://www.w3.org/2000/svg">
<path d="M52.967 24.1509L45.2198 22.0555C41.7311 21.1246 38.5531 19.3618 35.99 16.9358C33.4269 14.5099 31.5645 11.502 30.5809 8.1999L28.367 0.867266C28.2556 0.610722 28.0662 0.391297 27.8228 0.236873C27.5794 0.0824499 27.293 0 27 0C26.707 0 26.4206 0.0824499 26.1772 0.236873C25.9338 0.391297 25.7444 0.610722 25.633 0.867266L23.4191 8.1999C22.4355 11.502 20.5731 14.5099 18.01 16.9358C15.4469 19.3618 12.2689 21.1246 8.78018 22.0555L1.03298 24.1509C0.735517 24.2309 0.47371 24.4004 0.287286 24.6339C0.100863 24.8674 0 25.1521 0 25.4448C0 25.7374 0.100863 26.0221 0.287286 26.2556C0.47371 26.4891 0.735517 26.6587 1.03298 26.7386L8.78018 28.834C12.2689 29.765 15.4469 31.5278 18.01 33.9537C20.5731 36.3797 22.4355 39.3876 23.4191 42.6897L25.633 50.0223C25.7174 50.3038 25.8966 50.5516 26.1433 50.7281C26.39 50.9045 26.6908 51 27 51C27.3092 51 27.61 50.9045 27.8567 50.7281C28.1034 50.5516 28.2826 50.3038 28.367 50.0223L30.5809 42.6897C31.5645 39.3876 33.4269 36.3797 35.99 33.9537C38.5531 31.5278 41.7311 29.765 45.2198 28.834L52.967 26.7386C53.2645 26.6587 53.5263 26.4891 53.7127 26.2556C53.8991 26.0221 54 25.7374 54 25.4448C54 25.1521 53.8991 24.8674 53.7127 24.6339C53.5263 24.4004 53.2645 24.2309 52.967 24.1509Z" fill="white"/>
</svg>
