<svg width="27" height="28" viewBox="0 0 27 28" fill="none" xmlns="http://www.w3.org/2000/svg">
<path d="M23.9181 24.6636C24.0437 24.6636 24.14 24.6636 24.2364 24.6636C25.8024 24.651 27 23.4389 27 21.8649C27 17.4165 27 12.9723 27 8.52387C27 6.93725 25.7815 5.71678 24.1945 5.71678C21.4643 5.71678 18.7384 5.71678 16.0082 5.71678C15.9119 5.71678 15.8156 5.71678 15.6942 5.71678C15.6397 5.22438 15.3089 4.8919 15.0116 4.51313C16.5191 3.59567 18.0056 2.68663 19.4879 1.78179C19.8396 2.00485 20.0867 2.01747 20.3128 1.84071C20.5347 1.66816 20.6101 1.37777 20.4971 1.12526C20.384 0.868542 20.1286 0.733869 19.848 0.780163C19.5842 0.822248 19.4 1.03688 19.3539 1.31044C19.3413 1.39882 19.2743 1.50403 19.2032 1.54612C17.7837 2.42149 16.3558 3.29266 14.9321 4.15962C14.84 4.21433 14.7688 4.26062 14.6557 4.17645C13.9941 3.69668 13.2906 3.66301 12.5662 4.02915C12.5369 4.04599 12.5034 4.05861 12.4574 4.07966C12.1642 3.69247 11.8753 3.30528 11.5864 2.92231C11.13 2.32049 10.6777 1.71446 10.2171 1.11264C10.1418 1.01584 10.1166 0.940087 10.1711 0.813831C10.2799 0.55711 10.192 0.275138 9.98263 0.119422C9.76489 -0.040502 9.47178 -0.040502 9.26241 0.123631C9.05304 0.283555 8.97348 0.573944 9.06979 0.822248C9.17029 1.07055 9.41315 1.21364 9.68952 1.20102C9.76489 1.19681 9.86957 1.22627 9.91145 1.28098C10.661 2.26157 11.398 3.24216 12.1391 4.22695C12.1559 4.248 12.1642 4.27325 12.181 4.31113C11.7916 4.70252 11.4231 5.10233 11.3645 5.72099C11.2807 5.72099 11.197 5.72099 11.1174 5.72099C8.36213 5.72099 5.60685 5.72099 2.84739 5.72099C1.20595 5.72099 -1.90735e-06 6.92042 -1.90735e-06 8.57016C-1.90735e-06 13.0018 -1.90735e-06 17.4333 -1.90735e-06 21.8691C-1.90735e-06 23.4431 1.19758 24.6552 2.76784 24.6636C3.16563 24.6678 3.55924 24.6636 3.98635 24.6636C3.96541 24.7646 3.94867 24.8362 3.93192 24.9077C3.71417 25.7494 3.49643 26.5911 3.2745 27.4286C3.22007 27.6306 3.17819 27.8242 3.39175 27.9505C3.60949 28.0767 3.75605 27.9379 3.90261 27.799C4.94525 26.8352 5.99628 25.8799 7.02218 24.9035C7.21898 24.7183 7.40323 24.6594 7.65866 24.6594C11.9004 24.6678 16.1422 24.6636 20.3882 24.6594C20.5557 24.6594 20.6729 24.7057 20.8027 24.8277C21.8914 25.8504 22.9969 26.8647 24.094 27.8789C24.228 28.0052 24.3745 28.0389 24.5337 27.9379C24.6928 27.8368 24.7053 27.6853 24.6593 27.5128C24.4332 26.6585 24.2112 25.8041 23.9851 24.9498C23.9725 24.874 23.9516 24.7899 23.9181 24.6636ZM16.473 8.73009C18.0516 8.73009 19.6261 8.73009 21.2047 8.73009C21.8244 8.73009 22.4484 8.71325 23.0681 8.73851C24.1442 8.7848 25.0571 9.63913 25.1492 10.7165C25.2036 11.352 25.1785 11.9917 25.1785 12.6272C25.1827 14.8577 25.1827 17.0882 25.1785 19.3188C25.1743 20.6865 24.1903 21.6545 22.8294 21.6545C18.6086 21.6545 14.3877 21.6545 10.1669 21.6545C8.74736 21.6545 7.78428 20.695 7.78428 19.2683C7.78009 16.5496 7.78009 13.8266 7.78428 11.1079C7.78428 9.68964 8.74736 8.7343 10.1543 8.73009C12.2564 8.73009 14.3626 8.73009 16.473 8.73009ZM3.96123 13.3763C4.53071 13.3721 5.00388 13.8308 5.01225 14.4074C5.02063 14.9966 4.56002 15.468 3.97798 15.468C3.40431 15.468 2.94789 15.0092 2.93952 14.4284C2.93114 13.8561 3.39175 13.3805 3.96123 13.3763ZM5.01225 20.716C5.02063 21.2926 4.57258 21.7681 3.99891 21.7808C3.42106 21.7976 2.93952 21.3262 2.93533 20.7413C2.93114 20.1647 3.38756 19.6933 3.96123 19.6849C4.53071 19.6807 5.00388 20.1436 5.01225 20.716ZM2.93952 17.4923C2.93952 16.9199 3.40431 16.4485 3.97379 16.4528C4.54746 16.4528 5.00806 16.9157 5.01225 17.4923C5.01644 18.0688 4.55583 18.536 3.98635 18.5444C3.4085 18.5486 2.93952 18.0815 2.93952 17.4923ZM3.99054 9.40766C3.48806 9.40766 2.98558 9.40766 2.4831 9.40766C2.03505 9.40766 2.07692 9.46237 2.06436 8.99102C2.06017 8.78901 2.12298 8.72588 2.32397 8.73009C3.36244 8.73851 4.4009 8.7343 5.43936 8.7343C5.91253 8.7343 5.86647 8.67538 5.87903 9.17199C5.88322 9.35716 5.82041 9.41608 5.63617 9.41187C5.09181 9.40346 4.53908 9.40766 3.99054 9.40766ZM3.99891 12.0675C3.49643 12.0675 2.99395 12.0717 2.49147 12.0675C2.0183 12.0633 2.07692 12.1348 2.06436 11.6424C2.06017 11.453 2.11461 11.3857 2.31141 11.3899C3.35825 11.3983 4.4009 11.3941 5.44774 11.3941C5.91672 11.3941 5.87066 11.3394 5.87903 11.8402C5.88322 12.0127 5.82041 12.0717 5.64873 12.0717C5.10019 12.0633 4.55164 12.0675 3.99891 12.0675ZM3.97798 10.7334C3.48387 10.7334 2.98976 10.7334 2.49147 10.7334C2.02249 10.7291 2.07692 10.7881 2.06436 10.3041C2.06017 10.1105 2.12298 10.0516 2.3156 10.0516C3.35406 10.06 4.39252 10.0558 5.43099 10.0558C5.9209 10.0558 5.87066 9.98844 5.87903 10.5061C5.88322 10.6786 5.82041 10.7376 5.64873 10.7376C5.096 10.7291 4.53489 10.7334 3.97798 10.7334Z" fill="#40B9DF"/>
<path d="M16.5021 21.0777C18.3948 21.0777 20.2833 21.0777 22.176 21.0777C23.5829 21.0777 24.6172 20.034 24.6172 18.6157C24.6172 16.3936 24.6172 14.1715 24.6172 11.9452C24.6172 10.5479 23.5704 9.5 22.1802 9.5C18.3906 9.5 14.6011 9.5 10.8115 9.5C9.44225 9.5 8.37867 10.5227 8.37029 11.9031C8.35354 14.1589 8.35354 16.4188 8.37029 18.6788C8.37867 20.0676 9.42969 21.0819 10.8073 21.0819C12.7084 21.0777 14.6052 21.0777 16.5021 21.0777ZM16.4896 20.7368C14.6052 20.7368 12.7209 20.7368 10.8408 20.7368C9.60137 20.7368 8.71366 19.8614 8.70947 18.6073C8.70109 16.3852 8.70109 14.1631 8.70947 11.941C8.71366 10.7415 9.62231 9.84089 10.8115 9.84089C14.5927 9.84089 18.3739 9.84089 22.155 9.84089C23.4029 9.84089 24.2822 10.7331 24.2822 11.9957C24.2822 14.1967 24.2822 16.3978 24.2822 18.5989C24.2822 19.8446 23.3987 20.7368 22.1634 20.7368C20.2707 20.7368 18.378 20.7368 16.4896 20.7368Z" fill="#40B9DF"/>
</svg>
