<svg width="28" height="22" viewBox="0 0 28 22" fill="none" xmlns="http://www.w3.org/2000/svg">
<path d="M27.2092 5.31685C27.0785 5.65388 26.8171 5.82583 26.4801 5.94276C22.4838 7.35967 18.4876 8.77658 14.4982 10.2072C14.1681 10.3242 13.8586 10.3311 13.5284 10.2141C9.50467 8.77658 5.48093 7.34592 1.4503 5.91525C1.13391 5.8052 0.920683 5.61261 0.796875 5.30997C0.796875 5.18616 0.796875 5.06923 0.796875 4.94542C0.927561 4.60151 1.18893 4.43644 1.52596 4.31951C5.54283 2.91636 9.55282 1.49945 13.5628 0.0825384C13.8655 -0.0275128 14.1406 -0.0275128 14.4363 0.0825384C18.4532 1.49945 22.4632 2.91636 26.4801 4.32639C26.8171 4.44332 27.0785 4.61527 27.2092 4.9523C27.2092 5.07611 27.2092 5.19304 27.2092 5.31685Z" fill="#5ACA48"/>
<path d="M6.23849 9.2581C7.24958 9.61577 8.19877 9.9528 9.15484 10.2898C10.4823 10.7644 11.8098 11.2321 13.1304 11.7067C13.7013 11.9131 14.2653 11.9268 14.8431 11.7205C17.051 10.9364 19.2589 10.1523 21.4668 9.36815C21.5562 9.33376 21.6456 9.30625 21.7626 9.26498C21.7695 9.36815 21.7763 9.45069 21.7763 9.53323C21.7763 10.5237 21.7695 11.5073 21.7832 12.4977C21.7901 13.0136 21.5906 13.4125 21.2123 13.7358C20.6208 14.2448 19.9055 14.5268 19.1764 14.7538C16.9822 15.4416 14.7331 15.6136 12.4495 15.4347C11.012 15.3247 9.60193 15.0771 8.26068 14.5406C7.75169 14.3342 7.27022 14.0384 6.80938 13.7221C6.39669 13.44 6.23161 12.9998 6.23849 12.4909C6.25224 11.5142 6.24537 10.5306 6.24537 9.55386C6.23849 9.47133 6.23849 9.38879 6.23849 9.2581Z" fill="#5ACA48"/>
<path d="M25.3569 7.98553C25.3569 8.10934 25.3569 8.20564 25.3569 8.29505C25.3569 10.3516 25.3569 12.4013 25.35 14.4579C25.35 14.6368 25.3913 14.7468 25.5357 14.8637C26.3404 15.5034 26.3198 16.6796 25.5151 17.3193C25.4325 17.388 25.3637 17.5256 25.3569 17.6288C25.3431 18.8049 25.35 19.9811 25.35 21.1642C25.35 21.5769 25.123 21.8864 24.7653 21.9758C24.2563 22.0996 23.8093 21.7351 23.8024 21.1848C23.7955 20.0155 23.7955 18.8462 23.8024 17.6769C23.8024 17.5118 23.7611 17.4018 23.6167 17.2917C22.805 16.6727 22.8188 15.469 23.6373 14.8431C23.7611 14.7468 23.8024 14.6574 23.8024 14.5061C23.7955 12.6008 23.8024 10.6887 23.7955 8.78341C23.7955 8.58394 23.8505 8.5014 24.0431 8.44637C24.4833 8.30881 24.9029 8.15061 25.3569 7.98553Z" fill="#5ACA48"/>
</svg>
