<svg width="26" height="26" viewBox="0 0 26 26" fill="none" xmlns="http://www.w3.org/2000/svg">
<path d="M24.6963 12.1373C24.6891 12.5271 24.552 12.8736 24.2777 13.1624C23.7579 13.6893 23.2382 14.2163 22.7112 14.7288C22.0832 15.3352 21.2025 15.3063 20.5601 14.6638C18.0552 12.1662 15.5575 9.66133 13.0527 7.16367C12.4824 6.5934 11.9193 6.03035 11.3491 5.46007C10.6633 4.76708 10.6561 3.90085 11.3491 3.21508C11.8111 2.74586 12.2803 2.28387 12.7495 1.82188C13.428 1.15054 14.3304 1.15054 15.0089 1.8291C18.0696 4.8898 21.1303 7.95773 24.1983 11.0184C24.5014 11.3144 24.6891 11.6825 24.6963 12.1373Z" fill="#009E9D"/>
<path d="M1.30078 13.8265C1.31522 13.444 1.45959 13.0975 1.7339 12.8159C2.23921 12.3034 2.74451 11.7909 3.26425 11.2856C3.88506 10.6864 4.79461 10.6792 5.40097 11.2928C8.50499 14.3896 11.609 17.4936 14.7058 20.5976C15.3266 21.2184 15.3122 22.0991 14.6986 22.7271C14.2222 23.218 13.7313 23.7016 13.2476 24.1853C12.5547 24.8711 11.6884 24.8711 11.0026 24.1781C8.15128 21.3267 5.29991 18.4753 2.44855 15.624C2.21033 15.3858 1.97212 15.1548 1.74112 14.9166C1.45237 14.6062 1.308 14.2524 1.30078 13.8265Z" fill="#009E9D"/>
<path d="M1.35289 15.7899C4.30532 18.7423 7.24331 21.6803 10.2102 24.6472C9.82758 25.0081 9.45943 25.4196 9.0191 25.7444C8.44882 26.1631 7.69087 26.0404 7.14947 25.5062C5.81402 24.178 4.47857 22.8425 3.15034 21.5071C2.2841 20.6408 1.41786 19.7746 0.544406 18.9012C-0.177459 18.1793 -0.177459 17.3275 0.551624 16.5984C0.825933 16.3241 1.09302 16.0498 1.35289 15.7899Z" fill="#009E9D"/>
<path d="M15.832 1.37427C16.1569 1.03499 16.4673 0.65962 16.821 0.349218C17.4201 -0.163306 18.2719 -0.105556 18.8566 0.471935C19.7229 1.33095 20.5819 2.18997 21.4409 3.05621C22.7764 4.39166 24.1046 5.71989 25.4401 7.05534C26.1908 7.80608 26.1836 8.64344 25.4328 9.4014C25.1657 9.66849 24.8987 9.93558 24.646 10.1955C21.6936 7.24303 18.7628 4.30504 15.832 1.37427Z" fill="#009E9D"/>
<path d="M13.7401 9.12C14.7796 10.1595 15.8335 11.2134 16.873 12.2529C15.3426 13.7832 13.8051 15.3208 12.2819 16.8439C11.2569 15.8117 10.1957 14.7505 9.15625 13.7038C10.6577 12.2024 12.1953 10.6648 13.7401 9.12Z" fill="#009E9D"/>
<path d="M4.782 24.3801C4.1251 25.2752 3.10727 25.3618 2.3421 24.5966C2.04613 24.3079 1.75739 24.0119 1.46142 23.716C0.631277 22.8858 0.674589 21.969 1.64189 21.175C2.68859 22.2433 3.7353 23.3117 4.782 24.3801Z" fill="#009E9D"/>
<path d="M21.2422 1.56924C21.8774 0.717441 22.9097 0.638035 23.6677 1.39599C23.9708 1.69196 24.2668 1.99514 24.5628 2.29111C25.3713 3.09959 25.3063 4.05967 24.4184 4.75266C23.3645 3.69152 22.3033 2.63038 21.2422 1.56924Z" fill="#009E9D"/>
</svg>
