<svg width="26" height="26" viewBox="0 0 26 26" fill="none" xmlns="http://www.w3.org/2000/svg">
<path d="M25.9989 7.56775C25.7958 8.00773 25.4505 8.13634 24.9766 8.12957C16.9735 8.12281 8.97047 8.12281 0.967418 8.12281C0.270029 8.12281 -0.000801491 7.85881 -0.000801491 7.16161C-0.000801491 6.75547 0.00596928 6.34933 -0.000801491 5.94319C-0.00757226 5.51674 0.182009 5.25275 0.574714 5.09029C4.61686 3.41835 8.65901 1.73963 12.6944 0.060921C12.7282 0.047383 12.7621 0.020307 12.7959 0C12.9314 0 13.0668 0 13.2022 0C13.2293 0.020307 13.2496 0.040614 13.2834 0.054152C17.2985 1.71933 21.3068 3.3845 25.3219 5.04291C25.6266 5.16475 25.8635 5.33398 25.9989 5.63858C25.9989 6.28164 25.9989 6.92469 25.9989 7.56775ZM12.9991 5.83488C14.4954 5.83488 15.9918 5.83488 17.4881 5.83488C17.8334 5.83488 18.0975 5.71304 18.2532 5.3949C18.5037 4.88045 18.1313 4.31186 17.5287 4.31186C15.9444 4.30509 14.3668 4.31186 12.7824 4.31186C11.3538 4.31186 9.92514 4.31186 8.49651 4.31186C8.16474 4.31186 7.90068 4.44047 7.75173 4.7383C7.48767 5.25952 7.86683 5.82811 8.48297 5.83488C9.99285 5.84165 11.496 5.83488 12.9991 5.83488Z" fill="#916EF4"/>
<path d="M25.9988 25.438C25.7957 25.878 25.4503 26.0066 24.9764 25.9998C16.9733 25.993 8.96352 25.993 0.960472 25.993C0.276625 25.993 -0.000976562 25.7223 -0.000976562 25.0454C-0.000976562 24.5919 -0.000976562 24.1316 -0.000976562 23.678C-0.000976562 23.1433 0.445894 22.6965 0.987556 22.6965C9.02446 22.6965 17.0681 22.6965 25.105 22.6965C25.4842 22.6965 25.7009 22.9334 25.8904 23.2177C25.9311 23.2787 25.9649 23.3464 25.9988 23.4073C25.9988 24.0842 25.9988 24.7611 25.9988 25.438Z" fill="#916EF4"/>
<path d="M2.4834 9.65259C3.74276 9.65259 4.98858 9.65259 6.25472 9.65259C6.25472 12.2654 6.25472 14.8783 6.25472 17.4979C5.00212 17.4979 3.7563 17.4979 2.4834 17.4979C2.4834 14.8918 2.4834 12.2857 2.4834 9.65259Z" fill="#916EF4"/>
<path d="M19.7412 17.5046C19.7412 14.885 19.7412 12.2722 19.7412 9.65259C21.0073 9.65259 22.2532 9.65259 23.5193 9.65259C23.5193 12.2722 23.5193 14.885 23.5193 17.5046C22.2599 17.5046 21.0073 17.5046 19.7412 17.5046Z" fill="#916EF4"/>
<path d="M10.7172 17.1866C10.7037 16.618 11.0151 16.266 11.4485 16.2524C11.875 16.2389 12.2 16.5503 12.2339 17.0106C12.2745 17.4709 12.5995 17.789 13.0193 17.7755C13.4188 17.7619 13.7573 17.4167 13.7573 17.0173C13.7573 16.5909 13.4323 16.2727 12.9719 16.2524C11.8682 16.1983 10.9745 15.4808 10.7646 14.4586C10.5344 13.3756 11.0422 12.3738 12.0849 11.8797C12.2745 11.7917 12.2339 11.6631 12.2339 11.5277C12.2271 11.1621 12.3625 10.8778 12.7011 10.7289C13.1953 10.5056 13.7573 10.8711 13.7505 11.4261C13.7505 11.7037 13.8318 11.839 14.0823 11.9744C14.8338 12.3738 15.2265 13.0304 15.2739 13.8765C15.301 14.3503 14.9896 14.7023 14.5562 14.7226C14.1229 14.7429 13.7979 14.4248 13.7573 13.951C13.7234 13.5381 13.4458 13.2402 13.0599 13.2064C12.6875 13.1725 12.349 13.423 12.2542 13.8021C12.1323 14.2827 12.5047 14.7091 13.0531 14.7294C14.0484 14.77 14.888 15.4063 15.1724 16.3337C15.5042 17.4235 14.9963 18.5945 13.9604 19.0751C13.7911 19.1563 13.737 19.2376 13.7505 19.4136C13.7573 19.5151 13.7505 19.6166 13.7302 19.7182C13.6422 20.0972 13.2969 20.3477 12.9245 20.3138C12.5386 20.28 12.2136 19.9686 12.2339 19.5692C12.2474 19.2714 12.1459 19.1428 11.8886 19.0007C11.1505 18.5945 10.7782 17.9244 10.7172 17.1866Z" fill="#916EF4"/>
<path d="M1.47022 21.3156C1.47022 20.747 1.44313 20.1919 1.47699 19.6369C1.4973 19.3052 1.8223 19.048 2.16761 19.0412C3.63009 19.0344 5.09258 19.0344 6.56183 19.0412C6.90714 19.0412 7.23214 19.2984 7.25245 19.6369C7.28631 20.1919 7.25922 20.747 7.25922 21.3156C5.33633 21.3156 3.40666 21.3156 1.47022 21.3156Z" fill="#916EF4"/>
<path d="M24.5419 21.3156C22.5919 21.3156 20.6758 21.3156 18.7461 21.3156C18.7461 20.7402 18.7191 20.1649 18.7597 19.5963C18.78 19.2781 19.1185 19.0412 19.4571 19.0412C20.9128 19.0344 22.3685 19.0344 23.8242 19.0412C24.2034 19.0412 24.5216 19.3255 24.5419 19.6978C24.5622 20.2326 24.5419 20.7605 24.5419 21.3156Z" fill="#916EF4"/>
</svg>
