<svg width="22" height="22" viewBox="0 0 22 22" fill="none" xmlns="http://www.w3.org/2000/svg">
<path d="M2.08752 2.08752C2.13885 2.03619 2.18815 2.00102 2.22231 1.98218H7.72605C7.7267 1.98218 7.72783 1.98221 7.73043 1.98285C7.7333 1.98356 7.73935 1.98541 7.74854 1.99C7.76818 1.99982 7.7973 2.01991 7.82846 2.05419C7.85988 2.08876 7.88302 2.12646 7.89637 2.15742C7.90044 2.16683 7.90284 2.17379 7.90419 2.17823V7.72605C7.90419 7.80497 7.87766 7.84281 7.86024 7.86024C7.84281 7.87766 7.80497 7.90419 7.72605 7.90419H2.17823C2.17379 7.90284 2.16683 7.90044 2.15742 7.89637C2.12646 7.88302 2.08876 7.85988 2.05419 7.82846C2.01991 7.7973 1.99982 7.76818 1.99 7.74854C1.98541 7.73935 1.98356 7.7333 1.98285 7.73043C1.98221 7.72783 1.98218 7.7267 1.98218 7.72605V2.22231C2.00102 2.18815 2.03619 2.13885 2.08752 2.08752ZM13.6192 1H20.4945C20.7785 1 21 1.22152 21 1.50554V8.38084C21 8.66485 20.7785 8.88637 20.4945 8.88637H13.6192C13.3351 8.88637 13.1137 8.66485 13.1137 8.38084V1.50554C13.1137 1.22152 13.3351 1 13.6192 1ZM1.50554 13.1137H8.38084C8.66485 13.1137 8.88637 13.3351 8.88637 13.6192V20.4945C8.88637 20.7785 8.66485 21 8.38084 21H1.50554C1.22152 21 1 20.7785 1 20.4945V13.6192C1 13.3351 1.22152 13.1137 1.50554 13.1137ZM14.2739 14.0959H19.8218C19.8262 14.0972 19.8332 14.0996 19.8426 14.1036C19.8735 14.117 19.9112 14.1401 19.9458 14.1715C19.9801 14.2027 20.0001 14.2319 20.0099 14.2515C20.0146 14.2606 20.0164 14.2667 20.0172 14.2695C20.0178 14.2721 20.0178 14.2733 20.0178 14.2739V19.7777C19.999 19.8119 19.9637 19.8612 19.9125 19.9125C19.8612 19.9637 19.8119 19.999 19.7777 20.0178H14.2739C14.2737 20.0178 14.2734 20.0178 14.2732 20.0178C14.2724 20.0177 14.2714 20.0175 14.2695 20.0172C14.2677 20.0166 14.2648 20.0159 14.2605 20.0141C14.2579 20.013 14.255 20.0117 14.2515 20.0099C14.2319 20.0001 14.2027 19.9801 14.1715 19.9458C14.1401 19.9112 14.117 19.8735 14.1036 19.8426C14.0996 19.8332 14.0972 19.8262 14.0959 19.8218V14.2739C14.0959 14.195 14.1223 14.1572 14.1397 14.1397C14.1572 14.1223 14.195 14.0959 14.2739 14.0959Z" stroke="#4C5A67" stroke-width="2"/>
</svg>
