<svg width="29" height="26" viewBox="0 0 29 26" fill="none" xmlns="http://www.w3.org/2000/svg">
<path d="M0 9.03242C0 8.62513 0 8.21784 0 7.82128C0.0750264 7.3604 0.117899 6.8888 0.225079 6.43865C1.11468 3.00887 3.31188 0.908126 6.7631 0.179298C8.75666 -0.238707 10.6752 0.104271 12.4651 1.05818C13.0546 1.369 13.6012 1.76557 14.1371 2.10855C14.7481 1.73342 15.3483 1.29398 16.0021 0.972434C18.36 -0.195835 20.8038 -0.335169 23.2368 0.683047C27.1489 2.32291 29.0031 6.43865 28.0385 10.5115C27.6097 12.3229 26.7201 13.8984 25.6269 15.3668C24.3514 17.0817 22.8723 18.6036 21.2968 20.0399C19.2818 21.8834 17.2454 23.684 15.2089 25.4846C14.9624 25.699 14.6516 25.8812 14.33 25.967C13.8906 26.0849 13.5155 25.8705 13.1725 25.5811C11.3611 23.9841 9.53907 22.4193 7.73844 20.8116C6.02355 19.2789 4.31938 17.7248 2.88316 15.9134C1.62915 14.3486 0.653802 12.6444 0.246515 10.6616C0.139335 10.1257 0.0857445 9.57904 0 9.03242ZM12.433 13.8663C12.433 15.0345 12.433 16.1492 12.433 17.2853C13.5798 17.2853 14.7052 17.2853 15.8735 17.2853C15.8735 16.1385 15.8735 15.0131 15.8735 13.8663C17.031 13.8663 18.1457 13.8663 19.2711 13.8663C19.2711 12.7194 19.2711 11.594 19.2711 10.4365C18.135 10.4365 17.0096 10.4365 15.8627 10.4365C15.8627 9.28965 15.8627 8.15354 15.8627 7.02814C14.7052 7.02814 13.5798 7.02814 12.433 7.02814C12.433 8.17497 12.433 9.28965 12.433 10.4472C11.2861 10.4472 10.1607 10.4472 9.02461 10.4472C9.02461 11.6048 9.02461 12.7194 9.02461 13.8663C10.15 13.8663 11.2647 13.8663 12.433 13.8663Z" fill="#EA6190"/>
</svg>
