<svg width="26" height="26" viewBox="0 0 26 26" fill="none" xmlns="http://www.w3.org/2000/svg">
<g clip-path="url(#clip0_4433_4629)">
<path d="M25.9985 12.2363C25.9985 12.7454 25.9985 13.2492 25.9985 13.7583C25.9823 13.8288 25.9606 13.9046 25.9552 13.975C25.8306 15.7896 25.3593 17.5121 24.471 19.0938C22.0768 23.3513 18.426 25.6696 13.5456 25.9729C11.211 26.1192 8.97393 25.6154 6.92643 24.4779C2.64726 22.0946 0.32351 18.4383 0.0201772 13.5471C-0.136906 10.9742 0.475177 8.5475 1.83476 6.35375C4.31018 2.3725 7.91226 0.243754 12.5977 0.0162538C14.6506 -0.0866629 16.6277 0.319587 18.4748 1.22417C22.4885 3.185 24.9368 6.37 25.7927 10.7629C25.8902 11.245 25.9281 11.7433 25.9985 12.2363ZM23.0573 6.2725C23.0248 6.21834 22.9868 6.13167 22.9327 6.05042C21.6977 4.30084 20.1106 2.96292 18.1768 2.04209C18.0685 1.98792 17.8952 1.9825 17.7814 2.02584C16.411 2.56209 15.0514 3.10917 13.6864 3.65084C13.5239 3.71584 13.4535 3.78625 13.4535 3.97584C13.4643 5.28667 13.4535 6.5975 13.4643 7.90834C13.4643 8.02209 13.5348 8.17375 13.6214 8.24417C14.9377 9.30584 16.2593 10.3621 17.5864 11.4129C17.6677 11.4779 17.8248 11.4996 17.9168 11.4671C19.2656 11.0283 20.6089 10.5733 21.9577 10.1346C22.1148 10.0804 22.1852 9.99917 22.2177 9.84209C22.3368 9.30584 22.4668 8.775 22.5914 8.23875C22.7431 7.59959 22.8948 6.96042 23.0573 6.2725ZM12.5381 5.95834C12.5381 5.29209 12.5327 4.62042 12.5435 3.95417C12.5435 3.80792 12.5002 3.73209 12.3593 3.6725C10.9564 3.12542 9.56434 2.5675 8.16143 2.02042C8.07476 1.98792 7.93934 1.98792 7.85809 2.02584C5.88101 2.9575 4.27768 4.3225 3.03184 6.11C2.98309 6.18042 2.95601 6.29959 2.97226 6.38625C3.23768 7.54542 3.51934 8.70459 3.78476 9.86375C3.81726 10.0154 3.88768 10.0858 4.03393 10.1346C5.38268 10.5788 6.72601 11.0283 8.07476 11.4671C8.17226 11.4996 8.32934 11.4779 8.40518 11.4129C9.73226 10.3621 11.0539 9.30584 12.3702 8.24417C12.4568 8.17375 12.5273 8.02209 12.5273 7.90834C12.5435 7.26375 12.5381 6.60834 12.5381 5.95834ZM25.0668 14.1592C25.0506 14.1321 25.0127 14.0563 24.9639 13.9967C24.1623 13.0325 23.3606 12.0738 22.5643 11.1096C22.4723 10.9958 22.3964 10.9633 22.2448 11.0121C20.9014 11.4671 19.5527 11.9113 18.2148 12.3663C18.1227 12.3988 18.0198 12.5017 17.9927 12.5938C17.5864 14.1808 17.191 15.7679 16.8064 17.3604C16.7848 17.4471 16.8064 17.5825 16.8606 17.6529C17.4889 18.5033 18.1281 19.3429 18.7727 20.1825C18.8214 20.2475 18.9406 20.3017 19.0164 20.2908C20.3273 20.0904 21.6381 19.8846 22.9489 19.6679C23.0627 19.6517 23.1981 19.5542 23.2523 19.4567C23.6423 18.6929 24.0593 17.9346 24.3898 17.1438C24.7743 16.2121 24.9639 15.2208 25.0668 14.1592ZM7.09976 20.3179C7.14309 20.28 7.21351 20.2313 7.26768 20.1663C7.89601 19.3375 8.51893 18.5033 9.13643 17.6692C9.19059 17.5933 9.21768 17.4633 9.19601 17.3767C8.80601 15.7842 8.41059 14.1971 8.00976 12.6046C7.98809 12.5125 7.88518 12.4042 7.79309 12.3717C6.44434 11.9113 5.08476 11.4671 3.73601 11.0121C3.61143 10.9688 3.54101 10.985 3.45434 11.0879C2.64726 12.0629 1.82934 13.0379 1.02226 14.0183C0.968094 14.0833 0.935594 14.2025 0.946427 14.2892C1.13601 16.1363 1.73184 17.8425 2.70684 19.4242C2.81518 19.6029 2.94518 19.6788 3.14018 19.7058C3.86601 19.8142 4.59184 19.9333 5.31768 20.0471C5.90268 20.1283 6.47684 20.2204 7.09976 20.3179ZM7.92851 20.8379C7.93934 20.865 7.93934 20.8867 7.95018 20.8975C8.76809 22.1813 9.58601 23.465 10.4093 24.7433C10.4581 24.8138 10.561 24.8733 10.6477 24.8896C12.3485 25.2417 14.0439 25.1929 15.7285 24.8083C15.8152 24.7867 15.9127 24.7163 15.956 24.6404C16.6548 23.4325 17.3481 22.2246 18.0306 21.0058C18.0685 20.9408 18.0631 20.8054 18.0198 20.7458C17.386 19.8954 16.7523 19.0558 16.1023 18.2163C16.0535 18.1513 15.9343 18.0971 15.8477 18.0971C13.9464 18.0917 12.0398 18.0917 10.1385 18.0971C10.0573 18.0971 9.95434 18.1458 9.90559 18.2054C9.23934 19.0829 8.58393 19.9658 7.92851 20.8379Z" fill="#3C69DC"/>
</g>
<defs>
<clipPath id="clip0_4433_4629">
<rect width="26" height="26" fill="white"/>
</clipPath>
</defs>
</svg>
