<svg width="29" height="29" viewBox="0 0 29 29" fill="none" xmlns="http://www.w3.org/2000/svg">
<path d="M12.5127 28.993C13.6887 21.6658 11.2324 15.5523 6.26172 10.2214C6.29069 10.2214 6.31965 10.2157 6.33703 10.2271C8.64277 11.4407 10.8153 12.8358 12.6228 14.713C13.457 15.575 14.158 16.5334 14.552 17.679C14.5577 17.7017 14.5867 17.7244 14.6273 17.7811C16.8113 15.1156 18.3697 12.1609 19.3546 8.87732C19.3662 8.96239 19.3894 9.04178 19.3894 9.12685C19.5632 13.9417 19.1692 18.6941 17.7788 23.3388C17.2111 25.2273 16.4522 27.0421 15.4383 28.7434C15.3225 28.9306 15.2008 28.9986 14.9807 28.9986C14.1522 28.9816 13.3238 28.993 12.5127 28.993Z" fill="#0084FF"/>
<path d="M3.36521 7.10216C3.64329 7.43676 3.92137 7.77136 4.19945 8.10595C4.47752 8.44055 4.7556 8.77515 5.07424 9.15512C4.51228 9.27422 4.03723 9.2572 3.57377 9.14378C2.66422 8.9226 2.06751 8.3328 1.67356 7.53317C1.22748 6.63712 1.08264 5.66735 1.04209 4.68057C1.02471 4.2609 1.04209 3.84123 1.07106 3.41589C1.8995 4.27791 2.98864 4.68624 4.00827 5.21366C4.35007 5.38946 4.68608 5.58228 4.99313 5.80346C5.69412 6.30819 5.93165 6.98306 5.67674 7.79971C5.56667 8.15699 5.41604 8.50294 5.27121 8.90559C4.70346 8.16834 4.07779 7.57854 3.27831 7.18155C3.30728 7.15887 3.33624 7.13051 3.36521 7.10216Z" fill="#0084FF"/>
<path d="M24.152 2.8203C24.152 3.26832 24.1694 3.72202 24.1462 4.17004C24.1057 5.07743 23.9782 5.97347 23.5901 6.81848C22.9702 8.15688 21.8347 8.76369 20.3574 8.54252C20.3226 8.53684 20.2879 8.51416 20.2241 8.49148C20.6876 7.6805 21.377 7.0907 22.0664 6.50656C22.049 6.48388 22.0374 6.46687 22.0201 6.44418C21.6551 6.69938 21.2611 6.9319 20.9251 7.22113C20.5775 7.51603 20.2821 7.86765 19.9634 8.1909C19.1408 7.34023 19.2103 5.90542 20.172 5.22488C20.7397 4.82223 21.3828 4.52733 22.0027 4.20407C22.7442 3.81843 23.4916 3.4498 24.0535 2.80896C24.0883 2.81463 24.123 2.8203 24.152 2.8203Z" fill="#0084FF"/>
<path d="M12.485 7.83384C11.7551 7.39716 11.0425 7.00585 10.8629 6.12682C10.7702 5.66745 10.8976 5.24211 11.0946 4.83946C11.3611 4.30637 11.6624 3.79029 11.9578 3.26854C12.3634 2.55398 12.7457 1.83941 12.7921 1.00008C12.8268 1.00008 12.85 0.994404 12.8616 1.00575C13.7422 2.10028 14.4432 3.27989 14.6865 4.68067C14.924 6.05876 14.2114 7.35746 12.9079 7.91891C12.8905 7.92458 12.8732 7.91891 12.7747 7.91891C12.821 7.47655 12.85 7.04555 12.9195 6.61454C12.989 6.17786 13.0991 5.74685 13.1918 5.31584C12.8674 5.67879 12.5893 6.65423 12.485 7.83384Z" fill="#0084FF"/>
<path d="M22.2943 17.5144C22.3928 16.9586 22.5319 16.4255 22.8679 15.9605C23.1691 15.5578 23.5804 15.2743 24.0845 15.3026C24.8028 15.3366 25.5154 15.4557 26.228 15.5521C26.6857 15.6145 27.1375 15.7279 27.5952 15.762C28.0529 15.8017 28.5106 15.7676 28.9972 15.7676C28.9798 15.7223 28.9972 15.7393 28.9914 15.7506C28.1861 16.9132 27.2534 17.9454 25.9499 18.5919C24.6696 19.2271 23.4124 19.0286 22.416 18.0701C22.3638 18.0191 22.3175 17.9567 22.2422 17.8717C23.1517 17.5484 24.0671 17.4917 24.9882 17.435C24.9882 17.4123 24.9882 17.3839 24.9882 17.3612C24.5421 17.3499 24.096 17.3159 23.65 17.3442C23.2039 17.3726 22.7578 17.4577 22.2943 17.5144Z" fill="#0084FF"/>
<path d="M0 15.677C1.2166 15.9776 2.28836 15.6316 3.3775 15.4501C3.88731 15.3651 4.40871 15.3027 4.92432 15.297C5.52682 15.2913 6.01346 15.5919 6.28574 16.1137C6.51168 16.5503 6.65652 17.0267 6.80135 17.5088C5.87442 17.3443 4.99384 17.2536 4.09587 17.4237C5.00542 17.4974 5.91497 17.5655 6.83032 17.8717C6.74921 17.9625 6.69707 18.0362 6.63334 18.0986C5.68903 18.9889 4.51878 19.2158 3.33115 18.694C1.90021 18.0702 0.932723 16.953 0 15.677Z" fill="#0084FF"/>
<path d="M12.3789 12.1212C12.3789 10.9529 13.3232 10.0172 14.5166 10.0058C15.7216 9.9945 16.6891 10.9302 16.6891 12.1155C16.6891 13.2838 15.739 14.2252 14.5514 14.2309C13.3464 14.2365 12.3847 13.3008 12.3789 12.1212Z" fill="#0084FF"/>
</svg>
