<svg width="27" height="26" viewBox="0 0 27 26" fill="none" xmlns="http://www.w3.org/2000/svg">
<path d="M26 2.84079C25.858 3.65245 25.3507 4.21384 24.7758 4.76171C23.1322 6.31061 21.5156 7.88658 19.8855 9.44225C19.7367 9.58429 19.7029 9.70603 19.7705 9.90218C21.1504 14.0552 22.5302 18.2149 23.91 22.3678C23.9709 22.5505 23.9573 22.6655 23.8085 22.8075C23.0172 23.5786 22.2393 24.3699 21.4547 25.1545C21.3939 25.2154 21.333 25.2695 21.2518 25.3439C19.0333 21.7388 16.8215 18.154 14.603 14.5489C14.5421 14.5963 14.488 14.6301 14.4475 14.6707C12.6415 16.4022 10.8356 18.1337 9.03642 19.872C8.95526 19.9464 8.91467 20.1087 8.9282 20.2237C9.09053 21.2653 9.26639 22.307 9.42872 23.3486C9.44225 23.4298 9.42872 23.5447 9.37461 23.5921C8.59677 24.3835 7.81217 25.1613 7.00728 25.9662C6.97346 25.8783 6.93965 25.8174 6.91935 25.7497C6.36472 24.1738 5.81009 22.5978 5.26223 21.0219C5.20812 20.873 5.13371 20.7919 4.98491 20.7378C3.40895 20.1899 1.83299 19.6353 0.257024 19.0806C0.19615 19.0604 0.128512 19.0333 0 18.9318C0.108221 18.8574 0.236733 18.7898 0.331426 18.6951C1.0078 18.0255 1.68418 17.3424 2.36733 16.6727C2.44173 16.5983 2.59053 16.5578 2.69199 16.5713C3.73361 16.7336 4.77523 16.9095 5.81686 17.0718C5.91155 17.0853 6.06035 17.0447 6.12799 16.9771C7.88658 15.1576 9.63163 13.3314 11.3835 11.512C11.4105 11.4849 11.4376 11.4511 11.4781 11.3902C7.86628 9.17846 4.27471 6.9667 0.649324 4.73465C0.926639 4.4641 1.19043 4.20708 1.44745 3.95682C2.02914 3.37513 2.61759 2.80697 3.18574 2.21176C3.34131 2.04943 3.46306 2.0359 3.66597 2.10354C6.86524 3.17222 10.0713 4.22737 13.2773 5.28928C14.2242 5.60042 15.1712 5.91155 16.1113 6.23621C16.3075 6.30385 16.4292 6.27679 16.5713 6.12123C18.1878 4.42352 19.8179 2.7461 21.4277 1.04162C21.9079 0.527575 22.4558 0.14204 23.1592 0C23.3824 0 23.5989 0 23.8221 0C23.8762 0.0135276 23.9303 0.0405827 23.9912 0.0473465C24.654 0.189386 25.2019 0.520812 25.5604 1.09573C25.7633 1.42716 25.8647 1.8127 26.0068 2.17794C26 2.40114 26 2.62435 26 2.84079Z" fill="#FFA510"/>
</svg>
