<?xml version="1.0" encoding="UTF-8"?> <svg xmlns="http://www.w3.org/2000/svg" width="50" height="52" viewBox="0 0 50 52" fill="none"><path fill-rule="evenodd" clip-rule="evenodd" d="M23.4682 33.4796C21.6041 33.5797 19.7643 33.8512 18.0309 34.2945C16.7742 31.855 16.0403 29.1392 15.9172 26.3069H24.2851V31.2395C23.7968 31.5219 23.4682 32.05 23.4682 32.6548V33.4796ZM25.9191 31.0208V26.3069H34.2928C34.2223 27.9263 33.9519 29.5075 33.4982 31.0208H25.9191ZM35.1986 31.0208C35.6157 29.5007 35.8636 27.921 35.9282 26.3069H42.1885C42.1059 28.0612 41.759 29.7465 41.1865 31.3238C40.8213 31.1304 40.4055 31.0208 39.9649 31.0208H35.1986ZM23.4682 40.7687C21.6235 39.3651 20.0723 37.6627 18.8639 35.7504C20.3405 35.3968 21.8944 35.1746 23.4682 35.0839V40.7687ZM18.6153 9.65784C20.0063 9.08707 21.489 8.69431 23.0351 8.50804C20.6947 10.1732 18.7117 12.3102 17.2265 14.7782C16.7154 14.6139 16.2172 14.4325 15.7348 14.2337L18.6153 9.65784ZM14.8562 15.6296C15.3658 15.8457 15.8925 16.0437 16.4331 16.2232C15.1554 18.7869 14.392 21.6489 14.2794 24.6729H8.01579C8.1412 22.0067 8.8774 19.5 10.0877 17.2894C10.2653 17.3451 10.452 17.3761 10.6427 17.3798L12.5941 17.4179C13.2908 17.4315 13.9437 17.0793 14.3149 16.4896L14.8562 15.6296ZM27.1748 8.50875C30.8924 8.95799 34.2432 10.6005 36.8327 13.0418C35.6833 13.7499 34.3808 14.3286 32.9811 14.7779C31.4957 12.3104 29.5131 10.1738 27.1748 8.50875ZM37.9817 14.2343C40.4458 17.0515 42.0008 20.6838 42.1885 24.6729H35.9306C35.8179 21.6489 35.0534 18.7868 33.7749 16.2231C35.2658 15.728 36.6498 15.0943 37.867 14.3221C37.9085 14.2958 37.9467 14.2664 37.9817 14.2343ZM23.0241 42.4704C19.3116 42.0205 15.965 40.3806 13.3775 37.9437C14.5257 37.2357 15.827 36.6571 17.2257 36.2078C18.6841 38.6407 20.6446 40.7781 23.0241 42.4704ZM12.2279 36.7516C9.76076 33.9337 8.20359 30.2989 8.01579 26.3069H14.2818C14.4015 29.2966 15.1486 32.168 16.4352 34.7617C14.9439 35.257 13.5597 35.8909 12.3428 36.6637C12.3013 36.69 12.263 36.7196 12.2279 36.7516ZM18.0286 16.6906C20.0154 17.1988 22.1423 17.4815 24.2851 17.5388V24.6729H15.9146C16.0306 21.8073 16.781 19.1009 18.0286 16.6906ZM24.2851 9.62832V15.937C22.4337 15.8838 20.5961 15.65 18.8647 15.2354C20.2708 13.0183 22.1196 11.1074 24.2851 9.62832ZM31.3429 15.2351C29.6101 15.65 27.7714 15.8839 25.9191 15.937V9.62485C28.0849 11.1044 29.9352 13.0164 31.3429 15.2351ZM34.2955 24.6729H25.9191V17.5388C28.0629 17.4816 30.1912 17.1988 32.1794 16.6903C33.4278 19.1007 34.1793 21.8072 34.2955 24.6729ZM3.85767 9.26058L0 5.99093C1.18513 5.14637 3.06939 5.37349 3.93365 6.01319L6.26184 7.7362L4.2152 9.0449L4.21439 9.04541C4.08827 9.10821 3.96919 9.18031 3.85767 9.26058ZM11.0545 4.6715C8.55347 3.01916 7.30298 2.19299 7.30298 2.19299C8.35188 1.3847 8.87628 0.980495 8.87628 0.980495C10.9436 1.72262 12.641 2.33188 13.9683 2.80828L11.0545 4.6715ZM12.3484 9.48933C10.0047 10.4827 7.73598 11.4409 5.74673 12.2683C5.25512 12.4728 4.68548 12.2379 4.48093 11.7462C4.27658 11.2545 4.51136 10.6849 5.00318 10.4804L17.5447 2.46076C23.5871 -1.40304 26.828 3.39069 24.1583 4.50106C22.4111 5.22777 20.4483 6.05547 18.4084 6.91922L12.9321 15.6191C12.8661 15.724 12.75 15.7867 12.626 15.7843L10.6745 15.7462C10.5615 15.744 10.4563 15.6878 10.3916 15.595C10.3268 15.5023 10.3105 15.3841 10.3473 15.2773L12.3484 9.48933ZM49.6115 44.6144V47.2815C49.6115 47.6897 49.2786 48.0228 48.8703 48.0228H48.7465C48.3059 46.526 46.9218 45.4335 45.2824 45.4335C43.643 45.4335 42.2589 46.526 41.8183 48.0228H41.7702V35.8263H46.4144C46.9352 35.8263 47.3793 36.104 47.5676 36.5473L49.5278 41.1628C49.5858 41.2994 49.6115 41.4246 49.6115 41.5711V42.9805H47.9488C47.4979 42.9805 47.1318 43.3465 47.1318 43.7975C47.1318 44.2483 47.4979 44.6144 47.9488 44.6144H49.6115ZM46.9536 40.6967C47.0047 40.6967 47.0523 40.6711 47.0805 40.6285C47.1087 40.5859 47.1137 40.5321 47.0936 40.4851L46.0142 37.9435C45.9904 37.8873 45.9353 37.8508 45.8742 37.8508H43.335C43.2947 37.8508 43.256 37.8668 43.2274 37.8954C43.1989 37.9239 43.1829 37.9626 43.1829 38.0029V40.5446C43.1829 40.5849 43.1989 40.6236 43.2274 40.6522C43.256 40.6807 43.2947 40.6967 43.335 40.6967H46.9536ZM40.1362 48.0228H34.5292C34.0887 46.526 32.7045 45.4335 31.0651 45.4335C29.4257 45.4335 28.0416 46.526 27.601 48.0228H26.0904C25.5461 48.0228 25.1022 47.5787 25.1022 47.0344V33.3548C25.1022 32.9682 25.4156 32.6548 25.8022 32.6548H39.9649C40.0233 32.6548 40.0806 32.6599 40.1362 32.6697V48.0228ZM45.2824 47.0674C46.3741 47.0674 47.259 47.9523 47.259 49.044C47.259 50.1356 46.3741 51.0205 45.2824 51.0205C44.1907 51.0205 43.3058 50.1356 43.3058 49.044C43.3058 47.9523 44.1907 47.0674 45.2824 47.0674ZM45.2824 48.3705C44.9102 48.3705 44.609 48.6718 44.609 49.044C44.609 49.4161 44.9102 49.7174 45.2824 49.7174C45.6545 49.7174 45.9558 49.4161 45.9558 49.044C45.9558 48.6718 45.6545 48.3705 45.2824 48.3705ZM31.0651 47.0674C32.1567 47.0674 33.0417 47.9523 33.0417 49.044C33.0417 50.1356 32.1567 51.0205 31.0651 51.0205C29.9734 51.0205 29.0885 50.1356 29.0885 49.044C29.0885 47.9523 29.9734 47.0674 31.0651 47.0674ZM31.0651 48.3705C30.6929 48.3705 30.3917 48.6718 30.3917 49.044C30.3917 49.4161 30.6929 49.7174 31.0651 49.7174C31.4373 49.7174 31.7385 49.4161 31.7385 49.044C31.7385 48.6718 31.4373 48.3705 31.0651 48.3705Z" fill="#E9852A"></path></svg> 