<svg width="28" height="28" viewBox="0 0 28 28" fill="none" xmlns="http://www.w3.org/2000/svg">
<path d="M0 0.939515C0.258915 0.23034 0.776745 -0.0208261 1.50911 0.00133561C2.50778 0.0308846 3.50645 0.00872286 4.50512 0.00872286C5.31886 0.00872286 5.67394 0.267276 5.93285 1.04294C6.25835 2.02544 6.58384 3.00056 6.91673 3.98306C7.11647 4.58881 7.33839 4.74394 7.97459 4.74394C14.1812 4.74394 20.3803 4.74394 26.5869 4.74394C26.7718 4.74394 26.9642 4.73656 27.1343 4.78088C27.8149 4.95079 28.1626 5.6378 27.9258 6.35436C27.5264 7.56587 27.1269 8.76999 26.72 9.97411C26.0986 11.8357 25.4772 13.6973 24.8559 15.5589C24.6117 16.2902 24.2493 16.5561 23.4873 16.5561C19.4112 16.5561 15.3352 16.5561 11.2517 16.5561C10.5341 16.5561 10.364 16.6891 10.1865 17.3761C10.1273 17.6199 10.0533 17.8563 10.0015 18.1001C9.90535 18.5359 10.1495 18.8684 10.5933 18.9201C10.7043 18.9348 10.8153 18.9274 10.9262 18.9274C15.4905 18.9274 20.0622 18.9274 24.6265 18.9274C24.8337 18.9274 25.0556 18.9348 25.2553 19.0013C25.7953 19.1786 26.0986 19.7179 26.0099 20.3015C25.9359 20.826 25.4699 21.2397 24.9224 21.2766C24.8485 21.284 24.7745 21.284 24.7005 21.284C20.0474 21.284 15.4018 21.284 10.7487 21.284C9.20998 21.284 7.99678 20.3162 7.67868 18.8388C7.57512 18.366 7.60471 17.9006 7.72307 17.4426C8.27789 15.3077 8.2409 15.4628 7.56032 13.4166C6.4137 9.97411 5.26707 6.53166 4.11305 3.08182C3.93551 2.54255 3.69879 2.38003 3.12917 2.38003C2.57436 2.38003 2.01954 2.35787 1.46472 2.38741C0.739757 2.42435 0.236722 2.13625 0 1.43446C0 1.27194 0 1.10203 0 0.939515Z" fill="#FF5502"/>
<path d="M9.09584 27.2007C8.87392 27.1194 8.64459 27.0603 8.43006 26.9569C7.3944 26.4546 6.87657 25.2948 7.19467 24.1941C7.51276 23.0712 8.55582 22.3768 9.75423 22.4876C10.8121 22.5837 11.7368 23.5292 11.8182 24.5856C11.9069 25.7897 11.2042 26.8092 10.0797 27.1194C9.99095 27.1416 9.90958 27.1711 9.8208 27.2007C9.57668 27.2007 9.33996 27.2007 9.09584 27.2007Z" fill="#FF5502"/>
<path d="M23.299 27.2007C23.077 27.1194 22.8477 27.0603 22.6332 26.9569C21.5975 26.4546 21.0797 25.2948 21.3978 24.1941C21.7159 23.0712 22.7589 22.3768 23.9574 22.4876C25.0152 22.5837 25.9399 23.5292 26.0213 24.5856C26.11 25.7897 25.4073 26.8092 24.2828 27.1194C24.1941 27.1416 24.1127 27.1711 24.0239 27.2007C23.7798 27.2007 23.5431 27.2007 23.299 27.2007Z" fill="#FF5502"/>
</svg>
