<svg width="27" height="27" viewBox="0 0 27 27" fill="none" xmlns="http://www.w3.org/2000/svg">
<path d="M16.4399 0.0070301C18.788 1.47632 21.1431 2.93858 23.4911 4.40787C23.8989 4.66096 24.0395 4.97028 23.941 5.34991C23.8075 5.83499 23.2872 6.08104 22.8373 5.84905C22.6686 5.76468 22.5069 5.65923 22.296 5.53269C22.296 5.6522 22.296 5.74359 22.296 5.83499C22.296 7.63469 22.296 9.4344 22.296 11.2341C22.296 11.8809 22.0007 12.1832 21.3469 12.1832C20.5314 12.1832 19.7159 12.1832 18.8723 12.1832C18.8723 12.0707 18.8723 11.9723 18.8723 11.8809C18.8723 10.2007 18.8723 8.52752 18.8723 6.84732C18.8723 6.18649 18.5841 5.89826 17.9303 5.89826C16.7914 5.89826 15.6455 5.89826 14.5066 5.89826C13.902 5.89826 13.6068 6.20055 13.6068 6.80514C13.6068 8.49236 13.6068 10.1796 13.6068 11.8668C13.6068 11.9582 13.6068 12.0566 13.6068 12.1691C13.5084 12.1761 13.431 12.1832 13.3607 12.1832C12.6085 12.1832 11.8493 12.1832 11.097 12.1832C10.4924 12.1832 10.1831 11.8809 10.1831 11.2833C10.1831 9.47658 10.1831 7.66281 10.1831 5.85608C10.1831 5.76468 10.1831 5.66626 10.1831 5.53269C10.0355 5.61705 9.93003 5.68735 9.81755 5.75062C9.33248 6.03886 8.86849 5.96856 8.62244 5.56081C8.36935 5.15307 8.51698 4.69611 8.988 4.40084C10.3308 3.56426 11.6665 2.72768 13.0092 1.8911C13.9231 1.32166 14.837 0.745191 15.751 0.168722C15.8494 0.105452 15.9478 0.0562408 16.0462 0C16.1587 0.0070301 16.2993 0.0070301 16.4399 0.0070301Z" fill="#ED57DE"/>
<path d="M26.985 16.4083C26.8374 16.8231 26.528 17.0902 26.1765 17.3363C24.412 18.5806 22.6474 19.832 20.8969 21.0904C19.4487 22.1308 17.8388 22.6651 16.0532 22.7003C14.2254 22.7354 12.3975 22.8057 10.5767 22.876C10.3869 22.883 10.3237 22.8198 10.2674 22.6511C9.48004 20.3241 8.67861 18.0042 7.87718 15.6842C7.82797 15.5436 7.86312 15.4874 7.9756 15.41C9.66985 14.2782 12.6576 13.9478 14.5909 15.9725C14.7878 16.1763 15.0198 16.2607 15.301 16.2537C16.3695 16.2466 17.4451 16.2466 18.5137 16.2537C19.055 16.2537 19.4909 16.6473 19.5542 17.1535C19.6245 17.7089 19.3011 18.201 18.7668 18.3275C18.6403 18.3557 18.5067 18.3627 18.3731 18.3627C16.8195 18.3627 15.2658 18.3627 13.7051 18.3627C13.2271 18.3627 12.8967 18.6298 12.8404 19.0376C12.7772 19.5086 13.1076 19.9304 13.5786 19.9374C15.2939 19.9445 17.0093 19.9585 18.7176 19.9304C19.751 19.9093 20.679 19.129 21.0235 18.1166C21.0657 17.9901 21.1641 17.8495 21.2766 17.7792C22.5209 16.9356 23.7652 16.106 25.0166 15.2694C25.825 14.7281 26.5702 14.9531 26.9428 15.8459C26.9498 15.86 26.9709 15.867 26.978 15.8811C26.985 16.0568 26.985 16.2326 26.985 16.4083Z" fill="#ED57DE"/>
<path d="M5.57917 15.7052C6.01503 15.7052 6.28218 15.9091 6.41575 16.3028C6.87271 17.6314 7.32263 18.9531 7.77959 20.2818C8.21546 21.5613 8.65132 22.8337 9.08719 24.1132C9.30512 24.76 9.12937 25.1326 8.4826 25.3575C6.95707 25.8848 5.41747 26.405 3.88491 26.9323C3.35062 27.1151 2.94991 26.9252 2.76009 26.391C1.86024 23.7547 0.960388 21.1254 0.0675648 18.4962C-0.115218 17.9548 0.0745949 17.5611 0.615913 17.3784C2.19066 16.837 3.7654 16.2957 5.34014 15.7614C5.43856 15.7333 5.54402 15.7193 5.57917 15.7052ZM3.89897 18.2923C3.46311 18.2923 3.10457 18.6368 3.10457 19.0656C3.10457 19.4944 3.45607 19.86 3.88491 19.867C4.30672 19.8741 4.67931 19.5085 4.68634 19.0796C4.68634 18.6508 4.33484 18.2993 3.89897 18.2923Z" fill="#ED57DE"/>
<path d="M15.1992 7.49393C15.8882 7.49393 16.5701 7.49393 17.2731 7.49393C17.2731 9.04758 17.2731 10.5942 17.2731 12.1619C16.5912 12.1619 15.9093 12.1619 15.1992 12.1619C15.1992 10.6153 15.1992 9.06164 15.1992 7.49393Z" fill="#ED57DE"/>
</svg>
