<svg width="572" height="374" viewBox="0 0 572 374" fill="none" xmlns="http://www.w3.org/2000/svg">
<rect width="572" height="374" fill="#091B36"/>
<g opacity="0.8">
<g opacity="0.6" filter="url(#filter0_f_12244_19803)">
<ellipse cx="286.5" cy="257.5" rx="159.5" ry="95.5" fill="#15C1E6"/>
</g>
</g>
<path d="M407.636 191.779H170.153C164.638 191.779 160.168 196.244 160.168 201.752V361.771C160.168 367.279 164.638 371.744 170.153 371.744H407.636C413.151 371.744 417.621 367.279 417.621 361.771V201.752C417.621 196.244 413.151 191.779 407.636 191.779Z" fill="#303B45"/>
<path d="M403.016 204.639H172.729V349.591H403.016V204.639Z" fill="#5F6B7B"/>
<path d="M434.655 361.362C434.655 360.363 433.917 359.554 433.007 359.554H288.779H144.55C143.64 359.554 142.902 360.363 142.902 361.362V369.874C142.902 370.872 143.64 371.682 144.55 371.682H433.007C433.917 371.682 434.655 370.872 434.655 369.874V361.362Z" fill="#42505D"/>
<path d="M261.646 359.554H316.224V359.997C316.224 361.309 315.735 362.567 314.866 363.495C313.997 364.423 312.818 364.944 311.589 364.944H266.292C265.063 364.944 263.884 364.423 263.015 363.495C262.146 362.567 261.658 361.309 261.658 359.997V359.554H261.646Z" fill="#303B45"/>
<g filter="url(#filter1_d_12244_19803)">
<g filter="url(#filter2_d_12244_19803)">
<path d="M170.469 204.759C170.469 201.689 172.957 199.2 176.027 199.2L401.339 199.2C404.408 199.2 406.897 201.689 406.897 204.759V348.224C406.897 351.297 404.406 353.788 401.333 353.788H176.033C172.96 353.788 170.469 351.297 170.469 348.224V204.759Z" fill="url(#paint0_linear_12244_19803)"/>
</g>
<path d="M170.469 215.114H406.897" stroke="#091B36" stroke-width="0.568337"/>
<rect x="209.416" y="225.906" width="97.5328" height="3.97422" fill="#7879F1"/>
<rect x="251.701" y="312.704" width="97.5328" height="3.97422" fill="#FECE4D"/>
<rect x="189.492" y="225.906" width="6.39559" height="3.97422" fill="#3D7FFC"/>
<rect x="189.492" y="312.704" width="6.39559" height="3.97422" fill="#3D7FFC"/>
<rect x="243.857" y="234.649" width="97.5328" height="3.97422" fill="#FECE4D"/>
<rect x="283.916" y="321.447" width="97.5328" height="3.97422" fill="#FECE4D"/>
<rect x="347.785" y="234.649" width="19.1868" height="3.97422" fill="#7879F1"/>
<rect x="260.605" y="321.447" width="19.1868" height="3.97422" fill="#15C1E6"/>
<rect x="243.857" y="243.393" width="35.1758" height="3.97422" fill="#15C1E6"/>
<rect x="228.334" y="330.19" width="35.1758" height="3.97422" fill="#FECE4D"/>
<rect x="287.023" y="243.393" width="25.5824" height="3.97422" fill="#7879F1"/>
<rect x="271.5" y="330.19" width="25.5824" height="3.97422" fill="#7879F1"/>
<rect x="320.602" y="243.394" width="36.7747" height="3.97422" fill="#FECE4D"/>
<rect x="305.078" y="330.19" width="36.7747" height="3.97422" fill="#FECE4D"/>
<rect x="277.424" y="252.137" width="70.3515" height="3.97422" fill="#FECE4D"/>
<rect x="319.848" y="338.934" width="70.3515" height="3.97422" fill="#FECE4D"/>
<rect x="258.242" y="252.137" width="11.1923" height="3.97422" fill="#7879F1"/>
<rect x="300.664" y="338.934" width="11.1923" height="3.97422" fill="#7879F1"/>
<rect x="258.379" y="260.881" width="54.3625" height="3.97422" fill="#FECE4D"/>
<rect x="189.492" y="234.649" width="6.39559" height="3.97422" fill="#3D7FFC"/>
<rect x="189.492" y="321.447" width="6.39559" height="3.97422" fill="#3D7FFC"/>
<rect x="189.492" y="243.394" width="6.39559" height="3.97422" fill="#3D7FFC"/>
<rect x="189.492" y="330.19" width="6.39559" height="3.97422" fill="#3D7FFC"/>
<rect x="189.492" y="252.137" width="6.39559" height="3.97422" fill="#3D7FFC"/>
<rect x="189.492" y="338.934" width="6.39559" height="3.97422" fill="#3D7FFC"/>
<rect x="189.492" y="260.881" width="6.39559" height="3.97422" fill="#3D7FFC"/>
<rect x="239.461" y="269.306" width="97.5328" height="3.97422" fill="#7879F1"/>
<rect x="189.492" y="269.306" width="6.39559" height="3.97422" fill="#3D7FFC"/>
<rect x="243.857" y="278.048" width="97.5328" height="3.97422" fill="#FECE4D"/>
<rect x="347.785" y="278.048" width="19.1868" height="3.97422" fill="#15C1E6"/>
<rect x="243.857" y="286.793" width="35.1758" height="3.97422" fill="#15C1E6"/>
<rect x="287.023" y="286.793" width="25.5824" height="3.97422" fill="#7879F1"/>
<rect x="320.602" y="286.793" width="36.7747" height="3.97422" fill="#FECE4D"/>
<rect x="277.424" y="295.536" width="70.3515" height="3.97422" fill="#FECE4D"/>
<rect x="258.242" y="295.536" width="11.1923" height="3.97422" fill="#7879F1"/>
<rect x="219.865" y="304.278" width="54.3625" height="3.97422" fill="#FECE4D"/>
<rect x="189.492" y="278.048" width="6.39559" height="3.97422" fill="#3D7FFC"/>
<rect x="189.492" y="286.793" width="6.39559" height="3.97422" fill="#3D7FFC"/>
<rect x="189.492" y="295.536" width="6.39559" height="3.97422" fill="#3D7FFC"/>
<rect x="189.492" y="304.278" width="6.39559" height="3.97422" fill="#3D7FFC"/>
<path d="M181.802 207.2C181.803 207.66 181.668 208.109 181.412 208.492C181.157 208.874 180.794 209.172 180.369 209.349C179.944 209.525 179.476 209.572 179.024 209.483C178.572 209.394 178.156 209.174 177.83 208.849C177.504 208.525 177.282 208.111 177.192 207.661C177.101 207.211 177.147 206.743 177.323 206.319C177.499 205.895 177.798 205.532 178.18 205.276C178.563 205.021 179.014 204.885 179.474 204.885C180.089 204.889 180.678 205.134 181.113 205.567C181.549 206.001 181.796 206.587 181.802 207.2Z" fill="#F66058"/>
<path d="M191.597 207.2C191.598 207.66 191.462 208.11 191.207 208.492C190.952 208.875 190.588 209.173 190.163 209.35C189.737 209.526 189.269 209.572 188.816 209.483C188.364 209.394 187.949 209.172 187.623 208.847C187.297 208.522 187.076 208.108 186.986 207.658C186.896 207.207 186.943 206.74 187.12 206.315C187.297 205.891 187.596 205.528 187.979 205.274C188.363 205.019 188.814 204.884 189.275 204.885C189.58 204.883 189.883 204.942 190.165 205.058C190.448 205.174 190.704 205.344 190.92 205.56C191.136 205.775 191.307 206.031 191.423 206.313C191.539 206.594 191.598 206.896 191.597 207.2Z" fill="#F9BD2E"/>
<path d="M201.626 207.2C201.627 207.66 201.492 208.109 201.237 208.492C200.982 208.874 200.618 209.172 200.193 209.349C199.768 209.525 199.3 209.572 198.848 209.483C198.396 209.394 197.981 209.174 197.654 208.849C197.328 208.525 197.106 208.111 197.016 207.661C196.926 207.211 196.971 206.743 197.147 206.319C197.323 205.895 197.622 205.532 198.005 205.276C198.388 205.021 198.838 204.885 199.298 204.885C199.914 204.889 200.502 205.134 200.938 205.567C201.373 206.001 201.62 206.587 201.626 207.2Z" fill="#3CC840"/>
</g>
<mask id="path-52-outside-1_12244_19803" maskUnits="userSpaceOnUse" x="363.486" y="63.5527" width="81" height="53" fill="black">
<rect fill="white" x="363.486" y="63.5527" width="81" height="53"/>
<path fill-rule="evenodd" clip-rule="evenodd" d="M443.032 97.7441C443.032 88.7548 436.653 81.3308 428.39 80.1964C427.217 71.3568 419.992 64.5527 411.255 64.5527C405.242 64.5527 399.946 67.7746 396.845 72.6645C395.003 69.6957 391.814 67.7332 388.189 67.7332C382.487 67.7332 377.865 72.5891 377.865 78.5791C377.865 79.2059 377.916 79.8202 378.013 80.4179C370.3 82.0274 364.486 89.1806 364.486 97.7614C364.486 107.527 372.017 115.444 381.306 115.444C381.45 115.444 381.594 115.442 381.737 115.438V115.443H410.177C410.22 115.444 410.262 115.444 410.305 115.444C410.348 115.444 410.391 115.444 410.433 115.443H426.59V115.437C435.707 115.211 443.032 107.376 443.032 97.7441Z"/>
</mask>
<path d="M428.39 80.1964L427.399 80.3279L427.499 81.0835L428.254 81.1871L428.39 80.1964ZM396.845 72.6645L395.995 73.1918L396.836 74.5464L397.689 73.2001L396.845 72.6645ZM378.013 80.4179L378.217 81.3968L379.153 81.2014L379 80.2574L378.013 80.4179ZM381.737 115.438H382.737V114.411L381.711 114.438L381.737 115.438ZM381.737 115.443H380.737V116.443H381.737V115.443ZM410.177 115.443L410.184 114.443H410.177V115.443ZM410.433 115.443V114.443L410.427 114.443L410.433 115.443ZM426.59 115.443V116.443H427.59V115.443H426.59ZM426.59 115.437L426.565 114.437L425.59 114.461V115.437H426.59ZM428.254 81.1871C435.991 82.2494 442.032 89.2233 442.032 97.7441H444.032C444.032 88.2862 437.314 80.4122 428.526 79.2057L428.254 81.1871ZM411.255 65.5527C419.447 65.5527 426.286 71.9406 427.399 80.3279L429.381 80.0649C428.148 70.7729 420.538 63.5527 411.255 63.5527V65.5527ZM397.689 73.2001C400.623 68.5744 405.613 65.5527 411.255 65.5527V63.5527C404.871 63.5527 399.269 66.9748 396 72.129L397.689 73.2001ZM388.189 68.7332C391.439 68.7332 394.32 70.4913 395.995 73.1918L397.695 72.1373C395.686 68.9001 392.189 66.7332 388.189 66.7332V68.7332ZM378.865 78.5791C378.865 73.0943 383.086 68.7332 388.189 68.7332V66.7332C381.889 66.7332 376.865 72.0838 376.865 78.5791H378.865ZM379 80.2574C378.911 79.7127 378.865 79.152 378.865 78.5791H376.865C376.865 79.2598 376.92 79.9278 377.026 80.5783L379 80.2574ZM365.486 97.7614C365.486 89.6295 370.992 82.9046 378.217 81.3968L377.809 79.439C369.609 81.1502 363.486 88.7317 363.486 97.7614H365.486ZM381.306 114.444C372.616 114.444 365.486 107.022 365.486 97.7614H363.486C363.486 108.032 371.418 116.444 381.306 116.444V114.444ZM381.711 114.438C381.576 114.442 381.441 114.444 381.306 114.444V116.444C381.459 116.444 381.612 116.442 381.764 116.438L381.711 114.438ZM382.737 115.443V115.438H380.737V115.443H382.737ZM410.177 114.443H381.737V116.443H410.177V114.443ZM410.305 114.444C410.265 114.444 410.224 114.444 410.184 114.443L410.17 116.443C410.215 116.444 410.26 116.444 410.305 116.444V114.444ZM410.427 114.443C410.386 114.444 410.346 114.444 410.305 114.444V116.444C410.35 116.444 410.395 116.444 410.44 116.443L410.427 114.443ZM426.59 114.443H410.433V116.443H426.59V114.443ZM425.59 115.437V115.443H427.59V115.437H425.59ZM442.032 97.7441C442.032 106.878 435.097 114.226 426.565 114.437L426.615 116.437C436.317 116.197 444.032 107.875 444.032 97.7441H442.032Z" fill="#00E0FF" mask="url(#path-52-outside-1_12244_19803)"/>
<path d="M390.322 83.7305C390.322 82.7937 391.082 82.0342 392.019 82.0342H414.121C415.058 82.0342 415.818 82.7937 415.818 83.7305V87.0662H390.322V83.7305Z" fill="white"/>
<path d="M415.82 105.162C415.82 106.099 415.061 106.858 414.124 106.858L392.021 106.858C391.084 106.858 390.325 106.099 390.325 105.162L390.325 88.4077L415.82 88.4077L415.82 105.162Z" fill="white"/>
<path d="M393 84.5228C393 84.0739 393.364 83.71 393.813 83.71C394.262 83.71 394.626 84.0739 394.626 84.5228C394.626 84.9718 394.262 85.3357 393.813 85.3357C393.364 85.3357 393 84.9718 393 84.5228Z" fill="#091B36"/>
<path d="M395.711 84.5228C395.711 84.0739 396.075 83.71 396.524 83.71C396.973 83.71 397.337 84.0739 397.337 84.5228C397.337 84.9718 396.973 85.3357 396.524 85.3357C396.075 85.3357 395.711 84.9718 395.711 84.5228Z" fill="#091B36"/>
<path d="M398.42 84.5228C398.42 84.0739 398.784 83.71 399.233 83.71C399.682 83.71 400.046 84.0739 400.046 84.5228C400.046 84.9718 399.682 85.3357 399.233 85.3357C398.784 85.3357 398.42 84.9718 398.42 84.5228Z" fill="#091B36"/>
<path fill-rule="evenodd" clip-rule="evenodd" d="M398.718 92.9521L399.641 93.8271L396.239 97.4185L399.641 101.01L398.718 101.885L394.486 97.4185L398.718 92.9521Z" fill="#091B36"/>
<path fill-rule="evenodd" clip-rule="evenodd" d="M407.698 101.886L406.775 101.011L410.177 97.4194L406.775 93.8281L407.698 92.9531L411.93 97.4194L407.698 101.886Z" fill="#091B36"/>
<path fill-rule="evenodd" clip-rule="evenodd" d="M400.268 103.381L404.084 91.082L405.299 91.4591L401.483 103.758L400.268 103.381Z" fill="#091B36"/>
<mask id="path-62-outside-2_12244_19803" maskUnits="userSpaceOnUse" x="256.406" y="1" width="81" height="53" fill="black">
<rect fill="white" x="256.406" y="1" width="81" height="53"/>
<path fill-rule="evenodd" clip-rule="evenodd" d="M335.952 35.1913C335.952 26.202 329.573 18.7781 321.31 17.6437C320.137 8.80403 312.912 2 304.175 2C298.162 2 292.866 5.22186 289.765 10.1118C287.923 7.14298 284.734 5.18044 281.109 5.18044C275.407 5.18044 270.785 10.0363 270.785 16.0264C270.785 16.6532 270.836 17.2675 270.933 17.8652C263.22 19.4747 257.406 26.6279 257.406 35.2086C257.406 44.9743 264.937 52.8909 274.226 52.8909C274.37 52.8909 274.514 52.889 274.657 52.8852V52.8906H303.097C303.14 52.8909 303.182 52.891 303.225 52.891C303.268 52.891 303.311 52.8909 303.353 52.8906H319.51V52.8841C328.627 52.6586 335.952 44.8236 335.952 35.1913Z"/>
</mask>
<path d="M321.31 17.6437L320.319 17.7752L320.419 18.5307L321.174 18.6344L321.31 17.6437ZM289.765 10.1118L288.915 10.639L289.756 11.9937L290.609 10.6474L289.765 10.1118ZM270.933 17.8652L271.137 18.8441L272.073 18.6487L271.92 17.7047L270.933 17.8652ZM274.657 52.8852H275.657V51.8584L274.631 51.8856L274.657 52.8852ZM274.657 52.8906H273.657V53.8906H274.657V52.8906ZM303.097 52.8906L303.104 51.8906H303.097V52.8906ZM303.353 52.8906V51.8906L303.346 51.8906L303.353 52.8906ZM319.51 52.8906V53.8906H320.51V52.8906H319.51ZM319.51 52.8841L319.485 51.8844L318.51 51.9086V52.8841H319.51ZM321.174 18.6344C328.911 19.6966 334.952 26.6706 334.952 35.1913H336.952C336.952 25.7335 330.234 17.8595 321.446 16.653L321.174 18.6344ZM304.175 3C312.367 3 319.206 9.38788 320.319 17.7752L322.301 17.5121C321.068 8.22018 313.458 1 304.175 1V3ZM290.609 10.6474C293.543 6.02163 298.533 3 304.175 3V1C297.791 1 292.189 4.42209 288.92 9.57628L290.609 10.6474ZM281.109 6.18044C284.359 6.18044 287.24 7.9386 288.915 10.639L290.615 9.5846C288.606 6.34736 285.109 4.18044 281.109 4.18044V6.18044ZM271.785 16.0264C271.785 10.5416 276.005 6.18044 281.109 6.18044V4.18044C274.809 4.18044 269.785 9.53108 269.785 16.0264H271.785ZM271.92 17.7047C271.831 17.16 271.785 16.5993 271.785 16.0264H269.785C269.785 16.7071 269.84 17.3751 269.946 18.0256L271.92 17.7047ZM258.406 35.2086C258.406 27.0768 263.912 20.3519 271.137 18.8441L270.728 16.8863C262.529 18.5974 256.406 26.179 256.406 35.2086H258.406ZM274.226 51.8909C265.536 51.8909 258.406 44.4697 258.406 35.2086H256.406C256.406 45.4789 264.338 53.8909 274.226 53.8909V51.8909ZM274.631 51.8856C274.496 51.8891 274.361 51.8909 274.226 51.8909V53.8909C274.379 53.8909 274.531 53.8889 274.684 53.8849L274.631 51.8856ZM275.657 52.8906V52.8852H273.657V52.8906H275.657ZM303.097 51.8906H274.657V53.8906H303.097V51.8906ZM303.225 51.891C303.185 51.891 303.144 51.8909 303.104 51.8906L303.09 53.8906C303.135 53.8909 303.18 53.891 303.225 53.891V51.891ZM303.346 51.8906C303.306 51.8909 303.266 51.891 303.225 51.891V53.891C303.27 53.891 303.315 53.8909 303.36 53.8906L303.346 51.8906ZM319.51 51.8906H303.353V53.8906H319.51V51.8906ZM318.51 52.8841V52.8906H320.51V52.8841H318.51ZM334.952 35.1913C334.952 44.325 328.017 51.6734 319.485 51.8844L319.534 53.8838C329.237 53.6439 336.952 45.3223 336.952 35.1913H334.952Z" fill="#00E0FF" mask="url(#path-62-outside-2_12244_19803)"/>
<mask id="mask0_12244_19803" style="mask-type:alpha" maskUnits="userSpaceOnUse" x="278" y="13" width="37" height="37">
<rect x="278.611" y="13.6621" width="36.0474" height="36.0474" fill="#F5EFEF"/>
</mask>
<g mask="url(#mask0_12244_19803)">
<path d="M300.513 15.778C300.688 15.6026 300.973 15.6026 301.148 15.778L310.843 25.4728C311.126 25.7557 310.925 26.2395 310.525 26.2395H291.136C290.735 26.2395 290.535 25.7557 290.818 25.4728L300.513 15.778Z" fill="white"/>
<path fill-rule="evenodd" clip-rule="evenodd" d="M295.844 41.2563L295.843 41.2554L295.845 41.254C297.104 39.9942 297.883 38.2542 297.883 36.3321C297.883 32.9866 295.523 30.1923 292.377 29.523V41.3806C292.377 41.9476 292.829 42.4072 293.387 42.4072H294.693L295.844 41.2563ZM293.553 28.0352C297.073 29.1505 299.623 32.4435 299.623 36.3321C299.623 38.6951 298.679 40.8408 297.152 42.4072H307.535C308.093 42.4072 308.546 41.9476 308.546 41.3806V29.0617C308.546 28.4948 308.093 28.0352 307.535 28.0352H293.553Z" fill="white"/>
<path fill-rule="evenodd" clip-rule="evenodd" d="M285.998 41.2549C284.738 39.995 283.958 38.2543 283.958 36.3314C283.958 32.4867 287.075 29.3699 290.92 29.3699C294.765 29.3699 297.881 32.4867 297.881 36.3314C297.881 38.2542 297.102 39.9949 295.842 41.2547L295.843 41.2556L290.92 46.1782L285.998 41.2556L285.998 41.2549Z" fill="white"/>
</g>
<mask id="path-68-outside-3_12244_19803" maskUnits="userSpaceOnUse" x="147.203" y="63.5527" width="81" height="53" fill="black">
<rect fill="white" x="147.203" y="63.5527" width="81" height="53"/>
<path fill-rule="evenodd" clip-rule="evenodd" d="M226.749 97.7441C226.749 88.7548 220.369 81.3308 212.107 80.1964C210.934 71.3568 203.709 64.5527 194.971 64.5527C188.959 64.5527 183.663 67.7746 180.562 72.6645C178.72 69.6957 175.531 67.7332 171.906 67.7332C166.204 67.7332 161.582 72.5891 161.582 78.5791C161.582 79.2059 161.632 79.8202 161.73 80.4179C154.017 82.0274 148.203 89.1806 148.203 97.7614C148.203 107.527 155.734 115.444 165.023 115.444C165.167 115.444 165.311 115.442 165.454 115.438V115.443H193.894C193.936 115.444 193.979 115.444 194.022 115.444C194.065 115.444 194.108 115.444 194.15 115.443H210.307V115.437C219.424 115.211 226.749 107.376 226.749 97.7441Z"/>
</mask>
<path d="M212.107 80.1964L211.116 80.3279L211.216 81.0835L211.971 81.1871L212.107 80.1964ZM180.562 72.6645L179.712 73.1918L180.553 74.5464L181.406 73.2001L180.562 72.6645ZM161.73 80.4179L161.934 81.3968L162.87 81.2014L162.717 80.2574L161.73 80.4179ZM165.454 115.438H166.454V114.411L165.428 114.438L165.454 115.438ZM165.454 115.443H164.454V116.443H165.454V115.443ZM193.894 115.443L193.901 114.443H193.894V115.443ZM194.15 115.443V114.443L194.143 114.443L194.15 115.443ZM210.307 115.443V116.443H211.307V115.443H210.307ZM210.307 115.437L210.282 114.437L209.307 114.461V115.437H210.307ZM211.971 81.1871C219.708 82.2494 225.749 89.2233 225.749 97.7441H227.749C227.749 88.2862 221.031 80.4122 212.243 79.2057L211.971 81.1871ZM194.971 65.5527C203.164 65.5527 210.003 71.9406 211.116 80.3279L213.098 80.0649C211.865 70.7729 204.254 63.5527 194.971 63.5527V65.5527ZM181.406 73.2001C184.34 68.5744 189.33 65.5527 194.971 65.5527V63.5527C188.588 63.5527 182.986 66.9748 179.717 72.129L181.406 73.2001ZM171.906 68.7332C175.156 68.7332 178.037 70.4913 179.712 73.1918L181.411 72.1373C179.403 68.9001 175.906 66.7332 171.906 66.7332V68.7332ZM162.582 78.5791C162.582 73.0943 166.802 68.7332 171.906 68.7332V66.7332C165.606 66.7332 160.582 72.0838 160.582 78.5791H162.582ZM162.717 80.2574C162.628 79.7127 162.582 79.152 162.582 78.5791H160.582C160.582 79.2598 160.637 79.9278 160.743 80.5783L162.717 80.2574ZM149.203 97.7614C149.203 89.6295 154.709 82.9046 161.934 81.3968L161.525 79.439C153.326 81.1502 147.203 88.7317 147.203 97.7614H149.203ZM165.023 114.444C156.332 114.444 149.203 107.022 149.203 97.7614H147.203C147.203 108.032 155.135 116.444 165.023 116.444V114.444ZM165.428 114.438C165.293 114.442 165.158 114.444 165.023 114.444V116.444C165.176 116.444 165.328 116.442 165.48 116.438L165.428 114.438ZM166.454 115.443V115.438H164.454V115.443H166.454ZM193.894 114.443H165.454V116.443H193.894V114.443ZM194.022 114.444C193.981 114.444 193.941 114.444 193.901 114.443L193.887 116.443C193.932 116.444 193.977 116.444 194.022 116.444V114.444ZM194.143 114.443C194.103 114.444 194.062 114.444 194.022 114.444V116.444C194.067 116.444 194.112 116.444 194.157 116.443L194.143 114.443ZM210.307 114.443H194.15V116.443H210.307V114.443ZM209.307 115.437V115.443H211.307V115.437H209.307ZM225.749 97.7441C225.749 106.878 218.814 114.226 210.282 114.437L210.331 116.437C220.034 116.197 227.749 107.875 227.749 97.7441H225.749Z" fill="#00E0FF" mask="url(#path-68-outside-3_12244_19803)"/>
<mask id="mask1_12244_19803" style="mask-type:alpha" maskUnits="userSpaceOnUse" x="170" y="77" width="34" height="35">
<rect x="170.031" y="77.2754" width="33.9269" height="33.9269" fill="#F5EFEF"/>
</mask>
<g mask="url(#mask1_12244_19803)">
<path fill-rule="evenodd" clip-rule="evenodd" d="M178.514 81.9404C178.046 81.9404 177.666 82.3202 177.666 82.7886V92.9667H184.451C186.794 92.9667 188.692 94.8654 188.692 97.2075V100.6H202.263C202.731 100.6 203.111 100.22 203.111 99.7521V82.7886C203.111 82.3202 202.731 81.9404 202.263 81.9404H178.514ZM186.996 100.6V97.2075C186.996 95.8022 185.857 94.663 184.451 94.663H177.666V99.7521C177.666 100.22 178.046 100.6 178.514 100.6H186.996Z" fill="white"/>
<path d="M181.061 85.7586C181.061 85.0559 181.63 84.4863 182.333 84.4863C183.035 84.4863 183.605 85.0559 183.605 85.7586C183.605 86.4612 183.035 87.0308 182.333 87.0308C181.63 87.0308 181.061 86.4612 181.061 85.7586Z" fill="#091B36"/>
<path d="M185.301 85.7586C185.301 85.0559 185.87 84.4863 186.573 84.4863C187.276 84.4863 187.845 85.0559 187.845 85.7586C187.845 86.4612 187.276 87.0308 186.573 87.0308C185.87 87.0308 185.301 86.4612 185.301 85.7586Z" fill="#091B36"/>
<path d="M189.543 85.7586C189.543 85.0559 190.113 84.4863 190.815 84.4863C191.518 84.4863 192.087 85.0559 192.087 85.7586C192.087 86.4612 191.518 87.0308 190.815 87.0308C190.113 87.0308 189.543 86.4612 189.543 85.7586Z" fill="#091B36"/>
<path d="M173.426 97.2076C173.426 95.8023 174.565 94.6631 175.97 94.6631H184.452C185.857 94.6631 186.997 95.8023 186.997 97.2076V103.993C186.997 105.398 185.857 106.538 184.452 106.538H175.97C174.565 106.538 173.426 105.398 173.426 103.993V97.2076Z" fill="white"/>
<path d="M178.514 98.9044C178.514 97.9675 179.273 97.208 180.21 97.208C181.147 97.208 181.906 97.9675 181.906 98.9044C181.906 99.8412 181.147 100.601 180.21 100.601C179.273 100.601 178.514 99.8412 178.514 98.9044Z" fill="#091B36"/>
<path d="M179.361 98.9048C179.361 98.4364 179.741 98.0566 180.21 98.0566C180.678 98.0566 181.058 98.4364 181.058 98.9048V102.298C181.058 102.766 180.678 103.146 180.21 103.146C179.741 103.146 179.361 102.766 179.361 102.298V98.9048Z" fill="#091B36"/>
<path fill-rule="evenodd" clip-rule="evenodd" d="M178.514 90.8461C178.514 88.7381 176.805 87.0293 174.697 87.0293C172.589 87.0293 170.88 88.7381 170.88 90.8461V92.1183C170.88 92.5868 171.26 92.9665 171.728 92.9665C172.197 92.9665 172.576 92.5868 172.576 92.1183V90.8461C172.576 89.675 173.526 88.7256 174.697 88.7256C175.868 88.7256 176.817 89.675 176.817 90.8461V95.511C176.817 95.9795 177.197 96.3592 177.665 96.3592C178.134 96.3592 178.514 95.9795 178.514 95.511V90.8461Z" fill="white"/>
</g>
<g filter="url(#filter3_bd_12244_19803)">
<rect x="131" y="247" width="65.7334" height="65.7334" rx="9.34051" fill="url(#paint1_linear_12244_19803)" shape-rendering="crispEdges"/>
<rect x="131.795" y="247.795" width="64.1431" height="64.1431" rx="8.54535" stroke="url(#paint2_linear_12244_19803)" stroke-width="1.59032" shape-rendering="crispEdges"/>
</g>
<path d="M178.4 284.393H148.227V282.691C148.227 281.548 149.153 280.621 150.297 280.621H176.33C177.473 280.621 178.4 281.548 178.4 282.691V284.393Z" fill="#DFDEDF"/>
<path d="M176.298 304.128H150.329C149.168 304.128 148.227 303.187 148.227 302.026V284.395H178.4V302.026C178.4 303.187 177.459 304.128 176.298 304.128Z" fill="white"/>
<path d="M178.025 284.052V282.526C178.025 281.625 177.295 280.895 176.394 280.895H150.278C149.377 280.895 148.647 281.625 148.647 282.526V284.052H178.025ZM178.025 302.244V284.736H148.647V302.244C148.647 303.145 149.377 303.875 150.278 303.875H176.394C177.295 303.875 178.025 303.145 178.025 302.244ZM150.431 280.21L150.533 279.101L150.102 280.219C150.16 280.215 150.219 280.21 150.278 280.21H150.431ZM176.061 278.34L176.212 280.21H176.394C176.491 280.21 176.586 280.218 176.68 280.23L176.061 278.34ZM178.133 281.002C178.49 281.41 178.709 281.942 178.709 282.526V302.244C178.709 303.521 177.67 304.559 176.394 304.559H150.278C149.002 304.559 147.963 303.521 147.963 302.244V282.526C147.963 281.907 148.208 281.346 148.605 280.93L150.913 274.947L151.92 263.951L153.056 264.055L152.149 273.962L152.468 274.085L152.035 275.209L151.577 280.21H175.068L173.764 264.027L174.901 263.936L175.67 273.48L175.67 273.48L178.133 281.002ZM150.504 282.01C150.789 282.01 151.021 282.241 151.021 282.527C151.021 282.812 150.789 283.043 150.504 283.043C150.218 283.043 149.987 282.812 149.987 282.527C149.987 282.241 150.218 282.01 150.504 282.01ZM152.27 282.01C152.556 282.01 152.787 282.241 152.787 282.527C152.787 282.812 152.556 283.043 152.27 283.043C151.985 283.043 151.754 282.812 151.754 282.527C151.754 282.241 151.985 282.01 152.27 282.01ZM153.981 282.01C154.266 282.01 154.498 282.241 154.498 282.527C154.498 282.812 154.266 283.043 153.981 283.043C153.696 283.043 153.464 282.812 153.464 282.527C153.464 282.241 153.696 282.01 153.981 282.01Z" fill="black"/>
<path d="M152.29 293.222C152.379 293.119 152.425 292.984 152.425 292.816C152.425 292.649 152.379 292.519 152.29 292.416C152.196 292.314 152.065 292.265 151.897 292.265H151.075V293.373H151.897C152.065 293.373 152.196 293.324 152.29 293.222ZM151.897 291.601C152.252 291.601 152.533 291.709 152.743 291.93C152.953 292.152 153.056 292.449 153.056 292.816C153.056 293.189 152.953 293.481 152.748 293.702C152.537 293.924 152.257 294.037 151.897 294.037H151.075V295.528H150.439V291.601H151.897ZM155.326 294.009V292.864H156.01V295.451H155.326V295.217C155.118 295.425 154.849 295.528 154.512 295.528C154.201 295.528 153.952 295.425 153.76 295.223C153.568 295.02 153.475 294.761 153.475 294.44V292.864H154.159V294.295C154.159 294.476 154.206 294.626 154.304 294.735C154.397 294.844 154.522 294.901 154.683 294.901C155.113 294.901 155.326 294.606 155.326 294.009ZM158.68 294.72C158.814 294.58 158.882 294.393 158.882 294.16C158.882 293.927 158.814 293.735 158.68 293.595C158.539 293.455 158.368 293.382 158.156 293.382C157.964 293.382 157.793 293.455 157.643 293.6C157.492 293.745 157.42 293.932 157.42 294.16C157.42 294.388 157.492 294.575 157.643 294.714C157.793 294.86 157.964 294.932 158.156 294.932C158.368 294.932 158.539 294.86 158.68 294.72ZM158.275 292.786C158.612 292.786 158.913 292.916 159.167 293.175C159.421 293.439 159.545 293.766 159.545 294.16C159.545 294.554 159.421 294.88 159.167 295.14C158.913 295.399 158.617 295.528 158.275 295.528C157.938 295.528 157.653 295.435 157.42 295.249V296.685H156.735V292.864H157.42V293.071C157.648 292.879 157.933 292.786 158.275 292.786ZM162.008 294.72C162.142 294.58 162.21 294.393 162.21 294.16C162.21 293.927 162.142 293.735 162.008 293.595C161.868 293.455 161.697 293.382 161.484 293.382C161.292 293.382 161.121 293.455 160.971 293.6C160.82 293.745 160.748 293.932 160.748 294.16C160.748 294.388 160.82 294.575 160.971 294.714C161.121 294.86 161.292 294.932 161.484 294.932C161.697 294.932 161.868 294.86 162.008 294.72ZM161.603 292.786C161.94 292.786 162.241 292.916 162.495 293.175C162.749 293.439 162.873 293.766 162.873 294.16C162.873 294.554 162.749 294.88 162.495 295.14C162.241 295.399 161.945 295.528 161.603 295.528C161.266 295.528 160.981 295.435 160.748 295.249V296.685H160.064V292.864H160.748V293.071C160.976 292.879 161.261 292.786 161.603 292.786ZM163.884 293.859H165.133C165.092 293.698 165.014 293.579 164.905 293.501C164.796 293.424 164.667 293.382 164.522 293.382C164.382 293.382 164.247 293.424 164.128 293.507C164.003 293.59 163.92 293.709 163.884 293.859ZM164.522 292.786C164.874 292.786 165.18 292.91 165.434 293.154C165.688 293.403 165.818 293.719 165.833 294.108V294.341H163.863C163.9 294.523 163.977 294.668 164.097 294.777C164.216 294.886 164.351 294.943 164.511 294.943C164.807 294.943 165.019 294.829 165.154 294.6L165.766 294.73C165.657 294.995 165.491 295.192 165.274 295.326C165.056 295.461 164.802 295.528 164.511 295.528C164.138 295.528 163.822 295.399 163.568 295.145C163.314 294.891 163.184 294.559 163.184 294.16C163.184 293.761 163.314 293.429 163.573 293.17C163.827 292.916 164.143 292.786 164.522 292.786ZM167.72 294.891C167.85 294.891 167.995 294.849 168.151 294.766L168.348 295.337C168.109 295.466 167.886 295.528 167.674 295.528C167.357 295.528 167.108 295.44 166.927 295.269C166.746 295.098 166.658 294.844 166.658 294.497V293.424H166.103V292.864H166.658V292.081H167.342V292.864H168.187V293.424H167.342V294.445C167.342 294.74 167.466 294.891 167.72 294.891ZM169.156 293.859H170.406C170.364 293.698 170.286 293.579 170.177 293.501C170.068 293.424 169.939 293.382 169.794 293.382C169.654 293.382 169.519 293.424 169.4 293.507C169.275 293.59 169.192 293.709 169.156 293.859ZM169.794 292.786C170.146 292.786 170.452 292.91 170.706 293.154C170.96 293.403 171.09 293.719 171.105 294.108V294.341H169.135C169.172 294.523 169.249 294.668 169.369 294.777C169.488 294.886 169.623 294.943 169.783 294.943C170.079 294.943 170.292 294.829 170.426 294.6L171.038 294.73C170.929 294.995 170.763 295.192 170.546 295.326C170.328 295.461 170.074 295.528 169.783 295.528C169.41 295.528 169.094 295.399 168.84 295.145C168.586 294.891 168.456 294.559 168.456 294.16C168.456 293.761 168.586 293.429 168.845 293.17C169.099 292.916 169.415 292.786 169.794 292.786ZM172.23 293.859H173.48C173.438 293.698 173.36 293.579 173.251 293.501C173.143 293.424 173.013 293.382 172.868 293.382C172.728 293.382 172.593 293.424 172.474 293.507C172.349 293.59 172.266 293.709 172.23 293.859ZM172.868 292.786C173.22 292.786 173.526 292.91 173.78 293.154C174.034 293.403 174.164 293.719 174.18 294.108V294.341H172.209C172.246 294.523 172.323 294.668 172.443 294.777C172.562 294.886 172.697 294.943 172.857 294.943C173.153 294.943 173.366 294.829 173.5 294.6L174.112 294.73C174.003 294.995 173.837 295.192 173.62 295.326C173.402 295.461 173.148 295.528 172.857 295.528C172.484 295.528 172.168 295.399 171.914 295.145C171.66 294.891 171.53 294.559 171.53 294.16C171.53 293.761 171.66 293.429 171.919 293.17C172.173 292.916 172.489 292.786 172.868 292.786ZM176.31 292.827C176.388 292.827 176.45 292.833 176.492 292.848L176.455 293.507H176.305C175.688 293.507 175.382 293.875 175.382 294.616V295.451H174.698V292.864H175.382V293.335C175.615 292.998 175.926 292.827 176.31 292.827Z" fill="black"/>
<path d="M173.315 274.592L177.007 272.81V271.028L168.477 266.954L177.007 262.561V260.843L173.442 259.188L163.342 264.216L153.072 259.188L149.762 260.97V262.498L157.782 266.89L149.762 270.964V272.81L153.199 274.592L163.384 269.373L173.315 274.592Z" fill="#00D8A2"/>
<path d="M173.778 273.865V273.098L176.557 271.657V272.52L173.778 273.865ZM149.986 271.637L152.671 273.179V273.793L149.986 272.434V271.637ZM163.742 268.395L172.98 272.96V273.877L163.742 269.145V268.395ZM153.47 273.093L162.943 268.396V269.145L153.47 273.938V273.093ZM160.178 265.418L150.591 260.79L153.074 259.528L163.342 264.851L173.439 259.53L176.01 260.847L166.661 265.551C166.287 265.74 166.288 266.273 166.662 266.461L175.914 271.091L173.516 272.334L163.342 267.121L152.989 272.441L150.624 271.083L160.183 266.332C160.562 266.143 160.559 265.602 160.178 265.418ZM150.105 262.358V261.515L159.046 265.976L158.143 266.337L150.105 262.358ZM168.439 266.387C168.427 266.379 167.583 265.981 167.583 265.981L176.557 261.465V262.311L168.439 266.387ZM169.338 266.829L177.225 262.869C177.305 262.829 177.356 262.747 177.356 262.658V260.784C177.356 260.695 177.306 260.614 177.227 260.573L173.548 258.689C173.481 258.654 173.401 258.654 173.333 258.688L163.448 263.704C163.382 263.738 163.303 263.739 163.236 263.705L153.177 258.687C153.11 258.654 153.031 258.654 152.964 258.688L149.317 260.541C149.237 260.582 149.188 260.663 149.188 260.752V262.656C149.188 262.746 149.239 262.829 149.319 262.868L157.24 266.782L149.356 270.697C149.277 270.736 149.226 270.816 149.225 270.904L149.19 272.777C149.189 272.867 149.239 272.951 149.32 272.992L153.108 274.908C153.174 274.942 153.253 274.942 153.32 274.908L163.236 269.929C163.303 269.896 163.382 269.896 163.449 269.93L173.241 274.909C173.307 274.942 173.384 274.943 173.451 274.911L177.222 273.085C177.304 273.045 177.356 272.963 177.356 272.872V270.916C177.356 270.825 177.304 270.743 177.224 270.703L169.338 266.829Z" fill="black"/>
<g filter="url(#filter4_bd_12244_19803)">
<rect x="372.969" y="204.502" width="50.8904" height="50.8904" rx="7.23137" fill="url(#paint3_linear_12244_19803)" shape-rendering="crispEdges"/>
<rect x="373.584" y="205.118" width="49.6592" height="49.6592" rx="6.61576" stroke="url(#paint4_linear_12244_19803)" stroke-width="1.23122" shape-rendering="crispEdges"/>
</g>
<path d="M403.935 234.067C403.32 234.048 402.72 234.261 402.255 234.664C401.79 235.068 401.493 235.631 401.424 236.243C401.421 236.254 401.421 236.267 401.424 236.279C401.426 236.291 401.431 236.302 401.439 236.311C401.447 236.321 401.457 236.329 401.468 236.334C401.479 236.339 401.491 236.341 401.503 236.341H406.377C406.388 236.341 406.399 236.339 406.41 236.334C406.42 236.33 406.429 236.323 406.436 236.315C406.444 236.306 406.449 236.296 406.453 236.286C406.456 236.275 406.457 236.264 406.456 236.252C406.408 235.63 406.116 235.051 405.644 234.642C405.173 234.233 404.558 234.026 403.935 234.067Z" fill="white"/>
<path d="M414.383 217.722L404.044 229.33C404.015 229.362 403.979 229.388 403.939 229.405C403.899 229.423 403.856 229.432 403.813 229.432C403.77 229.432 403.727 229.423 403.687 229.405C403.647 229.388 403.611 229.362 403.582 229.33L398.304 223.886C398.259 223.83 398.235 223.76 398.235 223.689C398.235 223.617 398.259 223.548 398.304 223.492L400.047 221.257C400.076 221.216 400.114 221.183 400.159 221.16C400.204 221.137 400.253 221.125 400.303 221.125C400.353 221.125 400.402 221.137 400.447 221.16C400.491 221.183 400.53 221.216 400.559 221.257L403.513 224.526C403.542 224.561 403.579 224.589 403.621 224.609C403.662 224.628 403.708 224.638 403.754 224.638C403.8 224.638 403.845 224.628 403.887 224.609C403.929 224.589 403.966 224.561 403.995 224.526L412.226 213.242C412.249 213.209 412.263 213.17 412.266 213.13C412.268 213.089 412.26 213.049 412.242 213.013C412.224 212.977 412.197 212.946 412.163 212.924C412.129 212.902 412.09 212.889 412.049 212.888H383.063C382.997 212.888 382.935 212.914 382.889 212.96C382.842 213.006 382.816 213.069 382.816 213.134V246.118C382.816 246.183 382.842 246.246 382.889 246.292C382.935 246.338 382.997 246.364 383.063 246.364H414.57C414.635 246.364 414.698 246.338 414.744 246.292C414.79 246.246 414.816 246.183 414.816 246.118V217.87C414.835 217.812 414.831 217.749 414.805 217.695C414.778 217.64 414.731 217.599 414.673 217.579C414.616 217.56 414.553 217.564 414.498 217.591C414.444 217.617 414.402 217.665 414.383 217.722ZM391.737 242.691C389.669 242.796 387.641 242.089 386.085 240.722C386.036 240.667 386.009 240.595 386.009 240.52C386.009 240.446 386.036 240.374 386.085 240.319L387.316 238.596C387.336 238.56 387.364 238.529 387.396 238.505C387.428 238.48 387.465 238.462 387.505 238.452C387.544 238.442 387.585 238.44 387.626 238.446C387.666 238.452 387.705 238.466 387.739 238.487C388.864 239.53 390.342 240.107 391.875 240.102C393.489 240.102 394.277 239.354 394.277 238.566C394.277 236.124 386.322 237.798 386.322 232.599C386.322 230.305 388.291 228.395 391.56 228.395C393.436 228.328 395.272 228.944 396.729 230.128C396.784 230.185 396.814 230.261 396.814 230.34C396.814 230.419 396.784 230.495 396.729 230.551L395.518 232.235C395.493 232.269 395.461 232.297 395.425 232.317C395.389 232.338 395.348 232.351 395.307 232.356C395.265 232.36 395.223 232.356 395.183 232.344C395.143 232.332 395.106 232.311 395.075 232.284C394.001 231.431 392.666 230.972 391.294 230.985C390.034 230.985 389.325 231.546 389.325 232.373C389.325 234.569 397.26 233.102 397.26 238.28C397.26 240.781 395.459 242.691 391.727 242.691H391.737ZM409.085 237.896C409.087 237.933 409.081 237.97 409.067 238.004C409.054 238.038 409.034 238.069 409.008 238.095C408.982 238.12 408.951 238.141 408.917 238.154C408.883 238.167 408.846 238.174 408.81 238.172H401.524C401.512 238.173 401.501 238.177 401.491 238.183C401.48 238.188 401.471 238.196 401.464 238.205C401.456 238.214 401.451 238.225 401.448 238.236C401.445 238.247 401.444 238.259 401.445 238.271C401.563 238.951 401.932 239.563 402.478 239.986C403.025 240.409 403.71 240.612 404.399 240.555C405.303 240.536 406.18 240.248 406.919 239.728C406.948 239.704 406.982 239.686 407.018 239.676C407.054 239.665 407.092 239.663 407.13 239.669C407.167 239.674 407.202 239.688 407.234 239.708C407.266 239.728 407.293 239.755 407.313 239.787L408.199 241.077C408.236 241.134 408.251 241.203 408.24 241.27C408.229 241.338 408.193 241.398 408.14 241.441C406.97 242.295 405.551 242.738 404.103 242.701C403.38 242.742 402.657 242.63 401.979 242.375C401.301 242.119 400.684 241.725 400.168 241.217C399.652 240.709 399.247 240.098 398.98 239.425C398.714 238.751 398.591 238.03 398.619 237.306C398.599 236.599 398.722 235.896 398.982 235.239C399.241 234.581 399.631 233.983 400.128 233.481C400.625 232.978 401.219 232.582 401.873 232.315C402.528 232.049 403.229 231.918 403.936 231.93C406.998 231.93 409.076 234.224 409.076 237.581L409.085 237.896Z" fill="white"/>
<g filter="url(#filter5_bd_12244_19803)">
<rect x="383" y="284" width="61.7412" height="61.7412" rx="8.77324" fill="url(#paint5_linear_12244_19803)" shape-rendering="crispEdges"/>
<rect x="383.747" y="284.747" width="60.2475" height="60.2475" rx="8.02637" stroke="url(#paint6_linear_12244_19803)" stroke-width="1.49374" shape-rendering="crispEdges"/>
</g>
<path d="M408.657 310.97C407.337 311.344 406.471 312.001 405.901 312.657C406.447 312.179 407.179 311.74 408.166 311.461C409.176 311.175 410.037 311.177 410.749 311.314V310.758C410.142 310.702 409.445 310.747 408.657 310.97ZM405.841 306.294L400.939 307.585C400.939 307.585 401.029 307.711 401.194 307.879L405.35 306.785C405.35 306.785 405.291 307.543 404.779 308.222C405.747 307.49 405.841 306.294 405.841 306.294ZM409.943 317.807C403.046 319.663 399.397 311.675 398.292 307.528C397.781 305.614 397.559 304.165 397.499 303.229C397.493 303.132 397.496 303.05 397.503 302.975C397.145 302.997 396.973 303.183 397.008 303.72C397.068 304.655 397.291 306.104 397.801 308.019C398.905 312.165 402.555 320.153 409.452 318.297C410.954 317.893 412.082 317.156 412.928 316.216C412.148 316.921 411.171 317.476 409.943 317.807ZM411.239 301.405V301.896H413.945C413.889 301.722 413.833 301.566 413.778 301.405H411.239Z" fill="#2D4552"/>
<path d="M414.648 305.46C415.869 305.808 416.514 306.666 416.855 307.425L418.216 307.812C418.216 307.812 418.03 305.155 415.633 304.473C413.391 303.834 412.011 305.722 411.843 305.966C412.496 305.5 413.448 305.119 414.648 305.46ZM425.479 307.437C423.235 306.795 421.855 308.687 421.69 308.928C422.343 308.463 423.295 308.081 424.494 308.424C425.713 308.772 426.358 309.629 426.7 310.389L428.062 310.778C428.062 310.778 427.874 308.12 425.479 307.437ZM424.127 314.442L412.809 311.27C412.809 311.27 412.931 311.893 413.401 312.699L422.931 315.37C423.716 314.915 424.127 314.442 424.127 314.442ZM416.28 321.271C407.318 318.862 408.401 307.413 409.852 301.987C410.449 299.752 411.063 298.09 411.572 296.976C411.268 296.913 411.016 297.074 410.768 297.58C410.227 298.68 409.536 300.469 408.867 302.975C407.417 308.4 406.334 319.849 415.296 322.258C419.52 323.393 422.81 321.668 425.263 318.96C422.935 321.075 419.962 322.26 416.28 321.271Z" fill="#2D4552"/>
<path d="M411.316 315.201V312.886L404.857 314.71C404.857 314.71 405.334 311.948 408.703 310.996C409.725 310.708 410.596 310.71 411.316 310.848V301.351H414.551C414.199 300.267 413.858 299.432 413.572 298.853C413.099 297.893 412.613 298.529 411.512 299.447C410.736 300.092 408.775 301.469 405.824 302.261C402.874 303.054 400.488 302.844 399.493 302.672C398.082 302.429 397.344 302.121 397.413 303.19C397.473 304.133 397.698 305.594 398.215 307.525C399.332 311.706 403.026 319.762 410.005 317.89C411.829 317.4 413.115 316.433 414.007 315.201H411.316V315.201ZM400.893 307.582L405.853 306.281C405.853 306.281 405.709 308.181 403.849 308.67C401.989 309.157 400.893 307.582 400.893 307.582Z" fill="#E2574C"/>
<path d="M429.826 301.484C428.55 301.709 425.489 301.988 421.705 300.97C417.921 299.953 415.41 298.173 414.415 297.337C413.004 296.151 412.384 295.327 411.774 296.573C411.234 297.673 410.544 299.462 409.876 301.967C408.428 307.392 407.346 318.839 416.295 321.247C425.242 323.654 430.005 313.197 431.453 307.772C432.121 305.268 432.414 303.371 432.494 302.148C432.586 300.763 431.639 301.165 429.826 301.484ZM411.846 305.972C411.846 305.972 413.257 303.77 415.648 304.452C418.042 305.135 418.227 307.791 418.227 307.791L411.846 305.972ZM417.685 315.853C413.478 314.616 412.829 311.248 412.829 311.248L424.131 314.42C424.131 314.419 421.85 317.075 417.685 315.853ZM421.681 308.931C421.681 308.931 423.089 306.731 425.481 307.415C427.872 308.099 428.061 310.755 428.061 310.755L421.681 308.931Z" fill="#2EAD33"/>
<path d="M408.971 313.528L404.801 314.713C404.801 314.713 405.254 312.125 408.326 311.1L405.965 302.213L405.761 302.275C402.832 303.067 400.465 302.857 399.477 302.685C398.077 302.443 397.344 302.135 397.413 303.203C397.472 304.145 397.696 305.605 398.209 307.534C399.318 311.712 402.983 319.761 409.91 317.89L410.114 317.826L408.971 313.528ZM400.867 307.592L405.79 306.291C405.79 306.291 405.646 308.19 403.801 308.678C401.955 309.165 400.867 307.592 400.867 307.592Z" fill="#D65348"/>
<path d="M417.783 315.828L417.594 315.781C413.43 314.549 412.788 311.193 412.788 311.193L418.556 312.822L421.61 300.962L421.573 300.952C417.827 299.938 415.342 298.165 414.358 297.332C412.962 296.15 412.348 295.329 411.744 296.571C411.21 297.667 410.527 299.45 409.866 301.946C408.433 307.35 407.362 318.756 416.219 321.156L416.4 321.197L417.783 315.828ZM411.816 305.936C411.816 305.936 413.212 303.742 415.579 304.422C417.948 305.102 418.131 307.749 418.131 307.749L411.816 305.936Z" fill="#1D8D22"/>
<path d="M393.957 332.503V326.677H396.252C396.694 326.677 397.07 326.761 397.38 326.93C397.691 327.097 397.928 327.329 398.091 327.627C398.255 327.923 398.338 328.264 398.338 328.651C398.338 329.038 398.254 329.379 398.088 329.675C397.921 329.971 397.68 330.201 397.363 330.366C397.049 330.531 396.668 330.614 396.221 330.614H394.758V329.627H396.022C396.259 329.627 396.454 329.586 396.608 329.504C396.763 329.421 396.878 329.306 396.954 329.16C397.032 329.012 397.071 328.843 397.071 328.651C397.071 328.458 397.032 328.289 396.954 328.145C396.878 327.999 396.763 327.886 396.608 327.806C396.452 327.724 396.255 327.684 396.017 327.684H395.187V332.503H393.957ZM400.324 326.677V332.503H399.114V326.677H400.324ZM402.538 332.585C402.26 332.585 402.011 332.537 401.794 332.44C401.576 332.342 401.403 332.197 401.277 332.005C401.152 331.812 401.089 331.571 401.089 331.283C401.089 331.04 401.134 330.836 401.223 330.671C401.312 330.506 401.433 330.373 401.586 330.273C401.74 330.172 401.914 330.096 402.109 330.045C402.306 329.994 402.512 329.958 402.728 329.937C402.982 329.91 403.187 329.886 403.342 329.863C403.497 329.838 403.61 329.802 403.68 329.755C403.75 329.707 403.785 329.637 403.785 329.544V329.527C403.785 329.347 403.728 329.208 403.615 329.109C403.503 329.01 403.344 328.961 403.137 328.961C402.92 328.961 402.746 329.009 402.617 329.106C402.489 329.201 402.403 329.32 402.362 329.465L401.242 329.374C401.299 329.108 401.411 328.879 401.578 328.685C401.744 328.49 401.959 328.34 402.223 328.236C402.488 328.129 402.795 328.076 403.143 328.076C403.385 328.076 403.617 328.105 403.839 328.162C404.063 328.219 404.26 328.307 404.433 328.426C404.607 328.546 404.744 328.699 404.845 328.887C404.945 329.073 404.995 329.296 404.995 329.556V332.503H403.848V331.897H403.814C403.743 332.034 403.65 332.154 403.532 332.258C403.415 332.361 403.274 332.441 403.109 332.5C402.944 332.557 402.754 332.585 402.538 332.585ZM402.884 331.749C403.063 331.749 403.22 331.714 403.356 331.644C403.492 331.572 403.6 331.475 403.677 331.354C403.755 331.232 403.794 331.095 403.794 330.941V330.477C403.756 330.502 403.704 330.525 403.637 330.546C403.573 330.565 403.5 330.583 403.419 330.6C403.337 330.615 403.256 330.629 403.174 330.642C403.093 330.654 403.019 330.664 402.953 330.674C402.811 330.695 402.687 330.728 402.581 330.773C402.474 330.819 402.392 330.88 402.333 330.958C402.275 331.034 402.245 331.129 402.245 331.243C402.245 331.408 402.305 331.534 402.424 331.621C402.546 331.706 402.699 331.749 402.884 331.749ZM406.525 334.142C406.372 334.142 406.228 334.129 406.093 334.105C405.961 334.082 405.851 334.052 405.764 334.016L406.036 333.112C406.179 333.155 406.306 333.179 406.42 333.183C406.536 333.187 406.635 333.16 406.718 333.103C406.803 333.046 406.873 332.95 406.926 332.813L406.997 332.628L405.431 328.133H406.704L407.607 331.342H407.653L408.565 328.133H409.846L408.15 332.975C408.069 333.21 407.958 333.415 407.818 333.59C407.679 333.766 407.504 333.902 407.292 333.996C407.08 334.093 406.824 334.142 406.525 334.142ZM411.326 332.503L410.139 328.133H411.363L412.039 331.069H412.079L412.784 328.133H413.985L414.701 331.052H414.738L415.403 328.133H416.624L415.44 332.503H414.159L413.409 329.755H413.355L412.605 332.503H411.326ZM417.27 332.503V328.133H418.443V328.896H418.489C418.568 328.624 418.702 328.42 418.889 328.281C419.077 328.141 419.293 328.071 419.537 328.071C419.598 328.071 419.663 328.074 419.733 328.082C419.803 328.09 419.865 328.1 419.918 328.113V329.189C419.861 329.172 419.782 329.156 419.682 329.143C419.582 329.13 419.49 329.123 419.406 329.123C419.228 329.123 419.069 329.162 418.929 329.24C418.791 329.316 418.681 329.422 418.6 329.558C418.52 329.695 418.48 329.852 418.48 330.031V332.503H417.27ZM420.543 332.503V328.133H421.754V332.503H420.543ZM421.151 327.57C420.971 327.57 420.817 327.51 420.688 327.391C420.561 327.269 420.498 327.124 420.498 326.955C420.498 326.789 420.561 326.645 420.688 326.526C420.817 326.404 420.971 326.344 421.151 326.344C421.331 326.344 421.485 326.404 421.612 326.526C421.74 326.645 421.805 326.789 421.805 326.955C421.805 327.124 421.74 327.269 421.612 327.391C421.485 327.51 421.331 327.57 421.151 327.57ZM424.689 334.233C424.297 334.233 423.961 334.179 423.681 334.071C423.402 333.964 423.181 333.819 423.016 333.635C422.851 333.451 422.744 333.245 422.695 333.015L423.814 332.864C423.848 332.951 423.902 333.033 423.976 333.109C424.05 333.185 424.147 333.245 424.269 333.291C424.392 333.338 424.541 333.362 424.717 333.362C424.981 333.362 425.198 333.298 425.368 333.169C425.54 333.042 425.627 332.828 425.627 332.529V331.729H425.575C425.522 331.851 425.443 331.965 425.337 332.073C425.231 332.181 425.094 332.27 424.928 332.338C424.761 332.406 424.562 332.44 424.331 332.44C424.003 332.44 423.705 332.365 423.436 332.213C423.169 332.059 422.956 331.825 422.797 331.51C422.64 331.193 422.561 330.793 422.561 330.31C422.561 329.815 422.642 329.401 422.803 329.069C422.964 328.737 423.178 328.489 423.445 328.324C423.714 328.159 424.008 328.076 424.328 328.076C424.573 328.076 424.777 328.118 424.942 328.201C425.107 328.283 425.239 328.385 425.34 328.509C425.442 328.63 425.52 328.75 425.575 328.867H425.621V328.133H426.823V332.546C426.823 332.917 426.732 333.228 426.55 333.479C426.368 333.729 426.116 333.917 425.794 334.042C425.474 334.169 425.106 334.233 424.689 334.233ZM424.715 331.53C424.91 331.53 425.074 331.482 425.209 331.385C425.345 331.286 425.449 331.146 425.521 330.964C425.595 330.78 425.632 330.56 425.632 330.304C425.632 330.048 425.596 329.826 425.524 329.638C425.452 329.448 425.348 329.301 425.212 329.197C425.075 329.093 424.91 329.041 424.715 329.041C424.516 329.041 424.348 329.095 424.212 329.203C424.075 329.309 423.972 329.457 423.902 329.647C423.832 329.836 423.797 330.055 423.797 330.304C423.797 330.556 423.832 330.774 423.902 330.958C423.974 331.14 424.077 331.282 424.212 331.382C424.348 331.481 424.516 331.53 424.715 331.53ZM428.996 329.977V332.503H427.786V326.677H428.962V328.904H429.013C429.111 328.646 429.27 328.444 429.49 328.298C429.71 328.15 429.985 328.076 430.317 328.076C430.62 328.076 430.884 328.143 431.109 328.275C431.337 328.406 431.513 328.595 431.638 328.842C431.765 329.086 431.827 329.379 431.825 329.721V332.503H430.615V329.937C430.617 329.668 430.549 329.458 430.411 329.308C430.274 329.158 430.083 329.083 429.837 329.083C429.672 329.083 429.526 329.118 429.399 329.189C429.274 329.259 429.176 329.361 429.104 329.496C429.034 329.629 428.998 329.789 428.996 329.977ZM435.099 328.133V329.044H432.471V328.133H435.099ZM433.068 327.086H434.278V331.16C434.278 331.272 434.295 331.359 434.329 331.422C434.363 331.483 434.41 331.525 434.471 331.55C434.533 331.575 434.605 331.587 434.687 331.587C434.744 331.587 434.8 331.582 434.857 331.573C434.914 331.561 434.958 331.553 434.988 331.547L435.178 332.449C435.118 332.468 435.032 332.49 434.923 332.514C434.813 332.541 434.679 332.557 434.522 332.563C434.23 332.574 433.975 332.535 433.755 332.446C433.537 332.357 433.368 332.218 433.246 332.031C433.125 331.843 433.066 331.606 433.068 331.319V327.086Z" fill="white"/>
<path d="M355.319 98.8547C355.526 98.6477 355.526 98.3121 355.319 98.1051L351.945 94.7315C351.738 94.5244 351.402 94.5244 351.195 94.7315C350.988 94.9385 350.988 95.2741 351.195 95.4812L354.194 98.4799L351.195 101.479C350.988 101.686 350.988 102.021 351.195 102.228C351.402 102.435 351.738 102.435 351.945 102.228L355.319 98.8547ZM331.619 106.962L332.149 106.962L331.619 106.962ZM332.149 179.586L332.149 179.056L331.089 179.056L331.089 179.586L332.149 179.586ZM331.089 175.346L331.089 175.876L332.149 175.876L332.149 175.346L331.089 175.346ZM332.149 172.165L332.149 171.635L331.089 171.635L331.089 172.165L332.149 172.165ZM331.089 167.924L331.089 168.454L332.149 168.454L332.149 167.924L331.089 167.924ZM332.149 164.743L332.149 164.213L331.089 164.213L331.089 164.743L332.149 164.743ZM331.089 160.503L331.089 161.033L332.149 161.033L332.149 160.503L331.089 160.503ZM332.149 157.322L332.149 156.792L331.089 156.792L331.089 157.322L332.149 157.322ZM331.089 153.081L331.089 153.611L332.149 153.611L332.149 153.081L331.089 153.081ZM332.149 149.9L332.149 149.37L331.089 149.37L331.089 149.9L332.149 149.9ZM331.089 145.66L331.089 146.19L332.149 146.19L332.149 145.66L331.089 145.66ZM332.149 142.479L332.149 141.949L331.089 141.949L331.089 142.479L332.149 142.479ZM331.089 138.238L331.089 138.768L332.149 138.768L332.149 138.238L331.089 138.238ZM332.149 135.057L332.149 134.527L331.089 134.527L331.089 135.057L332.149 135.057ZM331.089 130.816L331.089 131.347L332.149 131.347L332.149 130.816L331.089 130.816ZM332.149 127.636L332.149 127.106L331.089 127.106L331.089 127.636L332.149 127.636ZM331.089 123.395L331.089 123.925L332.149 123.925L332.149 123.395L331.089 123.395ZM332.149 120.214L332.149 119.684L331.089 119.684L331.089 120.214L332.149 120.214ZM331.089 115.973L331.089 116.504L332.149 116.504L332.149 115.973L331.089 115.973ZM332.149 112.793L332.149 112.263L331.089 112.263L331.089 112.793L332.149 112.793ZM331.089 108.552L331.089 109.082L332.149 109.082L332.149 108.552L331.089 108.552ZM332.26 105.628L332.349 105.106L331.303 104.929L331.215 105.452L332.26 105.628ZM332.751 101.746L332.444 102.178L333.308 102.792L333.615 102.36L332.751 101.746ZM335.5 100.476L335.932 100.169L335.317 99.3045L334.885 99.6116L335.5 100.476ZM338.591 98.0758L338.069 98.164L338.245 99.2094L338.768 99.1212L338.591 98.0758ZM341.691 99.01L342.221 99.01L342.221 97.9498L341.691 97.9498L341.691 99.01ZM345.932 97.9498L345.402 97.9498L345.402 99.01L345.932 99.01L345.932 97.9498ZM349.113 99.01L349.643 99.01L349.643 97.9498L349.113 97.9498L349.113 99.01ZM353.354 97.9498L352.823 97.9498L352.823 99.01L353.354 99.01L353.354 97.9498ZM332.149 181.177L332.149 179.586L331.089 179.586L331.089 181.177L332.149 181.177ZM332.149 175.346L332.149 172.165L331.089 172.165L331.089 175.346L332.149 175.346ZM332.149 167.924L332.149 164.743L331.089 164.743L331.089 167.924L332.149 167.924ZM332.149 160.503L332.149 157.322L331.089 157.322L331.089 160.503L332.149 160.503ZM332.149 153.081L332.149 149.9L331.089 149.9L331.089 153.081L332.149 153.081ZM332.149 145.66L332.149 142.479L331.089 142.479L331.089 145.66L332.149 145.66ZM332.149 138.238L332.149 135.057L331.089 135.057L331.089 138.238L332.149 138.238ZM332.149 130.816L332.149 127.636L331.089 127.636L331.089 130.816L332.149 130.816ZM332.149 123.395L332.149 120.214L331.089 120.214L331.089 123.395L332.149 123.395ZM332.149 115.973L332.149 112.793L331.089 112.793L331.089 115.973L332.149 115.973ZM332.149 108.552L332.149 106.962L331.089 106.962L331.089 108.552L332.149 108.552ZM332.149 106.962C332.149 106.507 332.187 106.062 332.26 105.628L331.215 105.452C331.132 105.943 331.089 106.448 331.089 106.962L332.149 106.962ZM333.615 102.36C334.133 101.632 334.771 100.994 335.5 100.476L334.885 99.6116C334.06 100.198 333.338 100.921 332.751 101.746L333.615 102.36ZM338.768 99.1212C339.201 99.0481 339.646 99.01 340.101 99.01L340.101 97.9498C339.587 97.9498 339.082 97.9929 338.591 98.0758L338.768 99.1212ZM340.101 99.01L341.691 99.01L341.691 97.9498L340.101 97.9498L340.101 99.01ZM345.932 99.01L349.113 99.01L349.113 97.9498L345.932 97.9498L345.932 99.01ZM353.354 99.01L354.944 99.01L354.944 97.9498L353.354 97.9498L353.354 99.01Z" fill="url(#paint7_linear_12244_19803)"/>
<path d="M235.826 98.8547C235.619 98.6477 235.619 98.3121 235.826 98.1051L239.199 94.7315C239.406 94.5244 239.742 94.5244 239.949 94.7315C240.156 94.9385 240.156 95.2741 239.949 95.4812L236.95 98.4799L239.949 101.479C240.156 101.686 240.156 102.021 239.949 102.228C239.742 102.435 239.406 102.435 239.199 102.228L235.826 98.8547ZM259.525 106.962L258.995 106.962L259.525 106.962ZM258.995 179.586L258.995 179.056L260.055 179.056L260.055 179.586L258.995 179.586ZM260.055 175.346L260.055 175.876L258.995 175.876L258.995 175.346L260.055 175.346ZM258.995 172.165L258.995 171.635L260.055 171.635L260.055 172.165L258.995 172.165ZM260.055 167.924L260.055 168.454L258.995 168.454L258.995 167.924L260.055 167.924ZM258.995 164.743L258.995 164.213L260.055 164.213L260.055 164.743L258.995 164.743ZM260.055 160.503L260.055 161.033L258.995 161.033L258.995 160.503L260.055 160.503ZM258.995 157.322L258.995 156.792L260.055 156.792L260.055 157.322L258.995 157.322ZM260.055 153.081L260.055 153.611L258.995 153.611L258.995 153.081L260.055 153.081ZM258.995 149.9L258.995 149.37L260.055 149.37L260.055 149.9L258.995 149.9ZM260.055 145.66L260.055 146.19L258.995 146.19L258.995 145.66L260.055 145.66ZM258.995 142.479L258.995 141.949L260.055 141.949L260.055 142.479L258.995 142.479ZM260.055 138.238L260.055 138.768L258.995 138.768L258.995 138.238L260.055 138.238ZM258.995 135.057L258.995 134.527L260.055 134.527L260.055 135.057L258.995 135.057ZM260.055 130.816L260.055 131.347L258.995 131.347L258.995 130.816L260.055 130.816ZM258.995 127.636L258.995 127.106L260.055 127.106L260.055 127.636L258.995 127.636ZM260.055 123.395L260.055 123.925L258.995 123.925L258.995 123.395L260.055 123.395ZM258.995 120.214L258.995 119.684L260.055 119.684L260.055 120.214L258.995 120.214ZM260.055 115.973L260.055 116.504L258.995 116.504L258.995 115.973L260.055 115.973ZM258.995 112.793L258.995 112.263L260.055 112.263L260.055 112.793L258.995 112.793ZM260.055 108.552L260.055 109.082L258.995 109.082L258.995 108.552L260.055 108.552ZM258.884 105.628L258.796 105.106L259.841 104.929L259.93 105.452L258.884 105.628ZM258.394 101.746L258.701 102.178L257.837 102.792L257.53 102.36L258.394 101.746ZM255.645 100.476L255.213 100.169L255.827 99.3045L256.259 99.6116L255.645 100.476ZM252.553 98.0758L253.076 98.164L252.9 99.2094L252.377 99.1212L252.553 98.0758ZM249.453 99.01L248.923 99.01L248.923 97.9498L249.453 97.9498L249.453 99.01ZM245.212 97.9498L245.743 97.9498L245.743 99.01L245.212 99.01L245.212 97.9498ZM242.032 99.01L241.502 99.01L241.502 97.9498L242.032 97.9498L242.032 99.01ZM237.791 97.9498L238.321 97.9498L238.321 99.01L237.791 99.01L237.791 97.9498ZM258.995 181.177L258.995 179.586L260.055 179.586L260.055 181.177L258.995 181.177ZM258.995 175.346L258.995 172.165L260.055 172.165L260.055 175.346L258.995 175.346ZM258.995 167.924L258.995 164.743L260.055 164.743L260.055 167.924L258.995 167.924ZM258.995 160.503L258.995 157.322L260.055 157.322L260.055 160.503L258.995 160.503ZM258.995 153.081L258.995 149.9L260.055 149.9L260.055 153.081L258.995 153.081ZM258.995 145.66L258.995 142.479L260.055 142.479L260.055 145.66L258.995 145.66ZM258.995 138.238L258.995 135.057L260.055 135.057L260.055 138.238L258.995 138.238ZM258.995 130.816L258.995 127.636L260.055 127.636L260.055 130.816L258.995 130.816ZM258.995 123.395L258.995 120.214L260.055 120.214L260.055 123.395L258.995 123.395ZM258.995 115.973L258.995 112.793L260.055 112.793L260.055 115.973L258.995 115.973ZM258.995 108.552L258.995 106.962L260.055 106.962L260.055 108.552L258.995 108.552ZM258.995 106.962C258.995 106.507 258.957 106.062 258.884 105.628L259.93 105.452C260.012 105.943 260.055 106.448 260.055 106.962L258.995 106.962ZM257.53 102.36C257.012 101.632 256.374 100.994 255.645 100.476L256.259 99.6116C257.085 100.198 257.807 100.921 258.394 101.746L257.53 102.36ZM252.377 99.1212C251.944 99.0481 251.498 99.01 251.044 99.01L251.044 97.9498C251.558 97.9498 252.062 97.9929 252.553 98.0758L252.377 99.1212ZM251.044 99.01L249.453 99.01L249.453 97.9498L251.044 97.9498L251.044 99.01ZM245.212 99.01L242.032 99.01L242.032 97.9498L245.212 97.9498L245.212 99.01ZM237.791 99.01L236.201 99.01L236.201 97.9498L237.791 97.9498L237.791 99.01Z" fill="url(#paint8_linear_12244_19803)"/>
<path d="M295.947 59.9373C295.74 59.7302 295.404 59.7302 295.197 59.9373L291.824 63.3109C291.617 63.5179 291.617 63.8535 291.824 64.0605C292.031 64.2676 292.367 64.2676 292.574 64.0605L295.572 61.0618L298.571 64.0605C298.778 64.2676 299.114 64.2676 299.321 64.0605C299.528 63.8535 299.528 63.5179 299.321 63.3109L295.947 59.9373ZM296.102 179.558L296.102 179.028L295.042 179.028L295.042 179.558L296.102 179.558ZM295.042 175.241L295.042 175.772L296.102 175.772L296.102 175.241L295.042 175.241ZM296.102 172.004L296.102 171.474L295.042 171.474L295.042 172.004L296.102 172.004ZM295.042 167.687L295.042 168.218L296.102 168.218L296.102 167.687L295.042 167.687ZM296.102 164.45L296.102 163.92L295.042 163.92L295.042 164.45L296.102 164.45ZM295.042 160.133L295.042 160.663L296.102 160.663L296.102 160.133L295.042 160.133ZM296.102 156.896L296.102 156.366L295.042 156.366L295.042 156.896L296.102 156.896ZM295.042 152.579L295.042 153.109L296.102 153.109L296.102 152.579L295.042 152.579ZM296.102 149.342L296.102 148.812L295.042 148.812L295.042 149.342L296.102 149.342ZM295.042 145.025L295.042 145.555L296.102 145.555L296.102 145.025L295.042 145.025ZM296.102 141.788L296.102 141.258L295.042 141.258L295.042 141.788L296.102 141.788ZM295.042 137.471L295.042 138.001L296.102 138.001L296.102 137.471L295.042 137.471ZM296.102 134.234L296.102 133.704L295.042 133.704L295.042 134.234L296.102 134.234ZM295.042 129.917L295.042 130.447L296.102 130.447L296.102 129.917L295.042 129.917ZM296.102 126.68L296.102 126.15L295.042 126.15L295.042 126.68L296.102 126.68ZM295.042 122.363L295.042 122.893L296.102 122.893L296.102 122.363L295.042 122.363ZM296.102 119.126L296.102 118.596L295.042 118.596L295.042 119.126L296.102 119.126ZM295.042 114.809L295.042 115.339L296.102 115.339L296.102 114.809L295.042 114.809ZM296.102 111.572L296.102 111.042L295.042 111.042L295.042 111.572L296.102 111.572ZM295.042 107.255L295.042 107.785L296.102 107.785L296.102 107.255L295.042 107.255ZM296.102 104.018L296.102 103.488L295.042 103.488L295.042 104.018L296.102 104.018ZM295.042 99.701L295.042 100.231L296.102 100.231L296.102 99.701L295.042 99.701ZM296.102 96.4636L296.102 95.9335L295.042 95.9335L295.042 96.4636L296.102 96.4636ZM295.042 92.147L295.042 92.6771L296.102 92.6771L296.102 92.147L295.042 92.147ZM296.102 88.9095L296.102 88.3794L295.042 88.3794L295.042 88.9095L296.102 88.9095ZM295.042 84.5929L295.042 85.123L296.102 85.123L296.102 84.5929L295.042 84.5929ZM296.102 81.3555L296.102 80.8254L295.042 80.8254L295.042 81.3555L296.102 81.3555ZM295.042 77.0389L295.042 77.569L296.102 77.569L296.102 77.0389L295.042 77.0389ZM296.102 73.8014L296.102 73.2713L295.042 73.2713L295.042 73.8014L296.102 73.8014ZM295.042 69.4848L295.042 70.0149L296.102 70.0149L296.102 69.4848L295.042 69.4848ZM296.102 66.2474L296.102 65.7173L295.042 65.7173L295.042 66.2474L296.102 66.2474ZM295.042 61.9308L295.042 62.4609L296.102 62.4609L296.102 61.9308L295.042 61.9308ZM296.102 181.177L296.102 179.558L295.042 179.558L295.042 181.177L296.102 181.177ZM296.102 175.241L296.102 172.004L295.042 172.004L295.042 175.241L296.102 175.241ZM296.102 167.687L296.102 164.45L295.042 164.45L295.042 167.687L296.102 167.687ZM296.102 160.133L296.102 156.896L295.042 156.896L295.042 160.133L296.102 160.133ZM296.102 152.579L296.102 149.342L295.042 149.342L295.042 152.579L296.102 152.579ZM296.102 145.025L296.102 141.788L295.042 141.788L295.042 145.025L296.102 145.025ZM296.102 137.471L296.102 134.234L295.042 134.234L295.042 137.471L296.102 137.471ZM296.102 129.917L296.102 126.68L295.042 126.68L295.042 129.917L296.102 129.917ZM296.102 122.363L296.102 119.126L295.042 119.126L295.042 122.363L296.102 122.363ZM296.102 114.809L296.102 111.572L295.042 111.572L295.042 114.809L296.102 114.809ZM296.102 107.255L296.102 104.018L295.042 104.018L295.042 107.255L296.102 107.255ZM296.102 99.701L296.102 96.4636L295.042 96.4636L295.042 99.701L296.102 99.701ZM296.102 92.147L296.102 88.9095L295.042 88.9095L295.042 92.147L296.102 92.147ZM296.102 84.5929L296.102 81.3555L295.042 81.3555L295.042 84.5929L296.102 84.5929ZM296.102 77.0389L296.102 73.8014L295.042 73.8014L295.042 77.0389L296.102 77.0389ZM296.102 69.4848L296.102 66.2474L295.042 66.2474L295.042 69.4848L296.102 69.4848ZM296.102 61.9308L296.102 60.3121L295.042 60.3121L295.042 61.9308L296.102 61.9308Z" fill="url(#paint9_linear_12244_19803)"/>
<g filter="url(#filter6_dd_12244_19803)">
<circle cx="331.62" cy="155.731" r="3.18065" fill="#00E0FF"/>
</g>
<g filter="url(#filter7_dd_12244_19803)">
<circle cx="259.524" cy="158.912" r="3.18065" fill="#00E0FF"/>
</g>
<g filter="url(#filter8_dd_12244_19803)">
<circle cx="295.573" cy="140.889" r="3.18065" fill="#00E0FF"/>
</g>
<g filter="url(#filter9_dd_12244_19803)">
<circle cx="331.62" cy="105.901" r="2.12043" fill="#00E0FF"/>
</g>
<g filter="url(#filter10_dd_12244_19803)">
<circle cx="295.574" cy="77.2757" r="2.12043" fill="#00E0FF"/>
</g>
<g filter="url(#filter11_dd_12244_19803)">
<circle cx="259.527" cy="120.744" r="2.12043" fill="#00E0FF"/>
</g>
<defs>
<filter id="filter0_f_12244_19803" x="12.7251" y="47.7251" width="547.55" height="419.55" filterUnits="userSpaceOnUse" color-interpolation-filters="sRGB">
<feFlood flood-opacity="0" result="BackgroundImageFix"/>
<feBlend mode="normal" in="SourceGraphic" in2="BackgroundImageFix" result="shape"/>
<feGaussianBlur stdDeviation="57.1375" result="effect1_foregroundBlur_12244_19803"/>
</filter>
<filter id="filter1_d_12244_19803" x="164.007" y="192.739" width="262.273" height="180.433" filterUnits="userSpaceOnUse" color-interpolation-filters="sRGB">
<feFlood flood-opacity="0" result="BackgroundImageFix"/>
<feColorMatrix in="SourceAlpha" type="matrix" values="0 0 0 0 0 0 0 0 0 0 0 0 0 0 0 0 0 0 127 0" result="hardAlpha"/>
<feOffset dx="6.46131" dy="6.46131"/>
<feGaussianBlur stdDeviation="6.46131"/>
<feColorMatrix type="matrix" values="0 0 0 0 0.0941177 0 0 0 0 0.188235 0 0 0 0 0.247059 0 0 0 0.05 0"/>
<feBlend mode="normal" in2="BackgroundImageFix" result="effect1_dropShadow_12244_19803"/>
<feBlend mode="normal" in="SourceGraphic" in2="effect1_dropShadow_12244_19803" result="shape"/>
</filter>
<filter id="filter2_d_12244_19803" x="158.926" y="187.657" width="259.514" height="177.674" filterUnits="userSpaceOnUse" color-interpolation-filters="sRGB">
<feFlood flood-opacity="0" result="BackgroundImageFix"/>
<feColorMatrix in="SourceAlpha" type="matrix" values="0 0 0 0 0 0 0 0 0 0 0 0 0 0 0 0 0 0 127 0" result="hardAlpha"/>
<feOffset/>
<feGaussianBlur stdDeviation="5.7716"/>
<feColorMatrix type="matrix" values="0 0 0 0 0 0 0 0 0 0.0486432 0 0 0 0 0.221106 0 0 0 0.06 0"/>
<feBlend mode="normal" in2="BackgroundImageFix" result="effect1_dropShadow_12244_19803"/>
<feBlend mode="normal" in="SourceGraphic" in2="effect1_dropShadow_12244_19803" result="shape"/>
</filter>
<filter id="filter3_bd_12244_19803" x="107.243" y="227.374" width="113.249" height="113.248" filterUnits="userSpaceOnUse" color-interpolation-filters="sRGB">
<feFlood flood-opacity="0" result="BackgroundImageFix"/>
<feGaussianBlur in="BackgroundImageFix" stdDeviation="4.67026"/>
<feComposite in2="SourceAlpha" operator="in" result="effect1_backgroundBlur_12244_19803"/>
<feColorMatrix in="SourceAlpha" type="matrix" values="0 0 0 0 0 0 0 0 0 0 0 0 0 0 0 0 0 0 127 0" result="hardAlpha"/>
<feMorphology radius="1.03293" operator="erode" in="SourceAlpha" result="effect2_dropShadow_12244_19803"/>
<feOffset dy="4.13173"/>
<feGaussianBlur stdDeviation="12.3952"/>
<feComposite in2="hardAlpha" operator="out"/>
<feColorMatrix type="matrix" values="0 0 0 0 0 0 0 0 0 0 0 0 0 0 0 0 0 0 0.2 0"/>
<feBlend mode="normal" in2="effect1_backgroundBlur_12244_19803" result="effect2_dropShadow_12244_19803"/>
<feBlend mode="normal" in="SourceGraphic" in2="effect2_dropShadow_12244_19803" result="shape"/>
</filter>
<filter id="filter4_bd_12244_19803" x="354.576" y="189.308" width="87.6763" height="87.6763" filterUnits="userSpaceOnUse" color-interpolation-filters="sRGB">
<feFlood flood-opacity="0" result="BackgroundImageFix"/>
<feGaussianBlur in="BackgroundImageFix" stdDeviation="3.61568"/>
<feComposite in2="SourceAlpha" operator="in" result="effect1_backgroundBlur_12244_19803"/>
<feColorMatrix in="SourceAlpha" type="matrix" values="0 0 0 0 0 0 0 0 0 0 0 0 0 0 0 0 0 0 127 0" result="hardAlpha"/>
<feMorphology radius="0.799689" operator="erode" in="SourceAlpha" result="effect2_dropShadow_12244_19803"/>
<feOffset dy="3.19876"/>
<feGaussianBlur stdDeviation="9.59627"/>
<feComposite in2="hardAlpha" operator="out"/>
<feColorMatrix type="matrix" values="0 0 0 0 0 0 0 0 0 0 0 0 0 0 0 0 0 0 0.2 0"/>
<feBlend mode="normal" in2="effect1_backgroundBlur_12244_19803" result="effect2_dropShadow_12244_19803"/>
<feBlend mode="normal" in="SourceGraphic" in2="effect2_dropShadow_12244_19803" result="shape"/>
</filter>
<filter id="filter5_bd_12244_19803" x="360.685" y="265.566" width="106.371" height="106.37" filterUnits="userSpaceOnUse" color-interpolation-filters="sRGB">
<feFlood flood-opacity="0" result="BackgroundImageFix"/>
<feGaussianBlur in="BackgroundImageFix" stdDeviation="4.38662"/>
<feComposite in2="SourceAlpha" operator="in" result="effect1_backgroundBlur_12244_19803"/>
<feColorMatrix in="SourceAlpha" type="matrix" values="0 0 0 0 0 0 0 0 0 0 0 0 0 0 0 0 0 0 127 0" result="hardAlpha"/>
<feMorphology radius="0.970199" operator="erode" in="SourceAlpha" result="effect2_dropShadow_12244_19803"/>
<feOffset dy="3.8808"/>
<feGaussianBlur stdDeviation="11.6424"/>
<feComposite in2="hardAlpha" operator="out"/>
<feColorMatrix type="matrix" values="0 0 0 0 0 0 0 0 0 0 0 0 0 0 0 0 0 0 0.2 0"/>
<feBlend mode="normal" in2="effect1_backgroundBlur_12244_19803" result="effect2_dropShadow_12244_19803"/>
<feBlend mode="normal" in="SourceGraphic" in2="effect2_dropShadow_12244_19803" result="shape"/>
</filter>
<filter id="filter6_dd_12244_19803" x="307.691" y="131.802" width="47.8581" height="47.8581" filterUnits="userSpaceOnUse" color-interpolation-filters="sRGB">
<feFlood flood-opacity="0" result="BackgroundImageFix"/>
<feColorMatrix in="SourceAlpha" type="matrix" values="0 0 0 0 0 0 0 0 0 0 0 0 0 0 0 0 0 0 127 0" result="hardAlpha"/>
<feOffset/>
<feGaussianBlur stdDeviation="4.14967"/>
<feColorMatrix type="matrix" values="0 0 0 0 0 0 0 0 0 0.878431 0 0 0 0 1 0 0 0 1 0"/>
<feBlend mode="normal" in2="BackgroundImageFix" result="effect1_dropShadow_12244_19803"/>
<feColorMatrix in="SourceAlpha" type="matrix" values="0 0 0 0 0 0 0 0 0 0 0 0 0 0 0 0 0 0 127 0" result="hardAlpha"/>
<feOffset/>
<feGaussianBlur stdDeviation="10.3742"/>
<feColorMatrix type="matrix" values="0 0 0 0 0 0 0 0 0 0.878431 0 0 0 0 1 0 0 0 1 0"/>
<feBlend mode="normal" in2="effect1_dropShadow_12244_19803" result="effect2_dropShadow_12244_19803"/>
<feBlend mode="normal" in="SourceGraphic" in2="effect2_dropShadow_12244_19803" result="shape"/>
</filter>
<filter id="filter7_dd_12244_19803" x="235.595" y="134.983" width="47.8581" height="47.8581" filterUnits="userSpaceOnUse" color-interpolation-filters="sRGB">
<feFlood flood-opacity="0" result="BackgroundImageFix"/>
<feColorMatrix in="SourceAlpha" type="matrix" values="0 0 0 0 0 0 0 0 0 0 0 0 0 0 0 0 0 0 127 0" result="hardAlpha"/>
<feOffset/>
<feGaussianBlur stdDeviation="4.14967"/>
<feColorMatrix type="matrix" values="0 0 0 0 0 0 0 0 0 0.878431 0 0 0 0 1 0 0 0 1 0"/>
<feBlend mode="normal" in2="BackgroundImageFix" result="effect1_dropShadow_12244_19803"/>
<feColorMatrix in="SourceAlpha" type="matrix" values="0 0 0 0 0 0 0 0 0 0 0 0 0 0 0 0 0 0 127 0" result="hardAlpha"/>
<feOffset/>
<feGaussianBlur stdDeviation="10.3742"/>
<feColorMatrix type="matrix" values="0 0 0 0 0 0 0 0 0 0.878431 0 0 0 0 1 0 0 0 1 0"/>
<feBlend mode="normal" in2="effect1_dropShadow_12244_19803" result="effect2_dropShadow_12244_19803"/>
<feBlend mode="normal" in="SourceGraphic" in2="effect2_dropShadow_12244_19803" result="shape"/>
</filter>
<filter id="filter8_dd_12244_19803" x="271.644" y="116.96" width="47.8581" height="47.8581" filterUnits="userSpaceOnUse" color-interpolation-filters="sRGB">
<feFlood flood-opacity="0" result="BackgroundImageFix"/>
<feColorMatrix in="SourceAlpha" type="matrix" values="0 0 0 0 0 0 0 0 0 0 0 0 0 0 0 0 0 0 127 0" result="hardAlpha"/>
<feOffset/>
<feGaussianBlur stdDeviation="4.14967"/>
<feColorMatrix type="matrix" values="0 0 0 0 0 0 0 0 0 0.878431 0 0 0 0 1 0 0 0 1 0"/>
<feBlend mode="normal" in2="BackgroundImageFix" result="effect1_dropShadow_12244_19803"/>
<feColorMatrix in="SourceAlpha" type="matrix" values="0 0 0 0 0 0 0 0 0 0 0 0 0 0 0 0 0 0 127 0" result="hardAlpha"/>
<feOffset/>
<feGaussianBlur stdDeviation="10.3742"/>
<feColorMatrix type="matrix" values="0 0 0 0 0 0 0 0 0 0.878431 0 0 0 0 1 0 0 0 1 0"/>
<feBlend mode="normal" in2="effect1_dropShadow_12244_19803" result="effect2_dropShadow_12244_19803"/>
<feBlend mode="normal" in="SourceGraphic" in2="effect2_dropShadow_12244_19803" result="shape"/>
</filter>
<filter id="filter9_dd_12244_19803" x="315.668" y="89.948" width="31.9047" height="31.9057" filterUnits="userSpaceOnUse" color-interpolation-filters="sRGB">
<feFlood flood-opacity="0" result="BackgroundImageFix"/>
<feColorMatrix in="SourceAlpha" type="matrix" values="0 0 0 0 0 0 0 0 0 0 0 0 0 0 0 0 0 0 127 0" result="hardAlpha"/>
<feOffset/>
<feGaussianBlur stdDeviation="2.76645"/>
<feColorMatrix type="matrix" values="0 0 0 0 0 0 0 0 0 0.878431 0 0 0 0 1 0 0 0 1 0"/>
<feBlend mode="normal" in2="BackgroundImageFix" result="effect1_dropShadow_12244_19803"/>
<feColorMatrix in="SourceAlpha" type="matrix" values="0 0 0 0 0 0 0 0 0 0 0 0 0 0 0 0 0 0 127 0" result="hardAlpha"/>
<feOffset/>
<feGaussianBlur stdDeviation="6.91612"/>
<feColorMatrix type="matrix" values="0 0 0 0 0 0 0 0 0 0.878431 0 0 0 0 1 0 0 0 1 0"/>
<feBlend mode="normal" in2="effect1_dropShadow_12244_19803" result="effect2_dropShadow_12244_19803"/>
<feBlend mode="normal" in="SourceGraphic" in2="effect2_dropShadow_12244_19803" result="shape"/>
</filter>
<filter id="filter10_dd_12244_19803" x="279.621" y="61.323" width="31.9047" height="31.9057" filterUnits="userSpaceOnUse" color-interpolation-filters="sRGB">
<feFlood flood-opacity="0" result="BackgroundImageFix"/>
<feColorMatrix in="SourceAlpha" type="matrix" values="0 0 0 0 0 0 0 0 0 0 0 0 0 0 0 0 0 0 127 0" result="hardAlpha"/>
<feOffset/>
<feGaussianBlur stdDeviation="2.76645"/>
<feColorMatrix type="matrix" values="0 0 0 0 0 0 0 0 0 0.878431 0 0 0 0 1 0 0 0 1 0"/>
<feBlend mode="normal" in2="BackgroundImageFix" result="effect1_dropShadow_12244_19803"/>
<feColorMatrix in="SourceAlpha" type="matrix" values="0 0 0 0 0 0 0 0 0 0 0 0 0 0 0 0 0 0 127 0" result="hardAlpha"/>
<feOffset/>
<feGaussianBlur stdDeviation="6.91612"/>
<feColorMatrix type="matrix" values="0 0 0 0 0 0 0 0 0 0.878431 0 0 0 0 1 0 0 0 1 0"/>
<feBlend mode="normal" in2="effect1_dropShadow_12244_19803" result="effect2_dropShadow_12244_19803"/>
<feBlend mode="normal" in="SourceGraphic" in2="effect2_dropShadow_12244_19803" result="shape"/>
</filter>
<filter id="filter11_dd_12244_19803" x="243.574" y="104.792" width="31.9047" height="31.9057" filterUnits="userSpaceOnUse" color-interpolation-filters="sRGB">
<feFlood flood-opacity="0" result="BackgroundImageFix"/>
<feColorMatrix in="SourceAlpha" type="matrix" values="0 0 0 0 0 0 0 0 0 0 0 0 0 0 0 0 0 0 127 0" result="hardAlpha"/>
<feOffset/>
<feGaussianBlur stdDeviation="2.76645"/>
<feColorMatrix type="matrix" values="0 0 0 0 0 0 0 0 0 0.878431 0 0 0 0 1 0 0 0 1 0"/>
<feBlend mode="normal" in2="BackgroundImageFix" result="effect1_dropShadow_12244_19803"/>
<feColorMatrix in="SourceAlpha" type="matrix" values="0 0 0 0 0 0 0 0 0 0 0 0 0 0 0 0 0 0 127 0" result="hardAlpha"/>
<feOffset/>
<feGaussianBlur stdDeviation="6.91612"/>
<feColorMatrix type="matrix" values="0 0 0 0 0 0 0 0 0 0.878431 0 0 0 0 1 0 0 0 1 0"/>
<feBlend mode="normal" in2="effect1_dropShadow_12244_19803" result="effect2_dropShadow_12244_19803"/>
<feBlend mode="normal" in="SourceGraphic" in2="effect2_dropShadow_12244_19803" result="shape"/>
</filter>
<linearGradient id="paint0_linear_12244_19803" x1="413.113" y1="353.692" x2="141.699" y2="192.652" gradientUnits="userSpaceOnUse">
<stop stop-color="#092349"/>
<stop offset="1" stop-color="#0A479C"/>
</linearGradient>
<linearGradient id="paint1_linear_12244_19803" x1="133.683" y1="247" x2="199.957" y2="272.764" gradientUnits="userSpaceOnUse">
<stop stop-color="white" stop-opacity="0.35"/>
<stop offset="1" stop-color="white" stop-opacity="0.15"/>
</linearGradient>
<linearGradient id="paint2_linear_12244_19803" x1="139.936" y1="248.315" x2="203.303" y2="282.212" gradientUnits="userSpaceOnUse">
<stop stop-color="white"/>
<stop offset="0.34223" stop-color="#15C1E6" stop-opacity="0.6"/>
<stop offset="0.691989" stop-color="#15C1E6" stop-opacity="0.7"/>
<stop offset="1" stop-color="#15C1E6" stop-opacity="0.45"/>
</linearGradient>
<linearGradient id="paint3_linear_12244_19803" x1="375.046" y1="204.502" x2="426.355" y2="224.448" gradientUnits="userSpaceOnUse">
<stop stop-color="white" stop-opacity="0.35"/>
<stop offset="1" stop-color="white" stop-opacity="0.15"/>
</linearGradient>
<linearGradient id="paint4_linear_12244_19803" x1="379.887" y1="205.52" x2="428.945" y2="231.763" gradientUnits="userSpaceOnUse">
<stop stop-color="white"/>
<stop offset="0.34223" stop-color="#15C1E6" stop-opacity="0.6"/>
<stop offset="0.691989" stop-color="#15C1E6" stop-opacity="0.7"/>
<stop offset="1" stop-color="#15C1E6" stop-opacity="0.45"/>
</linearGradient>
<linearGradient id="paint5_linear_12244_19803" x1="385.52" y1="284" x2="447.769" y2="308.199" gradientUnits="userSpaceOnUse">
<stop stop-color="white" stop-opacity="0.35"/>
<stop offset="1" stop-color="white" stop-opacity="0.15"/>
</linearGradient>
<linearGradient id="paint6_linear_12244_19803" x1="391.393" y1="285.235" x2="450.912" y2="317.074" gradientUnits="userSpaceOnUse">
<stop stop-color="white"/>
<stop offset="0.34223" stop-color="#15C1E6" stop-opacity="0.6"/>
<stop offset="0.691989" stop-color="#15C1E6" stop-opacity="0.7"/>
<stop offset="1" stop-color="#15C1E6" stop-opacity="0.45"/>
</linearGradient>
<linearGradient id="paint7_linear_12244_19803" x1="314.625" y1="178.119" x2="336.384" y2="104.945" gradientUnits="userSpaceOnUse">
<stop stop-color="#3D7FFC" stop-opacity="0.3"/>
<stop offset="1" stop-color="#00E0FF"/>
</linearGradient>
<linearGradient id="paint8_linear_12244_19803" x1="276.519" y1="178.119" x2="254.76" y2="104.945" gradientUnits="userSpaceOnUse">
<stop stop-color="#3D7FFC" stop-opacity="0.3"/>
<stop offset="1" stop-color="#00E0FF"/>
</linearGradient>
<linearGradient id="paint9_linear_12244_19803" x1="278.579" y1="178.119" x2="300.337" y2="104.945" gradientUnits="userSpaceOnUse">
<stop stop-color="#3D7FFC" stop-opacity="0.3"/>
<stop offset="1" stop-color="#00E0FF"/>
</linearGradient>
</defs>
</svg>
