<svg width="70" height="80" viewBox="0 0 70 80" fill="none" xmlns="http://www.w3.org/2000/svg">
<path d="M9.20725 72.6675C7.1958 72.1015 5.74846 70.3443 5.57827 68.2617L0.442788 5.41842C0.204464 2.50203 2.51037 0.00516911 5.43647 0.0111942L64.5596 0.132935C67.4872 0.138963 69.7832 2.64762 69.5307 5.56423L64.098 68.3099C63.9197 70.3685 62.4935 72.1054 60.5089 72.6808L36.636 79.6023C35.7394 79.8622 34.7879 79.866 33.8893 79.6131L9.20725 72.6675Z" fill="#E9CA32"/>
<path d="M6.57495 68.1802L1.43947 5.33697C1.24881 3.00386 3.09353 1.00637 5.43441 1.01119L64.5576 1.13293C66.8996 1.13776 68.7365 3.14468 68.5344 5.47797L63.1017 68.2236C62.9591 69.8705 61.8181 71.26 60.2304 71.7203L36.3575 78.6418C35.6403 78.8498 34.8791 78.8528 34.1602 78.6505L9.47814 71.7049C7.86898 71.2521 6.7111 69.8463 6.57495 68.1802Z" stroke="white" stroke-opacity="0.7" stroke-width="2"/>
<path d="M35.2617 73.0735V6.83154L64.0882 6.92763L58.9477 66.194L35.2617 73.0735Z" fill="#FFDE25"/>
<path d="M32.1771 14.6963H24.5561V58.7853L18.6287 57.6548V51.7197L11.5723 50.5892V63.8724L32.1771 69.2423V14.6963ZM37.894 14.6963H58.9916L57.5803 23.1467H45.9479V37.0138H57.5803L56.169 65.0029L37.894 69.2423V60.481L50.2416 56.2417L50.9546 44.6542L37.894 46.5477V14.6963Z" fill="white"/>
</svg>
