<svg width="70" height="80" viewBox="0 0 70 80" fill="none" xmlns="http://www.w3.org/2000/svg">
<path d="M9.20725 72.6675C7.1958 72.1015 5.74846 70.3443 5.57827 68.2617L0.442788 5.41842C0.204464 2.50203 2.51037 0.00516911 5.43647 0.0111942L64.5596 0.132935C67.4872 0.138963 69.7832 2.64762 69.5307 5.56423L64.098 68.3099C63.9197 70.3685 62.4935 72.1054 60.5089 72.6808L36.636 79.6023C35.7394 79.8622 34.7879 79.866 33.8893 79.6131L9.20725 72.6675Z" fill="#E34F26"/>
<path d="M6.57495 68.1802L1.43947 5.33697C1.24881 3.00386 3.09353 1.00637 5.43441 1.01119L64.5576 1.13293C66.8996 1.13776 68.7365 3.14468 68.5344 5.47797L63.1017 68.2236C62.9591 69.8705 61.8181 71.26 60.2304 71.7203L36.3575 78.6418C35.6403 78.8498 34.8791 78.8528 34.1602 78.6505L9.47814 71.7049C7.86898 71.2521 6.7111 69.8463 6.57495 68.1802Z" stroke="white" stroke-opacity="0.7" stroke-width="2"/>
<path d="M35.2617 73.073V6.83105L64.0882 6.92715L58.9477 66.1935L35.2617 73.073Z" fill="#EF652A"/>
<path d="M56.1629 23.3801L56.9792 14.6245H12.6348L15.0848 41.4679H45.6889L44.4887 52.9169L34.6876 55.5622L24.7425 52.6761L24.2141 45.8452H15.4212L16.6225 59.7959L34.687 64.8469L52.8955 59.7959L55.3455 32.5682H23.2048L22.2919 23.3801H56.1629Z" fill="white"/>
</svg>
