<svg width="50" height="75" viewBox="0 0 50 75" fill="none" xmlns="http://www.w3.org/2000/svg">
<path d="M24.9844 37.5158C24.9844 30.6253 30.5714 25.0107 37.4914 25.0107C44.3831 25.0107 49.9985 30.5969 49.9985 37.5158C49.9985 44.4063 44.4114 50.0208 37.4914 50.0208C30.5998 50.0208 24.9844 44.4063 24.9844 37.5158Z" fill="#1ABCFE"/>
<path d="M25.9844 37.5158C25.9844 31.1762 31.125 26.0107 37.4914 26.0107C43.8324 26.0107 48.9985 31.1508 48.9985 37.5158C48.9985 43.8554 43.8578 49.0208 37.4914 49.0208C31.1519 49.0208 25.9844 43.8539 25.9844 37.5158Z" stroke="white" stroke-opacity="0.7" stroke-width="2"/>
<path d="M0 62.4967C0 55.6062 5.58705 49.9917 12.507 49.9917H25.0141V62.4967C25.0141 69.3873 19.427 75.0018 12.507 75.0018C5.58705 75.0018 0 69.4156 0 62.4967Z" fill="#0ACF83"/>
<path d="M1 62.4967C1 56.1572 6.14066 50.9917 12.507 50.9917H24.0141V62.4967C24.0141 68.8363 18.8734 74.0018 12.507 74.0018C6.13918 74.0018 1 68.8632 1 62.4967Z" stroke="white" stroke-opacity="0.7" stroke-width="2"/>
<path d="M24.9844 0.0283561V25.0101H37.4914C44.3831 25.0101 49.9985 19.4239 49.9985 12.505C49.9985 5.61451 44.4114 0 37.4914 0H24.9844V0.0283561Z" fill="#FF7262"/>
<path d="M37.4914 24.0101H25.9844V1H37.4914C43.8578 1 48.9985 6.16547 48.9985 12.505C48.9985 18.87 43.8324 24.0101 37.4914 24.0101Z" stroke="white" stroke-opacity="0.7" stroke-width="2"/>
<path d="M0 12.5348C0 19.4254 5.58705 25.0399 12.507 25.0399H25.0141V0.0297852H12.507C5.58705 0.0297852 0 5.61594 0 12.5348Z" fill="#F24E1E"/>
<path d="M12.507 24.0399C6.14066 24.0399 1 18.8744 1 12.5348C1 6.16838 6.13918 1.02979 12.507 1.02979H24.0141V24.0399H12.507Z" stroke="white" stroke-opacity="0.7" stroke-width="2"/>
<path d="M0 37.5158C0 44.4063 5.58705 50.0208 12.507 50.0208H25.0141V25.0107H12.507C5.58705 25.0107 0 30.6253 0 37.5158Z" fill="#A259FF"/>
<path d="M12.507 49.0208C6.14066 49.0208 1 43.8554 1 37.5158C1 31.1762 6.14066 26.0107 12.507 26.0107H24.0141V49.0208H12.507Z" stroke="white" stroke-opacity="0.7" stroke-width="2"/>
</svg>
