<svg width="150" height="150" viewBox="0 0 150 150" fill="none" xmlns="http://www.w3.org/2000/svg">
<path d="M55.8717 45.7312C55.8738 45.7623 55.876 45.7897 55.8783 45.813L55.9016 54.3144L55.9043 55.3117H56.9016H74.0703V55.8781H49.7278C49.6967 55.8754 49.6554 55.8722 49.6045 55.8691C49.4968 55.8626 49.3459 55.8564 49.1579 55.8562C48.7825 55.8559 48.2565 55.8796 47.6295 55.9732C46.3769 56.1603 44.7044 56.6296 43.0306 57.7597C39.6277 60.0574 36.5 64.8837 36.5 74.7093C36.5 84.4906 39.2116 89.4573 42.1739 91.9436C43.6422 93.176 45.1201 93.7522 46.2413 94.0181C46.8011 94.1508 47.2725 94.2065 47.6117 94.2286C47.7814 94.2396 47.9186 94.2423 48.0179 94.2419C48.0675 94.2418 48.1077 94.2408 48.1378 94.2398C48.145 94.2395 48.1517 94.2393 48.1577 94.239H54.4805H55.4805V93.239V84.3234V84.3073L55.48 84.2933L55.48 84.2927L55.48 84.2921L55.48 84.2916L55.4799 84.2912L55.4797 84.2771C55.4795 84.2626 55.4792 84.2386 55.4793 84.2057C55.4794 84.1398 55.4807 84.0385 55.4861 83.9069C55.4967 83.6432 55.5231 83.2601 55.5866 82.7978C55.7141 81.8682 55.9876 80.6457 56.5632 79.4364C57.1365 78.2319 58.0005 77.0579 59.3076 76.182C60.6096 75.3096 62.4148 74.6898 64.9453 74.6898H82.9585L82.963 74.6899L82.9927 74.69C83.0173 74.69 83.0514 74.6898 83.0943 74.6891C83.1801 74.6877 83.3013 74.6842 83.453 74.676C83.7561 74.6596 84.1827 74.6244 84.6921 74.5493C85.7059 74.3997 87.0743 74.0878 88.4557 73.4314C89.8409 72.7733 91.2604 71.7582 92.3316 70.1966C93.4077 68.628 94.089 66.5704 94.089 63.9047V47.516C94.0918 47.4915 94.0947 47.4627 94.0976 47.4296C94.1061 47.3334 94.1143 47.2011 94.1162 47.0379C94.12 46.7119 94.0987 46.2595 94.0028 45.7227C93.8103 44.645 93.3169 43.2308 92.1346 41.8315C89.7601 39.0213 84.8166 36.5 74.7305 36.5C65.1034 36.5 60.3183 38.5813 57.9602 40.9182C56.7753 42.0924 56.2433 43.2944 56.0177 44.2331C55.9058 44.6985 55.8705 45.0933 55.8645 45.3814C55.8615 45.5256 55.8658 45.6436 55.8717 45.7312ZM64.7109 48.7906L64.7095 48.7906C64.4115 48.791 64.1164 48.7327 63.841 48.6188C63.5657 48.505 63.3154 48.338 63.1048 48.1273C62.8941 47.9166 62.727 47.6664 62.6132 47.391C62.4993 47.1156 62.441 46.8205 62.4414 46.5225V46.5211C62.4414 45.2663 63.4562 44.2516 64.7109 44.2516C65.9657 44.2516 66.9805 45.2663 66.9805 46.5211C66.9805 47.7758 65.9657 48.7906 64.7109 48.7906Z" fill="url(#paint0_linear_70_26)" stroke="white" stroke-width="2"/>
<path d="M93.0983 94.2971H75.9296V93.7307H100.27C100.301 93.7334 100.342 93.7366 100.393 93.7397C100.501 93.7462 100.652 93.7524 100.84 93.7526C101.215 93.7529 101.741 93.7292 102.368 93.6356C103.621 93.4485 105.294 92.9794 106.968 91.8495C110.372 89.5522 113.5 84.7263 113.5 74.9018C113.5 65.1194 110.788 60.1527 107.826 57.6666C106.358 56.4343 104.88 55.8584 103.758 55.5927C103.199 55.4601 102.727 55.4045 102.388 55.3825C102.218 55.3714 102.081 55.3688 101.982 55.3692C101.932 55.3694 101.892 55.3703 101.862 55.3714C101.855 55.3716 101.848 55.3719 101.842 55.3721H95.5194H94.5194V56.3721V65.2854V65.3015L94.5199 65.3155L94.5199 65.3161L94.5199 65.3167L94.5199 65.3172L94.52 65.3176L94.5202 65.3317C94.5203 65.338 94.5204 65.3462 94.5205 65.356C94.5206 65.3688 94.5207 65.3846 94.5206 65.4031C94.5205 65.469 94.5192 65.5703 94.5138 65.7019C94.5032 65.9656 94.4768 66.3487 94.4133 66.811C94.2858 67.7406 94.0123 68.9631 93.4367 70.1724C92.8634 71.3769 91.9994 72.5509 90.6923 73.4268C89.3903 74.2992 87.5851 74.919 85.0546 74.919H67.0413L67.0369 74.9189L67.0072 74.9188C66.9825 74.9188 66.9485 74.919 66.9056 74.9197C66.8198 74.9211 66.6986 74.9246 66.5469 74.9328C66.2438 74.9492 65.8172 74.9844 65.3078 75.0595C64.294 75.2091 62.9256 75.521 61.5442 76.1774C60.159 76.8355 58.7395 77.8506 57.6683 79.4122C56.5922 80.9808 55.9109 83.0384 55.9109 85.7041V102.093C55.9081 102.117 55.9052 102.146 55.9023 102.179C55.8938 102.275 55.8856 102.408 55.8837 102.571C55.8799 102.897 55.9012 103.349 55.9971 103.886C56.1896 104.964 56.683 106.378 57.8653 107.777C60.2398 110.588 65.1833 113.109 75.2694 113.109C84.8965 113.109 89.6816 111.027 92.0397 108.691C93.2245 107.516 93.7566 106.314 93.9822 105.376C94.0941 104.91 94.1294 104.516 94.1354 104.227C94.1384 104.083 94.1341 103.965 94.1282 103.878C94.1261 103.846 94.1239 103.819 94.1216 103.796L94.0983 95.2944L94.0956 94.2971H93.0983ZM85.289 105.357L85.2875 105.357C84.9896 105.358 84.6944 105.299 84.4191 105.185C84.1437 105.072 83.8935 104.905 83.6828 104.694C83.4721 104.483 83.305 104.233 83.1912 103.958C83.0774 103.682 83.019 103.387 83.0194 103.089V103.088C83.0194 101.836 84.0338 100.821 85.289 100.821C86.5446 100.821 87.5585 101.834 87.5585 103.088C87.5585 104.344 86.5442 105.357 85.289 105.357Z" fill="url(#paint1_linear_70_26)" stroke="white" stroke-width="2"/>
<defs>
<linearGradient id="paint0_linear_70_26" x1="44.707" y1="44.0203" x2="81.7922" y2="81.2297" gradientUnits="userSpaceOnUse">
<stop stop-color="#387EB8"/>
<stop offset="1" stop-color="#366994"/>
</linearGradient>
<linearGradient id="paint1_linear_70_26" x1="67.521" y1="67.6924" x2="107.351" y2="105.851" gradientUnits="userSpaceOnUse">
<stop stop-color="#FFE052"/>
<stop offset="1" stop-color="#FFC331"/>
</linearGradient>
</defs>
</svg>
