<svg width="212" height="112" viewBox="0 0 212 112" fill="none" xmlns="http://www.w3.org/2000/svg">
<g filter="url(#filter0_dd_56_169)">
<mask id="path-1-inside-1_56_169" fill="white">
<path d="M6 26C6 14.9543 14.9543 6 26 6H186C197.046 6 206 14.9543 206 26V86C206 97.0457 197.046 106 186 106H26C14.9543 106 6 97.0457 6 86V26Z"/>
</mask>
<path d="M6 26C6 14.9543 14.9543 6 26 6H186C197.046 6 206 14.9543 206 26V86C206 97.0457 197.046 106 186 106H26C14.9543 106 6 97.0457 6 86V26Z" fill="white"/>
<path d="M6 6H206H6ZM206 106H6H206ZM26 106C12.7452 106 2 95.2548 2 82V30C2 16.7452 12.7452 6 26 6C17.1634 6 10 14.9543 10 26V86C10 97.0457 17.1634 106 26 106ZM186 6C199.255 6 210 16.7452 210 30V82C210 95.2548 199.255 106 186 106C194.837 106 202 97.0457 202 86V26C202 14.9543 194.837 6 186 6Z" fill="#00B6E8" mask="url(#path-1-inside-1_56_169)"/>
</g>
<path d="M53.264 47.6716L47.7233 53.2589L42.5801 42.0186L45.237 35.5556C45.9085 34.2664 47.0068 34.2493 47.6783 35.5556L53.264 47.6716Z" fill="#FFA000"/>
<path d="M47.7254 53.2571L27 74.1348L42.5823 42.0192L47.7254 53.2571Z" fill="#F57F17"/>
<path d="M59.3391 39.1266C60.3318 38.1025 61.3537 38.4479 61.612 39.9025L67 73.8522L49.1291 85.472C48.5025 85.8515 46.8405 85.9999 46.8405 85.9999C46.8405 85.9999 45.329 85.8004 44.7496 85.455L27 74.1344L59.3391 39.1266Z" fill="#FFCA28"/>
<path d="M42.5823 42.0189L27 74.1345L33.9444 27.1931C34.2049 25.7385 34.9663 25.5901 35.6536 26.8793L42.5823 42.0189Z" fill="#FFA000"/>
<path d="M83.112 54.928H91.488V57.568H83.112V54.928ZM83.376 64H80.256V47.2H92.52V49.816H83.376V64ZM95.2493 64V51.184H98.2493V64H95.2493ZM96.7613 49.072C96.2013 49.072 95.7373 48.896 95.3693 48.544C95.0173 48.192 94.8413 47.768 94.8413 47.272C94.8413 46.76 95.0173 46.336 95.3693 46C95.7373 45.648 96.2013 45.472 96.7613 45.472C97.3213 45.472 97.7773 45.64 98.1293 45.976C98.4973 46.296 98.6813 46.704 98.6813 47.2C98.6813 47.728 98.5053 48.176 98.1533 48.544C97.8013 48.896 97.3373 49.072 96.7613 49.072ZM102.187 64V51.184H105.043V54.712L104.707 53.68C105.091 52.816 105.691 52.16 106.507 51.712C107.339 51.264 108.371 51.04 109.603 51.04V53.896C109.475 53.864 109.355 53.848 109.243 53.848C109.131 53.832 109.019 53.824 108.907 53.824C107.771 53.824 106.867 54.16 106.195 54.832C105.523 55.488 105.187 56.472 105.187 57.784V64H102.187ZM118.055 64.168C116.631 64.168 115.383 63.888 114.311 63.328C113.255 62.752 112.431 61.968 111.839 60.976C111.263 59.984 110.975 58.856 110.975 57.592C110.975 56.312 111.255 55.184 111.815 54.208C112.391 53.216 113.175 52.44 114.167 51.88C115.175 51.32 116.319 51.04 117.599 51.04C118.847 51.04 119.959 51.312 120.935 51.856C121.911 52.4 122.679 53.168 123.239 54.16C123.799 55.152 124.079 56.32 124.079 57.664C124.079 57.792 124.071 57.936 124.055 58.096C124.055 58.256 124.047 58.408 124.031 58.552H113.351V56.56H122.447L121.271 57.184C121.287 56.448 121.135 55.8 120.815 55.24C120.495 54.68 120.055 54.24 119.495 53.92C118.951 53.6 118.319 53.44 117.599 53.44C116.863 53.44 116.215 53.6 115.655 53.92C115.111 54.24 114.679 54.688 114.359 55.264C114.055 55.824 113.903 56.488 113.903 57.256V57.736C113.903 58.504 114.079 59.184 114.431 59.776C114.783 60.368 115.279 60.824 115.919 61.144C116.559 61.464 117.295 61.624 118.127 61.624C118.847 61.624 119.495 61.512 120.071 61.288C120.647 61.064 121.159 60.712 121.607 60.232L123.215 62.08C122.639 62.752 121.911 63.272 121.031 63.64C120.167 63.992 119.175 64.168 118.055 64.168ZM134.064 64.168C132.976 64.168 132.008 63.928 131.16 63.448C130.312 62.968 129.64 62.248 129.144 61.288C128.664 60.312 128.424 59.08 128.424 57.592C128.424 56.088 128.672 54.856 129.168 53.896C129.68 52.936 130.36 52.224 131.208 51.76C132.072 51.28 133.024 51.04 134.064 51.04C135.328 51.04 136.44 51.312 137.4 51.856C138.376 52.4 139.144 53.16 139.704 54.136C140.28 55.112 140.568 56.264 140.568 57.592C140.568 58.92 140.28 60.072 139.704 61.048C139.144 62.024 138.376 62.792 137.4 63.352C136.44 63.896 135.328 64.168 134.064 64.168ZM126.96 64V46.192H129.96V54.16L129.72 57.568L129.816 60.976V64H126.96ZM133.728 61.6C134.448 61.6 135.088 61.44 135.648 61.12C136.224 60.8 136.68 60.336 137.016 59.728C137.352 59.12 137.52 58.408 137.52 57.592C137.52 56.76 137.352 56.048 137.016 55.456C136.68 54.848 136.224 54.384 135.648 54.064C135.088 53.744 134.448 53.584 133.728 53.584C133.008 53.584 132.36 53.744 131.784 54.064C131.208 54.384 130.752 54.848 130.416 55.456C130.08 56.048 129.912 56.76 129.912 57.592C129.912 58.408 130.08 59.12 130.416 59.728C130.752 60.336 131.208 60.8 131.784 61.12C132.36 61.44 133.008 61.6 133.728 61.6ZM151.145 64V61.408L150.977 60.856V56.32C150.977 55.44 150.713 54.76 150.185 54.28C149.657 53.784 148.857 53.536 147.785 53.536C147.065 53.536 146.353 53.648 145.649 53.872C144.961 54.096 144.377 54.408 143.897 54.808L142.721 52.624C143.409 52.096 144.225 51.704 145.169 51.448C146.129 51.176 147.121 51.04 148.145 51.04C150.001 51.04 151.433 51.488 152.441 52.384C153.465 53.264 153.977 54.632 153.977 56.488V64H151.145ZM147.113 64.168C146.153 64.168 145.313 64.008 144.593 63.688C143.873 63.352 143.313 62.896 142.913 62.32C142.529 61.728 142.337 61.064 142.337 60.328C142.337 59.608 142.505 58.96 142.841 58.384C143.193 57.808 143.761 57.352 144.545 57.016C145.329 56.68 146.369 56.512 147.665 56.512H151.385V58.504H147.881C146.857 58.504 146.169 58.672 145.817 59.008C145.465 59.328 145.289 59.728 145.289 60.208C145.289 60.752 145.505 61.184 145.937 61.504C146.369 61.824 146.969 61.984 147.737 61.984C148.473 61.984 149.129 61.816 149.705 61.48C150.297 61.144 150.721 60.648 150.977 59.992L151.481 61.792C151.193 62.544 150.673 63.128 149.921 63.544C149.185 63.96 148.249 64.168 147.113 64.168ZM161.787 64.168C160.715 64.168 159.683 64.032 158.691 63.76C157.715 63.472 156.939 63.128 156.363 62.728L157.515 60.448C158.091 60.816 158.779 61.12 159.579 61.36C160.379 61.6 161.179 61.72 161.979 61.72C162.923 61.72 163.603 61.592 164.019 61.336C164.451 61.08 164.667 60.736 164.667 60.304C164.667 59.952 164.523 59.688 164.235 59.512C163.947 59.32 163.571 59.176 163.107 59.08C162.643 58.984 162.123 58.896 161.547 58.816C160.987 58.736 160.419 58.632 159.843 58.504C159.283 58.36 158.771 58.16 158.307 57.904C157.843 57.632 157.467 57.272 157.179 56.824C156.891 56.376 156.747 55.784 156.747 55.048C156.747 54.232 156.979 53.528 157.443 52.936C157.907 52.328 158.555 51.864 159.387 51.544C160.235 51.208 161.235 51.04 162.387 51.04C163.251 51.04 164.123 51.136 165.003 51.328C165.883 51.52 166.611 51.792 167.187 52.144L166.035 54.424C165.427 54.056 164.811 53.808 164.187 53.68C163.579 53.536 162.971 53.464 162.363 53.464C161.451 53.464 160.771 53.6 160.323 53.872C159.891 54.144 159.675 54.488 159.675 54.904C159.675 55.288 159.819 55.576 160.107 55.768C160.395 55.96 160.771 56.112 161.235 56.224C161.699 56.336 162.211 56.432 162.771 56.512C163.347 56.576 163.915 56.68 164.475 56.824C165.035 56.968 165.547 57.168 166.011 57.424C166.491 57.664 166.875 58.008 167.163 58.456C167.451 58.904 167.595 59.488 167.595 60.208C167.595 61.008 167.355 61.704 166.875 62.296C166.411 62.888 165.747 63.352 164.883 63.688C164.019 64.008 162.987 64.168 161.787 64.168ZM176.203 64.168C174.779 64.168 173.531 63.888 172.459 63.328C171.403 62.752 170.579 61.968 169.987 60.976C169.411 59.984 169.123 58.856 169.123 57.592C169.123 56.312 169.403 55.184 169.963 54.208C170.539 53.216 171.323 52.44 172.315 51.88C173.323 51.32 174.467 51.04 175.747 51.04C176.995 51.04 178.107 51.312 179.083 51.856C180.059 52.4 180.827 53.168 181.387 54.16C181.947 55.152 182.227 56.32 182.227 57.664C182.227 57.792 182.219 57.936 182.203 58.096C182.203 58.256 182.195 58.408 182.179 58.552H171.499V56.56H180.595L179.419 57.184C179.435 56.448 179.283 55.8 178.963 55.24C178.643 54.68 178.203 54.24 177.643 53.92C177.099 53.6 176.467 53.44 175.747 53.44C175.011 53.44 174.363 53.6 173.803 53.92C173.259 54.24 172.827 54.688 172.507 55.264C172.203 55.824 172.051 56.488 172.051 57.256V57.736C172.051 58.504 172.227 59.184 172.579 59.776C172.931 60.368 173.427 60.824 174.067 61.144C174.707 61.464 175.443 61.624 176.275 61.624C176.995 61.624 177.643 61.512 178.219 61.288C178.795 61.064 179.307 60.712 179.755 60.232L181.363 62.08C180.787 62.752 180.059 63.272 179.179 63.64C178.315 63.992 177.323 64.168 176.203 64.168Z" fill="black"/>
<defs>
<filter id="filter0_dd_56_169" x="0" y="0" width="212" height="112" filterUnits="userSpaceOnUse" color-interpolation-filters="sRGB">
<feFlood flood-opacity="0" result="BackgroundImageFix"/>
<feColorMatrix in="SourceAlpha" type="matrix" values="0 0 0 0 0 0 0 0 0 0 0 0 0 0 0 0 0 0 127 0" result="hardAlpha"/>
<feOffset dx="2" dy="2"/>
<feGaussianBlur stdDeviation="2"/>
<feComposite in2="hardAlpha" operator="out"/>
<feColorMatrix type="matrix" values="0 0 0 0 0 0 0 0 0 0 0 0 0 0 0 0 0 0 0.25 0"/>
<feBlend mode="normal" in2="BackgroundImageFix" result="effect1_dropShadow_56_169"/>
<feColorMatrix in="SourceAlpha" type="matrix" values="0 0 0 0 0 0 0 0 0 0 0 0 0 0 0 0 0 0 127 0" result="hardAlpha"/>
<feOffset dx="-2" dy="-2"/>
<feGaussianBlur stdDeviation="2"/>
<feComposite in2="hardAlpha" operator="out"/>
<feColorMatrix type="matrix" values="0 0 0 0 0 0 0 0 0 0 0 0 0 0 0 0 0 0 0.25 0"/>
<feBlend mode="normal" in2="effect1_dropShadow_56_169" result="effect2_dropShadow_56_169"/>
<feBlend mode="normal" in="SourceGraphic" in2="effect2_dropShadow_56_169" result="shape"/>
</filter>
</defs>
</svg>
