<svg width="212" height="112" viewBox="0 0 212 112" fill="none" xmlns="http://www.w3.org/2000/svg">
<g filter="url(#filter0_dd_56_178)">
<mask id="path-1-inside-1_56_178" fill="white">
<path d="M6 26C6 14.9543 14.9543 6 26 6H186C197.046 6 206 14.9543 206 26V86C206 97.0457 197.046 106 186 106H26C14.9543 106 6 97.0457 6 86V26Z"/>
</mask>
<path d="M6 26C6 14.9543 14.9543 6 26 6H186C197.046 6 206 14.9543 206 26V86C206 97.0457 197.046 106 186 106H26C14.9543 106 6 97.0457 6 86V26Z" fill="white"/>
<path d="M6 6H206H6ZM206 106H6H206ZM26 106C12.7452 106 2 95.2548 2 82V30C2 16.7452 12.7452 6 26 6C17.1634 6 10 14.9543 10 26V86C10 97.0457 17.1634 106 26 106ZM186 6C199.255 6 210 16.7452 210 30V82C210 95.2548 199.255 106 186 106C194.837 106 202 97.0457 202 86V26C202 14.9543 194.837 6 186 6Z" fill="#00B6E8" mask="url(#path-1-inside-1_56_178)"/>
</g>
<path d="M39.9309 24.1705L41.6101 27.3291C41.9876 27.9121 42.3968 28.4279 42.8766 28.9084C44.2877 30.304 45.6036 31.795 46.8136 33.3708C49.6571 37.1088 51.5762 41.2637 52.945 45.7579C53.7669 48.4996 54.2114 51.319 54.2467 54.1631C54.3843 62.6744 51.4703 69.9809 45.6001 76.0543C44.6476 77.0153 43.6139 77.9021 42.5133 78.6935C41.9312 78.6935 41.656 78.2484 41.4161 77.835C40.9787 77.0718 40.6894 76.2345 40.5589 75.3654C40.3507 74.3337 40.2167 73.3055 40.2837 72.2456V71.7651C40.2378 71.6556 39.7263 24.4143 39.9309 24.1705Z" fill="#599636"/>
<path d="M39.9299 24.0681C39.8629 23.9303 39.7923 24.0328 39.7218 24.1034C39.7571 24.7924 39.5136 25.4071 39.1397 25.9936C38.7269 26.5766 38.1801 27.0253 37.6298 27.5058C34.5853 30.1451 32.1864 33.339 30.2673 36.9074C27.7096 41.7089 26.3938 46.8567 26.0233 52.28C25.854 54.2338 26.6407 61.1305 27.2581 63.1196C28.9373 68.4051 31.95 72.8321 35.8588 76.6726C36.8184 77.5983 37.845 78.4569 38.9033 79.2836C39.2138 79.2836 39.2455 79.008 39.3161 78.8031C39.4537 78.365 39.556 77.9198 39.6265 77.4676L40.3145 72.3234L39.9299 24.0681Z" fill="#6CAC48"/>
<path d="M41.6078 80.778C41.6748 79.9901 42.0523 79.3401 42.465 78.6864C42.0523 78.5168 41.7454 78.1741 41.5055 77.7961C41.2973 77.4357 41.128 77.0577 40.9939 76.6619C40.5142 75.224 40.4119 73.7083 40.2743 72.2385V71.3481C40.1049 71.4859 40.0661 72.6519 40.0661 72.825C39.9674 74.3831 39.7592 75.9271 39.4488 77.4569C39.3465 78.0752 39.2794 78.6935 38.8984 79.2411C38.8984 79.3083 38.8984 79.3789 38.9337 79.4814C39.5511 81.3009 39.7204 83.1523 39.8227 85.0425V85.7315C39.8227 86.5547 39.7874 86.3815 40.4718 86.6571C40.747 86.7596 41.0539 86.7949 41.3291 86.9998C41.5372 86.9998 41.569 86.8303 41.569 86.6889L41.4667 85.5548V82.3962C41.4349 81.845 41.5372 81.2974 41.6078 80.778Z" fill="#C2BFBF"/>
<path d="M75.6342 55.6134V58.5906C75.6342 58.7102 75.6342 58.8299 75.6553 58.9425C75.6904 59.2944 75.9083 59.5126 76.2244 59.6111C76.5197 59.6885 76.8218 59.7448 77.124 59.787C77.2997 59.8082 77.3559 59.8856 77.377 60.0756C77.398 60.7442 77.3419 60.8216 76.6953 60.7794C75.1914 60.702 73.6805 60.6808 72.1767 60.7794H72.0361C71.5653 60.8006 71.5302 60.7583 71.5302 60.2867C71.5302 60.2093 71.5512 60.1108 71.5512 60.0334C71.5512 59.8926 71.6496 59.8152 71.7831 59.8152C72.0994 59.7801 72.3875 59.6956 72.6826 59.6392C73.0902 59.5407 73.3291 59.2874 73.3643 58.8721C73.4205 58.4217 73.4205 57.9501 73.4205 57.4997L73.4416 52.2493C73.4556 51.9396 73.287 51.651 73.0129 51.5032C72.6616 51.3062 72.282 51.1514 71.8955 51.0317C71.7761 50.9966 71.6636 50.9754 71.5653 50.9121C71.2771 50.7713 71.2701 50.5179 71.5442 50.3631C71.6426 50.3068 71.762 50.2645 71.8745 50.2435C73.0605 50.0676 74.2259 49.7729 75.3531 49.3637C75.585 49.2863 75.6482 49.3074 75.6693 49.5397C75.6904 49.6804 75.6693 49.8564 75.6482 49.9901C75.6131 50.2435 75.6131 50.4968 75.6131 50.7361C75.6131 50.8347 75.6342 50.9332 75.7326 50.9895C75.831 51.0457 75.9293 50.9895 76.0207 50.9332C76.4283 50.6165 76.8429 50.3279 77.2927 50.0745C77.9392 49.7226 78.6208 49.4059 79.3658 49.3074C80.2653 49.1877 81.0453 49.427 81.734 50.0112C82.0151 50.2645 82.2681 50.5531 82.4789 50.8698C82.6757 51.1584 82.6968 51.1654 82.9497 50.9684C83.6947 50.4194 84.4747 49.9338 85.318 49.5748C86.1964 49.2018 87.0959 49.1456 87.9955 49.4552C88.9161 49.786 89.5415 50.4335 89.914 51.3132C90.2302 52.017 90.3637 52.749 90.3637 53.5092V58.7595C90.3637 59.1114 90.5043 59.3296 90.8557 59.5055C91.2281 59.6463 91.6357 59.7237 92.0292 59.8012C92.2822 59.8575 92.2822 59.8575 92.2822 60.1179C92.2471 60.7653 92.1838 60.8006 91.5584 60.7653C89.9903 60.6738 88.4182 60.6738 86.85 60.7653C86.5338 60.7864 86.5338 60.7864 86.5197 60.4697V60.3712C86.4986 59.8433 86.4986 59.8433 87.0116 59.7237L87.5176 59.5829C87.869 59.4985 88.122 59.1818 88.122 58.8158L88.1782 57.3448L88.1431 53.5092C88.129 53.1643 88.0587 52.8264 87.9252 52.5098C87.4333 51.3132 86.3581 50.8839 85.325 51.0035C84.545 51.0809 83.8563 51.3977 83.2098 51.8482C83.0692 51.9467 82.9778 52.0663 82.9919 52.2563C83.1676 53.5091 83.0482 54.7619 83.0692 56.0146V58.7384C83.0692 59.2311 83.266 59.4633 83.7368 59.5829L84.6363 59.7801C84.7769 59.8012 84.8542 59.8575 84.8542 60.0123V60.153C84.8331 60.702 84.798 60.7231 84.2498 60.7231C82.6827 60.6457 81.1226 60.6668 79.5766 60.7231C79.0495 60.7442 79.0074 60.6879 79.0284 60.1531C79.0495 59.8363 79.0846 59.8222 79.3798 59.7589L80.0263 59.6392C80.5956 59.5196 80.8064 59.3084 80.8486 58.6962L80.9047 57.38L80.8696 53.4458C80.8345 52.9531 80.7291 52.4886 80.462 52.0382C80.0685 51.3132 79.4571 50.9402 78.6208 50.9051C77.7775 50.8487 77.0397 51.1584 76.3299 51.5525C75.8379 51.8411 75.6272 52.1789 75.6623 52.7491V55.6065L75.6342 55.6134ZM112.479 55.7332V58.4921C112.479 58.6891 112.493 58.8862 112.514 59.0762C112.528 59.3436 112.725 59.5689 112.985 59.6252C113.322 59.7238 113.667 59.78 114.018 59.8012C114.215 59.8222 114.25 59.8997 114.271 60.0545V60.1953C114.25 60.878 114.173 60.9624 113.505 60.9202C112.015 60.8217 110.533 60.8427 109.05 60.9202L108.481 60.9413C108.361 60.9413 108.34 60.885 108.305 60.8006C108.249 60.529 108.249 60.2487 108.305 59.9771C108.326 59.8575 108.403 59.8363 108.523 59.8012C108.811 59.766 109.05 59.7026 109.324 59.6603C109.816 59.5408 109.991 59.3436 110.006 58.8369L110.062 57.19V52.3689C110.062 52.017 109.921 51.7989 109.612 51.644C109.261 51.4469 108.888 51.3132 108.495 51.1725C108.375 51.1373 108.263 51.0951 108.164 51.0317C107.911 50.8558 107.876 50.6023 108.129 50.4053C108.242 50.3138 108.375 50.2575 108.523 50.2505C109.774 50.0534 110.989 49.779 112.163 49.3074C112.304 49.2511 112.36 49.2863 112.416 49.4059C112.472 49.5256 112.493 49.6593 112.472 49.8001L112.416 50.7221C112.416 50.8417 112.36 51.0106 112.451 51.0528C112.571 51.1302 112.648 50.9543 112.746 50.9121C113.322 50.4263 113.961 50.0193 114.644 49.7015C115.248 49.413 115.873 49.23 116.576 49.2722C117.89 49.3496 118.825 50.0182 119.429 51.1725C119.746 51.7778 119.879 52.4463 119.935 53.129L119.992 54.5648L120.013 58.8933C120.034 59.224 120.153 59.4422 120.483 59.5619C120.828 59.6744 121.18 59.7591 121.538 59.8152C121.854 59.8504 121.868 59.9138 121.889 60.2093V60.3079C121.854 60.9765 121.812 60.9906 121.144 60.9554C119.686 60.878 118.224 60.878 116.766 60.9554C116.569 60.9765 116.372 60.9554 116.197 60.9765C116.077 60.9765 116 60.9554 115.979 60.8357C115.944 60.5823 115.902 60.329 115.958 60.0545C115.979 59.9349 116.035 59.8786 116.176 59.8574L117.075 59.7166C117.391 59.6392 117.567 59.4281 117.602 59.1466L117.637 58.5977L117.616 54.5015C117.616 54.03 117.595 53.5584 117.497 53.0939C117.265 52.0875 116.499 51.3766 115.466 51.271C114.566 51.1724 113.751 51.4118 112.999 51.8974C112.627 52.1296 112.472 52.4675 112.472 52.8757V55.8316C112.472 55.7753 112.472 55.7753 112.493 55.7753L112.479 55.7332Z" fill="#47474A"/>
<path d="M169.748 50.1948C169.53 48.7661 169.003 47.4923 168.083 46.3731C167.281 45.3879 166.248 44.6207 165.068 44.1421C163.838 43.6354 162.524 43.4735 161.196 43.4383C160.648 43.4172 153.177 43.5368 152.629 43.4383C152.489 43.4172 152.397 43.4594 152.313 43.5791C152.215 43.7198 152.116 43.8746 152.06 44.0295C151.828 44.5573 151.828 44.5222 152.39 44.5995C152.861 44.677 153.311 44.7192 153.761 44.8529C154.168 44.9937 154.463 45.226 154.562 45.6764C154.597 45.8946 154.639 52.7849 154.639 55.9942L154.562 58.2886C154.541 58.4645 154.527 58.6405 154.463 58.7953C154.386 59.0276 154.245 59.2247 154.014 59.3232C153.754 59.4428 153.48 59.5203 153.191 59.5414C152.664 59.5976 152.587 59.6188 152.411 60.21L152.355 60.4282C152.32 60.6815 152.334 60.7237 152.587 60.7237L158.434 60.78L160.725 60.7449L162.306 60.5478C164.105 60.217 165.707 59.471 167.078 58.2745C167.858 57.5848 168.497 56.7473 168.954 55.8042C169.502 54.7062 169.734 53.5097 169.797 52.2992C169.903 51.6024 169.868 50.8987 169.748 50.1948ZM166.916 52.9749C166.839 54.2276 166.586 55.4452 165.939 56.5361C165.117 57.9648 163.943 58.9642 162.32 59.3162C161.617 59.4569 160.915 59.5343 160.177 59.4358C159.65 59.3795 159.144 59.3161 158.652 59.1402C157.773 58.8235 157.457 58.2815 157.443 57.4229L157.422 45.613C157.422 44.9093 157.738 44.7544 158.244 44.7333C159.01 44.677 159.79 44.6981 160.549 44.7684C161.364 44.8459 162.158 45.043 162.917 45.3386C163.48 45.5709 164 45.8946 164.463 46.2957C165.518 47.1966 166.22 48.3297 166.607 49.6599C166.923 50.7368 166.979 51.8346 166.923 52.9326L166.916 52.9749ZM186.003 54.8962C186.003 54.7766 186.003 54.6781 185.982 54.5655C185.806 53.4886 185.237 52.6652 184.358 52.0388C183.789 51.6306 183.149 51.3561 182.482 51.1591C182.362 51.1239 182.264 51.0816 182.152 51.0605C182.173 50.9619 182.229 50.9408 182.292 50.9198C182.686 50.7226 183.058 50.5115 183.388 50.216C183.993 49.7092 184.393 49.0828 184.597 48.3157C184.717 47.9075 184.717 47.4922 184.674 47.0629C184.611 46.0424 184.084 45.1063 183.248 44.5151C182.348 43.8465 181.294 43.572 180.198 43.5579C178.083 43.5228 175.953 43.5579 173.845 43.5579C173.241 43.5579 172.636 43.5931 172.004 43.5016C171.884 43.4805 171.716 43.4454 171.631 43.5791C171.491 43.8324 171.315 44.0858 171.259 44.3814C171.238 44.5222 171.28 44.5996 171.435 44.6136L172.784 44.8108C173.311 44.8882 173.683 45.1837 173.726 45.6553C173.761 45.979 173.782 46.3098 173.782 46.6335L173.747 50.2934L173.726 57.5355C173.726 57.9648 173.669 58.3801 173.585 58.8094C173.543 59.0909 173.346 59.3161 173.079 59.3935C172.686 59.5132 172.313 59.6258 171.906 59.6258C171.681 59.6047 171.47 59.7455 171.4 59.9567C171.322 60.1326 171.259 60.3296 171.224 60.5056C171.189 60.7378 171.245 60.8223 171.477 60.7942C171.653 60.773 178.104 60.9349 179.32 60.8153C180.043 60.7379 180.753 60.6393 181.47 60.4212C182.7 60.027 183.838 59.4639 184.738 58.4997C185.483 57.7185 185.911 56.7754 185.946 55.6775C186.003 55.4241 186.003 55.1707 186.003 54.8962ZM176.516 46.8658L176.572 45.2964C176.572 45.0007 176.691 44.867 176.979 44.8037C177.45 44.7051 177.921 44.7473 178.385 44.7685C178.856 44.8037 179.305 44.8671 179.776 45.0008C180.634 45.2541 181.301 45.7468 181.695 46.5702C181.87 46.9432 181.969 47.3515 181.969 47.7667C181.99 48.3156 181.948 48.8435 181.737 49.3714C181.407 50.0963 180.88 50.5679 180.114 50.7016C179.348 50.8423 177.183 50.779 176.846 50.779C176.551 50.779 176.53 50.7439 176.53 50.4482V48.6042C176.48 48.0342 176.48 47.457 176.509 46.8799L176.516 46.8658ZM182.868 57.4018C182.538 58.2815 181.927 58.8938 181.069 59.2247C180.598 59.4006 180.128 59.5132 179.636 59.478C179.031 59.4569 178.427 59.478 177.816 59.3584C176.993 59.1824 176.621 58.4012 176.565 57.8311C176.466 56.8317 176.53 55.8112 176.509 55.0722V52.4892C176.509 52.1725 176.544 52.081 176.881 52.081L178.722 52.1022L179.973 52.2429C180.851 52.44 181.653 52.7707 182.278 53.4534C182.784 54.0024 183.058 54.664 183.121 55.3889C183.178 56.0716 183.142 56.7402 182.889 57.3877L182.868 57.4018Z" fill="#C2BFBF"/>
<path d="M133.183 51.5037L133.689 51.5811C134.237 51.6023 134.883 51.4052 135.08 50.638C135.185 50.2725 135.185 49.8846 135.08 49.519C134.96 49.519 134.904 49.6176 134.848 49.6598C134.553 49.892 134.223 50.0328 133.871 50.0679C133.168 50.1454 132.466 50.1031 131.777 49.8498L130.821 49.519C130.154 49.3008 129.451 49.2094 128.748 49.2445C127.75 49.3219 126.816 49.6527 125.93 50.1242C124.989 50.631 124.328 51.3982 124.012 52.4327C123.836 53.038 123.815 53.6644 123.892 54.2908C124.089 55.7195 124.834 56.7189 126.162 57.2468C126.239 57.2679 126.303 57.3031 126.38 57.3242C126.556 57.4227 126.577 57.5213 126.415 57.655L125.923 57.9858L124.75 58.7107C124.454 58.8866 124.419 59.0274 124.518 59.3371C124.637 59.703 124.848 60.0268 125.143 60.2801C125.41 60.5124 125.712 60.6954 126.043 60.8291C126.26 60.9277 126.26 60.9699 126.064 61.1458L124.946 61.9482C124.574 62.2368 124.201 62.5183 123.892 62.8913C123.675 63.1228 123.518 63.4047 123.436 63.7117C123.354 64.0187 123.349 64.3414 123.421 64.6508C123.569 65.3335 123.92 65.9458 124.44 66.4103C124.948 66.8834 125.567 67.22 126.239 67.3886C127.336 67.7053 128.467 67.7195 129.584 67.5083C131.187 67.2127 132.592 66.5018 133.689 65.2983C134.455 64.496 134.897 63.5529 134.939 62.4338C135.031 61.0895 134.131 59.886 132.824 59.5764L131.77 59.3793L128.544 59.0907C128.193 59.0696 127.842 59.0133 127.546 58.8374C127.174 58.6051 127.076 58.1546 127.315 57.8591C127.49 57.6409 127.708 57.5072 127.982 57.4861L128.608 57.4298C129.844 57.3039 131.004 56.7747 131.911 55.9236C132.395 55.4738 132.741 54.8953 132.908 54.2557C133.14 53.4111 133.14 52.5383 132.944 51.6797C132.887 51.4615 132.908 51.4474 133.175 51.4825L133.183 51.5037ZM128.39 61.2585C128.509 61.2796 128.622 61.2585 128.741 61.2585C129.563 61.2936 130.407 61.357 131.208 61.5752C131.468 61.6526 131.728 61.7511 131.974 61.8708C132.754 62.3001 133.049 63.0462 132.951 63.8485C132.831 64.7282 132.346 65.3546 131.58 65.7699C131.074 66.0584 130.505 66.1781 129.915 66.2414C129.697 66.2625 129.507 66.2414 129.289 66.2414C128.608 66.2625 127.94 66.1851 127.293 65.9106C126.844 65.7346 126.471 65.4813 126.141 65.1294C125.459 64.4467 125.136 63.1939 126.162 62.1734C126.788 61.5892 127.49 61.1811 128.39 61.2585ZM130.625 55.1494C130.217 56.184 129.31 56.5007 128.418 56.36C127.596 56.2403 126.991 55.7899 126.598 55.0439C126.092 54.0445 125.951 53.0099 126.246 51.933C126.464 51.1307 126.949 50.5255 127.814 50.3847C128.91 50.1876 129.957 50.5818 130.512 51.6797C130.8 52.2075 130.92 52.855 130.92 53.7771C130.899 54.15 130.821 54.6568 130.625 55.1494ZM105.986 53.8123C105.811 52.7565 105.417 51.7923 104.693 50.9899C103.618 49.7934 102.248 49.2727 100.702 49.2656C99.3524 49.2445 98.0803 49.6386 96.9489 50.3425C95.8315 51.011 95.0164 52.0808 94.6579 53.3407C94.3277 54.4738 94.3417 55.635 94.6018 56.7893C95.2834 59.8861 97.6728 61.2162 100.526 61.0192C101.369 60.9629 102.17 60.6884 102.929 60.3154C104.061 59.7876 104.883 58.9429 105.452 57.8309C105.902 56.909 106.099 55.9307 106.078 54.8116L105.986 53.8123ZM103.21 58.1618C102.922 59.0626 102.135 59.7101 101.194 59.8086C100.336 59.9283 99.5281 59.7101 98.8112 59.2033C98.2912 58.8163 97.8695 58.3166 97.5814 57.7324C96.7803 56.0855 96.6397 54.3682 97.0544 52.6017C97.1879 52.0527 97.4689 51.56 97.8766 51.1729C98.6003 50.5043 99.4437 50.3495 100.378 50.5465C101.278 50.7437 101.959 51.2292 102.522 51.9753C103.084 52.7213 103.344 53.5799 103.499 54.4808C103.576 54.9313 103.576 55.4028 103.597 55.6914C103.597 56.6345 103.52 57.4087 103.224 58.1618H103.21ZM148.713 53.9741C148.573 52.841 148.144 51.7993 147.343 50.9407C146.289 49.7864 144.918 49.2938 143.393 49.2727C142.079 49.2515 140.871 49.6245 139.753 50.2721C138.502 51.0181 137.638 52.0738 137.308 53.5026C136.914 55.065 137.076 56.7119 137.778 58.1618C138.425 59.5341 139.521 60.4139 140.969 60.808C142.571 61.2374 144.096 61.0403 145.586 60.3154C146.879 59.689 147.793 58.7107 148.327 57.3806C148.643 56.5993 148.755 55.7547 148.776 54.7764C148.791 54.6005 148.748 54.2838 148.713 53.9741ZM146.015 57.9083C145.698 58.964 145.038 59.6538 143.92 59.8086C143.098 59.9283 142.318 59.7312 141.615 59.2597C141.011 58.8515 140.582 58.3025 140.266 57.655C139.915 56.9723 139.718 56.2474 139.641 55.5013C139.521 54.5793 139.521 53.6785 139.739 52.7565C139.781 52.5735 139.838 52.3975 139.915 52.2287C140.463 50.8562 141.672 50.2298 143.105 50.5465C144.061 50.7647 144.785 51.2926 145.333 52.0949C145.86 52.8761 146.113 53.7418 146.233 54.6709C146.289 55.0439 146.31 55.438 146.289 55.7688C146.289 56.536 146.233 57.2397 146.001 57.9225L146.015 57.9083Z" fill="#47474A"/>
<defs>
<filter id="filter0_dd_56_178" x="0" y="0" width="212" height="112" filterUnits="userSpaceOnUse" color-interpolation-filters="sRGB">
<feFlood flood-opacity="0" result="BackgroundImageFix"/>
<feColorMatrix in="SourceAlpha" type="matrix" values="0 0 0 0 0 0 0 0 0 0 0 0 0 0 0 0 0 0 127 0" result="hardAlpha"/>
<feOffset dx="2" dy="2"/>
<feGaussianBlur stdDeviation="2"/>
<feComposite in2="hardAlpha" operator="out"/>
<feColorMatrix type="matrix" values="0 0 0 0 0 0 0 0 0 0 0 0 0 0 0 0 0 0 0.25 0"/>
<feBlend mode="normal" in2="BackgroundImageFix" result="effect1_dropShadow_56_178"/>
<feColorMatrix in="SourceAlpha" type="matrix" values="0 0 0 0 0 0 0 0 0 0 0 0 0 0 0 0 0 0 127 0" result="hardAlpha"/>
<feOffset dx="-2" dy="-2"/>
<feGaussianBlur stdDeviation="2"/>
<feComposite in2="hardAlpha" operator="out"/>
<feColorMatrix type="matrix" values="0 0 0 0 0 0 0 0 0 0 0 0 0 0 0 0 0 0 0.25 0"/>
<feBlend mode="normal" in2="effect1_dropShadow_56_178" result="effect2_dropShadow_56_178"/>
<feBlend mode="normal" in="SourceGraphic" in2="effect2_dropShadow_56_178" result="shape"/>
</filter>
</defs>
</svg>
