<svg width="212" height="112" viewBox="0 0 212 112" fill="none" xmlns="http://www.w3.org/2000/svg">
<g filter="url(#filter0_dd_56_189)">
<mask id="path-1-inside-1_56_189" fill="white">
<path d="M6 26C6 14.9543 14.9543 6 26 6H186C197.046 6 206 14.9543 206 26V86C206 97.0457 197.046 106 186 106H26C14.9543 106 6 97.0457 6 86V26Z"/>
</mask>
<path d="M6 26C6 14.9543 14.9543 6 26 6H186C197.046 6 206 14.9543 206 26V86C206 97.0457 197.046 106 186 106H26C14.9543 106 6 97.0457 6 86V26Z" fill="white"/>
<path d="M6 6H206H6ZM206 106H6H206ZM26 106C12.7452 106 2 95.2548 2 82V30C2 16.7452 12.7452 6 26 6C17.1634 6 10 14.9543 10 26V86C10 97.0457 17.1634 106 26 106ZM186 6C199.255 6 210 16.7452 210 30V82C210 95.2548 199.255 106 186 106C194.837 106 202 97.0457 202 86V26C202 14.9543 194.837 6 186 6Z" fill="#00B6E8" mask="url(#path-1-inside-1_56_189)"/>
</g>
<path d="M68.8677 60.7481C68.5672 59.8123 67.7799 59.1606 66.7619 59.0042C66.2818 58.9305 65.732 58.9619 65.0815 59.0998C63.9475 59.3403 63.1062 59.4319 62.4922 59.4496C64.8097 55.4268 66.6941 50.8393 67.7789 46.521C69.5331 39.5384 68.5957 36.3573 67.5003 34.9185C64.6014 31.1101 60.3719 29.0641 55.2695 29.0015C52.5475 28.9673 50.158 29.5198 48.9115 29.9172C47.7509 29.7066 46.503 29.5891 45.1936 29.5673C42.7391 29.5271 40.5704 30.0772 38.7173 31.2079C37.6914 30.8512 36.0449 30.3484 34.1435 30.0275C29.6714 29.2727 26.0671 29.8608 23.4307 31.7757C20.2383 34.0942 18.7584 38.1225 19.0321 43.7486C19.119 45.5349 20.0908 50.9698 21.6211 56.1241C22.5005 59.0867 23.4383 61.5469 24.4084 63.437C25.7842 66.1172 27.2563 67.6956 28.9088 68.2624C29.8351 68.5796 31.518 68.8019 33.2881 67.2861C33.5125 67.5655 33.8118 67.8431 34.2091 68.101C34.7136 68.4281 35.3305 68.6954 35.9466 68.8538C38.167 69.4245 40.2468 69.2817 42.0211 68.4818C42.0321 68.8063 42.0405 69.1163 42.0476 69.384C42.0593 69.8182 42.0711 70.2439 42.0865 70.6421C42.1917 73.3342 42.3698 75.4274 42.8976 76.892C42.9266 76.9725 42.9656 77.0953 43.0067 77.2255C43.27 78.0545 43.7103 79.4422 44.8306 80.529C45.9906 81.6548 47.3938 82 48.6789 82C49.3234 82 49.9383 81.913 50.4777 81.7943C52.4003 81.3706 54.5838 80.7252 56.1634 78.4128C57.6568 76.2267 58.3828 72.9342 58.5142 67.7463C58.5312 67.5995 58.5469 67.4594 58.5619 67.326L58.5933 67.0518L58.9451 67.0836L59.0357 67.0899C60.9939 67.1817 63.3883 66.7547 64.8589 66.0524C66.0208 65.498 69.7444 63.4769 68.8677 60.7481Z" fill="black"/>
<path d="M65.5198 61.2787C59.6973 62.5137 59.2969 60.4868 59.2969 60.4868C65.4444 51.108 68.0144 39.203 65.7968 36.2893C59.7464 28.3413 49.2731 32.1002 49.0982 32.1976L49.042 32.2081C47.8916 31.9625 46.6044 31.8164 45.1573 31.792C42.5229 31.7477 40.5244 32.5022 39.0078 33.6846C39.0078 33.6846 20.3244 25.771 21.1935 43.6373C21.3783 47.4381 26.4921 72.3965 32.5915 64.8579C34.8208 62.1012 36.975 59.7705 36.975 59.7705C38.0448 60.5011 39.3256 60.8739 40.6683 60.7401L40.7726 60.6491C40.7401 60.9913 40.755 61.326 40.8143 61.7224C39.243 63.5274 39.7048 63.8442 36.5637 64.5091C33.3852 65.1826 35.2524 66.3815 36.4715 66.6951C37.9494 67.075 41.3686 67.6132 43.6788 64.2881L43.5868 64.6675C44.2023 65.1745 44.6346 67.9653 44.5622 70.4953C44.4897 73.0252 44.4414 74.7621 44.9263 76.1188C45.4117 77.4755 45.895 80.5281 50.0245 79.6185C53.4747 78.8582 55.2628 76.8882 55.5116 73.6019C55.688 71.2657 56.0876 71.6111 56.1127 69.5223L56.4332 68.5335C56.8026 65.3666 56.4919 64.3448 58.6175 64.8201L59.1344 64.8668C60.6987 64.9398 62.7465 64.6079 63.9485 64.0336C66.5363 62.7989 68.0712 60.7371 65.5194 61.2787H65.5198Z" fill="#336791"/>
<path d="M40.1005 45.3373C39.5758 45.2622 39.1006 45.3316 38.8602 45.5188C38.7251 45.6241 38.6832 45.7461 38.6719 45.83C38.6417 46.0524 38.7933 46.2984 38.8864 46.4252C39.15 46.7843 39.5349 47.0311 39.9159 47.0855C39.9711 47.0935 40.0261 47.0972 40.0807 47.0972C40.716 47.0972 41.2938 46.5885 41.3447 46.2131C41.4083 45.7429 40.7444 45.4292 40.1005 45.3373ZM57.4828 45.3522C57.4326 44.9836 56.7948 44.8785 56.1894 44.9651C55.5849 45.0516 54.9987 45.3322 55.0476 45.7016C55.0868 45.9888 55.5913 46.4792 56.1884 46.4792C56.239 46.4792 56.2899 46.4758 56.3412 46.4683C56.7398 46.4116 57.0323 46.1513 57.1713 46.0013C57.3827 45.7727 57.5053 45.5178 57.4828 45.3522Z" fill="white"/>
<path d="M67.4563 61.1387C67.2343 60.4484 66.5196 60.2264 65.3324 60.4784C61.8074 61.2264 60.545 60.7083 60.1305 60.3945C62.8705 56.1029 65.1245 50.9152 66.3405 46.0752C66.9165 43.7824 67.2346 41.6532 67.2607 39.9176C67.2895 38.0128 66.9739 36.613 66.3231 35.7579C63.6992 32.3108 59.8482 30.4617 55.1866 30.411C51.9819 30.3739 49.2742 31.2171 48.7493 31.4543C47.644 31.1717 46.4389 30.9981 45.127 30.976C42.7212 30.9359 40.6416 31.5281 38.9199 32.7353C38.172 32.4491 36.2393 31.7669 33.8756 31.3754C29.7893 30.699 26.542 31.2115 24.2248 32.8994C21.4597 34.9135 20.1832 38.5138 20.4305 43.6001C20.5137 45.3112 21.4621 50.5754 22.9586 55.6168C24.9286 62.2522 27.07 66.0085 29.3231 66.7813C29.5868 66.8717 29.8909 66.9349 30.2262 66.9349C31.0481 66.9349 32.0558 66.554 33.1042 65.2581C34.383 63.6809 35.7058 62.142 37.071 60.6433C37.9567 61.132 38.9297 61.405 39.9249 61.4324C39.9268 61.4591 39.9294 61.4859 39.9317 61.5125C39.7604 61.7225 39.5927 61.9356 39.4286 62.1516C38.739 63.0516 38.5955 63.239 36.3759 63.7088C35.7445 63.8428 34.0677 64.1981 34.043 65.4067C34.0164 66.7272 36.0253 67.2817 36.2542 67.3405C37.0518 67.5458 37.8202 67.6471 38.553 67.6471C40.3352 67.6471 41.9036 67.0448 43.157 65.8795C43.1185 70.5869 43.3093 75.2255 43.8591 76.6388C44.3094 77.7958 45.4093 80.6234 48.8836 80.6232C49.3935 80.6232 49.9546 80.5622 50.5719 80.4261C54.1979 79.627 55.7726 77.9792 56.3817 74.3465C56.7077 72.405 57.267 67.769 57.5301 65.2823C58.0854 65.4604 58.8002 65.5419 59.5729 65.5417C61.1846 65.5417 63.0443 65.1897 64.2106 64.6331C65.5208 64.0075 67.885 62.4724 67.4563 61.1387ZM58.8211 44.3348C58.8092 45.0689 58.7109 45.7354 58.6067 46.431C58.4946 47.1792 58.3787 47.9528 58.3495 48.8918C58.3207 49.8057 58.4317 50.7558 58.539 51.6747C58.7559 53.5306 58.9785 55.4413 58.1169 57.3266C57.9738 57.0658 57.8463 56.7964 57.7351 56.5196C57.628 56.2527 57.3954 55.8239 57.0734 55.2305C55.8206 52.9205 52.8868 47.511 54.3886 45.3036C54.836 44.6466 55.9713 43.971 58.8211 44.3348ZM55.3668 31.8975C59.5436 31.9923 62.8476 33.5988 65.1868 36.6722C66.9809 39.0295 65.0053 49.7558 59.2859 59.0094C59.2284 58.9342 59.1706 58.8593 59.1124 58.7846L59.04 58.6916C60.518 56.182 60.229 53.6991 59.9717 51.4978C59.866 50.5944 59.7662 49.7411 59.7916 48.9395C59.8179 48.0901 59.9271 47.3614 60.0328 46.6569C60.1626 45.7887 60.2948 44.8903 60.2584 43.8313C60.2856 43.7202 60.2965 43.589 60.2822 43.4332C60.1892 42.4177 59.0615 39.3784 56.7631 36.6275C55.5058 35.1228 53.6723 33.439 51.1688 32.3033C52.2456 32.0739 53.7181 31.8599 55.3668 31.8975ZM31.9947 64.3096C30.8396 65.7376 30.042 65.4638 29.7797 65.3741C28.0705 64.7879 26.0872 61.0737 24.3387 55.1838C22.8257 50.0875 21.9415 44.9628 21.8715 43.5258C21.6506 38.981 22.7221 35.8137 25.0564 34.1115C28.8554 31.3417 35.1012 32.9996 37.6109 33.8404C37.5749 33.877 37.5373 33.9112 37.5017 33.9485C33.3832 38.2247 33.4809 45.5309 33.4911 45.9775C33.4907 46.1498 33.5048 46.3938 33.524 46.7294C33.5949 47.9582 33.7268 50.2453 33.3744 52.8354C33.0471 55.2422 33.7687 57.5979 35.354 59.2987C35.5166 59.4729 35.6876 59.6387 35.8663 59.7954C35.1607 60.5724 33.6272 62.2907 31.9947 64.3096ZM36.3957 58.2723C35.118 56.9015 34.5377 54.9948 34.8034 53.0407C35.1754 50.3047 35.0382 47.9218 34.9644 46.6416C34.954 46.4624 34.9448 46.3054 34.9395 46.1816C35.5411 45.6331 38.3293 44.0972 40.3176 44.5657C41.2249 44.7792 41.7778 45.4145 42.0076 46.5071C43.1972 52.164 42.165 54.5218 41.3357 56.4165C41.1648 56.8069 41.0032 57.1758 40.8654 57.5575L40.7585 57.8526C40.4879 58.5986 40.2362 59.2922 40.0801 59.9508C38.7218 59.9468 37.4005 59.3502 36.3957 58.2721V58.2723ZM36.6042 65.9012C36.2076 65.7994 35.8509 65.6225 35.6416 65.4757C35.8164 65.3912 36.1275 65.276 36.6671 65.1617C39.2782 64.6092 39.6815 64.2191 40.5621 63.0695C40.764 62.8058 40.9929 62.5071 41.3098 62.1431L41.3102 62.1427C41.7823 61.5992 41.9982 61.6914 42.3898 61.8585C42.7071 61.9934 43.0163 62.4024 43.1416 62.8525C43.2009 63.065 43.2675 63.4684 43.0495 63.7824C41.21 66.4306 38.5293 66.3966 36.6042 65.9012ZM50.2696 78.9756C47.0752 79.6793 45.9442 78.0036 45.1988 76.0879C44.7178 74.8511 44.4813 69.2741 44.6491 63.1152C44.6512 63.0332 44.6399 62.9541 44.618 62.8797C44.5983 62.7326 44.5685 62.5871 44.5287 62.4445C44.2793 61.5483 43.6713 60.7987 42.9421 60.4879C42.6523 60.3645 42.1206 60.138 41.4815 60.3061C41.6178 59.7288 41.8541 59.0768 42.1104 58.3709L42.2179 58.074C42.3389 57.7392 42.4908 57.3924 42.6513 57.0253C43.5192 55.0429 44.7078 52.3277 43.4178 46.1937C42.9346 43.8962 41.321 42.7742 38.8749 43.0348C37.4085 43.1908 36.0668 43.7991 35.3976 44.148C35.2537 44.2229 35.1222 44.2953 34.9992 44.3658C35.186 42.0509 35.8916 37.7247 38.5311 34.9876C40.1931 33.2645 42.4064 32.4134 45.1031 32.4593C50.4166 32.5487 53.824 35.3523 55.747 37.6887C57.4041 39.7018 58.3013 41.7299 58.6594 42.8237C55.9664 42.5421 54.1349 43.0886 53.2065 44.4533C51.1866 47.422 54.3115 53.1838 55.8133 55.953C56.0888 56.4604 56.3265 56.899 56.4013 57.0854C56.8903 58.3041 57.5235 59.1177 57.9857 59.7115C58.1275 59.8935 58.2649 60.07 58.3695 60.2242C57.5538 60.466 56.0888 61.0245 56.2223 63.8167C56.1146 65.2177 55.3489 71.777 54.9599 74.0945C54.4464 77.1561 53.3506 78.2964 50.2696 78.9758V78.9756ZM63.6031 63.2877C62.7691 63.6856 61.3733 63.9841 60.0475 64.0484C58.5831 64.1188 57.8375 63.8797 57.6621 63.7325C57.5799 61.9926 58.2097 61.8108 58.8763 61.6184C58.9811 61.5882 59.0833 61.5586 59.182 61.5231C59.2432 61.5745 59.3104 61.6254 59.384 61.6753C60.561 62.474 62.6604 62.5602 65.6243 61.9312L65.6568 61.9245C65.2571 62.3088 64.573 62.8245 63.6031 63.2877Z" fill="white"/>
<path d="M78.786 62V48.7H84.258C85.436 48.7 86.443 48.89 87.279 49.27C88.1277 49.65 88.78 50.1947 89.236 50.904C89.692 51.6133 89.92 52.4557 89.92 53.431C89.92 54.4063 89.692 55.2487 89.236 55.958C88.78 56.6673 88.1277 57.212 87.279 57.592C86.443 57.972 85.436 58.162 84.258 58.162H80.154L81.256 57.003V62H78.786ZM81.256 57.269L80.154 56.072H84.144C85.2333 56.072 86.0503 55.844 86.595 55.388C87.1523 54.9193 87.431 54.267 87.431 53.431C87.431 52.5823 87.1523 51.93 86.595 51.474C86.0503 51.018 85.2333 50.79 84.144 50.79H80.154L81.256 49.574V57.269ZM96.6815 62.133C95.6428 62.133 94.7181 61.9113 93.9075 61.468C93.0968 61.012 92.4571 60.3913 91.9885 59.606C91.5198 58.8207 91.2855 57.9277 91.2855 56.927C91.2855 55.9137 91.5198 55.0207 91.9885 54.248C92.4571 53.4627 93.0968 52.8483 93.9075 52.405C94.7181 51.9617 95.6428 51.74 96.6815 51.74C97.7328 51.74 98.6638 51.9617 99.4745 52.405C100.298 52.8483 100.937 53.4563 101.393 54.229C101.862 55.0017 102.096 55.901 102.096 56.927C102.096 57.9277 101.862 58.8207 101.393 59.606C100.937 60.3913 100.298 61.012 99.4745 61.468C98.6638 61.9113 97.7328 62.133 96.6815 62.133ZM96.6815 60.1C97.2641 60.1 97.7835 59.9733 98.2395 59.72C98.6955 59.4667 99.0501 59.0993 99.3035 58.618C99.5695 58.1367 99.7025 57.573 99.7025 56.927C99.7025 56.2683 99.5695 55.7047 99.3035 55.236C99.0501 54.7547 98.6955 54.3873 98.2395 54.134C97.7835 53.8807 97.2705 53.754 96.7005 53.754C96.1178 53.754 95.5985 53.8807 95.1425 54.134C94.6991 54.3873 94.3445 54.7547 94.0785 55.236C93.8125 55.7047 93.6795 56.2683 93.6795 56.927C93.6795 57.573 93.8125 58.1367 94.0785 58.618C94.3445 59.0993 94.6991 59.4667 95.1425 59.72C95.5985 59.9733 96.1115 60.1 96.6815 60.1ZM107.503 62.133C106.654 62.133 105.837 62.0253 105.052 61.81C104.279 61.582 103.665 61.3097 103.209 60.993L104.121 59.188C104.577 59.4793 105.121 59.72 105.755 59.91C106.388 60.1 107.021 60.195 107.655 60.195C108.402 60.195 108.94 60.0937 109.27 59.891C109.612 59.6883 109.783 59.416 109.783 59.074C109.783 58.7953 109.669 58.5863 109.441 58.447C109.213 58.295 108.915 58.181 108.548 58.105C108.18 58.029 107.769 57.9593 107.313 57.896C106.869 57.8327 106.42 57.7503 105.964 57.649C105.52 57.535 105.115 57.3767 104.748 57.174C104.38 56.9587 104.083 56.6737 103.855 56.319C103.627 55.9643 103.513 55.4957 103.513 54.913C103.513 54.267 103.696 53.7097 104.064 53.241C104.431 52.7597 104.944 52.3923 105.603 52.139C106.274 51.873 107.066 51.74 107.978 51.74C108.662 51.74 109.352 51.816 110.049 51.968C110.745 52.12 111.322 52.3353 111.778 52.614L110.866 54.419C110.384 54.1277 109.897 53.9313 109.403 53.83C108.921 53.716 108.44 53.659 107.959 53.659C107.237 53.659 106.698 53.7667 106.344 53.982C106.002 54.1973 105.831 54.4697 105.831 54.799C105.831 55.103 105.945 55.331 106.173 55.483C106.401 55.635 106.698 55.7553 107.066 55.844C107.433 55.9327 107.838 56.0087 108.282 56.072C108.738 56.1227 109.187 56.205 109.631 56.319C110.074 56.433 110.479 56.5913 110.847 56.794C111.227 56.984 111.531 57.2563 111.759 57.611C111.987 57.9657 112.101 58.428 112.101 58.998C112.101 59.6313 111.911 60.1823 111.531 60.651C111.163 61.1197 110.638 61.487 109.954 61.753C109.27 62.0063 108.453 62.133 107.503 62.133ZM117.965 62.133C116.85 62.133 115.989 61.848 115.381 61.278C114.773 60.6953 114.469 59.8403 114.469 58.713V49.612H116.844V58.656C116.844 59.1373 116.964 59.511 117.205 59.777C117.458 60.043 117.807 60.176 118.25 60.176C118.782 60.176 119.225 60.0367 119.58 59.758L120.245 61.449C119.966 61.677 119.624 61.848 119.219 61.962C118.814 62.076 118.396 62.133 117.965 62.133ZM112.797 53.83V51.93H119.561V53.83H112.797ZM126.463 65.819C125.525 65.819 124.607 65.6923 123.708 65.439C122.821 65.1983 122.093 64.8437 121.523 64.375L122.587 62.589C123.03 62.9563 123.587 63.2477 124.259 63.463C124.943 63.691 125.633 63.805 126.33 63.805C127.444 63.805 128.261 63.5453 128.781 63.026C129.3 62.5193 129.56 61.753 129.56 60.727V58.922L129.75 56.623L129.674 54.324V51.854H131.935V60.461C131.935 62.2977 131.466 63.6467 130.529 64.508C129.591 65.382 128.236 65.819 126.463 65.819ZM126.159 61.544C125.196 61.544 124.322 61.3413 123.537 60.936C122.764 60.518 122.15 59.9417 121.694 59.207C121.25 58.4723 121.029 57.611 121.029 56.623C121.029 55.6477 121.25 54.7927 121.694 54.058C122.15 53.3233 122.764 52.7533 123.537 52.348C124.322 51.9427 125.196 51.74 126.159 51.74C127.02 51.74 127.793 51.911 128.477 52.253C129.161 52.595 129.705 53.127 130.111 53.849C130.529 54.571 130.738 55.4957 130.738 56.623C130.738 57.7503 130.529 58.6813 130.111 59.416C129.705 60.138 129.161 60.6763 128.477 61.031C127.793 61.373 127.02 61.544 126.159 61.544ZM126.52 59.53C127.115 59.53 127.647 59.4097 128.116 59.169C128.584 58.9157 128.945 58.5737 129.199 58.143C129.465 57.6997 129.598 57.193 129.598 56.623C129.598 56.053 129.465 55.5527 129.199 55.122C128.945 54.6787 128.584 54.343 128.116 54.115C127.647 53.8743 127.115 53.754 126.52 53.754C125.924 53.754 125.386 53.8743 124.905 54.115C124.436 54.343 124.069 54.6787 123.803 55.122C123.549 55.5527 123.423 56.053 123.423 56.623C123.423 57.193 123.549 57.6997 123.803 58.143C124.069 58.5737 124.436 58.9157 124.905 59.169C125.386 59.4097 125.924 59.53 126.52 59.53ZM135.057 62V51.854H137.318V54.647L137.052 53.83C137.356 53.146 137.831 52.6267 138.477 52.272C139.136 51.9173 139.953 51.74 140.928 51.74V54.001C140.827 53.9757 140.732 53.963 140.643 53.963C140.554 53.9503 140.466 53.944 140.377 53.944C139.478 53.944 138.762 54.21 138.23 54.742C137.698 55.2613 137.432 56.0403 137.432 57.079V62H135.057ZM147.619 62.133C146.492 62.133 145.504 61.9113 144.655 61.468C143.819 61.012 143.167 60.3913 142.698 59.606C142.242 58.8207 142.014 57.9277 142.014 56.927C142.014 55.9137 142.236 55.0207 142.679 54.248C143.135 53.4627 143.756 52.8483 144.541 52.405C145.339 51.9617 146.245 51.74 147.258 51.74C148.246 51.74 149.126 51.9553 149.899 52.386C150.672 52.8167 151.28 53.4247 151.723 54.21C152.166 54.9953 152.388 55.92 152.388 56.984C152.388 57.0853 152.382 57.1993 152.369 57.326C152.369 57.4527 152.363 57.573 152.35 57.687H143.895V56.11H151.096L150.165 56.604C150.178 56.0213 150.057 55.5083 149.804 55.065C149.551 54.6217 149.202 54.2733 148.759 54.02C148.328 53.7667 147.828 53.64 147.258 53.64C146.675 53.64 146.162 53.7667 145.719 54.02C145.288 54.2733 144.946 54.628 144.693 55.084C144.452 55.5273 144.332 56.053 144.332 56.661V57.041C144.332 57.649 144.471 58.1873 144.75 58.656C145.029 59.1247 145.421 59.4857 145.928 59.739C146.435 59.9923 147.017 60.119 147.676 60.119C148.246 60.119 148.759 60.0303 149.215 59.853C149.671 59.6757 150.076 59.397 150.431 59.017L151.704 60.48C151.248 61.012 150.672 61.4237 149.975 61.715C149.291 61.9937 148.506 62.133 147.619 62.133ZM159.02 62.19C157.982 62.19 156.987 62.0443 156.037 61.753C155.087 61.449 154.334 61.0627 153.776 60.594L154.631 58.675C155.163 59.093 155.822 59.4413 156.607 59.72C157.393 59.9987 158.197 60.138 159.02 60.138C159.717 60.138 160.281 60.062 160.711 59.91C161.142 59.758 161.459 59.5553 161.661 59.302C161.864 59.036 161.965 58.7383 161.965 58.409C161.965 58.0037 161.82 57.6807 161.528 57.44C161.237 57.1867 160.857 56.9903 160.388 56.851C159.932 56.699 159.419 56.5597 158.849 56.433C158.292 56.3063 157.728 56.1607 157.158 55.996C156.601 55.8187 156.088 55.597 155.619 55.331C155.163 55.0523 154.79 54.685 154.498 54.229C154.207 53.773 154.061 53.1903 154.061 52.481C154.061 51.759 154.251 51.1003 154.631 50.505C155.024 49.897 155.613 49.4157 156.398 49.061C157.196 48.6937 158.203 48.51 159.419 48.51C160.217 48.51 161.009 48.6113 161.794 48.814C162.58 49.0167 163.264 49.308 163.846 49.688L163.067 51.607C162.472 51.2523 161.858 50.9927 161.224 50.828C160.591 50.6507 159.983 50.562 159.4 50.562C158.716 50.562 158.159 50.6443 157.728 50.809C157.31 50.9737 157 51.189 156.797 51.455C156.607 51.721 156.512 52.025 156.512 52.367C156.512 52.7723 156.652 53.1017 156.93 53.355C157.222 53.5957 157.595 53.7857 158.051 53.925C158.52 54.0643 159.039 54.2037 159.609 54.343C160.179 54.4697 160.743 54.6153 161.3 54.78C161.87 54.9447 162.383 55.16 162.839 55.426C163.308 55.692 163.682 56.053 163.96 56.509C164.252 56.965 164.397 57.5413 164.397 58.238C164.397 58.9473 164.201 59.606 163.808 60.214C163.428 60.8093 162.839 61.2907 162.041 61.658C161.243 62.0127 160.236 62.19 159.02 62.19ZM173.079 62.19C172.04 62.19 171.084 62.019 170.21 61.677C169.336 61.335 168.576 60.86 167.93 60.252C167.284 59.6313 166.783 58.9093 166.429 58.086C166.074 57.25 165.897 56.338 165.897 55.35C165.897 54.362 166.074 53.4563 166.429 52.633C166.783 51.797 167.284 51.075 167.93 50.467C168.576 49.8463 169.336 49.365 170.21 49.023C171.084 48.681 172.034 48.51 173.06 48.51C174.098 48.51 175.048 48.681 175.91 49.023C176.784 49.365 177.544 49.84 178.19 50.448C178.836 51.056 179.336 51.778 179.691 52.614C180.045 53.45 180.223 54.362 180.223 55.35C180.223 56.338 180.045 57.25 179.691 58.086C179.336 58.922 178.836 59.644 178.19 60.252C177.544 60.86 176.784 61.335 175.91 61.677C175.048 62.019 174.105 62.19 173.079 62.19ZM177.411 64.907C176.942 64.907 176.486 64.85 176.043 64.736C175.612 64.6347 175.181 64.4573 174.751 64.204C174.333 63.9633 173.896 63.6403 173.44 63.235C172.984 62.8423 172.483 62.3547 171.939 61.772L174.561 61.088C174.915 61.5567 175.251 61.9303 175.568 62.209C175.897 62.5003 176.214 62.7093 176.518 62.836C176.822 62.9627 177.138 63.026 177.468 63.026C178.342 63.026 179.102 62.6713 179.748 61.962L180.888 63.33C180.001 64.3813 178.842 64.907 177.411 64.907ZM173.06 60.024C173.731 60.024 174.352 59.91 174.922 59.682C175.492 59.454 175.986 59.131 176.404 58.713C176.822 58.2823 177.145 57.782 177.373 57.212C177.613 56.642 177.734 56.0213 177.734 55.35C177.734 54.666 177.613 54.0453 177.373 53.488C177.145 52.918 176.822 52.424 176.404 52.006C175.986 51.5753 175.492 51.246 174.922 51.018C174.352 50.79 173.731 50.676 173.06 50.676C172.388 50.676 171.768 50.79 171.198 51.018C170.628 51.246 170.134 51.5753 169.716 52.006C169.298 52.424 168.968 52.918 168.728 53.488C168.5 54.0453 168.386 54.666 168.386 55.35C168.386 56.0213 168.5 56.642 168.728 57.212C168.968 57.782 169.298 58.2823 169.716 58.713C170.134 59.131 170.628 59.454 171.198 59.682C171.768 59.91 172.388 60.024 173.06 60.024ZM182.841 62V48.7H185.311V59.91H192.265V62H182.841Z" fill="black"/>
<defs>
<filter id="filter0_dd_56_189" x="0" y="0" width="212" height="112" filterUnits="userSpaceOnUse" color-interpolation-filters="sRGB">
<feFlood flood-opacity="0" result="BackgroundImageFix"/>
<feColorMatrix in="SourceAlpha" type="matrix" values="0 0 0 0 0 0 0 0 0 0 0 0 0 0 0 0 0 0 127 0" result="hardAlpha"/>
<feOffset dx="2" dy="2"/>
<feGaussianBlur stdDeviation="2"/>
<feComposite in2="hardAlpha" operator="out"/>
<feColorMatrix type="matrix" values="0 0 0 0 0 0 0 0 0 0 0 0 0 0 0 0 0 0 0.25 0"/>
<feBlend mode="normal" in2="BackgroundImageFix" result="effect1_dropShadow_56_189"/>
<feColorMatrix in="SourceAlpha" type="matrix" values="0 0 0 0 0 0 0 0 0 0 0 0 0 0 0 0 0 0 127 0" result="hardAlpha"/>
<feOffset dx="-2" dy="-2"/>
<feGaussianBlur stdDeviation="2"/>
<feComposite in2="hardAlpha" operator="out"/>
<feColorMatrix type="matrix" values="0 0 0 0 0 0 0 0 0 0 0 0 0 0 0 0 0 0 0.25 0"/>
<feBlend mode="normal" in2="effect1_dropShadow_56_189" result="effect2_dropShadow_56_189"/>
<feBlend mode="normal" in="SourceGraphic" in2="effect2_dropShadow_56_189" result="shape"/>
</filter>
</defs>
</svg>
