<svg width="212" height="112" viewBox="0 0 212 112" fill="none" xmlns="http://www.w3.org/2000/svg">
<g filter="url(#filter0_dd_56_12)">
<mask id="path-1-inside-1_56_12" fill="white">
<path d="M6 26C6 14.9543 14.9543 6 26 6H186C197.046 6 206 14.9543 206 26V86C206 97.0457 197.046 106 186 106H26C14.9543 106 6 97.0457 6 86V26Z"/>
</mask>
<path d="M6 26C6 14.9543 14.9543 6 26 6H186C197.046 6 206 14.9543 206 26V86C206 97.0457 197.046 106 186 106H26C14.9543 106 6 97.0457 6 86V26Z" fill="white"/>
<path d="M6 6H206H6ZM206 106H6H206ZM26 106C12.7452 106 2 95.2548 2 82V30C2 16.7452 12.7452 6 26 6C17.1634 6 10 14.9543 10 26V86C10 97.0457 17.1634 106 26 106ZM186 6C199.255 6 210 16.7452 210 30V82C210 95.2548 199.255 106 186 106C194.837 106 202 97.0457 202 86V26C202 14.9543 194.837 6 186 6Z" fill="#00B6E8" mask="url(#path-1-inside-1_56_12)"/>
</g>
<path d="M81.3277 77.5724C78.7431 80.0778 75.9212 79.6822 73.2048 78.4954C70.3302 77.2823 67.6929 77.2295 64.66 78.4954C60.8623 80.1306 58.8579 79.6559 56.5899 77.5724C43.7199 64.3068 45.6187 44.1052 60.2293 43.3667C63.7897 43.5513 66.2687 45.3183 68.3522 45.4766C71.4642 44.8436 74.4443 43.0239 77.7673 43.2612C81.7496 43.5777 84.7561 45.1601 86.7341 48.0084C78.5058 52.9401 80.4573 63.7794 88 66.8122C86.4967 70.7682 84.5452 74.6977 81.3013 77.5988L81.3277 77.5724ZM68.0885 43.2085C67.6929 37.3273 72.4664 32.4747 77.9519 32C78.7167 38.8042 71.7807 43.8678 68.0885 43.2085Z" fill="black"/>
<path d="M132.724 45.0021C130.733 45.0284 129.019 45.4185 127.336 46.2574C123.036 48.3991 120.553 52.9094 120.553 58.5924C120.553 64.2884 122.996 68.6649 127.31 70.7122C128.476 71.2652 129.644 71.5663 131.418 71.7772C132.316 71.8132 133.155 71.877 134.029 71.7772C135.803 71.5663 136.971 71.2652 138.137 70.7122C142.452 68.6649 144.894 64.2888 144.894 58.5924C144.894 52.9094 142.411 48.3991 138.112 46.2574C136.428 45.4185 134.714 45.0284 132.724 45.0021ZM134.435 49.0084C137.017 49.6962 138.89 52.0254 139.607 55.4232C140.112 57.8094 139.974 60.5665 139.253 62.7382C138.129 66.1201 135.689 68.0301 132.724 67.9994C129.758 68.0301 127.319 66.1201 126.195 62.7382C125.474 60.5665 125.336 57.8094 125.84 55.4232C126.558 52.0254 128.431 49.6962 131.012 49.0084C132.183 48.7603 133.349 48.8051 134.435 49.0084ZM115.581 45.0021C115.07 45.0021 114.571 45.1534 114.147 45.437C113.723 45.7206 113.392 46.1237 113.196 46.5953C113.001 47.0669 112.95 47.5858 113.05 48.0864C113.149 48.5871 113.395 49.0469 113.756 49.4079C114.117 49.7688 114.577 50.0146 115.077 50.1142C115.578 50.2138 116.097 50.1627 116.569 49.9673C117.04 49.772 117.443 49.4412 117.727 49.0168C118.01 48.5924 118.162 48.0934 118.162 47.5829C118.162 46.8985 117.89 46.242 117.406 45.758C116.922 45.274 116.265 45.0021 115.581 45.0021ZM113.169 52.8766V71.8309H117.992V52.8766H113.169ZM151.907 71.7912C149.84 71.4372 147.853 71.1632 146.166 70.205C146.143 70.1852 147.162 66.3797 147.208 66.3115C149.919 67.2323 153.736 68.5236 156.31 67.3404C157.713 66.6385 158.404 65.3411 158.172 63.8435C157.911 62.1603 156.745 61.1902 153.546 59.9941C149.977 58.6602 147.886 57.0202 147.03 54.8882C146.609 53.8395 146.47 52.5049 146.659 51.339C147.185 48.0963 149.711 45.8406 153.588 45.151C154.711 44.9512 157.113 44.9494 158.295 45.147C159.998 45.4318 161.951 46.076 161.951 46.3529C161.951 46.4549 160.953 49.9734 160.902 50.0513C159.218 49.3844 157.329 48.9078 155.731 48.8977C153.47 48.8692 151.019 50.2114 151.451 52.5824C151.757 54.0681 152.705 54.7934 156.195 56.2113C158.765 57.2567 159.999 57.9777 161.056 59.0506C162.525 60.5175 162.989 62.2386 163 63.9445C163.004 65.3652 162.871 66.0282 162.364 67.1252C161.133 69.7896 158.628 71.3342 154.85 71.7591C154.144 71.8381 152.479 71.8561 151.909 71.7912H151.907Z" fill="black"/>
<defs>
<filter id="filter0_dd_56_12" x="0" y="0" width="212" height="112" filterUnits="userSpaceOnUse" color-interpolation-filters="sRGB">
<feFlood flood-opacity="0" result="BackgroundImageFix"/>
<feColorMatrix in="SourceAlpha" type="matrix" values="0 0 0 0 0 0 0 0 0 0 0 0 0 0 0 0 0 0 127 0" result="hardAlpha"/>
<feOffset dx="2" dy="2"/>
<feGaussianBlur stdDeviation="2"/>
<feComposite in2="hardAlpha" operator="out"/>
<feColorMatrix type="matrix" values="0 0 0 0 0 0 0 0 0 0 0 0 0 0 0 0 0 0 0.25 0"/>
<feBlend mode="normal" in2="BackgroundImageFix" result="effect1_dropShadow_56_12"/>
<feColorMatrix in="SourceAlpha" type="matrix" values="0 0 0 0 0 0 0 0 0 0 0 0 0 0 0 0 0 0 127 0" result="hardAlpha"/>
<feOffset dx="-2" dy="-2"/>
<feGaussianBlur stdDeviation="2"/>
<feComposite in2="hardAlpha" operator="out"/>
<feColorMatrix type="matrix" values="0 0 0 0 0 0 0 0 0 0 0 0 0 0 0 0 0 0 0.25 0"/>
<feBlend mode="normal" in2="effect1_dropShadow_56_12" result="effect2_dropShadow_56_12"/>
<feBlend mode="normal" in="SourceGraphic" in2="effect2_dropShadow_56_12" result="shape"/>
</filter>
</defs>
</svg>
