<svg width="212" height="112" viewBox="0 0 212 112" fill="none" xmlns="http://www.w3.org/2000/svg">
<g filter="url(#filter0_dd_56_2)">
<mask id="path-1-inside-1_56_2" fill="white">
<path d="M6 26C6 14.9543 14.9543 6 26 6H186C197.046 6 206 14.9543 206 26V86C206 97.0457 197.046 106 186 106H26C14.9543 106 6 97.0457 6 86V26Z"/>
</mask>
<path d="M6 26C6 14.9543 14.9543 6 26 6H186C197.046 6 206 14.9543 206 26V86C206 97.0457 197.046 106 186 106H26C14.9543 106 6 97.0457 6 86V26Z" fill="white"/>
<path d="M6 6H206H6ZM206 106H6H206ZM26 106C12.7452 106 2 95.2548 2 82V30C2 16.7452 12.7452 6 26 6C17.1634 6 10 14.9543 10 26V86C10 97.0457 17.1634 106 26 106ZM186 6C199.255 6 210 16.7452 210 30V82C210 95.2548 199.255 106 186 106C194.837 106 202 97.0457 202 86V26C202 14.9543 194.837 6 186 6Z" fill="#00B6E8" mask="url(#path-1-inside-1_56_2)"/>
</g>
<path d="M40.7505 62.0984C40.7505 62.9906 40.3949 63.8462 39.7619 64.4771C39.129 65.108 38.2704 65.4624 37.3753 65.4624C36.4801 65.4624 35.6216 65.108 34.9886 64.4771C34.3556 63.8462 34 62.9906 34 62.0984V48.6426C34.0107 47.7575 34.3711 46.9122 35.0029 46.2901C35.6347 45.668 36.4871 45.3191 37.3753 45.3191C38.2634 45.3191 39.1158 45.668 39.7476 46.2901C40.3795 46.9122 40.7398 47.7575 40.7505 48.6426V62.0984ZM55.0745 79.6362C55.0745 80.5284 54.7189 81.384 54.0859 82.0149C53.4529 82.6457 52.5944 83.0002 51.6992 83.0002C50.8041 83.0002 49.9456 82.6457 49.3126 82.0149C48.6796 81.384 48.324 80.5284 48.324 79.6362V66.1804C48.3347 65.2952 48.6951 64.45 49.3269 63.8279C49.9587 63.2057 50.8111 62.8569 51.6992 62.8569C52.5874 62.8569 53.4398 63.2057 54.0716 63.8279C54.7034 64.45 55.0638 65.2952 55.0745 66.1804V79.6362ZM66.9906 79.6362C66.9906 80.5284 66.635 81.384 66.002 82.0149C65.369 82.6457 64.5105 83.0002 63.6153 83.0002C62.7201 83.0002 61.8616 82.6457 61.2286 82.0149C60.5956 81.384 60.24 80.5284 60.24 79.6362V66.1804C60.2508 65.2952 60.6111 64.45 61.2429 63.8279C61.8748 63.2057 62.7271 62.8569 63.6153 62.8569C64.5035 62.8569 65.3559 63.2057 65.9877 63.8279C66.6195 64.45 66.9798 65.2952 66.9906 66.1804V79.6362ZM81.3763 62.0984C81.3763 62.9906 81.0207 63.8462 80.3877 64.4771C79.7547 65.108 78.8962 65.4624 78.001 65.4624C77.1058 65.4624 76.2473 65.108 75.6143 64.4771C74.9814 63.8462 74.6258 62.9906 74.6258 62.0984V48.6426C74.6365 47.7575 74.9968 46.9122 75.6287 46.2901C76.2605 45.668 77.1129 45.3191 78.001 45.3191C78.8892 45.3191 79.7416 45.668 80.3734 46.2901C81.0052 46.9122 81.3656 47.7575 81.3763 48.6426V62.0984Z" fill="#96C03A"/>
<path d="M72.6108 45.2372V69.4236C72.6108 69.7921 72.538 70.157 72.3965 70.4974C72.255 70.8378 72.0477 71.1472 71.7862 71.4077C71.5248 71.6683 71.2144 71.875 70.8728 72.016C70.5313 72.157 70.1651 72.2296 69.7954 72.2296H45.6264C45.2567 72.2296 44.8905 72.1571 44.5489 72.0161C44.2072 71.8751 43.8968 71.6685 43.6353 71.4079C43.3738 71.1473 43.1664 70.838 43.0249 70.4975C42.8834 70.157 42.8105 69.7921 42.8105 69.4236V45.2372H72.6108ZM57.7114 31.2886C49.6179 31.2886 43.0382 36.6618 42.8417 43.3498H72.5812C72.3836 36.6613 65.804 31.2886 57.7114 31.2886ZM51.3096 39.0768C50.3884 39.0768 49.6406 38.332 49.6406 37.4139C49.6512 36.9798 49.8317 36.567 50.1435 36.2636C50.4554 35.9603 50.8739 35.7905 51.3096 35.7905C51.7453 35.7905 52.1638 35.9603 52.4757 36.2636C52.7875 36.567 52.968 36.9798 52.9786 37.4139C52.9783 37.855 52.8024 38.2779 52.4894 38.5897C52.1765 38.9015 51.7521 39.0767 51.3096 39.0768ZM64.1207 39.0768C63.9015 39.0768 63.6845 39.0337 63.482 38.95C63.2795 38.8664 63.0956 38.7438 62.9407 38.5893C62.7857 38.4348 62.6628 38.2514 62.579 38.0496C62.4952 37.8477 62.4521 37.6314 62.4522 37.413C62.4522 37.1945 62.4955 36.9782 62.5794 36.7764C62.6633 36.5747 62.7863 36.3913 62.9414 36.2369C63.0964 36.0825 63.2804 35.96 63.4829 35.8765C63.6854 35.793 63.9025 35.75 64.1217 35.7501C64.5643 35.7502 64.9888 35.9256 65.3017 36.2376C65.6146 36.5496 65.7903 36.9728 65.7901 37.4139C65.79 37.8551 65.6141 38.2781 65.301 38.59C64.9879 38.9019 64.5633 39.077 64.1207 39.0768Z" fill="#96C03A"/>
<path d="M52.1654 33.5143C52.2253 33.613 52.2446 33.731 52.2193 33.8435C52.194 33.956 52.126 34.0545 52.0296 34.1182C51.9332 34.182 51.8158 34.2061 51.7019 34.1856C51.588 34.1651 51.4865 34.1015 51.4186 34.0081L47.885 28.6935C47.8194 28.5947 47.7958 28.4739 47.8196 28.3578C47.8433 28.2416 47.9123 28.1396 48.0115 28.0742C48.1106 28.0088 48.2318 27.9853 48.3483 28.009C48.4649 28.0326 48.5672 28.1014 48.6328 28.2002L52.1654 33.5143ZM63.2453 33.5143C63.1796 33.6131 63.1559 33.7338 63.1795 33.85C63.2032 33.9661 63.2721 34.0682 63.3712 34.1336C63.4703 34.1991 63.5915 34.2227 63.708 34.1991C63.8245 34.1756 63.9269 34.1069 63.9926 34.0081L67.5262 28.6935C67.5918 28.5947 67.6153 28.4739 67.5916 28.3578C67.5679 28.2416 67.4989 28.1396 67.3997 28.0742C67.3005 28.0088 67.1794 27.9853 67.0628 28.009C66.9463 28.0326 66.844 28.1014 66.7783 28.2002L63.2453 33.5143Z" fill="#96C03A"/>
<path d="M106.295 61.0202V52.394H102.169C100.454 52.397 99.0391 53.8069 99.0391 55.5776C99.0391 57.3473 100.454 58.7572 102.169 58.7606H104.409V61.0157H102.169C99.1769 61.0118 96.7818 58.5676 96.7754 55.5771C96.7818 52.585 99.1769 50.1414 102.169 50.1384H108.559V61.0197L106.295 61.0202ZM119.51 61.0285V55.2C119.507 53.5735 118.142 52.2158 116.409 52.2148C114.675 52.2163 113.312 53.574 113.308 55.2V61.0285H111.075V55.2C111.079 52.2985 113.485 49.9942 116.409 49.9878C119.334 49.9942 121.74 52.2985 121.744 55.2L121.745 61.0285H119.51ZM124.332 58.7562H129.098C130.769 58.7537 132.165 57.3581 132.167 55.5795C132.165 53.8 130.769 52.4049 129.098 52.4014H124.332V50.1153H129.098C132.085 50.1197 134.456 52.585 134.462 55.5795C134.456 58.5726 132.085 61.0379 129.098 61.0423L124.332 61.0433V58.7562ZM166.87 58.7567H171.635C173.307 58.7537 174.704 57.3581 174.706 55.579C174.704 53.8 173.307 52.4044 171.635 52.4019H166.87V50.1158H171.635C174.623 50.1197 176.994 52.5855 177 55.579C176.993 58.5726 174.623 61.0379 171.635 61.0423L166.87 61.0433V58.7567ZM148.422 55.5707C148.423 52.5122 150.913 50.0365 153.983 50.0365C157.053 50.0365 159.543 52.5122 159.544 55.5707C159.543 58.6287 157.053 61.1048 153.983 61.1048C150.913 61.1048 148.423 58.6287 148.422 55.5707ZM150.702 55.5707C150.704 56.4368 151.051 57.2666 151.666 57.8782C152.281 58.4898 153.115 58.8334 153.984 58.8335C154.853 58.8332 155.686 58.4896 156.301 57.878C156.916 57.2664 157.263 56.4366 157.265 55.5707C157.25 54.7131 156.898 53.8956 156.284 53.2944C155.67 52.6932 154.844 52.3563 153.983 52.3563C153.123 52.3563 152.297 52.6932 151.683 53.2944C151.069 53.8956 150.717 54.7131 150.702 55.5707ZM161.886 50.1168H164.181V61.0398H161.886V50.1168ZM144.671 57.2444C145.249 56.9085 145.728 56.4277 146.061 55.85C146.394 55.2723 146.569 54.6178 146.569 53.9516C146.569 52.9387 146.165 51.9674 145.447 51.2512C144.728 50.535 143.753 50.1324 142.737 50.132H137.136V52.4177H142.737C143.145 52.4186 143.536 52.5805 143.824 52.868C144.113 53.1555 144.275 53.5451 144.276 53.9516C144.275 54.358 144.113 54.7475 143.824 55.0349C143.536 55.3222 143.145 55.4839 142.737 55.4845H137.149V57.7716L141.758 57.7707C142.772 58.3771 143.27 59.0737 143.553 59.6969C143.745 60.1202 143.855 60.5759 143.877 61.0398H146.17C146.162 60.5943 146.086 59.7476 145.647 58.765C145.399 58.213 145.07 57.7006 144.671 57.2444Z" fill="black"/>
<defs>
<filter id="filter0_dd_56_2" x="0" y="0" width="212" height="112" filterUnits="userSpaceOnUse" color-interpolation-filters="sRGB">
<feFlood flood-opacity="0" result="BackgroundImageFix"/>
<feColorMatrix in="SourceAlpha" type="matrix" values="0 0 0 0 0 0 0 0 0 0 0 0 0 0 0 0 0 0 127 0" result="hardAlpha"/>
<feOffset dx="2" dy="2"/>
<feGaussianBlur stdDeviation="2"/>
<feComposite in2="hardAlpha" operator="out"/>
<feColorMatrix type="matrix" values="0 0 0 0 0 0 0 0 0 0 0 0 0 0 0 0 0 0 0.25 0"/>
<feBlend mode="normal" in2="BackgroundImageFix" result="effect1_dropShadow_56_2"/>
<feColorMatrix in="SourceAlpha" type="matrix" values="0 0 0 0 0 0 0 0 0 0 0 0 0 0 0 0 0 0 127 0" result="hardAlpha"/>
<feOffset dx="-2" dy="-2"/>
<feGaussianBlur stdDeviation="2"/>
<feComposite in2="hardAlpha" operator="out"/>
<feColorMatrix type="matrix" values="0 0 0 0 0 0 0 0 0 0 0 0 0 0 0 0 0 0 0.25 0"/>
<feBlend mode="normal" in2="effect1_dropShadow_56_2" result="effect2_dropShadow_56_2"/>
<feBlend mode="normal" in="SourceGraphic" in2="effect2_dropShadow_56_2" result="shape"/>
</filter>
</defs>
</svg>
