<svg width="212" height="112" viewBox="0 0 212 112" fill="none" xmlns="http://www.w3.org/2000/svg">
<g filter="url(#filter0_dd_56_19)">
<mask id="path-1-inside-1_56_19" fill="white">
<path d="M6 26C6 14.9543 14.9543 6 26 6H186C197.046 6 206 14.9543 206 26V86C206 97.0457 197.046 106 186 106H26C14.9543 106 6 97.0457 6 86V26Z"/>
</mask>
<path d="M6 26C6 14.9543 14.9543 6 26 6H186C197.046 6 206 14.9543 206 26V86C206 97.0457 197.046 106 186 106H26C14.9543 106 6 97.0457 6 86V26Z" fill="white"/>
<path d="M6 6H206H6ZM206 106H6H206ZM26 106C12.7452 106 2 95.2548 2 82V30C2 16.7452 12.7452 6 26 6C17.1634 6 10 14.9543 10 26V86C10 97.0457 17.1634 106 26 106ZM186 6C199.255 6 210 16.7452 210 30V82C210 95.2548 199.255 106 186 106C194.837 106 202 97.0457 202 86V26C202 14.9543 194.837 6 186 6Z" fill="#00B6E8" mask="url(#path-1-inside-1_56_19)"/>
</g>
<path fill-rule="evenodd" clip-rule="evenodd" d="M56.0899 80.9998L42.6758 67.5586L50.0895 59.9502L71.0003 80.9998H56.0899Z" fill="#02539A"/>
<path fill-rule="evenodd" clip-rule="evenodd" d="M42.5098 67.5692L55.8048 54.1593H70.7514L50.0685 75.021L42.5098 67.5692Z" fill="#45D1FD" fill-opacity="0.85"/>
<path fill-rule="evenodd" clip-rule="evenodd" d="M31 55.8721L38.5484 63.4805L70.7506 31H55.7263L31 55.8721Z" fill="#45D1FD"/>
<path d="M95.538 55.172H104.612V58.032H95.538V55.172ZM95.824 65H92.444V46.8H105.73V49.634H95.824V65ZM108.687 65V45.708H111.937V65H108.687ZM122.078 65.182C120.9 65.182 119.86 64.9653 118.958 64.532C118.057 64.0813 117.355 63.4053 116.852 62.504C116.35 61.5853 116.098 60.4327 116.098 59.046V51.116H119.348V58.604C119.348 59.852 119.626 60.788 120.18 61.412C120.752 62.0187 121.558 62.322 122.598 62.322C123.361 62.322 124.02 62.166 124.574 61.854C125.146 61.542 125.588 61.074 125.9 60.45C126.23 59.826 126.394 59.0547 126.394 58.136V51.116H129.644V65H126.55V61.256L127.096 62.4C126.628 63.3013 125.944 63.9947 125.042 64.48C124.141 64.948 123.153 65.182 122.078 65.182ZM139.126 65.182C137.6 65.182 136.422 64.792 135.59 64.012C134.758 63.2147 134.342 62.0447 134.342 60.502V48.048H137.592V60.424C137.592 61.0827 137.756 61.594 138.086 61.958C138.432 62.322 138.909 62.504 139.516 62.504C140.244 62.504 140.85 62.3133 141.336 61.932L142.246 64.246C141.864 64.558 141.396 64.792 140.842 64.948C140.287 65.104 139.715 65.182 139.126 65.182ZM132.054 53.82V51.22H141.31V53.82H132.054ZM149.815 65.182C148.29 65.182 147.111 64.792 146.279 64.012C145.447 63.2147 145.031 62.0447 145.031 60.502V48.048H148.281V60.424C148.281 61.0827 148.446 61.594 148.775 61.958C149.122 62.322 149.598 62.504 150.205 62.504C150.933 62.504 151.54 62.3133 152.025 61.932L152.935 64.246C152.554 64.558 152.086 64.792 151.531 64.948C150.976 65.104 150.404 65.182 149.815 65.182ZM142.743 53.82V51.22H151.999V53.82H142.743ZM161.678 65.182C160.135 65.182 158.783 64.8787 157.622 64.272C156.478 63.648 155.585 62.7987 154.944 61.724C154.32 60.6493 154.008 59.4273 154.008 58.058C154.008 56.6713 154.311 55.4493 154.918 54.392C155.542 53.3173 156.391 52.4767 157.466 51.87C158.558 51.2633 159.797 50.96 161.184 50.96C162.536 50.96 163.74 51.2547 164.798 51.844C165.855 52.4333 166.687 53.2653 167.294 54.34C167.9 55.4147 168.204 56.68 168.204 58.136C168.204 58.2747 168.195 58.4307 168.178 58.604C168.178 58.7773 168.169 58.942 168.152 59.098H156.582V56.94H166.436L165.162 57.616C165.179 56.8187 165.014 56.1167 164.668 55.51C164.321 54.9033 163.844 54.4267 163.238 54.08C162.648 53.7333 161.964 53.56 161.184 53.56C160.386 53.56 159.684 53.7333 159.078 54.08C158.488 54.4267 158.02 54.912 157.674 55.536C157.344 56.1427 157.18 56.862 157.18 57.694V58.214C157.18 59.046 157.37 59.7827 157.752 60.424C158.133 61.0653 158.67 61.5593 159.364 61.906C160.057 62.2527 160.854 62.426 161.756 62.426C162.536 62.426 163.238 62.3047 163.862 62.062C164.486 61.8193 165.04 61.438 165.526 60.918L167.268 62.92C166.644 63.648 165.855 64.2113 164.902 64.61C163.966 64.9913 162.891 65.182 161.678 65.182ZM171.325 65V51.116H174.419V54.938L174.055 53.82C174.471 52.884 175.121 52.1733 176.005 51.688C176.907 51.2027 178.025 50.96 179.359 50.96V54.054C179.221 54.0193 179.091 54.002 178.969 54.002C178.848 53.9847 178.727 53.976 178.605 53.976C177.375 53.976 176.395 54.34 175.667 55.068C174.939 55.7787 174.575 56.8447 174.575 58.266V65H171.325Z" fill="black"/>
<defs>
<filter id="filter0_dd_56_19" x="0" y="0" width="212" height="112" filterUnits="userSpaceOnUse" color-interpolation-filters="sRGB">
<feFlood flood-opacity="0" result="BackgroundImageFix"/>
<feColorMatrix in="SourceAlpha" type="matrix" values="0 0 0 0 0 0 0 0 0 0 0 0 0 0 0 0 0 0 127 0" result="hardAlpha"/>
<feOffset dx="2" dy="2"/>
<feGaussianBlur stdDeviation="2"/>
<feComposite in2="hardAlpha" operator="out"/>
<feColorMatrix type="matrix" values="0 0 0 0 0 0 0 0 0 0 0 0 0 0 0 0 0 0 0.25 0"/>
<feBlend mode="normal" in2="BackgroundImageFix" result="effect1_dropShadow_56_19"/>
<feColorMatrix in="SourceAlpha" type="matrix" values="0 0 0 0 0 0 0 0 0 0 0 0 0 0 0 0 0 0 127 0" result="hardAlpha"/>
<feOffset dx="-2" dy="-2"/>
<feGaussianBlur stdDeviation="2"/>
<feComposite in2="hardAlpha" operator="out"/>
<feColorMatrix type="matrix" values="0 0 0 0 0 0 0 0 0 0 0 0 0 0 0 0 0 0 0.25 0"/>
<feBlend mode="normal" in2="effect1_dropShadow_56_19" result="effect2_dropShadow_56_19"/>
<feBlend mode="normal" in="SourceGraphic" in2="effect2_dropShadow_56_19" result="shape"/>
</filter>
</defs>
</svg>
