<svg width="212" height="112" viewBox="0 0 212 112" fill="none" xmlns="http://www.w3.org/2000/svg">
<g filter="url(#filter0_dd_56_27)">
<mask id="path-1-inside-1_56_27" fill="white">
<path d="M6 26C6 14.9543 14.9543 6 26 6H186C197.046 6 206 14.9543 206 26V86C206 97.0457 197.046 106 186 106H26C14.9543 106 6 97.0457 6 86V26Z"/>
</mask>
<path d="M6 26C6 14.9543 14.9543 6 26 6H186C197.046 6 206 14.9543 206 26V86C206 97.0457 197.046 106 186 106H26C14.9543 106 6 97.0457 6 86V26Z" fill="white"/>
<path d="M6 6H206H6ZM206 106H6H206ZM26 106C12.7452 106 2 95.2548 2 82V30C2 16.7452 12.7452 6 26 6C17.1634 6 10 14.9543 10 26V86C10 97.0457 17.1634 106 26 106ZM186 6C199.255 6 210 16.7452 210 30V82C210 95.2548 199.255 106 186 106C194.837 106 202 97.0457 202 86V26C202 14.9543 194.837 6 186 6Z" fill="#00B6E8" mask="url(#path-1-inside-1_56_27)"/>
</g>
<path d="M81 56.0062C81 51.9893 76.0225 48.1825 68.391 45.8218C70.1521 37.9609 69.3695 31.7068 65.9204 29.7045C65.1254 29.2348 64.1962 29.0124 63.181 29.0124V31.7686C63.7436 31.7686 64.1962 31.8799 64.5752 32.09C66.2385 33.054 66.9602 36.7249 66.3974 41.4464C66.2631 42.6082 66.0429 43.8318 65.7738 45.0802C63.3766 44.4869 60.7594 44.0296 58.0077 43.7329C56.3568 41.4464 54.6446 39.3699 52.9201 37.553C56.907 33.808 60.6495 31.7562 63.1933 31.7562V29C59.8299 29 55.4273 31.4225 50.9757 35.6249C46.5238 31.4472 42.1211 29.0494 38.758 29.0494V31.8057C41.2895 31.8057 45.044 33.8451 49.031 37.5654C47.3188 39.3823 45.6066 41.4464 43.9799 43.7329C41.216 44.0296 38.5988 44.4869 36.2018 45.0925C35.9204 43.8565 35.7126 42.6576 35.5657 41.5082C34.9912 36.7867 35.7003 33.1158 37.3515 32.1394C37.7182 31.9169 38.1952 31.8181 38.758 31.8181V29.0618C37.7305 29.0618 36.801 29.2843 35.994 29.754C32.5572 31.7562 31.7869 37.998 33.5601 45.8341C25.9531 48.2072 21 52.0017 21 56.0062C21 60.0233 25.9776 63.8302 33.609 66.1907C31.8479 74.0517 32.6305 80.3056 36.0796 82.308C36.8746 82.7775 37.8038 83 38.8313 83C42.1944 83 46.5974 80.5776 51.049 76.3752C55.5005 80.553 59.9035 82.9508 63.2666 82.9508C64.2938 82.9508 65.2233 82.7283 66.0306 82.2585C69.4671 80.2561 70.2377 74.0144 68.4643 66.1785C76.0469 63.8177 81 60.0109 81 56.0062ZM65.0768 47.7622C64.6242 49.3568 64.0616 51.0004 63.4255 52.6443C62.9243 51.6557 62.3984 50.6668 61.8235 49.6779C61.261 48.6892 60.6615 47.7252 60.0624 46.7858C61.7989 47.0454 63.4745 47.3667 65.0768 47.7622ZM59.4752 60.9254C58.5213 62.5942 57.5431 64.1762 56.528 65.6471C54.7056 65.8076 52.8591 65.8941 51 65.8941C49.1532 65.8941 47.3065 65.8076 45.4966 65.6592C44.4815 64.1883 43.4907 62.6188 42.5368 60.9625C41.6073 59.3434 40.7636 57.6995 39.993 56.0435C40.7513 54.3871 41.6073 52.7308 42.5248 51.1118C43.4787 49.4433 44.4569 47.8611 45.472 46.3903C47.2944 46.2296 49.1409 46.1431 51 46.1431C52.8468 46.1431 54.6935 46.2296 56.5034 46.3779C57.5185 47.8488 58.5093 49.4184 59.4632 51.0747C60.3927 52.6938 61.2364 54.3377 62.007 55.994C61.2364 57.6501 60.3927 59.3064 59.4752 60.9254ZM63.4255 59.3188C64.0675 60.9296 64.6308 62.5712 65.1134 64.2378C63.5111 64.6333 61.8235 64.9672 60.0747 65.2267C60.6738 64.2751 61.273 63.2987 61.8358 62.2974C62.3984 61.3087 62.9243 60.3074 63.4255 59.3188ZM51.0243 72.5068C49.887 71.32 48.7496 69.9975 47.6245 68.5515C48.7253 68.601 49.8503 68.638 50.9877 68.638C52.1374 68.638 53.2747 68.6134 54.3878 68.5515C53.338 69.9302 52.2152 71.2506 51.0243 72.5068ZM41.9253 65.2267C40.1888 64.9672 38.5132 64.6457 36.9112 64.2502C37.3635 62.6558 37.9263 61.0119 38.5622 59.368C39.0637 60.3569 39.5896 61.3458 40.1642 62.3344C40.739 63.3233 41.3262 64.2873 41.9253 65.2267ZM50.9634 39.5059C52.1007 40.6924 53.2381 42.0149 54.3632 43.461C53.2624 43.4116 52.1374 43.3745 51 43.3745C49.8503 43.3745 48.7129 43.3992 47.6002 43.461C48.6499 42.0823 49.7726 40.762 50.9634 39.5059ZM41.913 46.7858C41.3139 47.7375 40.7147 48.7139 40.1521 49.715C39.5896 50.7038 39.0637 51.6927 38.5622 52.6813C37.9201 51.0706 37.3569 49.4289 36.8746 47.7622C38.4766 47.3791 40.1642 47.0454 41.913 46.7858ZM30.845 62.2603C26.5157 60.3939 23.715 57.9469 23.715 56.0062C23.715 54.0657 26.5157 51.6062 30.845 49.7523C31.8968 49.2949 33.0465 48.887 34.2328 48.5038C34.9299 50.9263 35.8471 53.4477 36.9845 56.031C35.8594 58.6019 34.9542 61.1109 34.2695 63.5212C33.0588 63.1378 31.9091 62.7177 30.845 62.2603ZM37.4248 79.9226C35.7615 78.9585 35.0398 75.2877 35.6026 70.566C35.7372 69.4044 35.9571 68.1806 36.2262 66.9322C38.6234 67.5256 41.2406 67.983 43.9923 68.2796C45.6432 70.566 47.3554 72.6425 49.0799 74.4594C45.093 78.2046 41.3505 80.2561 38.8067 80.2561C38.2564 80.244 37.7918 80.1326 37.4248 79.9226ZM66.4343 70.5044C67.0088 75.2258 66.2997 78.8966 64.6485 79.8731C64.2818 80.0956 63.8048 80.1945 63.242 80.1945C60.7105 80.1945 56.956 78.1551 52.969 74.4348C54.6812 72.6179 56.3934 70.5539 58.0201 68.2671C60.784 67.9706 63.4012 67.5132 65.7982 66.9076C66.0796 68.156 66.2997 69.355 66.4343 70.5044ZM71.1427 62.2603C70.0909 62.7177 68.9412 63.1257 67.7549 63.5087C67.0578 61.0863 66.1406 58.5649 65.0032 55.9816C66.1285 53.4107 67.0335 50.9017 67.7182 48.4915C68.9292 48.8746 70.0786 49.2949 71.155 49.7523C75.4843 51.6184 78.285 54.0657 78.285 56.0062C78.2727 57.9469 75.472 60.4064 71.1427 62.2603Z" fill="#61DAFB"/>
<path d="M50.9835 61.6549C54.0705 61.6549 56.5727 59.126 56.5727 56.0063C56.5727 52.8868 54.0705 50.3579 50.9835 50.3579C47.8968 50.3579 45.3945 52.8868 45.3945 56.0063C45.3945 59.126 47.8968 61.6549 50.9835 61.6549Z" fill="#61DAFB"/>
<path d="M94.745 56.8667H91.7117V62.0907H90V49.1771H94.2749C95.7295 49.1771 96.847 49.5085 97.6275 50.1708C98.4139 50.8326 98.8071 51.7965 98.8071 53.0617C98.8071 53.8661 98.5883 54.5666 98.1508 55.1641C97.7191 55.7612 97.116 56.2076 96.3415 56.503L99.3747 61.9841V62.0907H97.5477L94.745 56.8667ZM91.7117 55.4743H94.3282C95.1737 55.4743 95.8448 55.2554 96.3415 54.8179C96.844 54.3804 97.0953 53.795 97.0953 53.0617C97.0953 52.2637 96.8559 51.6518 96.3769 51.226C95.9039 50.8002 95.218 50.5844 94.3193 50.5786H91.7117V55.4743ZM104.927 62.2683C103.626 62.2683 102.568 61.8425 101.752 60.991C100.936 60.1336 100.528 58.9893 100.528 57.5587V57.257C100.528 56.3052 100.708 55.4568 101.069 54.7118C101.435 53.9605 101.944 53.3751 102.594 52.9556C103.251 52.5299 103.96 52.3167 104.723 52.3167C105.971 52.3167 106.94 52.7277 107.632 53.5496C108.324 54.3714 108.67 55.548 108.67 57.0794V57.7624H102.168C102.192 58.7088 102.467 59.4745 102.993 60.0598C103.525 60.6389 104.2 60.9289 105.016 60.9289C105.595 60.9289 106.086 60.8107 106.488 60.5742C106.89 60.3377 107.242 60.0243 107.543 59.6341L108.545 60.4146C107.741 61.6501 106.535 62.2683 104.927 62.2683ZM104.723 53.6651C104.061 53.6651 103.505 53.9074 103.055 54.3921C102.606 54.8714 102.328 55.5453 102.222 56.4144H107.029V56.2904C106.982 55.4568 106.757 54.812 106.355 54.3566C105.953 53.8958 105.409 53.6651 104.723 53.6651ZM116.501 62.0907C116.406 61.9014 116.329 61.5647 116.271 61.0795C115.508 61.8717 114.597 62.2683 113.539 62.2683C112.593 62.2683 111.815 62.0021 111.206 61.4698C110.603 60.9316 110.302 60.2518 110.302 59.4299C110.302 58.4309 110.68 57.6562 111.437 57.1064C112.199 56.5502 113.27 56.2724 114.647 56.2724H116.244V55.5188C116.244 54.9451 116.072 54.4897 115.73 54.1529C115.387 53.8099 114.881 53.6386 114.213 53.6386C113.627 53.6386 113.137 53.7861 112.741 54.0819C112.345 54.3773 112.146 54.7352 112.146 55.1551H110.497C110.497 54.6763 110.665 54.215 111.002 53.7712C111.345 53.3221 111.806 52.9673 112.386 52.707C112.971 52.4471 113.612 52.3167 114.31 52.3167C115.416 52.3167 116.282 52.5946 116.909 53.1507C117.536 53.7006 117.861 54.4605 117.885 55.4298V59.8467C117.885 60.728 117.997 61.4284 118.222 61.9486V62.0907H116.501ZM113.778 60.8404C114.293 60.8404 114.781 60.7073 115.242 60.4411C115.703 60.1749 116.037 59.8292 116.244 59.4034V57.4346H114.958C112.948 57.4346 111.942 58.0227 111.942 59.1993C111.942 59.7136 112.114 60.116 112.457 60.4056C112.8 60.6951 113.24 60.8404 113.778 60.8404ZM124.306 60.9289C124.891 60.9289 125.403 60.7513 125.84 60.3966C126.278 60.0419 126.52 59.5985 126.567 59.0662H128.12C128.09 59.6161 127.901 60.1394 127.552 60.6362C127.203 61.133 126.736 61.5292 126.151 61.8245C125.571 62.1204 124.956 62.2683 124.306 62.2683C122.999 62.2683 121.959 61.8335 121.184 60.9644C120.415 60.0891 120.031 58.8949 120.031 57.3811V57.1064C120.031 56.1721 120.202 55.3412 120.545 54.6142C120.888 53.8868 121.379 53.3221 122.018 52.9201C122.662 52.5177 123.422 52.3167 124.297 52.3167C125.373 52.3167 126.266 52.6391 126.976 53.2838C127.691 53.9281 128.072 54.7648 128.12 55.7935H126.567C126.52 55.1726 126.284 54.6641 125.858 54.268C125.438 53.8661 124.918 53.6651 124.297 53.6651C123.463 53.6651 122.816 53.9663 122.355 54.5697C121.9 55.1668 121.672 56.0332 121.672 57.1684V57.4787C121.672 58.5842 121.9 59.4358 122.355 60.0329C122.81 60.6304 123.461 60.9289 124.306 60.9289ZM132.191 50.1708V52.4943H133.982V53.7627H132.191V59.7136C132.191 60.0981 132.271 60.3876 132.43 60.5827C132.59 60.772 132.862 60.8669 133.246 60.8669C133.435 60.8669 133.695 60.8314 134.026 60.7603V62.0907C133.595 62.209 133.175 62.2683 132.767 62.2683C132.034 62.2683 131.481 62.0462 131.108 61.6029C130.736 61.1596 130.55 60.5297 130.55 59.7136V53.7627H128.802V52.4943H130.55V50.1708H132.191ZM150.594 62.0907H148.882L142.381 52.1396V62.0907H140.67V49.1771H142.381L148.9 59.1728V49.1771H150.594V62.0907ZM159.286 62.0907C159.191 61.9014 159.114 61.5647 159.055 61.0795C158.292 61.8717 157.382 62.2683 156.324 62.2683C155.378 62.2683 154.6 62.0021 153.991 61.4698C153.388 60.9316 153.086 60.2518 153.086 59.4299C153.086 58.4309 153.465 57.6562 154.222 57.1064C154.984 56.5502 156.055 56.2724 157.432 56.2724H159.029V55.5188C159.029 54.9451 158.857 54.4897 158.514 54.1529C158.172 53.8099 157.666 53.6386 156.998 53.6386C156.412 53.6386 155.922 53.7861 155.526 54.0819C155.13 54.3773 154.931 54.7352 154.931 55.1551H153.282C153.282 54.6763 153.45 54.215 153.787 53.7712C154.13 53.3221 154.591 52.9673 155.171 52.707C155.756 52.4471 156.397 52.3167 157.095 52.3167C158.201 52.3167 159.067 52.5946 159.694 53.1507C160.321 53.7006 160.646 54.4605 160.67 55.4298V59.8467C160.67 60.728 160.782 61.4284 161.007 61.9486V62.0907H159.286ZM156.563 60.8404C157.078 60.8404 157.565 60.7073 158.027 60.4411C158.488 60.1749 158.822 59.8292 159.029 59.4034V57.4346H157.743C155.732 57.4346 154.727 58.0227 154.727 59.1993C154.727 59.7136 154.899 60.116 155.241 60.4056C155.584 60.6951 156.025 60.8404 156.563 60.8404ZM165.468 50.1708V52.4943H167.259V53.7627H165.468V59.7136C165.468 60.0981 165.548 60.3876 165.707 60.5827C165.867 60.772 166.139 60.8669 166.523 60.8669C166.712 60.8669 166.973 60.8314 167.304 60.7603V62.0907C166.872 62.209 166.452 62.2683 166.044 62.2683C165.311 62.2683 164.758 62.0462 164.386 61.6029C164.013 61.1596 163.827 60.5297 163.827 59.7136V53.7627H162.08V52.4943H163.827V50.1708H165.468ZM170.967 62.0907H169.326V52.4943H170.967V62.0907ZM169.193 49.9487C169.193 49.6829 169.273 49.4581 169.432 49.2747C169.598 49.0913 169.84 49 170.159 49C170.479 49 170.721 49.0913 170.887 49.2747C171.052 49.4581 171.135 49.6829 171.135 49.9487C171.135 50.2148 171.052 50.4365 170.887 50.6141C170.721 50.7912 170.479 50.8802 170.159 50.8802C169.84 50.8802 169.598 50.7912 169.432 50.6141C169.273 50.4365 169.193 50.2148 169.193 49.9487ZM176.767 59.8647L179.144 52.4943H180.82L177.379 62.0907H176.128L172.652 52.4943H174.328L176.767 59.8647ZM186.257 62.2683C184.956 62.2683 183.898 61.8425 183.082 60.991C182.266 60.1336 181.858 58.9893 181.858 57.5587V57.257C181.858 56.3052 182.038 55.4568 182.399 54.7118C182.765 53.9605 183.274 53.3751 183.924 52.9556C184.581 52.5299 185.29 52.3167 186.053 52.3167C187.301 52.3167 188.27 52.7277 188.962 53.5496C189.654 54.3714 190 55.548 190 57.0794V57.7624H183.499C183.523 58.7088 183.797 59.4745 184.324 60.0598C184.856 60.6389 185.53 60.9289 186.346 60.9289C186.925 60.9289 187.416 60.8107 187.818 60.5742C188.22 60.3377 188.572 60.0243 188.874 59.6341L189.876 60.4146C189.072 61.6501 187.865 62.2683 186.257 62.2683ZM186.053 53.6651C185.391 53.6651 184.835 53.9074 184.386 54.3921C183.936 54.8714 183.658 55.5453 183.552 56.4144H188.359V56.2904C188.312 55.4568 188.087 54.812 187.685 54.3566C187.283 53.8958 186.739 53.6651 186.053 53.6651Z" fill="#00C8FF"/>
<defs>
<filter id="filter0_dd_56_27" x="0" y="0" width="212" height="112" filterUnits="userSpaceOnUse" color-interpolation-filters="sRGB">
<feFlood flood-opacity="0" result="BackgroundImageFix"/>
<feColorMatrix in="SourceAlpha" type="matrix" values="0 0 0 0 0 0 0 0 0 0 0 0 0 0 0 0 0 0 127 0" result="hardAlpha"/>
<feOffset dx="2" dy="2"/>
<feGaussianBlur stdDeviation="2"/>
<feComposite in2="hardAlpha" operator="out"/>
<feColorMatrix type="matrix" values="0 0 0 0 0 0 0 0 0 0 0 0 0 0 0 0 0 0 0.25 0"/>
<feBlend mode="normal" in2="BackgroundImageFix" result="effect1_dropShadow_56_27"/>
<feColorMatrix in="SourceAlpha" type="matrix" values="0 0 0 0 0 0 0 0 0 0 0 0 0 0 0 0 0 0 127 0" result="hardAlpha"/>
<feOffset dx="-2" dy="-2"/>
<feGaussianBlur stdDeviation="2"/>
<feComposite in2="hardAlpha" operator="out"/>
<feColorMatrix type="matrix" values="0 0 0 0 0 0 0 0 0 0 0 0 0 0 0 0 0 0 0.25 0"/>
<feBlend mode="normal" in2="effect1_dropShadow_56_27" result="effect2_dropShadow_56_27"/>
<feBlend mode="normal" in="SourceGraphic" in2="effect2_dropShadow_56_27" result="shape"/>
</filter>
</defs>
</svg>
