<svg width="212" height="112" viewBox="0 0 212 112" fill="none" xmlns="http://www.w3.org/2000/svg">
<g filter="url(#filter0_dd_56_112)">
<mask id="path-1-inside-1_56_112" fill="white">
<path d="M6 26C6 14.9543 14.9543 6 26 6H186C197.046 6 206 14.9543 206 26V86C206 97.0457 197.046 106 186 106H26C14.9543 106 6 97.0457 6 86V26Z"/>
</mask>
<path d="M6 26C6 14.9543 14.9543 6 26 6H186C197.046 6 206 14.9543 206 26V86C206 97.0457 197.046 106 186 106H26C14.9543 106 6 97.0457 6 86V26Z" fill="white"/>
<path d="M6 6H206H6ZM206 106H6H206ZM26 106C12.7452 106 2 95.2548 2 82V30C2 16.7452 12.7452 6 26 6C17.1634 6 10 14.9543 10 26V86C10 97.0457 17.1634 106 26 106ZM186 6C199.255 6 210 16.7452 210 30V82C210 95.2548 199.255 106 186 106C194.837 106 202 97.0457 202 86V26C202 14.9543 194.837 6 186 6Z" fill="#00B6E8" mask="url(#path-1-inside-1_56_112)"/>
</g>
<path d="M47.9883 56.0113C47.9883 50.499 52.4578 46.0076 57.9936 46.0076C63.5068 46.0076 67.999 50.4764 67.999 56.0113C67.999 61.5236 63.5295 66.0151 57.9936 66.0151C52.4805 66.0151 47.9883 61.5236 47.9883 56.0113Z" fill="#1ABCFE"/>
<path d="M28 75.9959C28 70.4837 32.4695 65.9922 38.0054 65.9922H48.0107V75.9959C48.0107 81.5082 43.5412 85.9997 38.0054 85.9997C32.4695 85.9997 28 81.5309 28 75.9959Z" fill="#0ACF83"/>
<path d="M47.9883 26.0227V46.0075H57.9936C63.5068 46.0075 67.999 41.5387 67.999 36.0037C67.999 30.4915 63.5295 26 57.9936 26H47.9883V26.0227Z" fill="#FF7262"/>
<path d="M28 36.0267C28 41.539 32.4695 46.0304 38.0054 46.0304H48.0107V26.0229H38.0054C32.4695 26.0229 28 30.4917 28 36.0267Z" fill="#F24E1E"/>
<path d="M28 56.0113C28 61.5236 32.4695 66.0151 38.0054 66.0151H48.0107V46.0076H38.0054C32.4695 46.0076 28 50.499 28 56.0113Z" fill="#A259FF"/>
<path d="M83 38V66.1055L86.5969 66.1193V52.7416H95.287V49.2009H86.5969V41.5407H97.9092V38H83ZM104.403 43.7038C105.707 43.7038 106.75 42.6429 106.75 41.3479C106.75 40.0528 105.693 38.992 104.403 38.992C103.099 38.992 102.055 40.0528 102.055 41.3479C102.055 42.6429 103.112 43.7038 104.403 43.7038ZM102.577 47.2445V66.1055H106.174V47.2445H102.577Z" fill="black"/>
<path fill-rule="evenodd" clip-rule="evenodd" d="M119.532 46.6934C114.74 46.6934 111.404 50.7576 111.404 55.5797C111.404 60.4017 114.74 64.466 119.532 64.466C121.728 64.466 123.527 63.6118 124.845 62.2341V64.7277C124.845 67.8552 122.401 70.4591 119.202 70.4591C118.049 70.4591 116.909 70.0182 116.003 69.3845L114.191 72.5257C115.633 73.4625 117.349 73.9998 119.188 73.9998C124.295 73.9998 128.428 69.8529 128.428 64.7277V47.2444H124.845V48.9253C123.527 47.5475 121.728 46.6934 119.532 46.6934ZM115.015 55.5797C115.015 52.59 117.294 50.2341 119.93 50.2341C122.566 50.2341 124.845 52.59 124.845 55.5797C124.845 58.5693 122.566 60.9252 119.93 60.9252C117.294 60.9252 115.015 58.5693 115.015 55.5797Z" fill="black"/>
<path d="M141.429 50.2341C139.301 50.2341 137.571 52.0527 137.571 54.1882V66.1055H133.975V47.2444H137.571V48.9666C138.629 47.6027 140.18 46.6934 142.212 46.6934C144.738 46.6934 146.673 47.9471 147.799 49.8759C149.049 48.016 151.08 46.6934 153.538 46.6934C157.643 46.6934 160.196 50.0137 160.21 54.1193V66.1055H156.613V54.1744C156.613 52.0389 154.883 50.2203 152.755 50.2203C150.627 50.2203 148.898 52.0389 148.898 54.1744V66.1055H145.301V54.1744C145.287 52.0389 143.557 50.2341 141.429 50.2341Z" fill="black"/>
<path fill-rule="evenodd" clip-rule="evenodd" d="M179.404 49.3799C177.798 47.7129 175.601 46.6934 173.061 46.6934C167.707 46.6934 163.891 51.2536 163.891 56.6818C163.891 62.1101 167.693 66.6703 173.061 66.6703C175.601 66.6703 177.798 65.637 179.404 63.9838V66.1055H183.001V47.2444H179.404V49.3799ZM167.501 56.6818C167.501 53.086 170.247 50.2341 173.459 50.2341C176.658 50.2341 179.418 53.0722 179.418 56.6818C179.418 60.2777 176.672 63.1296 173.459 63.1296C170.247 63.1158 167.501 60.2777 167.501 56.6818Z" fill="black"/>
<defs>
<filter id="filter0_dd_56_112" x="0" y="0" width="212" height="112" filterUnits="userSpaceOnUse" color-interpolation-filters="sRGB">
<feFlood flood-opacity="0" result="BackgroundImageFix"/>
<feColorMatrix in="SourceAlpha" type="matrix" values="0 0 0 0 0 0 0 0 0 0 0 0 0 0 0 0 0 0 127 0" result="hardAlpha"/>
<feOffset dx="2" dy="2"/>
<feGaussianBlur stdDeviation="2"/>
<feComposite in2="hardAlpha" operator="out"/>
<feColorMatrix type="matrix" values="0 0 0 0 0 0 0 0 0 0 0 0 0 0 0 0 0 0 0.25 0"/>
<feBlend mode="normal" in2="BackgroundImageFix" result="effect1_dropShadow_56_112"/>
<feColorMatrix in="SourceAlpha" type="matrix" values="0 0 0 0 0 0 0 0 0 0 0 0 0 0 0 0 0 0 127 0" result="hardAlpha"/>
<feOffset dx="-2" dy="-2"/>
<feGaussianBlur stdDeviation="2"/>
<feComposite in2="hardAlpha" operator="out"/>
<feColorMatrix type="matrix" values="0 0 0 0 0 0 0 0 0 0 0 0 0 0 0 0 0 0 0.25 0"/>
<feBlend mode="normal" in2="effect1_dropShadow_56_112" result="effect2_dropShadow_56_112"/>
<feBlend mode="normal" in="SourceGraphic" in2="effect2_dropShadow_56_112" result="shape"/>
</filter>
</defs>
</svg>
