<svg width="212" height="112" viewBox="0 0 212 112" fill="none" xmlns="http://www.w3.org/2000/svg">
<g filter="url(#filter0_dd_56_127)">
<mask id="path-1-inside-1_56_127" fill="white">
<path d="M6 26C6 14.9543 14.9543 6 26 6H186C197.046 6 206 14.9543 206 26V86C206 97.0457 197.046 106 186 106H26C14.9543 106 6 97.0457 6 86V26Z"/>
</mask>
<path d="M6 26C6 14.9543 14.9543 6 26 6H186C197.046 6 206 14.9543 206 26V86C206 97.0457 197.046 106 186 106H26C14.9543 106 6 97.0457 6 86V26Z" fill="white"/>
<path d="M6 6H206H6ZM206 106H6H206ZM26 106C12.7452 106 2 95.2548 2 82V30C2 16.7452 12.7452 6 26 6C17.1634 6 10 14.9543 10 26V86C10 97.0457 17.1634 106 26 106ZM186 6C199.255 6 210 16.7452 210 30V82C210 95.2548 199.255 106 186 106C194.837 106 202 97.0457 202 86V26C202 14.9543 194.837 6 186 6Z" fill="#00B6E8" mask="url(#path-1-inside-1_56_127)"/>
</g>
<path d="M23 31H73V81H23V31Z" fill="#FF5722"/>
<path d="M41.2402 56.4541H45.6721L43.4562 47.6773L41.2402 56.4541ZM26.7832 34.915V77.1094H69.281V34.915H26.7832ZM48.1044 66.0773L46.4829 60.3734H40.4834L38.8619 66.0773H34.7541L40.5375 45.911V43.7031H46.0505L52.6445 66.0773H48.1044ZM59.0226 66.0773H54.5906V49.0575H59.0226V66.0773ZM56.8334 47.0151C55.5648 47.0151 54.5362 45.9771 54.5362 44.6968C54.5362 43.4164 55.5646 42.3783 56.8334 42.3783C58.1023 42.3783 59.1306 43.4164 59.1306 44.6968C59.1306 45.9771 58.1022 47.0151 56.8334 47.0151Z" fill="#1C0802"/>
<path d="M82.91 49L88.58 36.4H90.884L96.572 49H94.124L89.246 37.642H90.182L85.322 49H82.91ZM85.52 46.084L86.15 44.248H92.954L93.584 46.084H85.52ZM101.939 49.126C101.015 49.126 100.181 48.922 99.4365 48.514C98.7045 48.094 98.1285 47.518 97.7085 46.786C97.2885 46.054 97.0785 45.19 97.0785 44.194C97.0785 43.198 97.2885 42.334 97.7085 41.602C98.1285 40.87 98.7045 40.3 99.4365 39.892C100.181 39.484 101.015 39.28 101.939 39.28C102.743 39.28 103.463 39.46 104.099 39.82C104.735 40.168 105.239 40.702 105.611 41.422C105.983 42.142 106.169 43.066 106.169 44.194C106.169 45.31 105.989 46.234 105.629 46.966C105.269 47.686 104.771 48.226 104.135 48.586C103.499 48.946 102.767 49.126 101.939 49.126ZM102.209 47.2C102.749 47.2 103.229 47.08 103.649 46.84C104.081 46.6 104.423 46.252 104.675 45.796C104.939 45.34 105.071 44.806 105.071 44.194C105.071 43.57 104.939 43.036 104.675 42.592C104.423 42.136 104.081 41.788 103.649 41.548C103.229 41.308 102.749 41.188 102.209 41.188C101.669 41.188 101.183 41.308 100.751 41.548C100.331 41.788 99.9885 42.136 99.7245 42.592C99.4725 43.036 99.3465 43.57 99.3465 44.194C99.3465 44.806 99.4725 45.34 99.7245 45.796C99.9885 46.252 100.331 46.6 100.751 46.84C101.183 47.08 101.669 47.2 102.209 47.2ZM105.125 49V46.732L105.215 44.176L105.035 41.62V35.644H107.267V49H105.125ZM114.548 49.126C113.564 49.126 112.688 48.916 111.92 48.496C111.152 48.064 110.546 47.476 110.102 46.732C109.658 45.988 109.436 45.142 109.436 44.194C109.436 43.234 109.658 42.388 110.102 41.656C110.546 40.912 111.152 40.33 111.92 39.91C112.688 39.49 113.564 39.28 114.548 39.28C115.544 39.28 116.426 39.49 117.194 39.91C117.974 40.33 118.58 40.906 119.012 41.638C119.456 42.37 119.678 43.222 119.678 44.194C119.678 45.142 119.456 45.988 119.012 46.732C118.58 47.476 117.974 48.064 117.194 48.496C116.426 48.916 115.544 49.126 114.548 49.126ZM114.548 47.2C115.1 47.2 115.592 47.08 116.024 46.84C116.456 46.6 116.792 46.252 117.032 45.796C117.284 45.34 117.41 44.806 117.41 44.194C117.41 43.57 117.284 43.036 117.032 42.592C116.792 42.136 116.456 41.788 116.024 41.548C115.592 41.308 115.106 41.188 114.566 41.188C114.014 41.188 113.522 41.308 113.09 41.548C112.67 41.788 112.334 42.136 112.082 42.592C111.83 43.036 111.704 43.57 111.704 44.194C111.704 44.806 111.83 45.34 112.082 45.796C112.334 46.252 112.67 46.6 113.09 46.84C113.522 47.08 114.008 47.2 114.548 47.2ZM127.158 49.126C126.342 49.126 125.616 48.946 124.98 48.586C124.344 48.226 123.84 47.686 123.468 46.966C123.108 46.234 122.928 45.31 122.928 44.194C122.928 43.066 123.114 42.142 123.486 41.422C123.87 40.702 124.38 40.168 125.016 39.82C125.664 39.46 126.378 39.28 127.158 39.28C128.106 39.28 128.94 39.484 129.66 39.892C130.392 40.3 130.968 40.87 131.388 41.602C131.82 42.334 132.036 43.198 132.036 44.194C132.036 45.19 131.82 46.054 131.388 46.786C130.968 47.518 130.392 48.094 129.66 48.514C128.94 48.922 128.106 49.126 127.158 49.126ZM121.83 49V35.644H124.08V41.62L123.9 44.176L123.972 46.732V49H121.83ZM126.906 47.2C127.446 47.2 127.926 47.08 128.346 46.84C128.778 46.6 129.12 46.252 129.372 45.796C129.624 45.34 129.75 44.806 129.75 44.194C129.75 43.57 129.624 43.036 129.372 42.592C129.12 42.136 128.778 41.788 128.346 41.548C127.926 41.308 127.446 41.188 126.906 41.188C126.366 41.188 125.88 41.308 125.448 41.548C125.016 41.788 124.674 42.136 124.422 42.592C124.17 43.036 124.044 43.57 124.044 44.194C124.044 44.806 124.17 45.34 124.422 45.796C124.674 46.252 125.016 46.6 125.448 46.84C125.88 47.08 126.366 47.2 126.906 47.2ZM138.687 49.126C137.619 49.126 136.683 48.916 135.879 48.496C135.087 48.064 134.469 47.476 134.025 46.732C133.593 45.988 133.377 45.142 133.377 44.194C133.377 43.234 133.587 42.388 134.007 41.656C134.439 40.912 135.027 40.33 135.771 39.91C136.527 39.49 137.385 39.28 138.345 39.28C139.281 39.28 140.115 39.484 140.847 39.892C141.579 40.3 142.155 40.876 142.575 41.62C142.995 42.364 143.205 43.24 143.205 44.248C143.205 44.344 143.199 44.452 143.187 44.572C143.187 44.692 143.181 44.806 143.169 44.914H135.159V43.42H141.981L141.099 43.888C141.111 43.336 140.997 42.85 140.757 42.43C140.517 42.01 140.187 41.68 139.767 41.44C139.359 41.2 138.885 41.08 138.345 41.08C137.793 41.08 137.307 41.2 136.887 41.44C136.479 41.68 136.155 42.016 135.915 42.448C135.687 42.868 135.573 43.366 135.573 43.942V44.302C135.573 44.878 135.705 45.388 135.969 45.832C136.233 46.276 136.605 46.618 137.085 46.858C137.565 47.098 138.117 47.218 138.741 47.218C139.281 47.218 139.767 47.134 140.199 46.966C140.631 46.798 141.015 46.534 141.351 46.174L142.557 47.56C142.125 48.064 141.579 48.454 140.919 48.73C140.271 48.994 139.527 49.126 138.687 49.126Z" fill="black"/>
<path d="M84.974 75V60.3H87.704V75H84.974ZM91.4281 75V59.418H94.0531V75H91.4281ZM97.4984 75V59.418H100.123V75H97.4984ZM108.315 75.147C107.363 75.147 106.523 74.972 105.795 74.622C105.067 74.258 104.5 73.712 104.094 72.984C103.688 72.242 103.485 71.311 103.485 70.191V63.786H106.11V69.834C106.11 70.842 106.334 71.598 106.782 72.102C107.244 72.592 107.895 72.837 108.735 72.837C109.351 72.837 109.883 72.711 110.331 72.459C110.793 72.207 111.15 71.829 111.402 71.325C111.668 70.821 111.801 70.198 111.801 69.456V63.786H114.426V75H111.927V71.976L112.368 72.9C111.99 73.628 111.437 74.188 110.709 74.58C109.981 74.958 109.183 75.147 108.315 75.147ZM121.328 75.147C120.39 75.147 119.487 75.028 118.619 74.79C117.765 74.538 117.086 74.237 116.582 73.887L117.59 71.892C118.094 72.214 118.696 72.48 119.396 72.69C120.096 72.9 120.796 73.005 121.496 73.005C122.322 73.005 122.917 72.893 123.281 72.669C123.659 72.445 123.848 72.144 123.848 71.766C123.848 71.458 123.722 71.227 123.47 71.073C123.218 70.905 122.889 70.779 122.483 70.695C122.077 70.611 121.622 70.534 121.118 70.464C120.628 70.394 120.131 70.303 119.627 70.191C119.137 70.065 118.689 69.89 118.283 69.666C117.877 69.428 117.548 69.113 117.296 68.721C117.044 68.329 116.918 67.811 116.918 67.167C116.918 66.453 117.121 65.837 117.527 65.319C117.933 64.787 118.5 64.381 119.228 64.101C119.97 63.807 120.845 63.66 121.853 63.66C122.609 63.66 123.372 63.744 124.142 63.912C124.912 64.08 125.549 64.318 126.053 64.626L125.045 66.621C124.513 66.299 123.974 66.082 123.428 65.97C122.896 65.844 122.364 65.781 121.832 65.781C121.034 65.781 120.439 65.9 120.047 66.138C119.669 66.376 119.48 66.677 119.48 67.041C119.48 67.377 119.606 67.629 119.858 67.797C120.11 67.965 120.439 68.098 120.845 68.196C121.251 68.294 121.699 68.378 122.189 68.448C122.693 68.504 123.19 68.595 123.68 68.721C124.17 68.847 124.618 69.022 125.024 69.246C125.444 69.456 125.78 69.757 126.032 70.149C126.284 70.541 126.41 71.052 126.41 71.682C126.41 72.382 126.2 72.991 125.78 73.509C125.374 74.027 124.793 74.433 124.037 74.727C123.281 75.007 122.378 75.147 121.328 75.147ZM132.891 75.147C131.659 75.147 130.707 74.832 130.035 74.202C129.363 73.558 129.027 72.613 129.027 71.367V61.308H131.652V71.304C131.652 71.836 131.785 72.249 132.051 72.543C132.331 72.837 132.716 72.984 133.206 72.984C133.794 72.984 134.284 72.83 134.676 72.522L135.411 74.391C135.103 74.643 134.725 74.832 134.277 74.958C133.829 75.084 133.367 75.147 132.891 75.147ZM127.179 65.97V63.87H134.655V65.97H127.179ZM137.571 75V63.786H140.07V66.873L139.776 65.97C140.112 65.214 140.637 64.64 141.351 64.248C142.079 63.856 142.982 63.66 144.06 63.66V66.159C143.948 66.131 143.843 66.117 143.745 66.117C143.647 66.103 143.549 66.096 143.451 66.096C142.457 66.096 141.666 66.39 141.078 66.978C140.49 67.552 140.196 68.413 140.196 69.561V75H137.571ZM152.396 75V72.732L152.249 72.249V68.28C152.249 67.51 152.018 66.915 151.556 66.495C151.094 66.061 150.394 65.844 149.456 65.844C148.826 65.844 148.203 65.942 147.587 66.138C146.985 66.334 146.474 66.607 146.054 66.957L145.025 65.046C145.627 64.584 146.341 64.241 147.167 64.017C148.007 63.779 148.875 63.66 149.771 63.66C151.395 63.66 152.648 64.052 153.53 64.836C154.426 65.606 154.874 66.803 154.874 68.427V75H152.396ZM148.868 75.147C148.028 75.147 147.293 75.007 146.663 74.727C146.033 74.433 145.543 74.034 145.193 73.53C144.857 73.012 144.689 72.431 144.689 71.787C144.689 71.157 144.836 70.59 145.13 70.086C145.438 69.582 145.935 69.183 146.621 68.889C147.307 68.595 148.217 68.448 149.351 68.448H152.606V70.191H149.54C148.644 70.191 148.042 70.338 147.734 70.632C147.426 70.912 147.272 71.262 147.272 71.682C147.272 72.158 147.461 72.536 147.839 72.816C148.217 73.096 148.742 73.236 149.414 73.236C150.058 73.236 150.632 73.089 151.136 72.795C151.654 72.501 152.025 72.067 152.249 71.493L152.69 73.068C152.438 73.726 151.983 74.237 151.325 74.601C150.681 74.965 149.862 75.147 148.868 75.147ZM162.464 75.147C161.232 75.147 160.28 74.832 159.608 74.202C158.936 73.558 158.6 72.613 158.6 71.367V61.308H161.225V71.304C161.225 71.836 161.358 72.249 161.624 72.543C161.904 72.837 162.289 72.984 162.779 72.984C163.367 72.984 163.857 72.83 164.249 72.522L164.984 74.391C164.676 74.643 164.298 74.832 163.85 74.958C163.402 75.084 162.94 75.147 162.464 75.147ZM156.752 65.97V63.87H164.228V65.97H156.752ZM171.814 75.147C170.666 75.147 169.644 74.902 168.748 74.412C167.852 73.908 167.145 73.222 166.627 72.354C166.109 71.486 165.85 70.499 165.85 69.393C165.85 68.273 166.109 67.286 166.627 66.432C167.145 65.564 167.852 64.885 168.748 64.395C169.644 63.905 170.666 63.66 171.814 63.66C172.976 63.66 174.005 63.905 174.901 64.395C175.811 64.885 176.518 65.557 177.022 66.411C177.54 67.265 177.799 68.259 177.799 69.393C177.799 70.499 177.54 71.486 177.022 72.354C176.518 73.222 175.811 73.908 174.901 74.412C174.005 74.902 172.976 75.147 171.814 75.147ZM171.814 72.9C172.458 72.9 173.032 72.76 173.536 72.48C174.04 72.2 174.432 71.794 174.712 71.262C175.006 70.73 175.153 70.107 175.153 69.393C175.153 68.665 175.006 68.042 174.712 67.524C174.432 66.992 174.04 66.586 173.536 66.306C173.032 66.026 172.465 65.886 171.835 65.886C171.191 65.886 170.617 66.026 170.113 66.306C169.623 66.586 169.231 66.992 168.937 67.524C168.643 68.042 168.496 68.665 168.496 69.393C168.496 70.107 168.643 70.73 168.937 71.262C169.231 71.794 169.623 72.2 170.113 72.48C170.617 72.76 171.184 72.9 171.814 72.9ZM180.309 75V63.786H182.808V66.873L182.514 65.97C182.85 65.214 183.375 64.64 184.089 64.248C184.817 63.856 185.72 63.66 186.798 63.66V66.159C186.686 66.131 186.581 66.117 186.483 66.117C186.385 66.103 186.287 66.096 186.189 66.096C185.195 66.096 184.404 66.39 183.816 66.978C183.228 67.552 182.934 68.413 182.934 69.561V75H180.309Z" fill="black"/>
<defs>
<filter id="filter0_dd_56_127" x="0" y="0" width="212" height="112" filterUnits="userSpaceOnUse" color-interpolation-filters="sRGB">
<feFlood flood-opacity="0" result="BackgroundImageFix"/>
<feColorMatrix in="SourceAlpha" type="matrix" values="0 0 0 0 0 0 0 0 0 0 0 0 0 0 0 0 0 0 127 0" result="hardAlpha"/>
<feOffset dx="2" dy="2"/>
<feGaussianBlur stdDeviation="2"/>
<feComposite in2="hardAlpha" operator="out"/>
<feColorMatrix type="matrix" values="0 0 0 0 0 0 0 0 0 0 0 0 0 0 0 0 0 0 0.25 0"/>
<feBlend mode="normal" in2="BackgroundImageFix" result="effect1_dropShadow_56_127"/>
<feColorMatrix in="SourceAlpha" type="matrix" values="0 0 0 0 0 0 0 0 0 0 0 0 0 0 0 0 0 0 127 0" result="hardAlpha"/>
<feOffset dx="-2" dy="-2"/>
<feGaussianBlur stdDeviation="2"/>
<feComposite in2="hardAlpha" operator="out"/>
<feColorMatrix type="matrix" values="0 0 0 0 0 0 0 0 0 0 0 0 0 0 0 0 0 0 0.25 0"/>
<feBlend mode="normal" in2="effect1_dropShadow_56_127" result="effect2_dropShadow_56_127"/>
<feBlend mode="normal" in="SourceGraphic" in2="effect2_dropShadow_56_127" result="shape"/>
</filter>
</defs>
</svg>
