<svg width="212" height="112" viewBox="0 0 212 112" fill="none" xmlns="http://www.w3.org/2000/svg">
<g filter="url(#filter0_dd_56_135)">
<mask id="path-1-inside-1_56_135" fill="white">
<path d="M6 26C6 14.9543 14.9543 6 26 6H186C197.046 6 206 14.9543 206 26V86C206 97.0457 197.046 106 186 106H26C14.9543 106 6 97.0457 6 86V26Z"/>
</mask>
<path d="M6 26C6 14.9543 14.9543 6 26 6H186C197.046 6 206 14.9543 206 26V86C206 97.0457 197.046 106 186 106H26C14.9543 106 6 97.0457 6 86V26Z" fill="white"/>
<path d="M6 6H206H6ZM206 106H6H206ZM26 106C12.7452 106 2 95.2548 2 82V30C2 16.7452 12.7452 6 26 6C17.1634 6 10 14.9543 10 26V86C10 97.0457 17.1634 106 26 106ZM186 6C199.255 6 210 16.7452 210 30V82C210 95.2548 199.255 106 186 106C194.837 106 202 97.0457 202 86V26C202 14.9543 194.837 6 186 6Z" fill="#00B6E8" mask="url(#path-1-inside-1_56_135)"/>
</g>
<path d="M65.146 81H32.854C27.958 81 24 76.9405 24 71.919V40.081C24 35.0595 27.958 31 32.854 31H65.146C70.042 31 74 35.0595 74 40.081V71.919C74 76.9405 70.042 81 65.146 81Z" fill="#FF26BE"/>
<path d="M64.354 78.8628H33.646C29.48 78.8628 26.084 75.3797 26.084 71.1069V40.8936C26.084 36.6208 29.48 33.1377 33.646 33.1377H64.334C68.522 33.1377 71.896 36.6208 71.896 40.8936V71.0864C71.916 75.3797 68.52 78.8628 64.354 78.8628Z" fill="#2E001F"/>
<path d="M43.7702 55.3971L49.6042 66.8925C49.7082 67.0627 49.6462 67.235 49.4782 67.235H45.8522C45.6222 67.235 45.5182 67.1714 45.4142 66.9581C44.0802 64.1376 42.7262 61.3171 41.3302 58.2832H41.2882C40.0382 61.1468 38.6622 64.1602 37.3302 66.9807C37.2262 67.1509 37.1222 67.2166 36.9542 67.2166H33.5202C33.3122 67.2166 33.2902 67.0463 33.3962 66.9171L39.1042 55.7622L33.5842 44.4802C33.4582 44.3099 33.5842 44.1807 33.7082 44.1807H37.2922C37.5002 44.1807 37.5842 44.2237 37.6662 44.4166C38.9782 47.2371 40.3122 50.1437 41.5622 52.9848H41.6042C42.8122 50.1643 44.1462 47.2371 45.4382 44.4371C45.5422 44.2668 45.6042 44.1602 45.8142 44.1602H49.1682C49.3342 44.1602 49.3982 44.2894 49.2942 44.4596L43.7702 55.3971ZM50.6262 58.8802C50.6262 53.9017 53.8562 50.0125 58.9802 50.0125C59.4182 50.0125 59.6462 50.0125 60.0642 50.0555V44.394C60.0642 44.2648 60.1682 44.1807 60.2722 44.1807H63.5642C63.7302 44.1807 63.7722 44.2443 63.7722 44.3509V63.9673C63.7722 64.5437 63.7722 65.2699 63.8762 66.0617C63.8762 66.1909 63.8342 66.2319 63.7102 66.2976C61.9602 67.153 60.1262 67.5366 58.3762 67.5366C53.8542 67.555 50.6242 64.6935 50.6262 58.8802ZM60.0622 53.4114C59.7702 53.2822 59.3542 53.1981 58.8542 53.1981C56.2282 53.1981 54.3962 55.2699 54.3962 58.7119C54.3962 62.6443 56.2722 64.2258 58.6262 64.2258C59.1262 64.2258 59.6682 64.1622 60.0642 63.9899V53.4114H60.0622Z" fill="#FFD9F2"/>
<path d="M83.9 63L90.2 49H92.76L99.08 63H96.36L90.94 50.38H91.98L86.58 63H83.9ZM86.8 59.76L87.5 57.72H95.06L95.76 59.76H86.8ZM105.043 63.14C104.016 63.14 103.089 62.9133 102.263 62.46C101.449 61.9933 100.809 61.3533 100.343 60.54C99.8761 59.7267 99.6428 58.7667 99.6428 57.66C99.6428 56.5533 99.8761 55.5933 100.343 54.78C100.809 53.9667 101.449 53.3333 102.263 52.88C103.089 52.4267 104.016 52.2 105.043 52.2C105.936 52.2 106.736 52.4 107.443 52.8C108.149 53.1867 108.709 53.78 109.123 54.58C109.536 55.38 109.743 56.4067 109.743 57.66C109.743 58.9 109.543 59.9267 109.143 60.74C108.743 61.54 108.189 62.14 107.483 62.54C106.776 62.94 105.963 63.14 105.043 63.14ZM105.343 61C105.943 61 106.476 60.8667 106.943 60.6C107.423 60.3333 107.803 59.9467 108.083 59.44C108.376 58.9333 108.523 58.34 108.523 57.66C108.523 56.9667 108.376 56.3733 108.083 55.88C107.803 55.3733 107.423 54.9867 106.943 54.72C106.476 54.4533 105.943 54.32 105.343 54.32C104.743 54.32 104.203 54.4533 103.723 54.72C103.256 54.9867 102.876 55.3733 102.583 55.88C102.303 56.3733 102.163 56.9667 102.163 57.66C102.163 58.34 102.303 58.9333 102.583 59.44C102.876 59.9467 103.256 60.3333 103.723 60.6C104.203 60.8667 104.743 61 105.343 61ZM108.583 63V60.48L108.683 57.64L108.483 54.8V48.16H110.963V63H108.583ZM119.053 63.14C117.96 63.14 116.987 62.9067 116.133 62.44C115.28 61.96 114.607 61.3067 114.113 60.48C113.62 59.6533 113.373 58.7133 113.373 57.66C113.373 56.5933 113.62 55.6533 114.113 54.84C114.607 54.0133 115.28 53.3667 116.133 52.9C116.987 52.4333 117.96 52.2 119.053 52.2C120.16 52.2 121.14 52.4333 121.993 52.9C122.86 53.3667 123.533 54.0067 124.013 54.82C124.507 55.6333 124.753 56.58 124.753 57.66C124.753 58.7133 124.507 59.6533 124.013 60.48C123.533 61.3067 122.86 61.96 121.993 62.44C121.14 62.9067 120.16 63.14 119.053 63.14ZM119.053 61C119.667 61 120.213 60.8667 120.693 60.6C121.173 60.3333 121.547 59.9467 121.813 59.44C122.093 58.9333 122.233 58.34 122.233 57.66C122.233 56.9667 122.093 56.3733 121.813 55.88C121.547 55.3733 121.173 54.9867 120.693 54.72C120.213 54.4533 119.673 54.32 119.073 54.32C118.46 54.32 117.913 54.4533 117.433 54.72C116.967 54.9867 116.593 55.3733 116.313 55.88C116.033 56.3733 115.893 56.9667 115.893 57.66C115.893 58.34 116.033 58.9333 116.313 59.44C116.593 59.9467 116.967 60.3333 117.433 60.6C117.913 60.8667 118.453 61 119.053 61ZM133.064 63.14C132.157 63.14 131.351 62.94 130.644 62.54C129.937 62.14 129.377 61.54 128.964 60.74C128.564 59.9267 128.364 58.9 128.364 57.66C128.364 56.4067 128.571 55.38 128.984 54.58C129.411 53.78 129.977 53.1867 130.684 52.8C131.404 52.4 132.197 52.2 133.064 52.2C134.117 52.2 135.044 52.4267 135.844 52.88C136.657 53.3333 137.297 53.9667 137.764 54.78C138.244 55.5933 138.484 56.5533 138.484 57.66C138.484 58.7667 138.244 59.7267 137.764 60.54C137.297 61.3533 136.657 61.9933 135.844 62.46C135.044 62.9133 134.117 63.14 133.064 63.14ZM127.144 63V48.16H129.644V54.8L129.444 57.64L129.524 60.48V63H127.144ZM132.784 61C133.384 61 133.917 60.8667 134.384 60.6C134.864 60.3333 135.244 59.9467 135.524 59.44C135.804 58.9333 135.944 58.34 135.944 57.66C135.944 56.9667 135.804 56.3733 135.524 55.88C135.244 55.3733 134.864 54.9867 134.384 54.72C133.917 54.4533 133.384 54.32 132.784 54.32C132.184 54.32 131.644 54.4533 131.164 54.72C130.684 54.9867 130.304 55.3733 130.024 55.88C129.744 56.3733 129.604 56.9667 129.604 57.66C129.604 58.34 129.744 58.9333 130.024 59.44C130.304 59.9467 130.684 60.3333 131.164 60.6C131.644 60.8667 132.184 61 132.784 61ZM145.875 63.14C144.688 63.14 143.648 62.9067 142.755 62.44C141.875 61.96 141.188 61.3067 140.695 60.48C140.215 59.6533 139.975 58.7133 139.975 57.66C139.975 56.5933 140.208 55.6533 140.675 54.84C141.155 54.0133 141.808 53.3667 142.635 52.9C143.475 52.4333 144.428 52.2 145.495 52.2C146.535 52.2 147.462 52.4267 148.275 52.88C149.088 53.3333 149.728 53.9733 150.195 54.8C150.662 55.6267 150.895 56.6 150.895 57.72C150.895 57.8267 150.888 57.9467 150.875 58.08C150.875 58.2133 150.868 58.34 150.855 58.46H141.955V56.8H149.535L148.555 57.32C148.568 56.7067 148.442 56.1667 148.175 55.7C147.908 55.2333 147.542 54.8667 147.075 54.6C146.622 54.3333 146.095 54.2 145.495 54.2C144.882 54.2 144.342 54.3333 143.875 54.6C143.422 54.8667 143.062 55.24 142.795 55.72C142.542 56.1867 142.415 56.74 142.415 57.38V57.78C142.415 58.42 142.562 58.9867 142.855 59.48C143.148 59.9733 143.562 60.3533 144.095 60.62C144.628 60.8867 145.242 61.02 145.935 61.02C146.535 61.02 147.075 60.9267 147.555 60.74C148.035 60.5533 148.462 60.26 148.835 59.86L150.175 61.4C149.695 61.96 149.088 62.3933 148.355 62.7C147.635 62.9933 146.808 63.14 145.875 63.14ZM157.364 63L163.264 54.88V56.84L157.644 49H160.584L164.764 54.8L163.564 54.82L167.704 49H170.524L164.944 56.7V54.82L170.884 63H167.884L163.484 56.84H164.664L160.324 63H157.364ZM172.462 63V49H178.582C180.102 49 181.435 49.2933 182.582 49.88C183.729 50.4667 184.622 51.28 185.262 52.32C185.902 53.36 186.222 54.5867 186.222 56C186.222 57.4 185.902 58.6267 185.262 59.68C184.622 60.72 183.729 61.5333 182.582 62.12C181.435 62.7067 180.102 63 178.582 63H172.462ZM175.062 60.8H178.462C179.515 60.8 180.422 60.6 181.182 60.2C181.955 59.8 182.549 59.24 182.962 58.52C183.389 57.8 183.602 56.96 183.602 56C183.602 55.0267 183.389 54.1867 182.962 53.48C182.549 52.76 181.955 52.2 181.182 51.8C180.422 51.4 179.515 51.2 178.462 51.2H175.062V60.8Z" fill="black"/>
<defs>
<filter id="filter0_dd_56_135" x="0" y="0" width="212" height="112" filterUnits="userSpaceOnUse" color-interpolation-filters="sRGB">
<feFlood flood-opacity="0" result="BackgroundImageFix"/>
<feColorMatrix in="SourceAlpha" type="matrix" values="0 0 0 0 0 0 0 0 0 0 0 0 0 0 0 0 0 0 127 0" result="hardAlpha"/>
<feOffset dx="2" dy="2"/>
<feGaussianBlur stdDeviation="2"/>
<feComposite in2="hardAlpha" operator="out"/>
<feColorMatrix type="matrix" values="0 0 0 0 0 0 0 0 0 0 0 0 0 0 0 0 0 0 0.25 0"/>
<feBlend mode="normal" in2="BackgroundImageFix" result="effect1_dropShadow_56_135"/>
<feColorMatrix in="SourceAlpha" type="matrix" values="0 0 0 0 0 0 0 0 0 0 0 0 0 0 0 0 0 0 127 0" result="hardAlpha"/>
<feOffset dx="-2" dy="-2"/>
<feGaussianBlur stdDeviation="2"/>
<feComposite in2="hardAlpha" operator="out"/>
<feColorMatrix type="matrix" values="0 0 0 0 0 0 0 0 0 0 0 0 0 0 0 0 0 0 0.25 0"/>
<feBlend mode="normal" in2="effect1_dropShadow_56_135" result="effect2_dropShadow_56_135"/>
<feBlend mode="normal" in="SourceGraphic" in2="effect2_dropShadow_56_135" result="shape"/>
</filter>
</defs>
</svg>
