<svg width="212" height="112" viewBox="0 0 212 112" fill="none" xmlns="http://www.w3.org/2000/svg">
<g filter="url(#filter0_dd_56_143)">
<mask id="path-1-inside-1_56_143" fill="white">
<path d="M6 26C6 14.9543 14.9543 6 26 6H186C197.046 6 206 14.9543 206 26V86C206 97.0457 197.046 106 186 106H26C14.9543 106 6 97.0457 6 86V26Z"/>
</mask>
<path d="M6 26C6 14.9543 14.9543 6 26 6H186C197.046 6 206 14.9543 206 26V86C206 97.0457 197.046 106 186 106H26C14.9543 106 6 97.0457 6 86V26Z" fill="white"/>
<path d="M6 6H206H6ZM206 106H6H206ZM26 106C12.7452 106 2 95.2548 2 82V30C2 16.7452 12.7452 6 26 6C17.1634 6 10 14.9543 10 26V86C10 97.0457 17.1634 106 26 106ZM186 6C199.255 6 210 16.7452 210 30V82C210 95.2548 199.255 106 186 106C194.837 106 202 97.0457 202 86V26C202 14.9543 194.837 6 186 6Z" fill="#00B6E8" mask="url(#path-1-inside-1_56_143)"/>
</g>
<path d="M81.91 49L87.58 36.4H89.884L95.572 49H93.124L88.246 37.642H89.182L84.322 49H81.91ZM84.52 46.084L85.15 44.248H91.954L92.584 46.084H84.52ZM100.939 49.126C100.015 49.126 99.1805 48.922 98.4365 48.514C97.7045 48.094 97.1285 47.518 96.7085 46.786C96.2885 46.054 96.0785 45.19 96.0785 44.194C96.0785 43.198 96.2885 42.334 96.7085 41.602C97.1285 40.87 97.7045 40.3 98.4365 39.892C99.1805 39.484 100.015 39.28 100.939 39.28C101.743 39.28 102.463 39.46 103.099 39.82C103.735 40.168 104.239 40.702 104.611 41.422C104.983 42.142 105.169 43.066 105.169 44.194C105.169 45.31 104.989 46.234 104.629 46.966C104.269 47.686 103.771 48.226 103.135 48.586C102.499 48.946 101.767 49.126 100.939 49.126ZM101.209 47.2C101.749 47.2 102.229 47.08 102.649 46.84C103.081 46.6 103.423 46.252 103.675 45.796C103.939 45.34 104.071 44.806 104.071 44.194C104.071 43.57 103.939 43.036 103.675 42.592C103.423 42.136 103.081 41.788 102.649 41.548C102.229 41.308 101.749 41.188 101.209 41.188C100.669 41.188 100.183 41.308 99.7505 41.548C99.3305 41.788 98.9885 42.136 98.7245 42.592C98.4725 43.036 98.3465 43.57 98.3465 44.194C98.3465 44.806 98.4725 45.34 98.7245 45.796C98.9885 46.252 99.3305 46.6 99.7505 46.84C100.183 47.08 100.669 47.2 101.209 47.2ZM104.125 49V46.732L104.215 44.176L104.035 41.62V35.644H106.267V49H104.125ZM113.548 49.126C112.564 49.126 111.688 48.916 110.92 48.496C110.152 48.064 109.546 47.476 109.102 46.732C108.658 45.988 108.436 45.142 108.436 44.194C108.436 43.234 108.658 42.388 109.102 41.656C109.546 40.912 110.152 40.33 110.92 39.91C111.688 39.49 112.564 39.28 113.548 39.28C114.544 39.28 115.426 39.49 116.194 39.91C116.974 40.33 117.58 40.906 118.012 41.638C118.456 42.37 118.678 43.222 118.678 44.194C118.678 45.142 118.456 45.988 118.012 46.732C117.58 47.476 116.974 48.064 116.194 48.496C115.426 48.916 114.544 49.126 113.548 49.126ZM113.548 47.2C114.1 47.2 114.592 47.08 115.024 46.84C115.456 46.6 115.792 46.252 116.032 45.796C116.284 45.34 116.41 44.806 116.41 44.194C116.41 43.57 116.284 43.036 116.032 42.592C115.792 42.136 115.456 41.788 115.024 41.548C114.592 41.308 114.106 41.188 113.566 41.188C113.014 41.188 112.522 41.308 112.09 41.548C111.67 41.788 111.334 42.136 111.082 42.592C110.83 43.036 110.704 43.57 110.704 44.194C110.704 44.806 110.83 45.34 111.082 45.796C111.334 46.252 111.67 46.6 112.09 46.84C112.522 47.08 113.008 47.2 113.548 47.2ZM126.158 49.126C125.342 49.126 124.616 48.946 123.98 48.586C123.344 48.226 122.84 47.686 122.468 46.966C122.108 46.234 121.928 45.31 121.928 44.194C121.928 43.066 122.114 42.142 122.486 41.422C122.87 40.702 123.38 40.168 124.016 39.82C124.664 39.46 125.378 39.28 126.158 39.28C127.106 39.28 127.94 39.484 128.66 39.892C129.392 40.3 129.968 40.87 130.388 41.602C130.82 42.334 131.036 43.198 131.036 44.194C131.036 45.19 130.82 46.054 130.388 46.786C129.968 47.518 129.392 48.094 128.66 48.514C127.94 48.922 127.106 49.126 126.158 49.126ZM120.83 49V35.644H123.08V41.62L122.9 44.176L122.972 46.732V49H120.83ZM125.906 47.2C126.446 47.2 126.926 47.08 127.346 46.84C127.778 46.6 128.12 46.252 128.372 45.796C128.624 45.34 128.75 44.806 128.75 44.194C128.75 43.57 128.624 43.036 128.372 42.592C128.12 42.136 127.778 41.788 127.346 41.548C126.926 41.308 126.446 41.188 125.906 41.188C125.366 41.188 124.88 41.308 124.448 41.548C124.016 41.788 123.674 42.136 123.422 42.592C123.17 43.036 123.044 43.57 123.044 44.194C123.044 44.806 123.17 45.34 123.422 45.796C123.674 46.252 124.016 46.6 124.448 46.84C124.88 47.08 125.366 47.2 125.906 47.2ZM137.687 49.126C136.619 49.126 135.683 48.916 134.879 48.496C134.087 48.064 133.469 47.476 133.025 46.732C132.593 45.988 132.377 45.142 132.377 44.194C132.377 43.234 132.587 42.388 133.007 41.656C133.439 40.912 134.027 40.33 134.771 39.91C135.527 39.49 136.385 39.28 137.345 39.28C138.281 39.28 139.115 39.484 139.847 39.892C140.579 40.3 141.155 40.876 141.575 41.62C141.995 42.364 142.205 43.24 142.205 44.248C142.205 44.344 142.199 44.452 142.187 44.572C142.187 44.692 142.181 44.806 142.169 44.914H134.159V43.42H140.981L140.099 43.888C140.111 43.336 139.997 42.85 139.757 42.43C139.517 42.01 139.187 41.68 138.767 41.44C138.359 41.2 137.885 41.08 137.345 41.08C136.793 41.08 136.307 41.2 135.887 41.44C135.479 41.68 135.155 42.016 134.915 42.448C134.687 42.868 134.573 43.366 134.573 43.942V44.302C134.573 44.878 134.705 45.388 134.969 45.832C135.233 46.276 135.605 46.618 136.085 46.858C136.565 47.098 137.117 47.218 137.741 47.218C138.281 47.218 138.767 47.134 139.199 46.966C139.631 46.798 140.015 46.534 140.351 46.174L141.557 47.56C141.125 48.064 140.579 48.454 139.919 48.73C139.271 48.994 138.527 49.126 137.687 49.126Z" fill="black"/>
<path d="M83.786 72V58.7H89.258C90.436 58.7 91.443 58.89 92.279 59.27C93.1277 59.65 93.78 60.1947 94.236 60.904C94.692 61.6133 94.92 62.4557 94.92 63.431C94.92 64.4063 94.692 65.2487 94.236 65.958C93.78 66.6673 93.1277 67.212 92.279 67.592C91.443 67.972 90.436 68.162 89.258 68.162H85.154L86.256 67.003V72H83.786ZM86.256 67.269L85.154 66.072H89.144C90.2333 66.072 91.0503 65.844 91.595 65.388C92.1523 64.9193 92.431 64.267 92.431 63.431C92.431 62.5823 92.1523 61.93 91.595 61.474C91.0503 61.018 90.2333 60.79 89.144 60.79H85.154L86.256 59.574V67.269ZM103.101 61.74C103.912 61.74 104.634 61.8983 105.267 62.215C105.913 62.5317 106.42 63.0193 106.787 63.678C107.154 64.324 107.338 65.16 107.338 66.186V72H104.963V66.49C104.963 65.5907 104.748 64.9193 104.317 64.476C103.899 64.0327 103.31 63.811 102.55 63.811C101.993 63.811 101.499 63.925 101.068 64.153C100.637 64.381 100.302 64.723 100.061 65.179C99.8331 65.6223 99.7191 66.186 99.7191 66.87V72H97.3441V57.902H99.7191V64.59L99.2061 63.754C99.5608 63.108 100.074 62.614 100.745 62.272C101.429 61.9173 102.214 61.74 103.101 61.74ZM114.93 72.133C113.891 72.133 112.966 71.9113 112.156 71.468C111.345 71.012 110.705 70.3913 110.237 69.606C109.768 68.8207 109.534 67.9277 109.534 66.927C109.534 65.9137 109.768 65.0207 110.237 64.248C110.705 63.4627 111.345 62.8483 112.156 62.405C112.966 61.9617 113.891 61.74 114.93 61.74C115.981 61.74 116.912 61.9617 117.723 62.405C118.546 62.8483 119.186 63.4563 119.642 64.229C120.11 65.0017 120.345 65.901 120.345 66.927C120.345 67.9277 120.11 68.8207 119.642 69.606C119.186 70.3913 118.546 71.012 117.723 71.468C116.912 71.9113 115.981 72.133 114.93 72.133ZM114.93 70.1C115.512 70.1 116.032 69.9733 116.488 69.72C116.944 69.4667 117.298 69.0993 117.552 68.618C117.818 68.1367 117.951 67.573 117.951 66.927C117.951 66.2683 117.818 65.7047 117.552 65.236C117.298 64.7547 116.944 64.3873 116.488 64.134C116.032 63.8807 115.519 63.754 114.949 63.754C114.366 63.754 113.847 63.8807 113.391 64.134C112.947 64.3873 112.593 64.7547 112.327 65.236C112.061 65.7047 111.928 66.2683 111.928 66.927C111.928 67.573 112.061 68.1367 112.327 68.618C112.593 69.0993 112.947 69.4667 113.391 69.72C113.847 69.9733 114.36 70.1 114.93 70.1ZM126.435 72.133C125.32 72.133 124.459 71.848 123.851 71.278C123.243 70.6953 122.939 69.8403 122.939 68.713V59.612H125.314V68.656C125.314 69.1373 125.434 69.511 125.675 69.777C125.928 70.043 126.276 70.176 126.72 70.176C127.252 70.176 127.695 70.0367 128.05 69.758L128.715 71.449C128.436 71.677 128.094 71.848 127.689 71.962C127.283 72.076 126.865 72.133 126.435 72.133ZM121.267 63.83V61.93H128.031V63.83H121.267ZM134.894 72.133C133.856 72.133 132.931 71.9113 132.12 71.468C131.31 71.012 130.67 70.3913 130.201 69.606C129.733 68.8207 129.498 67.9277 129.498 66.927C129.498 65.9137 129.733 65.0207 130.201 64.248C130.67 63.4627 131.31 62.8483 132.12 62.405C132.931 61.9617 133.856 61.74 134.894 61.74C135.946 61.74 136.877 61.9617 137.687 62.405C138.511 62.8483 139.15 63.4563 139.606 64.229C140.075 65.0017 140.309 65.901 140.309 66.927C140.309 67.9277 140.075 68.8207 139.606 69.606C139.15 70.3913 138.511 71.012 137.687 71.468C136.877 71.9113 135.946 72.133 134.894 72.133ZM134.894 70.1C135.477 70.1 135.996 69.9733 136.452 69.72C136.908 69.4667 137.263 69.0993 137.516 68.618C137.782 68.1367 137.915 67.573 137.915 66.927C137.915 66.2683 137.782 65.7047 137.516 65.236C137.263 64.7547 136.908 64.3873 136.452 64.134C135.996 63.8807 135.483 63.754 134.913 63.754C134.331 63.754 133.811 63.8807 133.355 64.134C132.912 64.3873 132.557 64.7547 132.291 65.236C132.025 65.7047 131.892 66.2683 131.892 66.927C131.892 67.573 132.025 68.1367 132.291 68.618C132.557 69.0993 132.912 69.4667 133.355 69.72C133.811 69.9733 134.324 70.1 134.894 70.1ZM145.715 72.133C144.867 72.133 144.05 72.0253 143.264 71.81C142.492 71.582 141.877 71.3097 141.421 70.993L142.333 69.188C142.789 69.4793 143.334 69.72 143.967 69.91C144.601 70.1 145.234 70.195 145.867 70.195C146.615 70.195 147.153 70.0937 147.482 69.891C147.824 69.6883 147.995 69.416 147.995 69.074C147.995 68.7953 147.881 68.5863 147.653 68.447C147.425 68.295 147.128 68.181 146.76 68.105C146.393 68.029 145.981 67.9593 145.525 67.896C145.082 67.8327 144.632 67.7503 144.176 67.649C143.733 67.535 143.328 67.3767 142.96 67.174C142.593 66.9587 142.295 66.6737 142.067 66.319C141.839 65.9643 141.725 65.4957 141.725 64.913C141.725 64.267 141.909 63.7097 142.276 63.241C142.644 62.7597 143.157 62.3923 143.815 62.139C144.487 61.873 145.278 61.74 146.19 61.74C146.874 61.74 147.565 61.816 148.261 61.968C148.958 62.12 149.534 62.3353 149.99 62.614L149.078 64.419C148.597 64.1277 148.109 63.9313 147.615 63.83C147.134 63.716 146.653 63.659 146.171 63.659C145.449 63.659 144.911 63.7667 144.556 63.982C144.214 64.1973 144.043 64.4697 144.043 64.799C144.043 65.103 144.157 65.331 144.385 65.483C144.613 65.635 144.911 65.7553 145.278 65.844C145.646 65.9327 146.051 66.0087 146.494 66.072C146.95 66.1227 147.4 66.205 147.843 66.319C148.287 66.433 148.692 66.5913 149.059 66.794C149.439 66.984 149.743 67.2563 149.971 67.611C150.199 67.9657 150.313 68.428 150.313 68.998C150.313 69.6313 150.123 70.1823 149.743 70.651C149.376 71.1197 148.85 71.487 148.166 71.753C147.482 72.0063 146.665 72.133 145.715 72.133ZM158.116 61.74C158.926 61.74 159.648 61.8983 160.282 62.215C160.928 62.5317 161.434 63.0193 161.802 63.678C162.169 64.324 162.353 65.16 162.353 66.186V72H159.978V66.49C159.978 65.5907 159.762 64.9193 159.332 64.476C158.914 64.0327 158.325 63.811 157.565 63.811C157.007 63.811 156.513 63.925 156.083 64.153C155.652 64.381 155.316 64.723 155.076 65.179C154.848 65.6223 154.734 66.186 154.734 66.87V72H152.359V57.902H154.734V64.59L154.221 63.754C154.575 63.108 155.088 62.614 155.76 62.272C156.444 61.9173 157.229 61.74 158.116 61.74ZM169.944 72.133C168.906 72.133 167.981 71.9113 167.17 71.468C166.36 71.012 165.72 70.3913 165.251 69.606C164.783 68.8207 164.548 67.9277 164.548 66.927C164.548 65.9137 164.783 65.0207 165.251 64.248C165.72 63.4627 166.36 62.8483 167.17 62.405C167.981 61.9617 168.906 61.74 169.944 61.74C170.996 61.74 171.927 61.9617 172.737 62.405C173.561 62.8483 174.2 63.4563 174.656 64.229C175.125 65.0017 175.359 65.901 175.359 66.927C175.359 67.9277 175.125 68.8207 174.656 69.606C174.2 70.3913 173.561 71.012 172.737 71.468C171.927 71.9113 170.996 72.133 169.944 72.133ZM169.944 70.1C170.527 70.1 171.046 69.9733 171.502 69.72C171.958 69.4667 172.313 69.0993 172.566 68.618C172.832 68.1367 172.965 67.573 172.965 66.927C172.965 66.2683 172.832 65.7047 172.566 65.236C172.313 64.7547 171.958 64.3873 171.502 64.134C171.046 63.8807 170.533 63.754 169.963 63.754C169.381 63.754 168.861 63.8807 168.405 64.134C167.962 64.3873 167.607 64.7547 167.341 65.236C167.075 65.7047 166.942 66.2683 166.942 66.927C166.942 67.573 167.075 68.1367 167.341 68.618C167.607 69.0993 167.962 69.4667 168.405 69.72C168.861 69.9733 169.374 70.1 169.944 70.1ZM183.254 72.133C182.431 72.133 181.677 71.943 180.993 71.563C180.322 71.183 179.784 70.613 179.378 69.853C178.986 69.0803 178.789 68.105 178.789 66.927C178.789 65.7363 178.979 64.761 179.359 64.001C179.752 63.241 180.284 62.6773 180.955 62.31C181.627 61.93 182.393 61.74 183.254 61.74C184.255 61.74 185.135 61.9553 185.895 62.386C186.668 62.8167 187.276 63.4183 187.719 64.191C188.175 64.9637 188.403 65.8757 188.403 66.927C188.403 67.9783 188.175 68.8967 187.719 69.682C187.276 70.4547 186.668 71.0563 185.895 71.487C185.135 71.9177 184.255 72.133 183.254 72.133ZM177.63 75.686V61.854H179.891V64.248L179.815 66.946L180.005 69.644V75.686H177.63ZM182.988 70.1C183.558 70.1 184.065 69.9733 184.508 69.72C184.964 69.4667 185.325 69.0993 185.591 68.618C185.857 68.1367 185.99 67.573 185.99 66.927C185.99 66.2683 185.857 65.7047 185.591 65.236C185.325 64.7547 184.964 64.3873 184.508 64.134C184.065 63.8807 183.558 63.754 182.988 63.754C182.418 63.754 181.905 63.8807 181.449 64.134C180.993 64.3873 180.632 64.7547 180.366 65.236C180.1 65.7047 179.967 66.2683 179.967 66.927C179.967 67.573 180.1 68.1367 180.366 68.618C180.632 69.0993 180.993 69.4667 181.449 69.72C181.905 69.9733 182.418 70.1 182.988 70.1Z" fill="black"/>
<path d="M23.082 33.1367H68.9154V78.8632H23.082V33.1367Z" fill="url(#paint0_radial_56_143)"/>
<path d="M23.0833 33.1367H68.9167V78.8632H23.0833V33.1367ZM21 81H71V31H21V81ZM54.7083 51.5128C53.0625 51.5128 52.5 52.3675 52.5 53.0726C52.5 53.8418 52.875 54.376 55.0834 55.5512C58.3542 57.1752 59.375 58.735 59.375 61.0213C59.375 64.4401 56.8334 66.2777 53.3958 66.2777C51.5833 66.2777 50.0208 65.8931 49.125 65.3589C48.9792 65.2949 48.9584 65.188 48.9584 65.017V61.876C48.9584 61.6624 49.0625 61.5982 49.2084 61.7051C50.5209 62.5812 52.0209 62.9658 53.3958 62.9658C55.0417 62.9658 55.7292 62.2606 55.7292 61.2991C55.7292 60.5299 55.25 59.8461 53.1458 58.735C50.1874 57.282 48.9584 55.8077 48.9584 53.3504C48.9584 50.5939 51.0626 48.3077 54.7083 48.3077C56.5 48.3077 57.75 48.5855 58.4375 48.906C58.6042 49.0128 58.6458 49.1837 58.6458 49.3333V52.2605C58.6458 52.4315 58.5417 52.5384 58.3333 52.4742C57.4166 51.8761 56.0625 51.5128 54.7083 51.5128ZM36.7916 54.0555C37.2708 54.0982 37.6459 54.0982 38.4792 54.0982C40.9168 54.0982 43.2084 53.2222 43.2084 49.8248C43.2084 47.1112 41.5625 45.7436 38.7917 45.7436C37.9584 45.7436 37.1667 45.7863 36.7916 45.8077V54.0555ZM33.0834 42.7094C33.0834 42.5598 33.3751 42.4529 33.5417 42.4529C34.8751 42.3888 36.8542 42.3461 38.9167 42.3461C44.6875 42.3461 46.9375 45.5939 46.9375 49.7393C46.9375 55.1666 43.1041 57.4957 38.3958 57.4957C37.6042 57.4957 37.3334 57.4529 36.7708 57.4529V65.6581C36.7708 65.829 36.7083 65.9144 36.5208 65.9144H33.3334C33.1667 65.9144 33.0833 65.8503 33.0833 65.6581L33.0834 42.7094Z" fill="#31C5F0"/>
<defs>
<filter id="filter0_dd_56_143" x="0" y="0" width="212" height="112" filterUnits="userSpaceOnUse" color-interpolation-filters="sRGB">
<feFlood flood-opacity="0" result="BackgroundImageFix"/>
<feColorMatrix in="SourceAlpha" type="matrix" values="0 0 0 0 0 0 0 0 0 0 0 0 0 0 0 0 0 0 127 0" result="hardAlpha"/>
<feOffset dx="2" dy="2"/>
<feGaussianBlur stdDeviation="2"/>
<feComposite in2="hardAlpha" operator="out"/>
<feColorMatrix type="matrix" values="0 0 0 0 0 0 0 0 0 0 0 0 0 0 0 0 0 0 0.25 0"/>
<feBlend mode="normal" in2="BackgroundImageFix" result="effect1_dropShadow_56_143"/>
<feColorMatrix in="SourceAlpha" type="matrix" values="0 0 0 0 0 0 0 0 0 0 0 0 0 0 0 0 0 0 127 0" result="hardAlpha"/>
<feOffset dx="-2" dy="-2"/>
<feGaussianBlur stdDeviation="2"/>
<feComposite in2="hardAlpha" operator="out"/>
<feColorMatrix type="matrix" values="0 0 0 0 0 0 0 0 0 0 0 0 0 0 0 0 0 0 0.25 0"/>
<feBlend mode="normal" in2="effect1_dropShadow_56_143" result="effect2_dropShadow_56_143"/>
<feBlend mode="normal" in="SourceGraphic" in2="effect2_dropShadow_56_143" result="shape"/>
</filter>
<radialGradient id="paint0_radial_56_143" cx="0" cy="0" r="1" gradientUnits="userSpaceOnUse" gradientTransform="translate(38.1773 43.3841) scale(34.8334 34.5897)">
<stop stop-color="#34364E" stop-opacity="0.98"/>
<stop offset="1" stop-color="#0C0824"/>
</radialGradient>
</defs>
</svg>
