<svg width="212" height="112" viewBox="0 0 212 112" fill="none" xmlns="http://www.w3.org/2000/svg">
<g filter="url(#filter0_dd_56_151)">
<mask id="path-1-inside-1_56_151" fill="white">
<path d="M6 26C6 14.9543 14.9543 6 26 6H186C197.046 6 206 14.9543 206 26V86C206 97.0457 197.046 106 186 106H26C14.9543 106 6 97.0457 6 86V26Z"/>
</mask>
<path d="M6 26C6 14.9543 14.9543 6 26 6H186C197.046 6 206 14.9543 206 26V86C206 97.0457 197.046 106 186 106H26C14.9543 106 6 97.0457 6 86V26Z" fill="white"/>
<path d="M6 6H206H6ZM206 106H6H206ZM26 106C12.7452 106 2 95.2548 2 82V30C2 16.7452 12.7452 6 26 6C17.1634 6 10 14.9543 10 26V86C10 97.0457 17.1634 106 26 106ZM186 6C199.255 6 210 16.7452 210 30V82C210 95.2548 199.255 106 186 106C194.837 106 202 97.0457 202 86V26C202 14.9543 194.837 6 186 6Z" fill="#00B6E8" mask="url(#path-1-inside-1_56_151)"/>
</g>
<path fill-rule="evenodd" clip-rule="evenodd" d="M26.082 33.1367H71.9152V78.8632H26.082V33.1367Z" fill="#1F0040"/>
<path fill-rule="evenodd" clip-rule="evenodd" d="M24 31V81H74V31H24ZM26.0833 33.1368H71.9167V78.8632H26.0833V33.1368Z" fill="#D291FF"/>
<path fill-rule="evenodd" clip-rule="evenodd" d="M38.1312 59.3118L36.4812 65.6932C36.4466 65.8692 36.3779 65.9357 36.1716 65.9357H33.1125C32.9062 65.9357 32.8716 65.8652 32.9062 65.6186L38.8185 44.3942C38.9218 44.0066 38.9906 43.7007 39.0247 42.6432C39.0247 42.5022 39.0935 42.4316 39.1968 42.4316H43.5624C43.6995 42.4316 43.7683 42.4671 43.8028 42.6432L50.4374 65.6536C50.4716 65.8301 50.4374 65.9357 50.2653 65.9357H46.8278C46.6562 65.9357 46.5528 65.8692 46.5187 65.7286L44.7999 59.3118H38.1312ZM43.9778 55.843C43.3935 53.4808 41.9808 48.3 41.4651 45.7968H41.431C40.9841 48.3 39.8558 52.5267 38.9964 55.8408L43.9778 55.843ZM55.1455 58.0297C55.1801 60.921 56.5209 62.8598 59.6832 62.8598C60.9205 62.8598 61.9809 62.6921 63.0809 62.1983C63.2184 62.1278 63.3217 62.1633 63.3217 62.3393V65.019C63.3217 65.2306 63.253 65.3361 63.1155 65.4419C62.0157 66.0062 60.6457 66.2528 58.927 66.2528C53.4272 66.2528 51.3645 62.0928 51.3645 57.4387C51.3645 52.3972 53.908 48.2725 58.3772 48.2725C62.9144 48.2725 64.4957 52.1857 64.4957 55.3588C64.4957 56.3812 64.4269 57.2276 64.324 57.6152C64.2894 57.7913 64.2207 57.8534 64.049 57.8885C63.6365 57.959 62.399 58.0295 60.5769 58.0295L55.1455 58.0297ZM59.3736 55.0917C60.4392 55.0917 60.8178 55.0917 60.9207 55.0566C60.9207 54.9156 60.9553 54.7945 60.9553 54.6889C60.9553 53.5254 60.4051 51.39 58.2397 51.39C56.2459 51.39 55.3866 53.1878 55.1801 55.0917H59.3736Z" fill="#D291FF"/>
<path d="M83.91 52L89.58 39.4H91.884L97.572 52H95.124L90.246 40.642H91.182L86.322 52H83.91ZM86.52 49.084L87.15 47.248H93.954L94.584 49.084H86.52ZM102.939 52.126C102.015 52.126 101.181 51.922 100.437 51.514C99.7045 51.094 99.1285 50.518 98.7085 49.786C98.2885 49.054 98.0785 48.19 98.0785 47.194C98.0785 46.198 98.2885 45.334 98.7085 44.602C99.1285 43.87 99.7045 43.3 100.437 42.892C101.181 42.484 102.015 42.28 102.939 42.28C103.743 42.28 104.463 42.46 105.099 42.82C105.735 43.168 106.239 43.702 106.611 44.422C106.983 45.142 107.169 46.066 107.169 47.194C107.169 48.31 106.989 49.234 106.629 49.966C106.269 50.686 105.771 51.226 105.135 51.586C104.499 51.946 103.767 52.126 102.939 52.126ZM103.209 50.2C103.749 50.2 104.229 50.08 104.649 49.84C105.081 49.6 105.423 49.252 105.675 48.796C105.939 48.34 106.071 47.806 106.071 47.194C106.071 46.57 105.939 46.036 105.675 45.592C105.423 45.136 105.081 44.788 104.649 44.548C104.229 44.308 103.749 44.188 103.209 44.188C102.669 44.188 102.183 44.308 101.751 44.548C101.331 44.788 100.989 45.136 100.725 45.592C100.473 46.036 100.347 46.57 100.347 47.194C100.347 47.806 100.473 48.34 100.725 48.796C100.989 49.252 101.331 49.6 101.751 49.84C102.183 50.08 102.669 50.2 103.209 50.2ZM106.125 52V49.732L106.215 47.176L106.035 44.62V38.644H108.267V52H106.125ZM115.548 52.126C114.564 52.126 113.688 51.916 112.92 51.496C112.152 51.064 111.546 50.476 111.102 49.732C110.658 48.988 110.436 48.142 110.436 47.194C110.436 46.234 110.658 45.388 111.102 44.656C111.546 43.912 112.152 43.33 112.92 42.91C113.688 42.49 114.564 42.28 115.548 42.28C116.544 42.28 117.426 42.49 118.194 42.91C118.974 43.33 119.58 43.906 120.012 44.638C120.456 45.37 120.678 46.222 120.678 47.194C120.678 48.142 120.456 48.988 120.012 49.732C119.58 50.476 118.974 51.064 118.194 51.496C117.426 51.916 116.544 52.126 115.548 52.126ZM115.548 50.2C116.1 50.2 116.592 50.08 117.024 49.84C117.456 49.6 117.792 49.252 118.032 48.796C118.284 48.34 118.41 47.806 118.41 47.194C118.41 46.57 118.284 46.036 118.032 45.592C117.792 45.136 117.456 44.788 117.024 44.548C116.592 44.308 116.106 44.188 115.566 44.188C115.014 44.188 114.522 44.308 114.09 44.548C113.67 44.788 113.334 45.136 113.082 45.592C112.83 46.036 112.704 46.57 112.704 47.194C112.704 47.806 112.83 48.34 113.082 48.796C113.334 49.252 113.67 49.6 114.09 49.84C114.522 50.08 115.008 50.2 115.548 50.2ZM128.158 52.126C127.342 52.126 126.616 51.946 125.98 51.586C125.344 51.226 124.84 50.686 124.468 49.966C124.108 49.234 123.928 48.31 123.928 47.194C123.928 46.066 124.114 45.142 124.486 44.422C124.87 43.702 125.38 43.168 126.016 42.82C126.664 42.46 127.378 42.28 128.158 42.28C129.106 42.28 129.94 42.484 130.66 42.892C131.392 43.3 131.968 43.87 132.388 44.602C132.82 45.334 133.036 46.198 133.036 47.194C133.036 48.19 132.82 49.054 132.388 49.786C131.968 50.518 131.392 51.094 130.66 51.514C129.94 51.922 129.106 52.126 128.158 52.126ZM122.83 52V38.644H125.08V44.62L124.9 47.176L124.972 49.732V52H122.83ZM127.906 50.2C128.446 50.2 128.926 50.08 129.346 49.84C129.778 49.6 130.12 49.252 130.372 48.796C130.624 48.34 130.75 47.806 130.75 47.194C130.75 46.57 130.624 46.036 130.372 45.592C130.12 45.136 129.778 44.788 129.346 44.548C128.926 44.308 128.446 44.188 127.906 44.188C127.366 44.188 126.88 44.308 126.448 44.548C126.016 44.788 125.674 45.136 125.422 45.592C125.17 46.036 125.044 46.57 125.044 47.194C125.044 47.806 125.17 48.34 125.422 48.796C125.674 49.252 126.016 49.6 126.448 49.84C126.88 50.08 127.366 50.2 127.906 50.2ZM139.687 52.126C138.619 52.126 137.683 51.916 136.879 51.496C136.087 51.064 135.469 50.476 135.025 49.732C134.593 48.988 134.377 48.142 134.377 47.194C134.377 46.234 134.587 45.388 135.007 44.656C135.439 43.912 136.027 43.33 136.771 42.91C137.527 42.49 138.385 42.28 139.345 42.28C140.281 42.28 141.115 42.484 141.847 42.892C142.579 43.3 143.155 43.876 143.575 44.62C143.995 45.364 144.205 46.24 144.205 47.248C144.205 47.344 144.199 47.452 144.187 47.572C144.187 47.692 144.181 47.806 144.169 47.914H136.159V46.42H142.981L142.099 46.888C142.111 46.336 141.997 45.85 141.757 45.43C141.517 45.01 141.187 44.68 140.767 44.44C140.359 44.2 139.885 44.08 139.345 44.08C138.793 44.08 138.307 44.2 137.887 44.44C137.479 44.68 137.155 45.016 136.915 45.448C136.687 45.868 136.573 46.366 136.573 46.942V47.302C136.573 47.878 136.705 48.388 136.969 48.832C137.233 49.276 137.605 49.618 138.085 49.858C138.565 50.098 139.117 50.218 139.741 50.218C140.281 50.218 140.767 50.134 141.199 49.966C141.631 49.798 142.015 49.534 142.351 49.174L143.557 50.56C143.125 51.064 142.579 51.454 141.919 51.73C141.271 51.994 140.527 52.126 139.687 52.126Z" fill="black"/>
<path d="M83.92 73L88.96 61.8H91.008L96.064 73H93.888L89.552 62.904H90.384L86.064 73H83.92ZM86.24 70.408L86.8 68.776H92.848L93.408 70.408H86.24ZM97.5684 73V63.976C97.5684 63.08 97.8297 62.3653 98.3524 61.832C98.8857 61.288 99.643 61.016 100.624 61.016C100.976 61.016 101.307 61.0533 101.616 61.128C101.936 61.2027 102.203 61.32 102.416 61.48L101.872 62.984C101.723 62.8667 101.552 62.7813 101.36 62.728C101.168 62.664 100.971 62.632 100.768 62.632C100.352 62.632 100.038 62.7493 99.8244 62.984C99.611 63.208 99.5044 63.5493 99.5044 64.008V64.968L99.5684 65.864V73H97.5684ZM96.1604 66.12V64.52H101.856V66.12H96.1604ZM106.419 73.112C105.48 73.112 104.755 72.872 104.243 72.392C103.731 71.9013 103.475 71.1813 103.475 70.232V62.568H105.475V70.184C105.475 70.5893 105.576 70.904 105.779 71.128C105.992 71.352 106.285 71.464 106.659 71.464C107.107 71.464 107.48 71.3467 107.779 71.112L108.339 72.536C108.104 72.728 107.816 72.872 107.475 72.968C107.133 73.064 106.781 73.112 106.419 73.112ZM102.067 66.12V64.52H107.763V66.12H102.067ZM113.719 73.112C112.769 73.112 111.937 72.9253 111.223 72.552C110.519 72.168 109.969 71.6453 109.575 70.984C109.191 70.3227 108.999 69.5707 108.999 68.728C108.999 67.8747 109.185 67.1227 109.559 66.472C109.943 65.8107 110.465 65.2933 111.127 64.92C111.799 64.5467 112.561 64.36 113.415 64.36C114.247 64.36 114.988 64.5413 115.639 64.904C116.289 65.2667 116.801 65.7787 117.175 66.44C117.548 67.1013 117.735 67.88 117.735 68.776C117.735 68.8613 117.729 68.9573 117.719 69.064C117.719 69.1707 117.713 69.272 117.703 69.368H110.583V68.04H116.647L115.863 68.456C115.873 67.9653 115.772 67.5333 115.559 67.16C115.345 66.7867 115.052 66.4933 114.679 66.28C114.316 66.0667 113.895 65.96 113.415 65.96C112.924 65.96 112.492 66.0667 112.119 66.28C111.756 66.4933 111.468 66.792 111.255 67.176C111.052 67.5493 110.951 67.992 110.951 68.504V68.824C110.951 69.336 111.068 69.7893 111.303 70.184C111.537 70.5787 111.868 70.8827 112.295 71.096C112.721 71.3093 113.212 71.416 113.767 71.416C114.247 71.416 114.679 71.3413 115.063 71.192C115.447 71.0427 115.788 70.808 116.087 70.488L117.159 71.72C116.775 72.168 116.289 72.5147 115.703 72.76C115.127 72.9947 114.465 73.112 113.719 73.112ZM119.656 73V64.456H121.56V66.808L121.336 66.12C121.592 65.544 121.992 65.1067 122.536 64.808C123.09 64.5093 123.778 64.36 124.6 64.36V66.264C124.514 66.2427 124.434 66.232 124.36 66.232C124.285 66.2213 124.21 66.216 124.136 66.216C123.378 66.216 122.776 66.44 122.328 66.888C121.88 67.3253 121.656 67.9813 121.656 68.856V73H119.656ZM132.908 66.456H138.476V68.168H132.908V66.456ZM133.068 71.256H139.388V73H130.988V61.8H139.164V63.544H133.068V71.256ZM141.787 73V63.976C141.787 63.08 142.048 62.3653 142.571 61.832C143.104 61.288 143.862 61.016 144.843 61.016C145.195 61.016 145.526 61.0533 145.835 61.128C146.155 61.2027 146.422 61.32 146.635 61.48L146.091 62.984C145.942 62.8667 145.771 62.7813 145.579 62.728C145.387 62.664 145.19 62.632 144.987 62.632C144.571 62.632 144.256 62.7493 144.043 62.984C143.83 63.208 143.723 63.5493 143.723 64.008V64.968L143.787 65.864V73H141.787ZM140.379 66.12V64.52H146.075V66.12H140.379ZM147.74 73V63.976C147.74 63.08 148.002 62.3653 148.524 61.832C149.058 61.288 149.815 61.016 150.796 61.016C151.148 61.016 151.479 61.0533 151.788 61.128C152.108 61.2027 152.375 61.32 152.588 61.48L152.044 62.984C151.895 62.8667 151.724 62.7813 151.532 62.728C151.34 62.664 151.143 62.632 150.94 62.632C150.524 62.632 150.21 62.7493 149.996 62.984C149.783 63.208 149.676 63.5493 149.676 64.008V64.968L149.74 65.864V73H147.74ZM146.332 66.12V64.52H152.028V66.12H146.332ZM157.266 73.112C156.316 73.112 155.484 72.9253 154.77 72.552C154.066 72.168 153.516 71.6453 153.122 70.984C152.738 70.3227 152.546 69.5707 152.546 68.728C152.546 67.8747 152.732 67.1227 153.106 66.472C153.49 65.8107 154.012 65.2933 154.674 64.92C155.346 64.5467 156.108 64.36 156.962 64.36C157.794 64.36 158.535 64.5413 159.186 64.904C159.836 65.2667 160.348 65.7787 160.722 66.44C161.095 67.1013 161.282 67.88 161.282 68.776C161.282 68.8613 161.276 68.9573 161.266 69.064C161.266 69.1707 161.26 69.272 161.25 69.368H154.13V68.04H160.194L159.41 68.456C159.42 67.9653 159.319 67.5333 159.106 67.16C158.892 66.7867 158.599 66.4933 158.226 66.28C157.863 66.0667 157.442 65.96 156.962 65.96C156.471 65.96 156.039 66.0667 155.666 66.28C155.303 66.4933 155.015 66.792 154.802 67.176C154.599 67.5493 154.498 67.992 154.498 68.504V68.824C154.498 69.336 154.615 69.7893 154.85 70.184C155.084 70.5787 155.415 70.8827 155.842 71.096C156.268 71.3093 156.759 71.416 157.314 71.416C157.794 71.416 158.226 71.3413 158.61 71.192C158.994 71.0427 159.335 70.808 159.634 70.488L160.706 71.72C160.322 72.168 159.836 72.5147 159.25 72.76C158.674 72.9947 158.012 73.112 157.266 73.112ZM167.123 73.112C166.227 73.112 165.427 72.9253 164.723 72.552C164.029 72.168 163.485 71.6453 163.091 70.984C162.696 70.3227 162.499 69.5707 162.499 68.728C162.499 67.8747 162.696 67.1227 163.091 66.472C163.485 65.8107 164.029 65.2933 164.723 64.92C165.427 64.5467 166.227 64.36 167.123 64.36C167.955 64.36 168.685 64.5307 169.315 64.872C169.955 65.2027 170.44 65.6933 170.771 66.344L169.235 67.24C168.979 66.8347 168.664 66.536 168.291 66.344C167.928 66.152 167.533 66.056 167.107 66.056C166.616 66.056 166.173 66.1627 165.779 66.376C165.384 66.5893 165.075 66.8987 164.851 67.304C164.627 67.6987 164.515 68.1733 164.515 68.728C164.515 69.2827 164.627 69.7627 164.851 70.168C165.075 70.5627 165.384 70.8667 165.779 71.08C166.173 71.2933 166.616 71.4 167.107 71.4C167.533 71.4 167.928 71.304 168.291 71.112C168.664 70.92 168.979 70.6213 169.235 70.216L170.771 71.112C170.44 71.752 169.955 72.248 169.315 72.6C168.685 72.9413 167.955 73.112 167.123 73.112ZM175.825 73.112C174.886 73.112 174.161 72.872 173.649 72.392C173.137 71.9013 172.881 71.1813 172.881 70.232V62.568H174.881V70.184C174.881 70.5893 174.982 70.904 175.185 71.128C175.398 71.352 175.692 71.464 176.065 71.464C176.513 71.464 176.886 71.3467 177.185 71.112L177.745 72.536C177.51 72.728 177.222 72.872 176.881 72.968C176.54 73.064 176.188 73.112 175.825 73.112ZM171.473 66.12V64.52H177.169V66.12H171.473ZM182.03 73.112C181.315 73.112 180.627 73.0213 179.966 72.84C179.315 72.648 178.798 72.4187 178.414 72.152L179.182 70.632C179.566 70.8773 180.025 71.08 180.558 71.24C181.091 71.4 181.625 71.48 182.158 71.48C182.787 71.48 183.241 71.3947 183.518 71.224C183.806 71.0533 183.95 70.824 183.95 70.536C183.95 70.3013 183.854 70.1253 183.662 70.008C183.47 69.88 183.219 69.784 182.91 69.72C182.601 69.656 182.254 69.5973 181.87 69.544C181.497 69.4907 181.118 69.4213 180.734 69.336C180.361 69.24 180.019 69.1067 179.71 68.936C179.401 68.7547 179.15 68.5147 178.958 68.216C178.766 67.9173 178.67 67.5227 178.67 67.032C178.67 66.488 178.825 66.0187 179.134 65.624C179.443 65.2187 179.875 64.9093 180.43 64.696C180.995 64.472 181.662 64.36 182.43 64.36C183.006 64.36 183.587 64.424 184.174 64.552C184.761 64.68 185.246 64.8613 185.63 65.096L184.862 66.616C184.457 66.3707 184.046 66.2053 183.63 66.12C183.225 66.024 182.819 65.976 182.414 65.976C181.806 65.976 181.353 66.0667 181.054 66.248C180.766 66.4293 180.622 66.6587 180.622 66.936C180.622 67.192 180.718 67.384 180.91 67.512C181.102 67.64 181.353 67.7413 181.662 67.816C181.971 67.8907 182.313 67.9547 182.686 68.008C183.07 68.0507 183.449 68.12 183.822 68.216C184.195 68.312 184.537 68.4453 184.846 68.616C185.166 68.776 185.422 69.0053 185.614 69.304C185.806 69.6027 185.902 69.992 185.902 70.472C185.902 71.0053 185.742 71.4693 185.422 71.864C185.113 72.2587 184.67 72.568 184.094 72.792C183.518 73.0053 182.83 73.112 182.03 73.112Z" fill="black"/>
<defs>
<filter id="filter0_dd_56_151" x="0" y="0" width="212" height="112" filterUnits="userSpaceOnUse" color-interpolation-filters="sRGB">
<feFlood flood-opacity="0" result="BackgroundImageFix"/>
<feColorMatrix in="SourceAlpha" type="matrix" values="0 0 0 0 0 0 0 0 0 0 0 0 0 0 0 0 0 0 127 0" result="hardAlpha"/>
<feOffset dx="2" dy="2"/>
<feGaussianBlur stdDeviation="2"/>
<feComposite in2="hardAlpha" operator="out"/>
<feColorMatrix type="matrix" values="0 0 0 0 0 0 0 0 0 0 0 0 0 0 0 0 0 0 0.25 0"/>
<feBlend mode="normal" in2="BackgroundImageFix" result="effect1_dropShadow_56_151"/>
<feColorMatrix in="SourceAlpha" type="matrix" values="0 0 0 0 0 0 0 0 0 0 0 0 0 0 0 0 0 0 127 0" result="hardAlpha"/>
<feOffset dx="-2" dy="-2"/>
<feGaussianBlur stdDeviation="2"/>
<feComposite in2="hardAlpha" operator="out"/>
<feColorMatrix type="matrix" values="0 0 0 0 0 0 0 0 0 0 0 0 0 0 0 0 0 0 0.25 0"/>
<feBlend mode="normal" in2="effect1_dropShadow_56_151" result="effect2_dropShadow_56_151"/>
<feBlend mode="normal" in="SourceGraphic" in2="effect2_dropShadow_56_151" result="shape"/>
</filter>
</defs>
</svg>
