<svg width="212" height="112" viewBox="0 0 212 112" fill="none" xmlns="http://www.w3.org/2000/svg">
<g filter="url(#filter0_dd_56_90)">
<mask id="path-1-inside-1_56_90" fill="white">
<path d="M6 26C6 14.9543 14.9543 6 26 6H186C197.046 6 206 14.9543 206 26V86C206 97.0457 197.046 106 186 106H26C14.9543 106 6 97.0457 6 86V26Z"/>
</mask>
<path d="M6 26C6 14.9543 14.9543 6 26 6H186C197.046 6 206 14.9543 206 26V86C206 97.0457 197.046 106 186 106H26C14.9543 106 6 97.0457 6 86V26Z" fill="white"/>
<path d="M6 6H206H6ZM206 106H6H206ZM26 106C12.7452 106 2 95.2548 2 82V30C2 16.7452 12.7452 6 26 6C17.1634 6 10 14.9543 10 26V86C10 97.0457 17.1634 106 26 106ZM186 6C199.255 6 210 16.7452 210 30V82C210 95.2548 199.255 106 186 106C194.837 106 202 97.0457 202 86V26C202 14.9543 194.837 6 186 6Z" fill="#00B6E8" mask="url(#path-1-inside-1_56_90)"/>
</g>
<path d="M29.5533 55.9985C29.5533 64.4876 34.4869 71.8232 41.6405 75.2999L31.41 47.2706C30.1836 50.0169 29.5509 52.9908 29.5533 55.9985ZM65.4773 54.9169C65.4773 52.2666 64.5253 50.4309 63.7084 49.002C62.6212 47.2357 61.6025 45.7397 61.6025 43.9733C61.6025 42.0017 63.0977 40.1665 65.2036 40.1665C65.2987 40.1665 65.3887 40.1786 65.4816 40.1837C61.6662 36.6881 56.5828 34.5542 50.9994 34.5542C43.5071 34.5542 36.9156 38.398 33.0808 44.2208C33.5844 44.2354 34.0582 44.2462 34.4611 44.2462C36.7043 44.2462 40.1767 43.9738 40.1767 43.9738C41.3327 43.9058 41.4687 45.6037 40.3144 45.7405C40.3144 45.7405 39.1524 45.8774 37.8595 45.945L45.6694 69.1745L50.3624 55.099L47.0212 45.9445C45.8665 45.8765 44.7724 45.7397 44.7724 45.7397C43.6164 45.6721 43.7524 43.9049 44.9076 43.9733C44.9076 43.9733 48.4497 44.2453 50.5569 44.2453C52.7993 44.2453 56.2725 43.9733 56.2725 43.9733C57.429 43.9049 57.565 45.6028 56.4098 45.7397C56.4098 45.7397 55.2456 45.8765 53.9553 45.9441L61.7054 68.9976L63.8444 61.8488C64.7715 58.883 65.4773 56.753 65.4773 54.9169ZM51.3755 57.8746L44.9411 76.5721C46.9084 77.1515 48.9486 77.4458 50.9994 77.4458C53.425 77.4466 55.8331 77.0355 58.1211 76.23C58.0617 76.1362 58.0107 76.0374 57.9687 75.9347L51.3755 57.8746ZM69.8174 45.7095C69.9095 46.3926 69.962 47.1255 69.962 47.9149C69.962 50.0909 69.5553 52.5373 68.3308 55.5961L61.7803 74.5364C68.1561 70.8182 72.4445 63.9108 72.4445 55.9994C72.4503 52.4028 71.5466 48.8631 69.8174 45.7095ZM50.9994 31C37.2152 31 26 42.2143 26 55.9985C26 69.7848 37.2152 80.9987 50.9994 80.9987C64.7835 80.9987 76 69.7848 76 55.9985C76 42.2143 64.7835 31 50.9994 31ZM50.9994 79.8526C37.8474 79.8526 27.1461 69.1517 27.1461 55.9985C27.1461 42.8466 37.847 32.1461 50.9994 32.1461C64.1513 32.1461 74.8517 42.8466 74.8517 55.9985C74.8517 69.1517 64.1513 79.8526 50.9994 79.8526Z" fill="#32373C"/>
<path d="M131.021 52.879H125.868V53.4256C127.48 53.4256 127.739 53.771 127.739 55.815V59.4999C127.739 61.5436 127.48 61.9179 125.868 61.9179C124.631 61.7454 123.795 61.0829 122.644 59.8164L121.32 58.3773C123.104 58.0602 124.054 56.9379 124.054 55.6711C124.054 54.0883 122.702 52.8793 120.168 52.8793H115.102V53.4256C116.714 53.4256 116.973 53.771 116.973 55.815V59.4999C116.973 61.5436 116.714 61.9179 115.102 61.9179V62.4648H120.83V61.9177C119.218 61.9177 118.959 61.5436 118.959 59.4999V58.4637H119.449L122.644 62.4648H131.021C135.137 62.4648 136.922 60.2774 136.922 57.6573C136.922 55.0378 135.137 52.879 131.021 52.879ZM118.96 57.5709V53.7426H120.14C121.435 53.7426 122.011 54.6349 122.011 55.6713C122.011 56.6789 121.435 57.5709 120.14 57.5709H118.96ZM131.107 61.5725H130.906C129.87 61.5725 129.726 61.3135 129.726 59.9892V53.7426H131.107C134.101 53.7426 134.648 55.9301 134.648 57.6287C134.648 59.3846 134.101 61.5725 131.107 61.5725ZM99.0689 58.6365L101.055 52.7637C101.631 51.0653 101.372 50.5763 99.5296 50.5763V50.0002H104.941V50.5763C103.128 50.5763 102.696 51.0078 101.977 53.1094L98.6946 62.9541H98.3206L95.3841 53.9436L92.3903 62.9541H92.016L88.8212 53.1094C88.1304 51.0078 87.6697 50.5763 86 50.5763V50.0002H92.3905V50.5763C90.6922 50.5763 90.2312 50.9792 90.8361 52.7637L92.7646 58.6363L95.672 50.0002H96.2191L99.0689 58.6365ZM108.856 62.8388C105.689 62.8388 103.099 60.5072 103.099 57.6571C103.099 54.8363 105.69 52.5042 108.856 52.5042C112.022 52.5042 114.613 54.8363 114.613 57.6571C114.613 60.5072 112.022 62.8388 108.856 62.8388ZM108.856 53.3972C106.208 53.3972 105.286 55.7861 105.286 57.6573C105.286 59.5577 106.208 61.9179 108.856 61.9179C111.533 61.9179 112.454 59.5577 112.454 57.6573C112.454 55.7861 111.533 53.3972 108.856 53.3972Z" fill="#32373C"/>
<path d="M144.031 61.8891V62.4648H137.439V61.8891C139.368 61.8891 139.714 61.3997 139.714 58.5207V53.9155C139.714 51.0362 139.368 50.576 137.439 50.576V50H143.398C146.363 50 148.004 51.5258 148.004 53.5698C148.004 55.5563 146.363 57.1105 143.398 57.1105H141.757V58.5205C141.757 61.3997 142.102 61.8891 144.031 61.8891ZM143.398 51.0362H141.757V56.0454H143.398C145.01 56.0454 145.759 54.9228 145.759 53.5698C145.759 52.1882 145.01 51.0362 143.398 51.0362ZM167.78 59.7589L167.636 60.2771C167.377 61.2269 167.06 61.5725 165.016 61.5725H164.613C163.116 61.5725 162.857 61.2269 162.857 59.1834V57.8591C165.103 57.8591 165.275 58.0605 165.275 59.5577H165.822V55.2679H165.275C165.275 56.7648 165.103 56.9663 162.857 56.9663V53.7424H164.44C166.484 53.7424 166.8 54.088 167.06 55.0378L167.204 55.5844H167.664L167.463 52.8788H159V53.4254C160.611 53.4254 160.871 53.7708 160.871 55.8148V59.4996C160.871 61.3693 160.651 61.8402 159.38 61.9075C158.172 61.7229 157.343 61.064 156.208 59.8161L154.884 58.377C156.669 58.06 157.619 56.9376 157.619 55.6708C157.619 54.088 156.266 52.879 153.733 52.879H148.666V53.4254C150.278 53.4254 150.537 53.7708 150.537 55.8148V59.4996C150.537 61.5434 150.278 61.9177 148.666 61.9177V62.4646H154.395V61.9174C152.783 61.9174 152.524 61.5434 152.524 59.4996V58.4637H153.013L156.208 62.4648H168.039L168.212 59.7591L167.78 59.7589ZM152.524 57.5709V53.7426H153.703C154.999 53.7426 155.575 54.6349 155.575 55.6714C155.575 56.6789 154.999 57.5709 153.703 57.5709H152.524ZM173.623 62.8388C172.472 62.8388 171.464 62.2345 171.032 61.8599C170.888 62.0041 170.629 62.4359 170.572 62.8388H170.025V58.8666H170.601C170.831 60.7662 172.155 61.8891 173.853 61.8891C174.775 61.8891 175.523 61.3711 175.523 60.5075C175.523 59.7591 174.861 59.1831 173.681 58.6365L172.04 57.8593C170.888 57.3119 170.025 56.3619 170.025 55.0956C170.025 53.714 171.32 52.5339 173.105 52.5339C174.055 52.5339 174.861 52.8793 175.351 53.2822C175.494 53.1671 175.638 52.8501 175.725 52.5045H176.272V55.902H175.667C175.465 54.5487 174.717 53.4261 173.192 53.4261C172.386 53.4261 171.637 53.8868 171.637 54.6068C171.637 55.3551 172.241 55.7578 173.623 56.3913L175.206 57.1685C176.588 57.8304 177.135 58.896 177.135 59.7594C177.135 61.5728 175.552 62.8388 173.623 62.8388ZM182.489 62.8391C181.337 62.8391 180.33 62.2347 179.898 61.8602C179.754 62.0044 179.495 62.4362 179.438 62.8391H178.891V58.8666H179.466C179.697 60.7662 181.021 61.8891 182.719 61.8891C183.64 61.8891 184.389 61.3711 184.389 60.5075C184.389 59.7591 183.727 59.1831 182.546 58.6365L180.906 57.8593C179.754 57.3119 178.89 56.3619 178.89 55.0956C178.89 53.714 180.186 52.5339 181.971 52.5339C182.921 52.5339 183.727 52.8793 184.216 53.2822C184.36 53.1671 184.504 52.8501 184.59 52.5045H185.137V55.902H184.533C184.331 54.5487 183.583 53.4261 182.057 53.4261C181.251 53.4261 180.502 53.8868 180.502 54.6068C180.502 55.3551 181.107 55.7578 182.489 56.3913L184.072 57.1685C185.454 57.8304 186 58.896 186 59.7594C186 61.5728 184.417 62.8391 182.489 62.8391Z" fill="#32373C"/>
<defs>
<filter id="filter0_dd_56_90" x="0" y="0" width="212" height="112" filterUnits="userSpaceOnUse" color-interpolation-filters="sRGB">
<feFlood flood-opacity="0" result="BackgroundImageFix"/>
<feColorMatrix in="SourceAlpha" type="matrix" values="0 0 0 0 0 0 0 0 0 0 0 0 0 0 0 0 0 0 127 0" result="hardAlpha"/>
<feOffset dx="2" dy="2"/>
<feGaussianBlur stdDeviation="2"/>
<feComposite in2="hardAlpha" operator="out"/>
<feColorMatrix type="matrix" values="0 0 0 0 0 0 0 0 0 0 0 0 0 0 0 0 0 0 0.25 0"/>
<feBlend mode="normal" in2="BackgroundImageFix" result="effect1_dropShadow_56_90"/>
<feColorMatrix in="SourceAlpha" type="matrix" values="0 0 0 0 0 0 0 0 0 0 0 0 0 0 0 0 0 0 127 0" result="hardAlpha"/>
<feOffset dx="-2" dy="-2"/>
<feGaussianBlur stdDeviation="2"/>
<feComposite in2="hardAlpha" operator="out"/>
<feColorMatrix type="matrix" values="0 0 0 0 0 0 0 0 0 0 0 0 0 0 0 0 0 0 0.25 0"/>
<feBlend mode="normal" in2="effect1_dropShadow_56_90" result="effect2_dropShadow_56_90"/>
<feBlend mode="normal" in="SourceGraphic" in2="effect2_dropShadow_56_90" result="shape"/>
</filter>
</defs>
</svg>
