<svg width="212" height="112" viewBox="0 0 212 112" fill="none" xmlns="http://www.w3.org/2000/svg">
<g filter="url(#filter0_dd_56_58)">
<mask id="path-1-inside-1_56_58" fill="white">
<path d="M6 26C6 14.9543 14.9543 6 26 6H186C197.046 6 206 14.9543 206 26V86C206 97.0457 197.046 106 186 106H26C14.9543 106 6 97.0457 6 86V26Z"/>
</mask>
<path d="M6 26C6 14.9543 14.9543 6 26 6H186C197.046 6 206 14.9543 206 26V86C206 97.0457 197.046 106 186 106H26C14.9543 106 6 97.0457 6 86V26Z" fill="white"/>
<path d="M6 6H206H6ZM206 106H6H206ZM26 106C12.7452 106 2 95.2548 2 82V30C2 16.7452 12.7452 6 26 6C17.1634 6 10 14.9543 10 26V86C10 97.0457 17.1634 106 26 106ZM186 6C199.255 6 210 16.7452 210 30V82C210 95.2548 199.255 106 186 106C194.837 106 202 97.0457 202 86V26C202 14.9543 194.837 6 186 6Z" fill="#00B6E8" mask="url(#path-1-inside-1_56_58)"/>
</g>
<path d="M57.0352 26.0161C56.9062 26.0279 56.4956 26.0689 56.1261 26.0982C47.6041 26.8665 39.6217 31.464 34.566 38.5304C31.7507 42.4595 29.9501 46.9163 29.2698 51.637C29.0293 53.2849 29 53.7716 29 56.0059C29 58.2402 29.0293 58.7269 29.2698 60.3747C30.9003 71.6399 38.9179 81.1048 49.7918 84.6116C51.739 85.2391 53.7918 85.6672 56.1261 85.9252C57.0352 86.0249 60.9648 86.0249 61.8739 85.9252C65.9032 85.4796 69.3167 84.4826 72.6833 82.7644C73.1994 82.5005 73.2991 82.4301 73.2287 82.3715C73.1818 82.3363 70.9824 79.3866 68.3431 75.8211L63.5455 69.3412L57.5337 60.4451C54.2258 55.5543 51.5044 51.5549 51.4809 51.5549C51.4575 51.5491 51.434 55.5016 51.4223 60.3278C51.4047 68.7782 51.3988 69.1183 51.2933 69.3177C51.1408 69.605 51.0235 69.7223 50.7771 69.8513C50.5894 69.9452 50.4252 69.9628 49.5396 69.9628H48.5249L48.2551 69.7927C48.0792 69.6813 47.9501 69.5347 47.8622 69.3646L47.739 69.1007L47.7507 57.3429L47.7683 45.5793L47.9501 45.3505C48.044 45.2274 48.2434 45.0691 48.3842 44.9928C48.6246 44.8755 48.7185 44.8638 49.7331 44.8638C50.9296 44.8638 51.129 44.9107 51.4399 45.2509C51.5279 45.3447 54.783 50.2472 58.6774 56.1525C62.5718 62.0578 67.8974 70.1211 70.5132 74.0795L75.2639 81.2749L75.5044 81.1166C77.6334 79.7326 79.8856 77.7622 81.6686 75.7097C85.4633 71.3526 87.9091 66.0396 88.7302 60.3747C88.9707 58.7269 89 58.2402 89 56.0059C89 53.7716 88.9707 53.2849 88.7302 51.637C87.0997 40.3718 79.0821 30.9069 68.2082 27.4001C66.2903 26.7785 64.2493 26.3504 61.9619 26.0924C61.3988 26.0337 57.522 25.9692 57.0352 26.0161ZM69.3167 44.1601C69.5982 44.3008 69.827 44.5706 69.9091 44.8521C69.956 45.0046 69.9677 48.2651 69.956 55.613L69.9384 66.1569L68.0792 63.3069L66.2141 60.4568V52.7923C66.2141 47.837 66.2375 45.0515 66.2727 44.9166C66.3666 44.5882 66.5718 44.3302 66.8534 44.1777C67.0938 44.0546 67.1818 44.0428 68.1026 44.0428C68.9707 44.0428 69.1232 44.0546 69.3167 44.1601Z" fill="black"/>
<path d="M122.877 44.5191H137.965V45.7119H124.26V54.6888H137.148V55.8815H124.26V65.7374H138.123V66.93H122.877V44.5191ZM139.317 44.5191H140.92L148.025 54.3749L155.286 44.5189L165.163 32L148.936 55.4108L157.298 66.93H155.632L148.025 56.4465L140.386 66.93H138.751L147.176 55.4107L139.317 44.5191ZM157.895 45.7119V44.5189H175.09V45.7118H167.168V66.9299H165.785V45.7119H157.895ZM104 44.5189H105.729L129.57 80L119.718 66.9299L105.446 46.214L105.383 66.9302H104V44.5189ZM174.951 65.3771C174.668 65.3771 174.456 65.1596 174.456 64.878C174.456 64.5967 174.668 64.3789 174.951 64.3789C175.237 64.3789 175.445 64.5966 175.445 64.878C175.445 65.1594 175.237 65.3771 174.951 65.3771ZM176.31 64.064H177.05C177.06 64.4626 177.353 64.7307 177.783 64.7307C178.264 64.7307 178.537 64.4426 178.537 63.9032V60.486H179.29V63.9065C179.29 64.878 178.725 65.4376 177.79 65.4376C176.912 65.4376 176.31 64.8948 176.31 64.0639V64.064ZM180.276 64.0205H181.023C181.087 64.4794 181.537 64.7708 182.187 64.7708C182.792 64.7708 183.236 64.4592 183.236 64.0305C183.236 63.662 182.954 63.4409 182.311 63.2901L181.685 63.1394C180.807 62.9349 180.407 62.5128 180.407 61.8027C180.407 60.9418 181.114 60.3688 182.173 60.3688C183.159 60.3688 183.879 60.9416 183.923 61.7557H183.189C183.119 61.3102 182.728 61.032 182.163 61.032C181.568 61.032 181.171 61.3169 181.171 61.7523C181.171 62.0973 181.426 62.2951 182.059 62.4424L182.594 62.5731C183.59 62.8044 184 63.2064 184 63.9333C184 64.858 183.28 65.4376 182.13 65.4376C181.053 65.4376 180.33 64.8847 180.276 64.0204V64.0205Z" fill="black"/>
<defs>
<filter id="filter0_dd_56_58" x="0" y="0" width="212" height="112" filterUnits="userSpaceOnUse" color-interpolation-filters="sRGB">
<feFlood flood-opacity="0" result="BackgroundImageFix"/>
<feColorMatrix in="SourceAlpha" type="matrix" values="0 0 0 0 0 0 0 0 0 0 0 0 0 0 0 0 0 0 127 0" result="hardAlpha"/>
<feOffset dx="2" dy="2"/>
<feGaussianBlur stdDeviation="2"/>
<feComposite in2="hardAlpha" operator="out"/>
<feColorMatrix type="matrix" values="0 0 0 0 0 0 0 0 0 0 0 0 0 0 0 0 0 0 0.25 0"/>
<feBlend mode="normal" in2="BackgroundImageFix" result="effect1_dropShadow_56_58"/>
<feColorMatrix in="SourceAlpha" type="matrix" values="0 0 0 0 0 0 0 0 0 0 0 0 0 0 0 0 0 0 127 0" result="hardAlpha"/>
<feOffset dx="-2" dy="-2"/>
<feGaussianBlur stdDeviation="2"/>
<feComposite in2="hardAlpha" operator="out"/>
<feColorMatrix type="matrix" values="0 0 0 0 0 0 0 0 0 0 0 0 0 0 0 0 0 0 0.25 0"/>
<feBlend mode="normal" in2="effect1_dropShadow_56_58" result="effect2_dropShadow_56_58"/>
<feBlend mode="normal" in="SourceGraphic" in2="effect2_dropShadow_56_58" result="shape"/>
</filter>
</defs>
</svg>
