<svg width="212" height="112" viewBox="0 0 212 112" fill="none" xmlns="http://www.w3.org/2000/svg">
<g filter="url(#filter0_dd_56_103)">
<mask id="path-1-inside-1_56_103" fill="white">
<path d="M6 26C6 14.9543 14.9543 6 26 6H186C197.046 6 206 14.9543 206 26V86C206 97.0457 197.046 106 186 106H26C14.9543 106 6 97.0457 6 86V26Z"/>
</mask>
<path d="M6 26C6 14.9543 14.9543 6 26 6H186C197.046 6 206 14.9543 206 26V86C206 97.0457 197.046 106 186 106H26C14.9543 106 6 97.0457 6 86V26Z" fill="white"/>
<path d="M6 6H206H6ZM206 106H6H206ZM26 106C12.7452 106 2 95.2548 2 82V30C2 16.7452 12.7452 6 26 6C17.1634 6 10 14.9543 10 26V86C10 97.0457 17.1634 106 26 106ZM186 6C199.255 6 210 16.7452 210 30V82C210 95.2548 199.255 106 186 106C194.837 106 202 97.0457 202 86V26C202 14.9543 194.837 6 186 6Z" fill="#00B6E8" mask="url(#path-1-inside-1_56_103)"/>
</g>
<path d="M30.1867 81.1048L26 30L76 30.1027L71.573 81.1048L51.1887 87L30.1867 81.1048Z" fill="#E9CA32"/>
<path d="M51.1875 82.0645V34.8671L71.7778 34.9355L68.1061 77.1628L51.1875 82.0645Z" fill="#FFDE25"/>
<path d="M48.9853 40.4712H43.5418V71.8846L39.3079 71.0791V66.8504L34.2676 66.0449V75.5092L48.9853 79.3352V40.4712ZM53.0688 40.4712H68.1385L67.1305 46.4921H58.8216V56.3724H67.1305L66.1224 76.3147L53.0688 79.3352V73.0928L61.8885 70.0723L62.3978 61.8162L53.0688 63.1653V40.4712Z" fill="white"/>
<path d="M89.014 64.252C88.09 64.252 87.25 64.096 86.494 63.784C85.75 63.46 85.132 62.998 84.64 62.398L86.584 60.094C86.92 60.526 87.268 60.856 87.628 61.084C87.988 61.3 88.366 61.408 88.762 61.408C89.818 61.408 90.346 60.796 90.346 59.572V54.154H85.99V51.4H93.874V59.356C93.874 61 93.46 62.23 92.632 63.046C91.804 63.85 90.598 64.252 89.014 64.252ZM102.076 64V62.182L101.842 61.732V58.384C101.842 57.844 101.674 57.43 101.338 57.142C101.014 56.842 100.492 56.692 99.7715 56.692C99.3035 56.692 98.8295 56.77 98.3495 56.926C97.8695 57.07 97.4615 57.274 97.1255 57.538L95.9735 55.216C96.5255 54.856 97.1855 54.58 97.9535 54.388C98.7335 54.184 99.5075 54.082 100.276 54.082C101.86 54.082 103.084 54.448 103.948 55.18C104.824 55.9 105.262 57.034 105.262 58.582V64H102.076ZM99.1955 64.162C98.4155 64.162 97.7555 64.03 97.2155 63.766C96.6755 63.502 96.2615 63.142 95.9735 62.686C95.6975 62.23 95.5595 61.72 95.5595 61.156C95.5595 60.556 95.7095 60.04 96.0095 59.608C96.3215 59.164 96.7955 58.828 97.4315 58.6C98.0675 58.36 98.8895 58.24 99.8975 58.24H102.202V60.022H100.366C99.8135 60.022 99.4235 60.112 99.1955 60.292C98.9795 60.472 98.8715 60.712 98.8715 61.012C98.8715 61.312 98.9855 61.552 99.2135 61.732C99.4415 61.912 99.7535 62.002 100.15 62.002C100.522 62.002 100.858 61.912 101.158 61.732C101.47 61.54 101.698 61.252 101.842 60.868L102.31 62.128C102.13 62.8 101.776 63.31 101.248 63.658C100.732 63.994 100.048 64.162 99.1955 64.162ZM109.962 64L105.948 54.244H109.458L112.662 62.398H110.898L114.264 54.244H117.522L113.49 64H109.962ZM124.031 64V62.182L123.797 61.732V58.384C123.797 57.844 123.629 57.43 123.293 57.142C122.969 56.842 122.447 56.692 121.727 56.692C121.259 56.692 120.785 56.77 120.305 56.926C119.825 57.07 119.417 57.274 119.081 57.538L117.929 55.216C118.481 54.856 119.141 54.58 119.909 54.388C120.689 54.184 121.463 54.082 122.231 54.082C123.815 54.082 125.039 54.448 125.903 55.18C126.779 55.9 127.217 57.034 127.217 58.582V64H124.031ZM121.151 64.162C120.371 64.162 119.711 64.03 119.171 63.766C118.631 63.502 118.217 63.142 117.929 62.686C117.653 62.23 117.515 61.72 117.515 61.156C117.515 60.556 117.665 60.04 117.965 59.608C118.277 59.164 118.751 58.828 119.387 58.6C120.023 58.36 120.845 58.24 121.853 58.24H124.157V60.022H122.321C121.769 60.022 121.379 60.112 121.151 60.292C120.935 60.472 120.827 60.712 120.827 61.012C120.827 61.312 120.941 61.552 121.169 61.732C121.397 61.912 121.709 62.002 122.105 62.002C122.477 62.002 122.813 61.912 123.113 61.732C123.425 61.54 123.653 61.252 123.797 60.868L124.265 62.128C124.085 62.8 123.731 63.31 123.203 63.658C122.687 63.994 122.003 64.162 121.151 64.162ZM139.204 64.252C138.172 64.252 137.176 64.126 136.216 63.874C135.268 63.61 134.494 63.274 133.894 62.866L135.064 60.238C135.628 60.598 136.276 60.898 137.008 61.138C137.752 61.366 138.49 61.48 139.222 61.48C139.714 61.48 140.11 61.438 140.41 61.354C140.71 61.258 140.926 61.138 141.058 60.994C141.202 60.838 141.274 60.658 141.274 60.454C141.274 60.166 141.142 59.938 140.878 59.77C140.614 59.602 140.272 59.464 139.852 59.356C139.432 59.248 138.964 59.14 138.448 59.032C137.944 58.924 137.434 58.786 136.918 58.618C136.414 58.45 135.952 58.234 135.532 57.97C135.112 57.694 134.77 57.34 134.506 56.908C134.242 56.464 134.11 55.906 134.11 55.234C134.11 54.478 134.314 53.794 134.722 53.182C135.142 52.57 135.766 52.078 136.594 51.706C137.422 51.334 138.454 51.148 139.69 51.148C140.518 51.148 141.328 51.244 142.12 51.436C142.924 51.616 143.638 51.886 144.262 52.246L143.164 54.892C142.564 54.568 141.97 54.328 141.382 54.172C140.794 54.004 140.224 53.92 139.672 53.92C139.18 53.92 138.784 53.974 138.484 54.082C138.184 54.178 137.968 54.31 137.836 54.478C137.704 54.646 137.638 54.838 137.638 55.054C137.638 55.33 137.764 55.552 138.016 55.72C138.28 55.876 138.622 56.008 139.042 56.116C139.474 56.212 139.942 56.314 140.446 56.422C140.962 56.53 141.472 56.668 141.976 56.836C142.492 56.992 142.96 57.208 143.38 57.484C143.8 57.748 144.136 58.102 144.388 58.546C144.652 58.978 144.784 59.524 144.784 60.184C144.784 60.916 144.574 61.594 144.154 62.218C143.746 62.83 143.128 63.322 142.3 63.694C141.484 64.066 140.452 64.252 139.204 64.252ZM151.254 64.162C150.174 64.162 149.208 63.946 148.356 63.514C147.516 63.082 146.856 62.488 146.376 61.732C145.896 60.964 145.656 60.088 145.656 59.104C145.656 58.12 145.896 57.25 146.376 56.494C146.856 55.738 147.516 55.15 148.356 54.73C149.208 54.298 150.174 54.082 151.254 54.082C152.358 54.082 153.312 54.316 154.116 54.784C154.92 55.252 155.49 55.912 155.826 56.764L153.18 58.114C152.952 57.658 152.67 57.328 152.334 57.124C151.998 56.908 151.632 56.8 151.236 56.8C150.84 56.8 150.48 56.89 150.156 57.07C149.832 57.25 149.574 57.514 149.382 57.862C149.202 58.198 149.112 58.612 149.112 59.104C149.112 59.608 149.202 60.034 149.382 60.382C149.574 60.73 149.832 60.994 150.156 61.174C150.48 61.354 150.84 61.444 151.236 61.444C151.632 61.444 151.998 61.342 152.334 61.138C152.67 60.922 152.952 60.586 153.18 60.13L155.826 61.48C155.49 62.332 154.92 62.992 154.116 63.46C153.312 63.928 152.358 64.162 151.254 64.162ZM157.114 64V54.244H160.372V57.088L159.886 56.278C160.174 55.546 160.642 55 161.29 54.64C161.938 54.268 162.724 54.082 163.648 54.082V57.16C163.492 57.136 163.354 57.124 163.234 57.124C163.126 57.112 163.006 57.106 162.874 57.106C162.178 57.106 161.614 57.298 161.182 57.682C160.75 58.054 160.534 58.666 160.534 59.518V64H157.114ZM165.059 64V54.244H168.479V64H165.059ZM166.769 53.164C166.145 53.164 165.641 52.99 165.257 52.642C164.873 52.294 164.681 51.862 164.681 51.346C164.681 50.83 164.873 50.398 165.257 50.05C165.641 49.702 166.145 49.528 166.769 49.528C167.393 49.528 167.897 49.696 168.281 50.032C168.665 50.356 168.857 50.776 168.857 51.292C168.857 51.832 168.665 52.282 168.281 52.642C167.909 52.99 167.405 53.164 166.769 53.164ZM176.84 64.162C176.012 64.162 175.304 63.982 174.716 63.622C174.128 63.25 173.678 62.698 173.366 61.966C173.066 61.222 172.916 60.274 172.916 59.122C172.916 57.958 173.06 57.01 173.348 56.278C173.636 55.534 174.068 54.982 174.644 54.622C175.232 54.262 175.964 54.082 176.84 54.082C177.728 54.082 178.532 54.292 179.252 54.712C179.984 55.12 180.56 55.702 180.98 56.458C181.412 57.202 181.628 58.09 181.628 59.122C181.628 60.154 181.412 61.048 180.98 61.804C180.56 62.56 179.984 63.142 179.252 63.55C178.532 63.958 177.728 64.162 176.84 64.162ZM170.702 67.492V54.244H173.96V55.9L173.942 59.122L174.122 62.362V67.492H170.702ZM176.12 61.444C176.504 61.444 176.846 61.354 177.146 61.174C177.458 60.994 177.704 60.73 177.884 60.382C178.076 60.034 178.172 59.614 178.172 59.122C178.172 58.63 178.076 58.21 177.884 57.862C177.704 57.514 177.458 57.25 177.146 57.07C176.846 56.89 176.504 56.8 176.12 56.8C175.736 56.8 175.388 56.89 175.076 57.07C174.776 57.25 174.53 57.514 174.338 57.862C174.158 58.21 174.068 58.63 174.068 59.122C174.068 59.614 174.158 60.034 174.338 60.382C174.53 60.73 174.776 60.994 175.076 61.174C175.388 61.354 175.736 61.444 176.12 61.444ZM187.573 64.162C186.325 64.162 185.353 63.856 184.657 63.244C183.961 62.62 183.613 61.684 183.613 60.436V52.066H187.033V60.4C187.033 60.748 187.129 61.024 187.321 61.228C187.513 61.42 187.759 61.516 188.059 61.516C188.467 61.516 188.815 61.414 189.103 61.21L189.949 63.604C189.661 63.796 189.307 63.934 188.887 64.018C188.467 64.114 188.029 64.162 187.573 64.162ZM182.191 57.16V54.604H189.265V57.16H182.191Z" fill="black"/>
<defs>
<filter id="filter0_dd_56_103" x="0" y="0" width="212" height="112" filterUnits="userSpaceOnUse" color-interpolation-filters="sRGB">
<feFlood flood-opacity="0" result="BackgroundImageFix"/>
<feColorMatrix in="SourceAlpha" type="matrix" values="0 0 0 0 0 0 0 0 0 0 0 0 0 0 0 0 0 0 127 0" result="hardAlpha"/>
<feOffset dx="2" dy="2"/>
<feGaussianBlur stdDeviation="2"/>
<feComposite in2="hardAlpha" operator="out"/>
<feColorMatrix type="matrix" values="0 0 0 0 0 0 0 0 0 0 0 0 0 0 0 0 0 0 0.25 0"/>
<feBlend mode="normal" in2="BackgroundImageFix" result="effect1_dropShadow_56_103"/>
<feColorMatrix in="SourceAlpha" type="matrix" values="0 0 0 0 0 0 0 0 0 0 0 0 0 0 0 0 0 0 127 0" result="hardAlpha"/>
<feOffset dx="-2" dy="-2"/>
<feGaussianBlur stdDeviation="2"/>
<feComposite in2="hardAlpha" operator="out"/>
<feColorMatrix type="matrix" values="0 0 0 0 0 0 0 0 0 0 0 0 0 0 0 0 0 0 0.25 0"/>
<feBlend mode="normal" in2="effect1_dropShadow_56_103" result="effect2_dropShadow_56_103"/>
<feBlend mode="normal" in="SourceGraphic" in2="effect2_dropShadow_56_103" result="shape"/>
</filter>
</defs>
</svg>
