<svg width="212" height="112" viewBox="0 0 212 112" fill="none" xmlns="http://www.w3.org/2000/svg">
<g filter="url(#filter0_dd_56_76)">
<mask id="path-1-inside-1_56_76" fill="white">
<path d="M6 26C6 14.9543 14.9543 6 26 6H186C197.046 6 206 14.9543 206 26V86C206 97.0457 197.046 106 186 106H26C14.9543 106 6 97.0457 6 86V26Z"/>
</mask>
<path d="M6 26C6 14.9543 14.9543 6 26 6H186C197.046 6 206 14.9543 206 26V86C206 97.0457 197.046 106 186 106H26C14.9543 106 6 97.0457 6 86V26Z" fill="white"/>
<path d="M6 6H206H6ZM206 106H6H206ZM26 106C12.7452 106 2 95.2548 2 82V30C2 16.7452 12.7452 6 26 6C17.1634 6 10 14.9543 10 26V86C10 97.0457 17.1634 106 26 106ZM186 6C199.255 6 210 16.7452 210 30V82C210 95.2548 199.255 106 186 106C194.837 106 202 97.0457 202 86V26C202 14.9543 194.837 6 186 6Z" fill="#00B6E8" mask="url(#path-1-inside-1_56_76)"/>
</g>
<path d="M53.1713 29.0005C50.9034 29.0108 48.7378 29.2021 46.8325 29.5358C41.219 30.517 40.1998 32.5699 40.1998 36.3565V41.3573H53.4652V43.024H35.2211C31.3659 43.024 27.9897 45.3162 26.9339 49.6764C25.7158 54.6742 25.6619 57.7929 26.9339 63.0114C27.8769 66.896 30.129 69.6638 33.9842 69.6638H38.5453V63.6691C38.5453 59.3383 42.3337 55.5184 46.8325 55.5184H60.0826C63.771 55.5184 66.7153 52.5147 66.7153 48.8508V36.356C66.7153 32.8004 63.6824 30.1289 60.0826 29.5353C57.8032 29.1605 55.4393 28.9897 53.1713 29.0005ZM45.9974 33.022C47.3678 33.022 48.4865 34.1471 48.4865 35.53C48.4865 36.908 47.3673 38.0228 45.9974 38.0228C44.6224 38.0228 43.5082 36.9085 43.5082 35.53C43.5082 34.1471 44.6224 33.022 45.9974 33.022Z" fill="url(#paint0_linear_56_76)"/>
<path d="M68.3731 43.0234V48.8497C68.3731 53.367 64.5011 57.1689 60.0859 57.1689H46.8358C43.2063 57.1689 40.2031 60.241 40.2031 63.8364V76.3302C40.2031 79.8864 43.329 81.9779 46.8358 82.9977C51.0348 84.2192 55.0617 84.4399 60.0859 82.9977C63.4255 82.0415 66.7186 80.1164 66.7186 76.3302V71.3299H53.4685V69.6632H73.3513C77.207 69.6632 78.6432 67.003 79.984 63.0108C81.3693 58.9012 81.3105 54.9481 79.984 49.6758C79.0311 45.8798 77.2114 43.0234 73.3513 43.0234H68.3731ZM60.9206 74.6634C62.2955 74.6634 63.4097 75.7777 63.4097 77.1562C63.4097 78.5392 62.2955 79.6642 60.9206 79.6642C59.5501 79.6642 58.4314 78.5392 58.4314 77.1562C58.4314 75.7782 59.5506 74.6634 60.9206 74.6634Z" fill="url(#paint1_linear_56_76)"/>
<path d="M105.793 56.9092C105.793 52.9603 104.667 50.933 102.415 50.8221C101.519 50.7798 100.644 50.9224 99.7932 51.253C99.1139 51.4959 98.6567 51.7367 98.4162 51.98V61.4056C99.8567 62.3097 101.136 62.73 102.251 62.6639C104.612 62.5074 105.793 60.5913 105.793 56.9092ZM108.571 57.073C108.571 59.0792 108.101 60.7445 107.154 62.0686C106.1 63.5674 104.638 64.3392 102.769 64.3815C101.361 64.4263 99.9093 63.985 98.4159 63.0598V71.6266L96 70.7648V51.7498C96.3965 51.2635 96.9068 50.8459 97.5251 50.4915C98.9632 49.6536 100.71 49.2229 102.767 49.2018L102.801 49.2359C104.68 49.2124 106.128 49.9841 107.146 51.5488C108.095 52.9842 108.571 54.8238 108.571 57.073ZM123.336 62.6953C123.336 65.3862 123.067 67.2495 122.527 68.2857C121.986 69.3216 120.955 70.1489 119.432 70.765C118.198 71.2513 116.863 71.5157 115.43 71.5607L115.031 70.0383C116.488 69.8403 117.513 69.6418 118.108 69.4436C119.279 69.0471 120.082 68.4394 120.524 67.6251C120.878 66.9618 121.052 65.6956 121.052 63.8218V63.1927C119.4 63.9436 117.669 64.3162 115.859 64.3162C114.669 64.3162 113.62 63.9436 112.716 63.1927C111.701 62.3759 111.193 61.34 111.193 60.0844V50.0291L113.609 49.2018V59.3224C113.609 60.4033 113.958 61.2361 114.656 61.8202C115.353 62.4043 116.258 62.6847 117.365 62.6633C118.473 62.6395 119.659 62.2113 120.92 61.3733V49.5662H123.336L123.336 62.6953ZM132.767 64.2494C132.502 64.2718 132.237 64.2832 131.971 64.2836C130.605 64.2836 129.539 63.9587 128.778 63.3057C128.02 62.653 127.639 61.7519 127.639 60.6018V51.0862H125.984V49.5665H127.639V45.5303L130.052 44.6712V49.5665H132.767V51.0862H130.052V60.5357C130.052 61.4425 130.295 62.0846 130.782 62.4602C131.199 62.7694 131.863 62.9464 132.767 62.9914V64.2494H132.767ZM147.394 64.0512H144.979V54.7259C144.979 53.7771 144.757 52.9603 144.315 52.2786C143.805 51.5065 143.097 51.1206 142.187 51.1206C141.08 51.1206 139.695 51.7048 138.032 52.873V64.0512H135.617V41.7612L138.032 41V51.1524C139.576 50.0289 141.262 49.4659 143.094 49.4659C144.374 49.4659 145.409 49.8968 146.203 50.7559C146.998 51.6147 147.395 52.6853 147.395 53.9647L147.394 64.0512ZM160.235 56.5287C160.235 55.0115 159.947 53.7587 159.373 52.7675C158.691 51.5597 157.631 50.9224 156.199 50.8565C153.55 51.0097 152.228 52.9074 152.228 56.5447C152.228 58.2125 152.503 59.6055 153.059 60.7236C153.767 62.1484 154.83 62.8515 156.247 62.8277C158.905 62.8062 160.235 60.7076 160.235 56.5287ZM162.881 56.5445C162.881 58.7041 162.329 60.5015 161.226 61.9366C160.013 63.5438 158.337 64.3498 156.199 64.3498C154.079 64.3498 152.427 63.5436 151.235 61.9366C150.154 60.5015 149.614 58.7041 149.614 56.5445C149.614 54.5147 150.198 52.8071 151.367 51.4168C152.601 49.9418 154.224 49.2018 156.231 49.2018C158.236 49.2018 159.87 49.9418 161.128 51.4168C162.297 52.8071 162.881 54.5147 162.881 56.5445ZM176.731 64.0512H174.315V54.1974C174.315 53.1165 173.99 52.2731 173.34 51.6652C172.69 51.0599 171.822 50.7665 170.742 50.7901C169.595 50.8112 168.503 51.1865 167.467 51.9136V64.0512H165.051V51.615C166.441 50.603 167.721 49.9418 168.889 49.6327C169.991 49.3447 170.964 49.2018 171.802 49.2018C172.375 49.2018 172.915 49.2571 173.422 49.3683C174.371 49.5877 175.143 49.9947 175.737 50.5921C176.401 51.253 176.731 52.0456 176.731 52.9736V64.0512Z" fill="#646464"/>
<path d="M181.433 47.4122H181.857V44.7557H182.86V44.439H180.43V44.7557H181.433L181.433 47.4122ZM183.236 47.4122H183.598V44.9859L184.383 47.4119H184.786L185.604 44.9941V47.4122H185.999V44.4392H185.477L184.582 46.9864L183.82 44.4392H183.236V47.4122Z" fill="#646464"/>
<defs>
<filter id="filter0_dd_56_76" x="0" y="0" width="212" height="112" filterUnits="userSpaceOnUse" color-interpolation-filters="sRGB">
<feFlood flood-opacity="0" result="BackgroundImageFix"/>
<feColorMatrix in="SourceAlpha" type="matrix" values="0 0 0 0 0 0 0 0 0 0 0 0 0 0 0 0 0 0 127 0" result="hardAlpha"/>
<feOffset dx="2" dy="2"/>
<feGaussianBlur stdDeviation="2"/>
<feComposite in2="hardAlpha" operator="out"/>
<feColorMatrix type="matrix" values="0 0 0 0 0 0 0 0 0 0 0 0 0 0 0 0 0 0 0.25 0"/>
<feBlend mode="normal" in2="BackgroundImageFix" result="effect1_dropShadow_56_76"/>
<feColorMatrix in="SourceAlpha" type="matrix" values="0 0 0 0 0 0 0 0 0 0 0 0 0 0 0 0 0 0 127 0" result="hardAlpha"/>
<feOffset dx="-2" dy="-2"/>
<feGaussianBlur stdDeviation="2"/>
<feComposite in2="hardAlpha" operator="out"/>
<feColorMatrix type="matrix" values="0 0 0 0 0 0 0 0 0 0 0 0 0 0 0 0 0 0 0.25 0"/>
<feBlend mode="normal" in2="effect1_dropShadow_56_76" result="effect2_dropShadow_56_76"/>
<feBlend mode="normal" in="SourceGraphic" in2="effect2_dropShadow_56_76" result="shape"/>
</filter>
<linearGradient id="paint0_linear_56_76" x1="24.6917" y1="30.562" x2="54.9989" y2="56.6695" gradientUnits="userSpaceOnUse">
<stop stop-color="#5A9FD4"/>
<stop offset="1" stop-color="#306998"/>
</linearGradient>
<linearGradient id="paint1_linear_56_76" x1="66.7632" y1="72.4118" x2="55.9471" y2="57.0896" gradientUnits="userSpaceOnUse">
<stop stop-color="#FFD43B"/>
<stop offset="1" stop-color="#FFE873"/>
</linearGradient>
</defs>
</svg>
