<svg width="212" height="112" viewBox="0 0 212 112" fill="none" xmlns="http://www.w3.org/2000/svg">
<g filter="url(#filter0_dd_56_97)">
<mask id="path-1-inside-1_56_97" fill="white">
<path d="M6 26C6 14.9543 14.9543 6 26 6H186C197.046 6 206 14.9543 206 26V86C206 97.0457 197.046 106 186 106H26C14.9543 106 6 97.0457 6 86V26Z"/>
</mask>
<path d="M6 26C6 14.9543 14.9543 6 26 6H186C197.046 6 206 14.9543 206 26V86C206 97.0457 197.046 106 186 106H26C14.9543 106 6 97.0457 6 86V26Z" fill="white"/>
<path d="M6 6H206H6ZM206 106H6H206ZM26 106C12.7452 106 2 95.2548 2 82V30C2 16.7452 12.7452 6 26 6C17.1634 6 10 14.9543 10 26V86C10 97.0457 17.1634 106 26 106ZM186 6C199.255 6 210 16.7452 210 30V82C210 95.2548 199.255 106 186 106C194.837 106 202 97.0457 202 86V26C202 14.9543 194.837 6 186 6Z" fill="#00B6E8" mask="url(#path-1-inside-1_56_97)"/>
</g>
<path d="M80.9718 42.3113C80.9903 42.378 80.9998 42.4467 81 42.5157V53.2481C81 53.3859 80.9626 53.5212 80.8915 53.6404C80.8204 53.7596 80.7182 53.8584 80.5952 53.927L71.322 59.1132V69.3926C71.322 69.6724 71.169 69.9306 70.9192 70.0715L51.5623 80.8958C51.518 80.9202 51.4697 80.9359 51.4213 80.9525C51.4032 80.9584 51.3861 80.9692 51.3669 80.974C51.2316 81.0087 51.0894 81.0087 50.9541 80.974C50.9319 80.9682 50.9118 80.9564 50.8906 80.9486C50.8463 80.933 50.8 80.9193 50.7577 80.8958L31.4048 70.0715C31.2819 70.0029 31.1797 69.904 31.1086 69.7848C31.0376 69.6656 31.0001 69.5304 31 69.3926V37.1955C31 37.1251 31.0101 37.0566 31.0282 36.9901C31.0342 36.9676 31.0483 36.9471 31.0564 36.9246C31.0715 36.8835 31.0856 36.8414 31.1077 36.8033C31.1229 36.7779 31.145 36.7573 31.1631 36.7338C31.1863 36.7025 31.2074 36.6703 31.2346 36.6429C31.2578 36.6204 31.288 36.6037 31.3142 36.5842C31.3434 36.5607 31.3696 36.5353 31.4028 36.5167L41.0808 31.1045C41.2033 31.036 41.3422 31 41.4835 31C41.6249 31 41.7638 31.036 41.8863 31.1045L51.5633 36.5167H51.5653C51.5975 36.5363 51.6247 36.5607 51.6539 36.5832C51.6801 36.6028 51.7093 36.6204 51.7325 36.6419C51.7607 36.6703 51.7808 36.7025 51.805 36.7338C51.8221 36.7573 51.8452 36.7779 51.8593 36.8033C51.8825 36.8424 51.8956 36.8835 51.9117 36.9246C51.9198 36.9471 51.9339 36.9676 51.9399 36.9911C51.9584 37.0578 51.9679 37.1265 51.9681 37.1955V57.3055L60.0319 52.7952V42.5148C60.0319 42.4463 60.042 42.3768 60.0601 42.3113C60.0671 42.2878 60.0802 42.2673 60.0883 42.2448C60.1044 42.2037 60.1185 42.1617 60.1407 42.1235C60.1558 42.0981 60.1779 42.0775 60.195 42.0541C60.2192 42.0228 60.2393 41.9905 60.2675 41.9631C60.2907 41.9406 60.3199 41.924 60.3461 41.9044C60.3763 41.8809 60.4025 41.8555 60.4347 41.8369L70.1137 36.4247C70.2362 36.3562 70.3751 36.3201 70.5165 36.3201C70.6578 36.3201 70.7967 36.3562 70.9192 36.4247L80.5962 41.8369C80.6304 41.8565 80.6566 41.8809 80.6868 41.9034C80.712 41.923 80.7412 41.9406 80.7644 41.9621C80.7926 41.9905 80.8127 42.0228 80.8369 42.0541C80.855 42.0775 80.8772 42.0981 80.8912 42.1235C80.9144 42.1617 80.9275 42.2037 80.9436 42.2448C80.9527 42.2673 80.9658 42.2878 80.9718 42.3113ZM79.3868 52.7952V43.8705L76.0004 45.7642L71.322 48.3808V57.3055L79.3878 52.7952H79.3868ZM69.7099 68.9397V60.0091L65.108 62.5621L51.9671 69.8475V78.8622L69.7099 68.9397ZM32.6132 38.5503V68.9397L50.3539 78.8612V69.8485L41.0858 64.7532L41.0828 64.7513L41.0787 64.7493C41.0475 64.7317 41.0213 64.7063 40.9921 64.6848C40.967 64.6652 40.9378 64.6495 40.9156 64.628L40.9136 64.6251C40.8874 64.6006 40.8693 64.5703 40.8471 64.5429C40.827 64.5165 40.8028 64.494 40.7867 64.4666L40.7857 64.4637C40.7676 64.4343 40.7565 64.3991 40.7434 64.3659C40.7303 64.3365 40.7132 64.3091 40.7052 64.2778C40.6951 64.2407 40.6931 64.2006 40.689 64.1624C40.685 64.1331 40.677 64.1037 40.677 64.0744V43.0606L35.9996 40.443L32.6132 38.5503ZM41.4846 32.6872L33.4218 37.1955L41.4825 41.7039L49.5443 37.1946L41.4825 32.6872H41.4846ZM45.6776 60.823L50.3549 58.2074V38.5503L46.9685 40.444L42.2901 43.0606V62.7177L45.6776 60.823ZM70.5165 38.0074L62.4547 42.5157L70.5165 47.0241L78.5772 42.5148L70.5165 38.0074ZM69.7099 48.3808L65.0315 45.7642L61.6451 43.8705V52.7952L66.3224 55.4108L69.7099 57.3055V48.3808ZM51.1595 68.4927L62.9843 61.9351L68.8952 58.6583L60.8395 54.1529L51.5643 59.3401L43.1108 64.0675L51.1595 68.4927Z" fill="#FF2D20"/>
<path d="M99.3392 46V63.3354H105.612V66.3212H96V46H99.3392ZM117.389 54.6188V52.7913H120.563V66.3287H117.404V64.4936C116.968 65.1705 116.366 65.697 115.584 66.073C114.802 66.4716 114.005 66.6596 113.215 66.6596C112.185 66.6596 111.245 66.4716 110.395 66.0956C109.564 65.7355 108.817 65.2081 108.199 64.5463C107.586 63.8896 107.102 63.1244 106.77 62.29C106.428 61.4182 106.257 60.4888 106.266 59.5525C106.266 58.6048 106.439 57.6948 106.777 56.845C107.105 55.9996 107.59 55.2238 108.206 54.5587C108.818 53.8932 109.561 53.3608 110.387 52.9943C111.245 52.6183 112.192 52.4303 113.208 52.4303C113.997 52.4303 114.787 52.6258 115.569 53.0094C116.351 53.4005 116.953 53.9269 117.374 54.6038L117.389 54.6188ZM117.103 61.2146C117.301 60.6854 117.403 60.125 117.404 59.56C117.404 58.9734 117.299 58.4319 117.103 57.9054C116.923 57.3989 116.648 56.9316 116.291 56.5291C115.935 56.1419 115.506 55.8299 115.028 55.6116C114.513 55.3756 113.954 55.255 113.388 55.2581C112.786 55.2581 112.245 55.386 111.764 55.6191C111.292 55.8381 110.868 56.1473 110.515 56.5291C110.16 56.9297 109.889 57.3977 109.718 57.9054C109.531 58.437 109.437 58.9966 109.44 59.56C109.44 60.1391 109.53 60.6881 109.718 61.2146C109.898 61.741 110.169 62.1923 110.515 62.5683C110.865 62.9613 111.289 63.2808 111.764 63.5084C112.245 63.734 112.786 63.8544 113.388 63.8544C113.99 63.8544 114.539 63.7416 115.028 63.5084C115.507 63.2858 115.937 62.9686 116.291 62.5758C116.645 62.18 116.921 61.7207 117.103 61.2221V61.2146ZM123.06 66.3287V52.7913H131.649V55.9049H126.219V66.3212H123.06V66.3287ZM143.118 54.6188V52.7913H146.277V66.3287H143.118V64.4936C142.697 65.1705 142.087 65.697 141.313 66.073C140.523 66.4716 139.733 66.6596 138.936 66.6596C137.906 66.6596 136.966 66.4716 136.116 66.0956C135.285 65.7355 134.538 65.2081 133.92 64.5463C133.307 63.8896 132.823 63.1244 132.491 62.29C132.152 61.4177 131.983 60.4884 131.995 59.5525C131.995 58.6048 132.16 57.6948 132.498 56.845C132.826 55.9996 133.311 55.2238 133.927 54.5587C134.539 53.8932 135.282 53.3608 136.108 52.9943C136.966 52.6183 137.913 52.4303 138.929 52.4303C139.718 52.4303 140.508 52.6258 141.29 53.0094C142.072 53.4005 142.682 53.9269 143.095 54.6038L143.118 54.6188ZM142.832 61.2146C143.025 60.6845 143.122 60.1241 143.118 59.56C143.118 58.9734 143.02 58.4319 142.832 57.9054C142.654 57.3994 142.381 56.9322 142.027 56.5291C141.667 56.1403 141.232 55.8282 140.749 55.6116C140.26 55.3859 139.711 55.2581 139.117 55.2581C138.515 55.2581 137.974 55.386 137.485 55.6191C137.013 55.8381 136.589 56.1473 136.236 56.5291C135.881 56.9297 135.61 57.3977 135.439 57.9054C135.255 58.4375 135.163 58.9971 135.168 59.56C135.168 60.1391 135.259 60.6881 135.439 61.2146C135.627 61.741 135.89 62.1923 136.236 62.5683C136.586 62.9613 137.01 63.2808 137.485 63.5084C137.974 63.734 138.515 63.8544 139.117 63.8544C139.718 63.8544 140.26 63.7416 140.756 63.5084C141.241 63.2876 141.676 62.9703 142.035 62.5758C142.386 62.1794 142.659 61.7201 142.839 61.2221L142.832 61.2146ZM158.972 52.7913H162.183L156.994 66.3287H153.008L147.818 52.7913H151.015L155.001 63.1549L158.972 52.7988V52.7913ZM169.08 52.4453C173.389 52.4453 176.33 56.2659 175.773 60.7332H165.267C165.267 61.8914 166.455 64.1477 169.253 64.1477C171.659 64.1477 173.276 62.0419 173.276 62.0419L175.412 63.6964C173.494 65.727 171.93 66.6671 169.471 66.6671C165.094 66.6671 162.13 63.8844 162.13 59.5449C162.13 55.6116 165.199 52.4303 169.072 52.4303L169.08 52.4453ZM165.282 58.3867H172.878C172.847 58.1235 172.426 54.9573 169.057 54.9573C165.673 54.9573 165.312 58.131 165.282 58.3867ZM177.841 66.3061V46H181V66.3212H177.841V66.3061Z" fill="#FF2D20"/>
<defs>
<filter id="filter0_dd_56_97" x="0" y="0" width="212" height="112" filterUnits="userSpaceOnUse" color-interpolation-filters="sRGB">
<feFlood flood-opacity="0" result="BackgroundImageFix"/>
<feColorMatrix in="SourceAlpha" type="matrix" values="0 0 0 0 0 0 0 0 0 0 0 0 0 0 0 0 0 0 127 0" result="hardAlpha"/>
<feOffset dx="2" dy="2"/>
<feGaussianBlur stdDeviation="2"/>
<feComposite in2="hardAlpha" operator="out"/>
<feColorMatrix type="matrix" values="0 0 0 0 0 0 0 0 0 0 0 0 0 0 0 0 0 0 0.25 0"/>
<feBlend mode="normal" in2="BackgroundImageFix" result="effect1_dropShadow_56_97"/>
<feColorMatrix in="SourceAlpha" type="matrix" values="0 0 0 0 0 0 0 0 0 0 0 0 0 0 0 0 0 0 127 0" result="hardAlpha"/>
<feOffset dx="-2" dy="-2"/>
<feGaussianBlur stdDeviation="2"/>
<feComposite in2="hardAlpha" operator="out"/>
<feColorMatrix type="matrix" values="0 0 0 0 0 0 0 0 0 0 0 0 0 0 0 0 0 0 0.25 0"/>
<feBlend mode="normal" in2="effect1_dropShadow_56_97" result="effect2_dropShadow_56_97"/>
<feBlend mode="normal" in="SourceGraphic" in2="effect2_dropShadow_56_97" result="shape"/>
</filter>
</defs>
</svg>
