<svg width="212" height="112" viewBox="0 0 212 112" fill="none" xmlns="http://www.w3.org/2000/svg">
<g filter="url(#filter0_dd_56_51)">
<mask id="path-1-inside-1_56_51" fill="white">
<path d="M6 26C6 14.9543 14.9543 6 26 6H186C197.046 6 206 14.9543 206 26V86C206 97.0457 197.046 106 186 106H26C14.9543 106 6 97.0457 6 86V26Z"/>
</mask>
<path d="M6 26C6 14.9543 14.9543 6 26 6H186C197.046 6 206 14.9543 206 26V86C206 97.0457 197.046 106 186 106H26C14.9543 106 6 97.0457 6 86V26Z" fill="white"/>
<path d="M6 6H206H6ZM206 106H6H206ZM26 106C12.7452 106 2 95.2548 2 82V30C2 16.7452 12.7452 6 26 6C17.1634 6 10 14.9543 10 26V86C10 97.0457 17.1634 106 26 106ZM186 6C199.255 6 210 16.7452 210 30V82C210 95.2548 199.255 106 186 106C194.837 106 202 97.0457 202 86V26C202 14.9543 194.837 6 186 6Z" fill="#00B6E8" mask="url(#path-1-inside-1_56_51)"/>
</g>
<path d="M81 56.0062C81 51.9893 76.0225 48.1825 68.391 45.8218C70.1521 37.9609 69.3695 31.7068 65.9204 29.7045C65.1254 29.2348 64.1962 29.0124 63.181 29.0124V31.7686C63.7436 31.7686 64.1962 31.8799 64.5752 32.09C66.2385 33.054 66.9602 36.7249 66.3974 41.4464C66.2631 42.6082 66.0429 43.8318 65.7738 45.0802C63.3766 44.4869 60.7594 44.0296 58.0077 43.7329C56.3568 41.4464 54.6446 39.3699 52.9201 37.553C56.907 33.808 60.6495 31.7562 63.1933 31.7562V29C59.8299 29 55.4273 31.4225 50.9757 35.6249C46.5238 31.4472 42.1211 29.0494 38.758 29.0494V31.8057C41.2895 31.8057 45.044 33.8451 49.031 37.5654C47.3188 39.3823 45.6066 41.4464 43.9799 43.7329C41.216 44.0296 38.5988 44.4869 36.2018 45.0925C35.9204 43.8565 35.7126 42.6576 35.5657 41.5082C34.9912 36.7867 35.7003 33.1158 37.3515 32.1394C37.7182 31.9169 38.1952 31.8181 38.758 31.8181V29.0618C37.7305 29.0618 36.801 29.2843 35.994 29.754C32.5572 31.7562 31.7869 37.998 33.5601 45.8341C25.9531 48.2072 21 52.0017 21 56.0062C21 60.0233 25.9776 63.8302 33.609 66.1907C31.8479 74.0517 32.6305 80.3056 36.0796 82.308C36.8746 82.7775 37.8038 83 38.8313 83C42.1944 83 46.5974 80.5776 51.049 76.3752C55.5005 80.553 59.9035 82.9508 63.2666 82.9508C64.2938 82.9508 65.2233 82.7283 66.0306 82.2585C69.4671 80.2561 70.2377 74.0144 68.4643 66.1785C76.0469 63.8177 81 60.0109 81 56.0062ZM65.0768 47.7622C64.6242 49.3568 64.0616 51.0004 63.4255 52.6443C62.9243 51.6557 62.3984 50.6668 61.8235 49.6779C61.261 48.6892 60.6615 47.7252 60.0624 46.7858C61.7989 47.0454 63.4745 47.3667 65.0768 47.7622ZM59.4752 60.9254C58.5213 62.5942 57.5431 64.1762 56.528 65.6471C54.7056 65.8076 52.8591 65.8941 51 65.8941C49.1532 65.8941 47.3065 65.8076 45.4966 65.6592C44.4815 64.1883 43.4907 62.6188 42.5368 60.9625C41.6073 59.3434 40.7636 57.6995 39.993 56.0435C40.7513 54.3871 41.6073 52.7308 42.5248 51.1118C43.4787 49.4433 44.4569 47.8611 45.472 46.3903C47.2944 46.2296 49.1409 46.1431 51 46.1431C52.8468 46.1431 54.6935 46.2296 56.5034 46.3779C57.5185 47.8488 58.5093 49.4184 59.4632 51.0747C60.3927 52.6938 61.2364 54.3377 62.007 55.994C61.2364 57.6501 60.3927 59.3064 59.4752 60.9254ZM63.4255 59.3188C64.0675 60.9296 64.6308 62.5712 65.1134 64.2378C63.5111 64.6333 61.8235 64.9672 60.0747 65.2267C60.6738 64.2751 61.273 63.2987 61.8358 62.2974C62.3984 61.3087 62.9243 60.3074 63.4255 59.3188ZM51.0243 72.5068C49.887 71.32 48.7496 69.9975 47.6245 68.5515C48.7253 68.601 49.8503 68.638 50.9877 68.638C52.1374 68.638 53.2747 68.6134 54.3878 68.5515C53.338 69.9302 52.2152 71.2506 51.0243 72.5068ZM41.9253 65.2267C40.1888 64.9672 38.5132 64.6457 36.9112 64.2502C37.3635 62.6558 37.9263 61.0119 38.5622 59.368C39.0637 60.3569 39.5896 61.3458 40.1642 62.3344C40.739 63.3233 41.3262 64.2873 41.9253 65.2267ZM50.9634 39.5059C52.1007 40.6924 53.2381 42.0149 54.3632 43.461C53.2624 43.4116 52.1374 43.3745 51 43.3745C49.8503 43.3745 48.7129 43.3992 47.6002 43.461C48.6499 42.0823 49.7726 40.762 50.9634 39.5059ZM41.913 46.7858C41.3139 47.7375 40.7147 48.7139 40.1521 49.715C39.5896 50.7038 39.0637 51.6927 38.5622 52.6813C37.9201 51.0706 37.3569 49.4289 36.8746 47.7622C38.4766 47.3791 40.1642 47.0454 41.913 46.7858ZM30.845 62.2603C26.5157 60.3939 23.715 57.9469 23.715 56.0062C23.715 54.0657 26.5157 51.6062 30.845 49.7523C31.8968 49.2949 33.0465 48.887 34.2328 48.5038C34.9299 50.9263 35.8471 53.4477 36.9845 56.031C35.8594 58.6019 34.9542 61.1109 34.2695 63.5212C33.0588 63.1378 31.9091 62.7177 30.845 62.2603ZM37.4248 79.9226C35.7615 78.9585 35.0398 75.2877 35.6026 70.566C35.7372 69.4044 35.9571 68.1806 36.2262 66.9322C38.6234 67.5256 41.2406 67.983 43.9923 68.2796C45.6432 70.566 47.3554 72.6425 49.0799 74.4594C45.093 78.2046 41.3505 80.2561 38.8067 80.2561C38.2564 80.244 37.7918 80.1326 37.4248 79.9226ZM66.4343 70.5044C67.0088 75.2258 66.2997 78.8966 64.6485 79.8731C64.2818 80.0956 63.8048 80.1945 63.242 80.1945C60.7105 80.1945 56.956 78.1551 52.969 74.4348C54.6812 72.6179 56.3934 70.5539 58.0201 68.2671C60.784 67.9706 63.4012 67.5132 65.7982 66.9076C66.0796 68.156 66.2997 69.355 66.4343 70.5044ZM71.1427 62.2603C70.0909 62.7177 68.9412 63.1257 67.7549 63.5087C67.0578 61.0863 66.1406 58.5649 65.0032 55.9816C66.1285 53.4107 67.0335 50.9017 67.7182 48.4915C68.9292 48.8746 70.0786 49.2949 71.155 49.7523C75.4843 51.6184 78.285 54.0657 78.285 56.0062C78.2727 57.9469 75.472 60.4064 71.1427 62.2603Z" fill="#61DAFB"/>
<path d="M50.9835 61.6549C54.0705 61.6549 56.5727 59.126 56.5727 56.0063C56.5727 52.8868 54.0705 50.3579 50.9835 50.3579C47.8968 50.3579 45.3945 52.8868 45.3945 56.0063C45.3945 59.126 47.8968 61.6549 50.9835 61.6549Z" fill="#61DAFB"/>
<path d="M93.1136 65V47.5455H99.0114C100.375 47.5455 101.494 47.7784 102.369 48.2443C103.244 48.7045 103.892 49.3381 104.312 50.1449C104.733 50.9517 104.943 51.8693 104.943 52.8977C104.943 53.9261 104.733 54.8381 104.312 55.6335C103.892 56.429 103.247 57.054 102.378 57.5085C101.509 57.9574 100.398 58.1818 99.0455 58.1818H94.2727V56.2727H98.9773C99.9091 56.2727 100.659 56.1364 101.227 55.8636C101.801 55.5909 102.216 55.2045 102.472 54.7045C102.733 54.1989 102.864 53.5966 102.864 52.8977C102.864 52.1989 102.733 51.5881 102.472 51.0653C102.21 50.5426 101.793 50.1392 101.219 49.8551C100.645 49.5653 99.8864 49.4205 98.9432 49.4205H95.2273V65H93.1136ZM101.33 57.1591L105.625 65H103.17L98.9432 57.1591H101.33ZM113.54 65.2727C112.279 65.2727 111.191 64.9943 110.276 64.4375C109.367 63.875 108.665 63.0909 108.171 62.0852C107.683 61.0739 107.438 59.8977 107.438 58.5568C107.438 57.2159 107.683 56.0341 108.171 55.0114C108.665 53.983 109.353 53.1818 110.234 52.608C111.12 52.0284 112.154 51.7386 113.336 51.7386C114.018 51.7386 114.691 51.8523 115.356 52.0795C116.021 52.3068 116.626 52.6761 117.171 53.1875C117.717 53.6932 118.151 54.3636 118.475 55.1989C118.799 56.0341 118.961 57.0625 118.961 58.2841V59.1364H108.87V57.3977H116.915C116.915 56.6591 116.768 56 116.472 55.4205C116.183 54.8409 115.768 54.3835 115.228 54.0483C114.694 53.7131 114.063 53.5455 113.336 53.5455C112.535 53.5455 111.842 53.7443 111.256 54.142C110.677 54.5341 110.231 55.0455 109.918 55.6761C109.606 56.3068 109.45 56.983 109.45 57.7045V58.8636C109.45 59.8523 109.62 60.6903 109.961 61.3778C110.308 62.0597 110.788 62.5795 111.401 62.9375C112.015 63.2898 112.728 63.4659 113.54 63.4659C114.069 63.4659 114.546 63.392 114.972 63.2443C115.404 63.0909 115.776 62.8636 116.089 62.5625C116.401 62.2557 116.643 61.875 116.813 61.4205L118.756 61.9659C118.552 62.625 118.208 63.2045 117.725 63.7045C117.242 64.1989 116.646 64.5852 115.935 64.8636C115.225 65.1364 114.427 65.2727 113.54 65.2727ZM125.873 65.3068C125.043 65.3068 124.29 65.1506 123.614 64.8381C122.938 64.5199 122.401 64.0625 122.004 63.4659C121.606 62.8636 121.407 62.1364 121.407 61.2841C121.407 60.5341 121.555 59.9261 121.85 59.4602C122.146 58.9886 122.54 58.6193 123.035 58.3523C123.529 58.0852 124.075 57.8864 124.671 57.7557C125.273 57.6193 125.879 57.5114 126.487 57.4318C127.282 57.3295 127.927 57.2528 128.421 57.2017C128.921 57.1449 129.285 57.0511 129.512 56.9205C129.745 56.7898 129.862 56.5625 129.862 56.2386V56.1705C129.862 55.3295 129.631 54.6761 129.171 54.2102C128.717 53.7443 128.026 53.5114 127.1 53.5114C126.14 53.5114 125.387 53.7216 124.842 54.142C124.296 54.5625 123.913 55.0114 123.691 55.4886L121.782 54.8068C122.123 54.0114 122.577 53.392 123.146 52.9489C123.719 52.5 124.344 52.1875 125.021 52.0114C125.702 51.8295 126.373 51.7386 127.032 51.7386C127.452 51.7386 127.935 51.7898 128.481 51.892C129.032 51.9886 129.563 52.1903 130.075 52.4972C130.592 52.804 131.021 53.267 131.362 53.8864C131.702 54.5057 131.873 55.3352 131.873 56.375V65H129.862V63.2273H129.759C129.623 63.5114 129.396 63.8153 129.077 64.1392C128.759 64.4631 128.336 64.7386 127.808 64.9659C127.279 65.1932 126.634 65.3068 125.873 65.3068ZM126.18 63.5C126.975 63.5 127.646 63.3438 128.191 63.0312C128.742 62.7188 129.157 62.3153 129.435 61.821C129.719 61.3267 129.862 60.8068 129.862 60.2614V58.4205C129.776 58.5227 129.589 58.6165 129.299 58.7017C129.015 58.7812 128.685 58.8523 128.31 58.9148C127.941 58.9716 127.58 59.0227 127.228 59.0682C126.881 59.108 126.6 59.142 126.384 59.1705C125.862 59.2386 125.373 59.3494 124.918 59.5028C124.469 59.6506 124.106 59.875 123.827 60.1761C123.555 60.4716 123.418 60.875 123.418 61.3864C123.418 62.0852 123.677 62.6136 124.194 62.9716C124.717 63.3239 125.379 63.5 126.18 63.5ZM140.862 65.2727C139.635 65.2727 138.578 64.983 137.692 64.4034C136.805 63.8239 136.124 63.0256 135.646 62.0085C135.169 60.9915 134.93 59.8295 134.93 58.5227C134.93 57.1932 135.175 56.0199 135.663 55.0028C136.158 53.9801 136.845 53.1818 137.726 52.608C138.612 52.0284 139.646 51.7386 140.828 51.7386C141.749 51.7386 142.578 51.9091 143.317 52.25C144.055 52.5909 144.661 53.0682 145.132 53.6818C145.604 54.2955 145.896 55.0114 146.01 55.8295H143.999C143.845 55.233 143.504 54.7045 142.976 54.2443C142.453 53.7784 141.749 53.5455 140.862 53.5455C140.078 53.5455 139.391 53.75 138.8 54.1591C138.214 54.5625 137.757 55.1335 137.428 55.8722C137.104 56.6051 136.942 57.4659 136.942 58.4545C136.942 59.4659 137.101 60.3466 137.419 61.0966C137.743 61.8466 138.197 62.429 138.783 62.8438C139.374 63.2585 140.067 63.4659 140.862 63.4659C141.385 63.4659 141.859 63.375 142.286 63.1932C142.712 63.0114 143.072 62.75 143.368 62.4091C143.663 62.0682 143.874 61.6591 143.999 61.1818H146.01C145.896 61.9545 145.615 62.6506 145.166 63.2699C144.723 63.8835 144.135 64.3722 143.402 64.7358C142.675 65.0938 141.828 65.2727 140.862 65.2727ZM154.643 51.9091V53.6136H147.859V51.9091H154.643ZM149.837 48.7727H151.848V61.25C151.848 61.8182 151.93 62.2443 152.095 62.5284C152.266 62.8068 152.482 62.9943 152.743 63.0909C153.01 63.1818 153.291 63.2273 153.587 63.2273C153.808 63.2273 153.99 63.2159 154.132 63.1932C154.274 63.1648 154.388 63.142 154.473 63.125L154.882 64.9318C154.746 64.983 154.555 65.0341 154.311 65.0852C154.067 65.142 153.757 65.1705 153.382 65.1705C152.814 65.1705 152.257 65.0483 151.712 64.804C151.172 64.5597 150.723 64.1875 150.365 63.6875C150.013 63.1875 149.837 62.5568 149.837 61.7955V48.7727ZM171.374 47.5455H173.487V60.0227C173.487 61.1364 173.283 62.0824 172.874 62.8608C172.464 63.6392 171.888 64.2301 171.143 64.6335C170.399 65.0369 169.521 65.2386 168.51 65.2386C167.555 65.2386 166.706 65.0653 165.962 64.7188C165.217 64.3665 164.632 63.8665 164.206 63.2188C163.78 62.571 163.567 61.8011 163.567 60.9091H165.646C165.646 61.4034 165.768 61.8352 166.013 62.2045C166.263 62.5682 166.604 62.8523 167.036 63.0568C167.467 63.2614 167.959 63.3636 168.51 63.3636C169.118 63.3636 169.635 63.2358 170.061 62.9801C170.487 62.7244 170.811 62.3494 171.033 61.8551C171.26 61.3551 171.374 60.7443 171.374 60.0227V47.5455ZM187.268 51.9091C187.166 51.0455 186.751 50.375 186.024 49.8977C185.297 49.4205 184.405 49.1818 183.348 49.1818C182.575 49.1818 181.899 49.3068 181.32 49.5568C180.746 49.8068 180.297 50.1506 179.973 50.5881C179.655 51.0256 179.496 51.5227 179.496 52.0795C179.496 52.5455 179.607 52.946 179.828 53.2812C180.055 53.6108 180.345 53.8864 180.697 54.108C181.05 54.3239 181.419 54.5028 181.805 54.6449C182.192 54.7812 182.547 54.892 182.871 54.9773L184.643 55.4545C185.098 55.5739 185.604 55.7386 186.161 55.9489C186.723 56.1591 187.26 56.446 187.771 56.8097C188.288 57.1676 188.714 57.6278 189.05 58.1903C189.385 58.7528 189.553 59.4432 189.553 60.2614C189.553 61.2045 189.305 62.0568 188.811 62.8182C188.322 63.5795 187.607 64.1847 186.663 64.6335C185.726 65.0824 184.587 65.3068 183.246 65.3068C181.996 65.3068 180.913 65.1051 179.999 64.7017C179.089 64.2983 178.374 63.7358 177.851 63.0142C177.334 62.2926 177.041 61.4545 176.973 60.5H179.155C179.212 61.1591 179.433 61.7045 179.82 62.1364C180.212 62.5625 180.706 62.8807 181.303 63.0909C181.905 63.2955 182.553 63.3977 183.246 63.3977C184.053 63.3977 184.777 63.267 185.419 63.0057C186.061 62.7386 186.57 62.3693 186.945 61.8977C187.32 61.4205 187.507 60.8636 187.507 60.2273C187.507 59.6477 187.345 59.1761 187.021 58.8125C186.697 58.4489 186.271 58.1534 185.743 57.9261C185.214 57.6989 184.643 57.5 184.03 57.3295L181.882 56.7159C180.518 56.3239 179.439 55.7642 178.643 55.0369C177.848 54.3097 177.45 53.358 177.45 52.1818C177.45 51.2045 177.714 50.3523 178.243 49.625C178.777 48.892 179.493 48.3239 180.391 47.9205C181.294 47.5114 182.303 47.3068 183.416 47.3068C184.541 47.3068 185.541 47.5085 186.416 47.9119C187.291 48.3097 187.984 48.8551 188.496 49.5483C189.013 50.2415 189.286 51.0284 189.314 51.9091H187.268Z" fill="#00C8FF"/>
<defs>
<filter id="filter0_dd_56_51" x="0" y="0" width="212" height="112" filterUnits="userSpaceOnUse" color-interpolation-filters="sRGB">
<feFlood flood-opacity="0" result="BackgroundImageFix"/>
<feColorMatrix in="SourceAlpha" type="matrix" values="0 0 0 0 0 0 0 0 0 0 0 0 0 0 0 0 0 0 127 0" result="hardAlpha"/>
<feOffset dx="2" dy="2"/>
<feGaussianBlur stdDeviation="2"/>
<feComposite in2="hardAlpha" operator="out"/>
<feColorMatrix type="matrix" values="0 0 0 0 0 0 0 0 0 0 0 0 0 0 0 0 0 0 0.25 0"/>
<feBlend mode="normal" in2="BackgroundImageFix" result="effect1_dropShadow_56_51"/>
<feColorMatrix in="SourceAlpha" type="matrix" values="0 0 0 0 0 0 0 0 0 0 0 0 0 0 0 0 0 0 127 0" result="hardAlpha"/>
<feOffset dx="-2" dy="-2"/>
<feGaussianBlur stdDeviation="2"/>
<feComposite in2="hardAlpha" operator="out"/>
<feColorMatrix type="matrix" values="0 0 0 0 0 0 0 0 0 0 0 0 0 0 0 0 0 0 0.25 0"/>
<feBlend mode="normal" in2="effect1_dropShadow_56_51" result="effect2_dropShadow_56_51"/>
<feBlend mode="normal" in="SourceGraphic" in2="effect2_dropShadow_56_51" result="shape"/>
</filter>
</defs>
</svg>
