<svg width="212" height="112" viewBox="0 0 212 112" fill="none" xmlns="http://www.w3.org/2000/svg">
<g filter="url(#filter0_dd_56_63)">
<mask id="path-1-inside-1_56_63" fill="white">
<path d="M6 26C6 14.9543 14.9543 6 26 6H186C197.046 6 206 14.9543 206 26V86C206 97.0457 197.046 106 186 106H26C14.9543 106 6 97.0457 6 86V26Z"/>
</mask>
<path d="M6 26C6 14.9543 14.9543 6 26 6H186C197.046 6 206 14.9543 206 26V86C206 97.0457 197.046 106 186 106H26C14.9543 106 6 97.0457 6 86V26Z" fill="white"/>
<path d="M6 6H206H6ZM206 106H6H206ZM26 106C12.7452 106 2 95.2548 2 82V30C2 16.7452 12.7452 6 26 6C17.1634 6 10 14.9543 10 26V86C10 97.0457 17.1634 106 26 106ZM186 6C199.255 6 210 16.7452 210 30V82C210 95.2548 199.255 106 186 106C194.837 106 202 97.0457 202 86V26C202 14.9543 194.837 6 186 6Z" fill="#00B6E8" mask="url(#path-1-inside-1_56_63)"/>
</g>
<path d="M108.041 46.7949H110.352L115.633 61.9531L120.889 46.7949H123.225L116.801 65H114.465L108.041 46.7949ZM125.789 61.0264V52H127.947V61.0264C127.947 61.7542 128.265 62.3171 128.899 62.7148C129.543 63.1126 130.292 63.3115 131.146 63.3115C132.01 63.3115 132.759 63.1126 133.394 62.7148C134.028 62.3171 134.346 61.7542 134.346 61.0264V52H136.529V61.0264C136.529 62.3805 135.975 63.4469 134.866 64.2256C133.766 65.0042 132.522 65.3936 131.134 65.3936C129.754 65.3936 128.519 65.0085 127.427 64.2383C126.335 63.4681 125.789 62.3975 125.789 61.0264ZM139.97 58.4492C139.97 56.3672 140.524 54.7083 141.633 53.4727C142.742 52.2285 144.206 51.6064 146.025 51.6064C149.648 51.6064 151.459 54.1624 151.459 59.2744H142.128C142.213 60.3493 142.606 61.3099 143.309 62.1562C144.011 62.9941 145.082 63.4131 146.521 63.4131C148.188 63.4131 149.618 63.138 150.812 62.5879V64.6318C149.508 65.1312 148.171 65.3851 146.8 65.3936C145.606 65.3936 144.561 65.2074 143.664 64.835C142.775 64.4626 142.064 63.9505 141.531 63.2988C141.007 62.6471 140.613 61.915 140.351 61.1025C140.097 60.29 139.97 59.4056 139.97 58.4492ZM142.204 57.5605H149.225C149.106 56.401 148.785 55.4489 148.26 54.7041C147.735 53.9593 146.973 53.5869 145.975 53.5869C144.984 53.5869 144.142 53.9508 143.448 54.6787C142.754 55.4066 142.34 56.3672 142.204 57.5605ZM154.15 65V62.2197H156.753V65H154.15ZM160.993 69.5195C161.425 69.5195 161.797 69.3164 162.11 68.9102C162.424 68.5039 162.58 67.9876 162.58 67.3613V52H164.738V67.3613C164.738 68.5547 164.37 69.5407 163.634 70.3193C162.897 71.1064 162.017 71.5 160.993 71.5V69.5195ZM162.58 48.8008V46.7949H164.738V48.8008H162.58ZM167.976 63.3115L169.372 61.8262C169.702 62.0885 170.13 62.3594 170.654 62.6387C171.661 63.1549 172.525 63.4131 173.244 63.4131C173.887 63.4131 174.522 63.2354 175.148 62.8799C175.775 62.5244 176.088 62.0251 176.088 61.3818C176.088 60.7894 175.787 60.307 175.187 59.9346C174.586 59.5537 173.574 59.1009 172.152 58.5762C171.56 58.3646 171.099 58.1911 170.769 58.0557C170.447 57.9202 170.075 57.7171 169.651 57.4463C169.228 57.1755 168.915 56.8581 168.712 56.4941C168.509 56.1302 168.407 55.7155 168.407 55.25C168.407 54.1582 168.911 53.278 169.918 52.6094C170.925 51.9408 172.059 51.6064 173.32 51.6064C174.26 51.6064 175.267 51.835 176.342 52.292C176.79 52.4867 177.214 52.7109 177.611 52.9648L176.291 54.5518C176.012 54.3825 175.707 54.2259 175.377 54.082C174.615 53.752 173.93 53.5869 173.32 53.5869C172.609 53.5869 171.97 53.7435 171.403 54.0566C170.845 54.3698 170.565 54.7676 170.565 55.25C170.565 55.4023 170.633 55.5547 170.769 55.707C170.912 55.8509 171.137 55.9948 171.441 56.1387C171.746 56.2741 172.004 56.3841 172.216 56.4688C172.436 56.5534 172.745 56.6676 173.143 56.8115C174.116 57.1755 174.84 57.4674 175.313 57.6875C175.787 57.8991 176.287 58.1868 176.812 58.5508C177.345 58.9147 177.717 59.3252 177.929 59.7822C178.14 60.2308 178.246 60.764 178.246 61.3818C178.246 62.262 177.95 63.0195 177.357 63.6543C176.765 64.2891 176.105 64.7376 175.377 65C174.649 65.2624 173.938 65.3936 173.244 65.3936C172.186 65.3936 170.984 65.0465 169.639 64.3525C169.046 64.0394 168.492 63.6924 167.976 63.3115Z" fill="black"/>
<path d="M62.0499 82L32 30H43.8802L62.1497 61.2201L79.9201 30H92L62.0499 82Z" fill="#41B883"/>
<path d="M62.0506 41.8456L55.0622 30H43.8809L62.1504 61.2201L79.9208 30H68.9391L62.0506 41.8456Z" fill="#35495E"/>
<defs>
<filter id="filter0_dd_56_63" x="0" y="0" width="212" height="112" filterUnits="userSpaceOnUse" color-interpolation-filters="sRGB">
<feFlood flood-opacity="0" result="BackgroundImageFix"/>
<feColorMatrix in="SourceAlpha" type="matrix" values="0 0 0 0 0 0 0 0 0 0 0 0 0 0 0 0 0 0 127 0" result="hardAlpha"/>
<feOffset dx="2" dy="2"/>
<feGaussianBlur stdDeviation="2"/>
<feComposite in2="hardAlpha" operator="out"/>
<feColorMatrix type="matrix" values="0 0 0 0 0 0 0 0 0 0 0 0 0 0 0 0 0 0 0.25 0"/>
<feBlend mode="normal" in2="BackgroundImageFix" result="effect1_dropShadow_56_63"/>
<feColorMatrix in="SourceAlpha" type="matrix" values="0 0 0 0 0 0 0 0 0 0 0 0 0 0 0 0 0 0 127 0" result="hardAlpha"/>
<feOffset dx="-2" dy="-2"/>
<feGaussianBlur stdDeviation="2"/>
<feComposite in2="hardAlpha" operator="out"/>
<feColorMatrix type="matrix" values="0 0 0 0 0 0 0 0 0 0 0 0 0 0 0 0 0 0 0.25 0"/>
<feBlend mode="normal" in2="effect1_dropShadow_56_63" result="effect2_dropShadow_56_63"/>
<feBlend mode="normal" in="SourceGraphic" in2="effect2_dropShadow_56_63" result="shape"/>
</filter>
</defs>
</svg>
