<svg width="212" height="112" viewBox="0 0 212 112" fill="none" xmlns="http://www.w3.org/2000/svg">
<g filter="url(#filter0_dd_56_85)">
<mask id="path-1-inside-1_56_85" fill="white">
<path d="M6 26C6 14.9543 14.9543 6 26 6H186C197.046 6 206 14.9543 206 26V86C206 97.0457 197.046 106 186 106H26C14.9543 106 6 97.0457 6 86V26Z"/>
</mask>
<path d="M6 26C6 14.9543 14.9543 6 26 6H186C197.046 6 206 14.9543 206 26V86C206 97.0457 197.046 106 186 106H26C14.9543 106 6 97.0457 6 86V26Z" fill="white"/>
<path d="M6 6H206H6ZM206 106H6H206ZM26 106C12.7452 106 2 95.2548 2 82V30C2 16.7452 12.7452 6 26 6C17.1634 6 10 14.9543 10 26V86C10 97.0457 17.1634 106 26 106ZM186 6C199.255 6 210 16.7452 210 30V82C210 95.2548 199.255 106 186 106C194.837 106 202 97.0457 202 86V26C202 14.9543 194.837 6 186 6Z" fill="#00B6E8" mask="url(#path-1-inside-1_56_85)"/>
</g>
<path d="M42.0851 85.996C38.4849 84.4409 35.116 80.4885 35.108 76.4445C35.0982 72.0354 37.8944 68.2921 41.3721 65.8321C40.954 67.4106 40.726 68.8544 41.7618 70.2663C42.7247 71.579 44.4112 72.2168 46.0036 71.8706C49.7244 71.0567 49.8952 66.9692 47.6893 64.5878C45.5083 62.2295 43.3985 59.5657 44.2286 56.1457C44.6442 54.4313 45.6976 52.8255 47.0321 51.6776C46.0063 54.3713 48.9212 57.0278 50.8417 58.351C54.1731 60.6467 57.8284 62.3817 60.8915 65.0729C64.1136 67.9012 66.493 71.7254 66.0125 76.1609C65.4918 80.9684 61.6689 84.312 57.3809 86C66.4422 84.0015 75.8049 76.9738 75.9967 66.9317C76.1556 58.6701 70.4841 52.312 63.4584 48.6719L63.0914 48.4717C63.2842 48.9392 63.3473 49.3369 63.34 49.6929C63.4029 49.4304 63.4456 49.1605 63.4577 48.8822C63.456 49.2129 63.4127 49.542 63.329 49.862L63.34 49.6929C63.2357 50.1315 63.06 50.55 62.8199 50.9317L62.9229 50.8209C61.5213 53.144 57.7268 53.6485 55.8523 51.243C52.8389 47.3736 55.9154 43.2016 56.3458 39.1041C56.8846 33.9687 53.6618 28.9833 49.6659 26C51.8667 29.5577 48.9672 34.2644 46.6474 36.8958C44.3981 39.4465 41.6625 41.5762 39.1793 43.8938C36.5119 46.383 33.9475 49.005 31.755 51.9266C27.3699 57.7742 24.6853 65.1287 26.6581 72.4238C28.6297 79.714 34.9489 84.3549 42.0851 85.996Z" fill="#EE4323"/>
<path d="M91.1188 58.9129C89.0859 58.9129 88.4949 57.7293 88.4949 55.9559C88.4949 55.3648 88.5691 54.698 88.6605 53.9957C89.1059 50.9289 90.193 49.1742 92.8168 49.1742C94.5914 49.1742 95.4566 49.968 95.4566 51.4094V52.1121H97.2172C97.2367 52.1121 97.2367 51.4652 97.2367 51.318C97.2367 49.2117 95.9613 47.2141 92.8195 47.2141C88.5504 47.2141 86.7949 49.5332 86.148 54.0797C86.0555 54.6898 86 55.2594 86 55.8672C86 58.5469 87.0543 60.9844 90.8238 60.9844C93.6879 60.9844 95.3891 59.5879 96.3863 57.8691L94.7043 56.7363C93.6145 58.4555 92.4309 58.9129 91.1188 58.9129ZM102.67 50.4488C99.25 50.4488 97.7727 52.2035 97.2738 55.6957C97.2153 56.0999 97.1839 56.5076 97.1801 56.916C97.1801 59.1699 98.2336 60.9637 101.153 60.9637C104.572 60.9637 106.07 59.1336 106.568 55.6957C106.624 55.2527 106.661 54.8461 106.661 54.4398C106.662 52.1488 105.572 50.4488 102.67 50.4488ZM104.093 55.6969C103.723 58.2293 102.929 59.0055 101.431 59.0055C100.23 59.0055 99.6395 58.5062 99.6395 57.0094C99.6395 56.6394 99.677 56.1965 99.7504 55.6969C100.12 53.184 100.859 52.4078 102.375 52.4078C103.595 52.4078 104.204 52.9066 104.204 54.4219C104.204 54.7914 104.166 55.2168 104.093 55.6969ZM115.257 47.3976L114.684 50.7902C114.648 51.0851 114.666 50.9871 114.778 51.2645C114.242 50.8582 113.28 50.5894 112.634 50.5894C109.566 50.5894 107.848 51.9781 107.294 55.859C107.229 56.2686 107.198 56.6829 107.201 57.0977C107.201 59.9262 108.864 60.9805 111.1 60.9805C112.043 60.9805 112.967 61 113.687 60.391L113.871 61.5406H115.645L117.715 47.3976H115.257ZM113.501 58.4687C112.67 58.9664 111.858 59.0789 111.359 59.0789C110.01 59.0789 109.64 58.3762 109.64 57.2496C109.64 56.8242 109.696 56.3265 109.77 55.789C110.195 52.8512 111.138 52.3328 112.357 52.3328C113.151 52.3328 113.761 52.4629 114.335 52.7777L113.501 58.4687ZM123.112 50.4488C119.729 50.4488 118.141 52.0555 117.604 55.6957C117.548 56.1398 117.511 56.5652 117.511 56.9715C117.511 59.4664 118.787 60.9637 121.595 60.9637C123.775 60.9637 125.403 60.0574 126.271 58.3941L124.404 57.6363C123.869 58.4488 123.148 59.0035 121.873 59.0035C120.506 59.0035 119.951 58.6355 119.951 57.4156C119.951 57.175 119.97 56.8254 120.007 56.8254H126.677C126.771 55.8824 126.88 55.216 126.88 54.6633C126.88 52.8164 126.179 50.4488 123.112 50.4488ZM124.386 54.9406H120.321C120.728 53.9976 121.411 52.5383 122.816 52.5383C123.905 52.5383 124.442 53.1754 124.442 54.2656C124.441 54.4504 124.424 54.9406 124.386 54.9406ZM133.992 50.2262L134.214 48.3406H129.002L128.781 50.2262H130.148L128.671 59.6547H127.302L127.081 61.5406H132.292L132.515 59.6547H131.146L132.624 50.2262H133.992ZM144.582 53.0547L145.248 51.1691H143.455L142.163 51.4359C141.442 50.975 140.462 50.6289 139.539 50.6289C136.895 50.6289 134.642 51.9055 134.642 54.8074C134.642 55.6215 134.937 56.2785 135.288 56.7227C134.734 57.0176 134.254 57.5117 134.254 58.1781C134.254 58.4734 134.364 58.7758 134.586 59.0523C133.477 59.7187 132.795 60.823 132.795 62.1156C132.795 64.6117 135.4 65.1441 137.396 65.1441C139.909 65.1441 142.903 64.5699 142.903 61.3726C142.903 60.2828 142.22 59.4312 140.242 59.0617L136.676 58.3953C136.27 58.3207 136.177 58.1914 136.177 58.0066C136.177 57.7293 136.345 57.5824 136.621 57.5824L136.861 57.6191C137.342 57.7297 137.896 57.7859 138.469 57.7859C141.038 57.7859 143.329 56.6766 143.329 53.7937C143.329 53.3867 143.256 53.1113 143.071 52.6672C143.385 52.8156 143.792 53.0559 143.957 53.0559H144.582V53.0547ZM139.501 60.7043C140.203 60.8344 140.443 61.0926 140.443 61.5547C140.443 63.0519 138.835 63.2367 137.671 63.2367C135.897 63.2367 135.232 62.8125 135.232 61.8687C135.232 61.0367 135.471 60.6496 136.027 60.0574L139.501 60.7043ZM138.742 55.8637C137.67 55.8637 137.079 55.4762 137.079 54.5512C137.079 53.184 137.874 52.3891 139.26 52.3891C140.369 52.3891 140.905 52.8512 140.905 53.7555C140.905 55.1234 140.128 55.8637 138.742 55.8637ZM151.147 50.4488C150.112 50.4488 149.189 50.9566 148.043 51.8613L147.877 51.1691H145.843L144.42 61.5402H146.878L147.95 53.6754C148.671 53.232 149.558 52.5883 150.316 52.5883C151.239 52.5883 151.573 53.034 151.573 53.8836C151.573 54.0871 151.553 54.6898 151.516 54.9113L150.612 61.5402H153.07L153.974 54.8574C154.012 54.5449 154.048 54.0297 154.048 53.7348C154.05 51.9769 153.217 50.4488 151.147 50.4488ZM158.718 58.9422L158.736 58.6883L159.807 51.1691H155.723L155.466 53.0547H157.257C157.109 53.0547 157.017 53.2199 156.999 53.3687L156.259 58.3766C156.223 58.6176 156.205 59.1191 156.205 59.3211C156.205 60.6145 156.906 61.5406 158.347 61.5406H159.604L159.881 59.6547H159.087C158.809 59.6547 158.718 59.1637 158.718 58.9422ZM160.306 47.3976H157.904C157.756 47.3976 157.756 46.8535 157.738 47.0383L157.404 49.6953C157.385 49.8625 157.385 50.2266 157.533 50.2266H159.937C160.085 50.2266 160.085 49.5805 160.103 49.4125L160.436 47.3617C160.455 47.1769 160.455 47.3976 160.306 47.3976ZM165.318 59.0051C164.709 59.0051 164.413 58.7461 164.413 58.1926L164.432 58.1547L165.208 53.0547H168.017L168.866 51.1691H165.466L166.039 47.0195L163.453 47.8465L162.99 51.1691H161.493L161.235 53.0547H162.972C162.806 53.9976 162.639 53.3859 162.621 53.5715L161.955 58.0433C161.919 58.2473 161.919 58.3949 161.919 58.5789C161.919 60.3348 163.212 60.9918 164.766 60.9918C166.207 60.9918 167.371 60.5711 168.277 59.8121L167.131 58.4019C166.557 58.7523 166.169 59.0051 165.318 59.0051ZM174.337 50.4488C170.955 50.4488 169.366 52.0555 168.83 55.6957C168.774 56.1398 168.737 56.5652 168.737 56.9715C168.737 59.4664 170.012 60.9637 172.821 60.9637C175.002 60.9637 176.629 60.0574 177.496 58.3941L175.63 57.6363C175.095 58.4488 174.374 59.0035 173.098 59.0035C171.732 59.0035 171.176 58.6355 171.176 57.4156C171.176 57.175 171.196 56.8254 171.233 56.8254H177.904C177.996 55.8824 178.107 55.216 178.107 54.6633C178.107 52.8164 177.405 50.4488 174.337 50.4488ZM175.613 54.9406H171.547C171.953 53.9976 172.636 52.5383 174.042 52.5383C175.132 52.5383 175.668 53.1754 175.668 54.2656C175.667 54.4504 175.649 54.9406 175.613 54.9406ZM184.908 50.4484C184.021 50.4484 183.189 50.957 182.357 51.75L182.21 51.1691H180.178L178.754 61.5402H181.231L182.321 53.509C182.968 53.1219 183.707 52.791 184.409 52.791C184.854 52.791 185.278 52.7203 185.684 52.7754L186 50.6328C185.629 50.559 185.259 50.4484 184.908 50.4484Z" fill="#EE4323"/>
<defs>
<filter id="filter0_dd_56_85" x="0" y="0" width="212" height="112" filterUnits="userSpaceOnUse" color-interpolation-filters="sRGB">
<feFlood flood-opacity="0" result="BackgroundImageFix"/>
<feColorMatrix in="SourceAlpha" type="matrix" values="0 0 0 0 0 0 0 0 0 0 0 0 0 0 0 0 0 0 127 0" result="hardAlpha"/>
<feOffset dx="2" dy="2"/>
<feGaussianBlur stdDeviation="2"/>
<feComposite in2="hardAlpha" operator="out"/>
<feColorMatrix type="matrix" values="0 0 0 0 0 0 0 0 0 0 0 0 0 0 0 0 0 0 0.25 0"/>
<feBlend mode="normal" in2="BackgroundImageFix" result="effect1_dropShadow_56_85"/>
<feColorMatrix in="SourceAlpha" type="matrix" values="0 0 0 0 0 0 0 0 0 0 0 0 0 0 0 0 0 0 127 0" result="hardAlpha"/>
<feOffset dx="-2" dy="-2"/>
<feGaussianBlur stdDeviation="2"/>
<feComposite in2="hardAlpha" operator="out"/>
<feColorMatrix type="matrix" values="0 0 0 0 0 0 0 0 0 0 0 0 0 0 0 0 0 0 0.25 0"/>
<feBlend mode="normal" in2="effect1_dropShadow_56_85" result="effect2_dropShadow_56_85"/>
<feBlend mode="normal" in="SourceGraphic" in2="effect2_dropShadow_56_85" result="shape"/>
</filter>
</defs>
</svg>
