<svg width="212" height="112" viewBox="0 0 212 112" fill="none" xmlns="http://www.w3.org/2000/svg">
<g filter="url(#filter0_dd_56_43)">
<mask id="path-1-inside-1_56_43" fill="white">
<path d="M6 26C6 14.9543 14.9543 6 26 6H186C197.046 6 206 14.9543 206 26V86C206 97.0457 197.046 106 186 106H26C14.9543 106 6 97.0457 6 86V26Z"/>
</mask>
<path d="M6 26C6 14.9543 14.9543 6 26 6H186C197.046 6 206 14.9543 206 26V86C206 97.0457 197.046 106 186 106H26C14.9543 106 6 97.0457 6 86V26Z" fill="white"/>
<path d="M6 6H206H6ZM206 106H6H206ZM26 106C12.7452 106 2 95.2548 2 82V30C2 16.7452 12.7452 6 26 6C17.1634 6 10 14.9543 10 26V86C10 97.0457 17.1634 106 26 106ZM186 6C199.255 6 210 16.7452 210 30V82C210 95.2548 199.255 106 186 106C194.837 106 202 97.0457 202 86V26C202 14.9543 194.837 6 186 6Z" fill="#00B6E8" mask="url(#path-1-inside-1_56_43)"/>
</g>
<path d="M41.1867 79.0012L37 27L87 27.1045L82.573 79.0012L62.1887 85L41.1867 79.0012Z" fill="#1B73BA"/>
<path d="M62.1875 79.9779V31.9526L82.7778 32.0223L79.1061 74.9906L62.1875 79.9779Z" fill="#1C88C7"/>
<path d="M77.6668 38.0909H45.9922L46.8503 44.3684H61.8809L47.0906 50.8208L47.9482 56.8892H69.7398L68.9503 65.364L61.572 66.8291L54.8805 65.0853L54.3656 60.2722H48.2228L49.0462 70.2821L62.224 74.0138L74.8531 69.9334L76.466 50.3671H63.116L77.6664 44.229L77.6668 38.0909Z" fill="white"/>
<path d="M117.084 69.504C115.092 69.504 113.244 69.192 111.54 68.568C109.86 67.92 108.396 67.008 107.148 65.832C105.924 64.656 104.964 63.276 104.268 61.692C103.572 60.084 103.224 58.32 103.224 56.4C103.224 54.48 103.572 52.728 104.268 51.144C104.964 49.536 105.924 48.144 107.148 46.968C108.396 45.792 109.86 44.892 111.54 44.268C113.244 43.62 115.092 43.296 117.084 43.296C119.412 43.296 121.488 43.704 123.312 44.52C125.16 45.336 126.696 46.512 127.92 48.048L123.384 52.152C122.568 51.192 121.668 50.46 120.684 49.956C119.724 49.452 118.644 49.2 117.444 49.2C116.412 49.2 115.464 49.368 114.6 49.704C113.736 50.04 112.992 50.532 112.368 51.18C111.768 51.804 111.288 52.56 110.928 53.448C110.592 54.336 110.424 55.32 110.424 56.4C110.424 57.48 110.592 58.464 110.928 59.352C111.288 60.24 111.768 61.008 112.368 61.656C112.992 62.28 113.736 62.76 114.6 63.096C115.464 63.432 116.412 63.6 117.444 63.6C118.644 63.6 119.724 63.348 120.684 62.844C121.668 62.34 122.568 61.608 123.384 60.648L127.92 64.752C126.696 66.264 125.16 67.44 123.312 68.28C121.488 69.096 119.412 69.504 117.084 69.504ZM139.708 69.504C137.644 69.504 135.652 69.252 133.732 68.748C131.836 68.22 130.288 67.548 129.088 66.732L131.428 61.476C132.556 62.196 133.852 62.796 135.316 63.276C136.804 63.732 138.28 63.96 139.744 63.96C140.728 63.96 141.52 63.876 142.12 63.708C142.72 63.516 143.152 63.276 143.416 62.988C143.704 62.676 143.848 62.316 143.848 61.908C143.848 61.332 143.584 60.876 143.056 60.54C142.528 60.204 141.844 59.928 141.004 59.712C140.164 59.496 139.228 59.28 138.196 59.064C137.188 58.848 136.168 58.572 135.136 58.236C134.128 57.9 133.204 57.468 132.364 56.94C131.524 56.388 130.84 55.68 130.312 54.816C129.784 53.928 129.52 52.812 129.52 51.468C129.52 49.956 129.928 48.588 130.744 47.364C131.584 46.14 132.832 45.156 134.488 44.412C136.144 43.668 138.208 43.296 140.68 43.296C142.336 43.296 143.956 43.488 145.54 43.872C147.148 44.232 148.576 44.772 149.824 45.492L147.628 50.784C146.428 50.136 145.24 49.656 144.064 49.344C142.888 49.008 141.748 48.84 140.644 48.84C139.66 48.84 138.868 48.948 138.268 49.164C137.668 49.356 137.236 49.62 136.972 49.956C136.708 50.292 136.576 50.676 136.576 51.108C136.576 51.66 136.828 52.104 137.332 52.44C137.86 52.752 138.544 53.016 139.384 53.232C140.248 53.424 141.184 53.628 142.192 53.844C143.224 54.06 144.244 54.336 145.252 54.672C146.284 54.984 147.22 55.416 148.06 55.968C148.9 56.496 149.572 57.204 150.076 58.092C150.604 58.956 150.868 60.048 150.868 61.368C150.868 62.832 150.448 64.188 149.608 65.436C148.792 66.66 147.556 67.644 145.9 68.388C144.268 69.132 142.204 69.504 139.708 69.504ZM163.017 69.504C160.953 69.504 158.961 69.252 157.041 68.748C155.145 68.22 153.597 67.548 152.397 66.732L154.737 61.476C155.865 62.196 157.161 62.796 158.625 63.276C160.113 63.732 161.589 63.96 163.053 63.96C164.037 63.96 164.829 63.876 165.429 63.708C166.029 63.516 166.461 63.276 166.725 62.988C167.013 62.676 167.157 62.316 167.157 61.908C167.157 61.332 166.893 60.876 166.365 60.54C165.837 60.204 165.153 59.928 164.313 59.712C163.473 59.496 162.537 59.28 161.505 59.064C160.497 58.848 159.477 58.572 158.445 58.236C157.437 57.9 156.513 57.468 155.673 56.94C154.833 56.388 154.149 55.68 153.621 54.816C153.093 53.928 152.829 52.812 152.829 51.468C152.829 49.956 153.237 48.588 154.053 47.364C154.893 46.14 156.141 45.156 157.797 44.412C159.453 43.668 161.517 43.296 163.989 43.296C165.645 43.296 167.265 43.488 168.849 43.872C170.457 44.232 171.885 44.772 173.133 45.492L170.937 50.784C169.737 50.136 168.549 49.656 167.373 49.344C166.197 49.008 165.057 48.84 163.953 48.84C162.969 48.84 162.177 48.948 161.577 49.164C160.977 49.356 160.545 49.62 160.281 49.956C160.017 50.292 159.885 50.676 159.885 51.108C159.885 51.66 160.137 52.104 160.641 52.44C161.169 52.752 161.853 53.016 162.693 53.232C163.557 53.424 164.493 53.628 165.501 53.844C166.533 54.06 167.553 54.336 168.561 54.672C169.593 54.984 170.529 55.416 171.369 55.968C172.209 56.496 172.881 57.204 173.385 58.092C173.913 58.956 174.177 60.048 174.177 61.368C174.177 62.832 173.757 64.188 172.917 65.436C172.101 66.66 170.865 67.644 169.209 68.388C167.577 69.132 165.513 69.504 163.017 69.504Z" fill="black"/>
<defs>
<filter id="filter0_dd_56_43" x="0" y="0" width="212" height="112" filterUnits="userSpaceOnUse" color-interpolation-filters="sRGB">
<feFlood flood-opacity="0" result="BackgroundImageFix"/>
<feColorMatrix in="SourceAlpha" type="matrix" values="0 0 0 0 0 0 0 0 0 0 0 0 0 0 0 0 0 0 127 0" result="hardAlpha"/>
<feOffset dx="2" dy="2"/>
<feGaussianBlur stdDeviation="2"/>
<feComposite in2="hardAlpha" operator="out"/>
<feColorMatrix type="matrix" values="0 0 0 0 0 0 0 0 0 0 0 0 0 0 0 0 0 0 0.25 0"/>
<feBlend mode="normal" in2="BackgroundImageFix" result="effect1_dropShadow_56_43"/>
<feColorMatrix in="SourceAlpha" type="matrix" values="0 0 0 0 0 0 0 0 0 0 0 0 0 0 0 0 0 0 127 0" result="hardAlpha"/>
<feOffset dx="-2" dy="-2"/>
<feGaussianBlur stdDeviation="2"/>
<feComposite in2="hardAlpha" operator="out"/>
<feColorMatrix type="matrix" values="0 0 0 0 0 0 0 0 0 0 0 0 0 0 0 0 0 0 0.25 0"/>
<feBlend mode="normal" in2="effect1_dropShadow_56_43" result="effect2_dropShadow_56_43"/>
<feBlend mode="normal" in="SourceGraphic" in2="effect2_dropShadow_56_43" result="shape"/>
</filter>
</defs>
</svg>
