<svg width="212" height="112" viewBox="0 0 212 112" fill="none" xmlns="http://www.w3.org/2000/svg">
<g filter="url(#filter0_dd_56_198)">
<mask id="path-1-inside-1_56_198" fill="white">
<path d="M6 26C6 14.9543 14.9543 6 26 6H186C197.046 6 206 14.9543 206 26V86C206 97.0457 197.046 106 186 106H26C14.9543 106 6 97.0457 6 86V26Z"/>
</mask>
<path d="M6 26C6 14.9543 14.9543 6 26 6H186C197.046 6 206 14.9543 206 26V86C206 97.0457 197.046 106 186 106H26C14.9543 106 6 97.0457 6 86V26Z" fill="white"/>
<path d="M6 6H206H6ZM206 106H6H206ZM26 106C12.7452 106 2 95.2548 2 82V30C2 16.7452 12.7452 6 26 6C17.1634 6 10 14.9543 10 26V86C10 97.0457 17.1634 106 26 106ZM186 6C199.255 6 210 16.7452 210 30V82C210 95.2548 199.255 106 186 106C194.837 106 202 97.0457 202 86V26C202 14.9543 194.837 6 186 6Z" fill="#00B6E8" mask="url(#path-1-inside-1_56_198)"/>
</g>
<path d="M151.744 29.5868C153.11 28.8062 154.89 28.8026 156.255 29.5868C163.122 33.4602 169.992 37.3275 176.858 41.2033C178.149 41.9295 179.013 43.3641 179 44.8495V68.1535C179.009 69.7004 178.06 71.1693 176.698 71.879C169.853 75.7311 163.012 79.5878 156.168 83.4399C154.774 84.2358 152.959 84.1745 151.608 83.3134C149.556 82.1259 147.5 80.9443 145.448 79.7581C145.028 79.5085 144.556 79.3099 144.26 78.904C144.521 78.5518 144.989 78.5079 145.37 78.3542C146.226 78.0823 147.013 77.6458 147.8 77.2223C147.999 77.0864 148.242 77.1385 148.433 77.2601C150.187 78.2644 151.927 79.2979 153.687 80.2926C154.063 80.5091 154.443 80.2217 154.764 80.0431C161.481 76.2537 168.206 72.4786 174.922 68.688C175.17 68.5686 175.308 68.3049 175.288 68.0328C175.293 60.3453 175.289 52.6565 175.29 44.969C175.319 44.6603 175.14 44.3764 174.86 44.2501C168.039 40.4157 161.222 36.5753 154.402 32.7399C154.284 32.6588 154.144 32.6153 154 32.6151C153.857 32.6149 153.717 32.658 153.598 32.7387C146.778 36.5753 139.962 40.4192 133.142 44.2534C132.864 44.38 132.677 44.6591 132.71 44.969C132.711 52.6565 132.71 60.3453 132.71 68.034C132.698 68.1667 132.727 68.2999 132.794 68.4156C132.86 68.5313 132.96 68.6239 133.081 68.681C134.901 69.7112 136.723 70.7341 138.544 71.7607C139.57 72.3119 140.83 72.6394 141.96 72.2171C142.957 71.86 143.657 70.8439 143.638 69.7868C143.647 62.1441 143.633 54.5003 143.645 46.8589C143.62 46.5196 143.942 46.2393 144.273 46.2712C145.147 46.2654 146.023 46.2595 146.897 46.2736C147.262 46.2654 147.513 46.6307 147.468 46.9725C147.465 54.6635 147.477 62.3547 147.462 70.0457C147.465 72.0955 146.621 74.3258 144.722 75.3287C142.382 76.5387 139.489 76.2821 137.178 75.1219C135.177 74.1248 133.267 72.9481 131.301 71.88C129.935 71.1742 128.991 69.6994 129 68.1537V44.8495C128.986 43.3334 129.884 41.8726 131.216 41.1571C138.059 37.3019 144.902 33.4437 151.744 29.5868Z" fill="#8CC84B"/>
<path d="M157.715 45.7295C160.699 45.5378 163.895 45.6159 166.581 47.0837C168.66 48.2084 169.813 50.569 169.85 52.8752C169.792 53.1863 169.466 53.3579 169.168 53.3365C168.302 53.3353 167.436 53.3483 166.57 53.3306C166.203 53.3447 165.989 53.0066 165.943 52.6824C165.694 51.579 165.092 50.4862 164.051 49.954C162.454 49.1557 160.602 49.1959 158.86 49.2125C157.589 49.2799 156.222 49.3898 155.145 50.1361C154.318 50.7015 154.067 51.8427 154.362 52.7618C154.64 53.4217 155.403 53.6346 156.028 53.8309C159.625 54.77 163.436 54.6765 166.965 55.9124C168.425 56.4162 169.854 57.3956 170.354 58.9223C171.008 60.9685 170.722 63.4144 169.263 65.0571C168.081 66.4088 166.358 67.1446 164.64 67.5442C162.354 68.0529 159.983 68.0658 157.661 67.84C155.479 67.5916 153.208 67.0192 151.523 65.5348C150.082 64.286 149.378 62.3403 149.448 60.4624C149.465 60.1452 149.781 59.9241 150.085 59.9501C150.958 59.9431 151.83 59.9407 152.702 59.9513C153.05 59.9264 153.308 60.2269 153.326 60.5546C153.487 61.606 153.883 62.7094 154.801 63.3327C156.574 64.4741 158.798 64.3959 160.827 64.4279C162.508 64.3534 164.396 64.3309 165.768 63.2216C166.492 62.5889 166.706 61.5303 166.511 60.6197C166.299 59.8508 165.493 59.4926 164.801 59.2583C161.25 58.137 157.396 58.5439 153.879 57.2759C152.452 56.7723 151.071 55.8201 150.523 54.3561C149.757 52.284 150.108 49.7211 151.719 48.1338C153.29 46.555 155.558 45.9472 157.715 45.7295Z" fill="#8CC84B"/>
<path d="M55.179 57.3835C55.179 57.058 54.9982 56.7504 54.7089 56.5877L47.0416 52.1755C46.9149 52.103 46.7703 52.0669 46.6257 52.0487H46.5533C46.4087 52.0487 46.264 52.103 46.1374 52.1755L38.4702 56.5877C38.1807 56.7504 38 57.0579 38 57.3835L38.0181 69.2459C38.0181 69.4086 38.1086 69.5714 38.2532 69.6438C38.3979 69.7342 38.5786 69.7342 38.7053 69.6438L43.2623 67.0398C43.5516 66.8771 43.7324 66.5696 43.7324 66.2442V60.6926C43.7324 60.3672 43.9132 60.0597 44.2026 59.897L46.1374 58.7758C46.2821 58.6854 46.4449 58.6491 46.6076 58.6491C46.7703 58.6491 46.933 58.6854 47.0598 58.7758L48.9946 59.897C49.284 60.0597 49.4647 60.367 49.4647 60.6926V66.2442C49.4647 66.5696 49.6456 66.8771 49.9349 67.0398L54.4919 69.6438C54.6366 69.7342 54.8173 69.7342 54.962 69.6438C55.1067 69.5714 55.1972 69.4086 55.1972 69.2459L55.179 57.3835ZM92.0325 41.0543C91.8879 40.9819 91.7071 40.9819 91.5803 41.0543C91.4358 41.1448 91.3453 41.2893 91.3453 41.4521V53.2062C91.3453 53.3147 91.2912 53.4231 91.1826 53.4955C91.0742 53.5497 90.9656 53.5497 90.8572 53.4955L88.9404 52.3925C88.7998 52.3125 88.6409 52.2704 88.4792 52.2704C88.3175 52.2704 88.1585 52.3125 88.018 52.3925L80.3508 56.8229C80.0615 56.9856 79.8806 57.293 79.8806 57.6185V66.4611C79.8806 66.7865 80.0615 67.0941 80.3508 67.2568L88.018 71.6872C88.1585 71.7672 88.3175 71.8093 88.4792 71.8093C88.6409 71.8093 88.7998 71.7672 88.9404 71.6872L96.6076 67.2568C96.8969 67.0941 97.0778 66.7867 97.0778 66.4611V44.4178C97.0778 44.0742 96.8969 43.7669 96.6076 43.604L92.0325 41.0543ZM91.3273 63.5498C91.3273 63.6402 91.2912 63.7125 91.2188 63.7486L88.5968 65.2676C88.5601 65.2854 88.5199 65.2947 88.4792 65.2947C88.4384 65.2947 88.3982 65.2854 88.3616 65.2676L85.7396 63.7486C85.6672 63.7125 85.631 63.6221 85.631 63.5498V60.5118C85.631 60.4213 85.6672 60.349 85.7396 60.3129L88.3616 58.7938C88.3982 58.7759 88.4384 58.7667 88.4792 58.7667C88.5199 58.7667 88.5601 58.7759 88.5968 58.7938L91.2188 60.3129C91.2912 60.3489 91.3273 60.4395 91.3273 60.5118V63.5498ZM117.548 60.4395C117.837 60.2768 118 59.9693 118 59.6437V57.4919C118 57.1665 117.819 56.859 117.548 56.6963L109.935 52.2841C109.794 52.2041 109.635 52.162 109.474 52.162C109.312 52.162 109.153 52.2041 109.013 52.2841L101.345 56.7143C101.056 56.877 100.875 57.1844 100.875 57.51V66.3526C100.875 66.6781 101.056 66.9855 101.345 67.1482L108.958 71.4882C109.248 71.6509 109.591 71.6509 109.863 71.4882L114.474 68.9206C114.618 68.8482 114.709 68.6855 114.709 68.5228C114.709 68.36 114.618 68.1973 114.474 68.1249L106.77 63.6945C106.626 63.6042 106.535 63.4595 106.535 63.2968V60.5301C106.535 60.3673 106.626 60.2046 106.77 60.1322L109.175 58.7578C109.246 58.7135 109.327 58.69 109.41 58.69C109.494 58.69 109.575 58.7135 109.646 58.7578L112.051 60.1322C112.195 60.2226 112.286 60.3672 112.286 60.5301V62.7C112.286 62.8628 112.376 63.0255 112.521 63.0978C112.665 63.1882 112.846 63.1882 112.991 63.0978L117.548 60.4395Z" fill="#333333"/>
<path d="M109.355 60.0234C109.381 60.0058 109.413 59.9963 109.445 59.9963C109.477 59.9963 109.508 60.0058 109.535 60.0234L111 60.8733C111.054 60.9093 111.09 60.9636 111.09 61.036V62.7358C111.09 62.8081 111.054 62.8624 111 62.8986L109.535 63.7485C109.508 63.7661 109.477 63.7755 109.445 63.7755C109.413 63.7755 109.381 63.7661 109.355 63.7485L107.89 62.8986C107.835 62.8624 107.799 62.8081 107.799 62.7358V61.036C107.799 60.9636 107.835 60.9093 107.89 60.8733L109.355 60.0234Z" fill="#539E43"/>
<path d="M67.9971 52.3203C67.8566 52.2403 67.6977 52.1982 67.536 52.1982C67.3743 52.1982 67.2154 52.2403 67.0749 52.3203L59.4619 56.7142C59.1725 56.8769 59.0098 57.1844 59.0098 57.5098V66.3164C59.0098 66.6419 59.1906 66.9493 59.4619 67.112L67.0749 71.5063C67.2154 71.5862 67.3743 71.6283 67.536 71.6283C67.6977 71.6283 67.8566 71.5862 67.9971 71.5063L75.6102 67.112C75.8995 66.9493 76.0624 66.6419 76.0624 66.3164V57.51C76.0624 57.1845 75.8813 56.8771 75.6102 56.7144L67.9971 52.3203Z" fill="url(#paint0_linear_56_198)"/>
<mask id="mask0_56_198" style="mask-type:luminance" maskUnits="userSpaceOnUse" x="59" y="52" width="18" height="20">
<path d="M67.9966 52.32C67.8561 52.2401 67.6972 52.198 67.5355 52.198C67.3738 52.198 67.2149 52.2401 67.0744 52.32L59.4615 56.714C59.172 56.8767 59.0093 57.1841 59.0093 57.5096V66.3162C59.0093 66.6416 59.1901 66.9491 59.4615 67.1118L67.0744 71.506C67.2149 71.586 67.3738 71.6281 67.5355 71.6281C67.6972 71.6281 67.8561 71.586 67.9966 71.506L75.6097 67.1118C75.899 66.9491 76.0619 66.6416 76.0619 66.3162V57.5097C76.0619 57.1843 75.8809 56.8768 75.6097 56.7141L67.9966 52.32Z" fill="white"/>
</mask>
<g mask="url(#mask0_56_198)">
<path d="M75.6295 56.715L67.9804 52.3209C67.9053 52.283 67.8265 52.2527 67.7453 52.2305L59.1738 66.9141C59.2448 67.0008 59.3306 67.0742 59.4271 67.1311L67.0762 71.5253C67.2933 71.6519 67.5464 71.6881 67.7814 71.6156L75.8286 56.896C75.7743 56.8237 75.7018 56.7691 75.6295 56.715Z" fill="url(#paint1_linear_56_198)"/>
</g>
<mask id="mask1_56_198" style="mask-type:luminance" maskUnits="userSpaceOnUse" x="59" y="52" width="18" height="20">
<path d="M67.9966 52.32C67.8561 52.2401 67.6972 52.198 67.5355 52.198C67.3738 52.198 67.2149 52.2401 67.0744 52.32L59.4615 56.714C59.172 56.8767 59.0093 57.1841 59.0093 57.5096V66.3162C59.0093 66.6416 59.1901 66.9491 59.4615 67.1118L67.0744 71.506C67.2149 71.586 67.3738 71.6281 67.5355 71.6281C67.6972 71.6281 67.8561 71.586 67.9966 71.506L75.6097 67.1118C75.899 66.9491 76.0619 66.6416 76.0619 66.3162V57.5097C76.0619 57.1843 75.8809 56.8768 75.6097 56.7141L67.9966 52.32Z" fill="white"/>
</mask>
<g mask="url(#mask1_56_198)">
<path fill-rule="evenodd" clip-rule="evenodd" d="M75.6509 67.1125C75.8679 66.9859 76.0306 66.7689 76.103 66.5339L67.7122 52.212C67.4951 52.1759 67.26 52.1939 67.0613 52.3204L59.4663 56.6967L67.6579 71.6333C67.777 71.6138 67.8927 71.5773 68.0015 71.5249L75.6507 67.1127L75.6509 67.1125Z" fill="url(#paint2_linear_56_198)"/>
<path fill-rule="evenodd" clip-rule="evenodd" d="M75.6485 67.1124L68.0174 71.5066C67.9097 71.5615 67.7936 71.5982 67.6738 71.615L67.8186 71.8863L76.2814 66.9859V66.8774L76.0644 66.5156C76.0283 66.7688 75.8655 66.9858 75.6485 67.1124Z" fill="url(#paint3_linear_56_198)"/>
<path fill-rule="evenodd" clip-rule="evenodd" d="M75.6485 67.1124L68.0174 71.5066C67.9097 71.5615 67.7936 71.5982 67.6738 71.615L67.8186 71.8863L76.2814 66.9859V66.8774L76.0644 66.5156C76.0283 66.7688 75.8655 66.9858 75.6485 67.1124Z" fill="url(#paint4_linear_56_198)"/>
</g>
<defs>
<filter id="filter0_dd_56_198" x="0" y="0" width="212" height="112" filterUnits="userSpaceOnUse" color-interpolation-filters="sRGB">
<feFlood flood-opacity="0" result="BackgroundImageFix"/>
<feColorMatrix in="SourceAlpha" type="matrix" values="0 0 0 0 0 0 0 0 0 0 0 0 0 0 0 0 0 0 127 0" result="hardAlpha"/>
<feOffset dx="2" dy="2"/>
<feGaussianBlur stdDeviation="2"/>
<feComposite in2="hardAlpha" operator="out"/>
<feColorMatrix type="matrix" values="0 0 0 0 0 0 0 0 0 0 0 0 0 0 0 0 0 0 0.25 0"/>
<feBlend mode="normal" in2="BackgroundImageFix" result="effect1_dropShadow_56_198"/>
<feColorMatrix in="SourceAlpha" type="matrix" values="0 0 0 0 0 0 0 0 0 0 0 0 0 0 0 0 0 0 127 0" result="hardAlpha"/>
<feOffset dx="-2" dy="-2"/>
<feGaussianBlur stdDeviation="2"/>
<feComposite in2="hardAlpha" operator="out"/>
<feColorMatrix type="matrix" values="0 0 0 0 0 0 0 0 0 0 0 0 0 0 0 0 0 0 0.25 0"/>
<feBlend mode="normal" in2="effect1_dropShadow_56_198" result="effect2_dropShadow_56_198"/>
<feBlend mode="normal" in="SourceGraphic" in2="effect2_dropShadow_56_198" result="shape"/>
</filter>
<linearGradient id="paint0_linear_56_198" x1="1221.79" y1="391.972" x2="387.339" y2="1703.15" gradientUnits="userSpaceOnUse">
<stop stop-color="#41873F"/>
<stop offset="0.3288" stop-color="#418B3D"/>
<stop offset="0.6352" stop-color="#419637"/>
<stop offset="0.9319" stop-color="#3FA92D"/>
<stop offset="1" stop-color="#3FAE2A"/>
</linearGradient>
<linearGradient id="paint1_linear_56_198" x1="779.941" y1="1123.73" x2="2869.79" y2="-11.6963" gradientUnits="userSpaceOnUse">
<stop offset="0.1376" stop-color="#41873F"/>
<stop offset="0.4032" stop-color="#54A044"/>
<stop offset="0.7136" stop-color="#66B848"/>
<stop offset="0.9081" stop-color="#6CC04A"/>
</linearGradient>
<linearGradient id="paint2_linear_56_198" x1="-13.5523" y1="1024.02" x2="1748.08" y2="1024.02" gradientUnits="userSpaceOnUse">
<stop offset="0.09192" stop-color="#6CC04A"/>
<stop offset="0.2864" stop-color="#66B848"/>
<stop offset="0.5968" stop-color="#54A044"/>
<stop offset="0.8624" stop-color="#41873F"/>
</linearGradient>
<linearGradient id="paint3_linear_56_198" x1="-826.319" y1="336.528" x2="935.293" y2="336.528" gradientUnits="userSpaceOnUse">
<stop offset="0.09192" stop-color="#6CC04A"/>
<stop offset="0.2864" stop-color="#66B848"/>
<stop offset="0.5968" stop-color="#54A044"/>
<stop offset="0.8624" stop-color="#41873F"/>
</linearGradient>
<linearGradient id="paint4_linear_56_198" x1="1191.94" y1="-1067.07" x2="745.652" y2="1271.45" gradientUnits="userSpaceOnUse">
<stop stop-color="#41873F"/>
<stop offset="0.3288" stop-color="#418B3D"/>
<stop offset="0.6352" stop-color="#419637"/>
<stop offset="0.9319" stop-color="#3FA92D"/>
<stop offset="1" stop-color="#3FAE2A"/>
</linearGradient>
</defs>
</svg>
