<svg width="163" height="50" viewBox="0 0 163 50" fill="none" xmlns="http://www.w3.org/2000/svg">
<path d="M41.146 50H8.854C3.958 50 0 45.9405 0 40.919V9.081C0 4.0595 3.958 0 8.854 0H41.146C46.042 0 50 4.0595 50 9.081V40.919C50 45.9405 46.042 50 41.146 50Z" fill="#FF26BE"/>
<path d="M40.354 47.8628H9.64598C5.47998 47.8628 2.08398 44.3797 2.08398 40.1069V9.8936C2.08398 5.6208 5.47998 2.1377 9.64598 2.1377H40.334C44.522 2.1377 47.896 5.6208 47.896 9.8936V40.0864C47.916 44.3797 44.52 47.8628 40.354 47.8628Z" fill="#2E001F"/>
<path d="M19.7702 24.3971L25.6042 35.8925C25.7082 36.0627 25.6462 36.235 25.4782 36.235H21.8522C21.6222 36.235 21.5182 36.1714 21.4142 35.9581C20.0802 33.1376 18.7262 30.3171 17.3302 27.2832H17.2882C16.0382 30.1468 14.6622 33.1602 13.3302 35.9807C13.2262 36.1509 13.1222 36.2166 12.9542 36.2166H9.52019C9.31219 36.2166 9.29019 36.0463 9.39619 35.9171L15.1042 24.7622L9.5842 13.4802C9.4582 13.3099 9.58419 13.1807 9.70819 13.1807H13.2922C13.5002 13.1807 13.5842 13.2237 13.6662 13.4166C14.9782 16.2371 16.3122 19.1437 17.5622 21.9848H17.6042C18.8122 19.1643 20.1462 16.2371 21.4382 13.4371C21.5422 13.2668 21.6042 13.1602 21.8142 13.1602H25.1682C25.3342 13.1602 25.3982 13.2894 25.2942 13.4596L19.7702 24.3971ZM26.6262 27.8802C26.6262 22.9017 29.8562 19.0125 34.9802 19.0125C35.4182 19.0125 35.6462 19.0125 36.0642 19.0555V13.394C36.0642 13.2648 36.1682 13.1807 36.2722 13.1807H39.5642C39.7302 13.1807 39.7722 13.2443 39.7722 13.3509V32.9673C39.7722 33.5437 39.7722 34.2699 39.8762 35.0617C39.8762 35.1909 39.8342 35.2319 39.7102 35.2976C37.9602 36.153 36.1262 36.5366 34.3762 36.5366C29.8542 36.555 26.6242 33.6935 26.6262 27.8802ZM36.0622 22.4114C35.7702 22.2822 35.3542 22.1981 34.8542 22.1981C32.2282 22.1981 30.3962 24.2699 30.3962 27.7119C30.3962 31.6443 32.2722 33.2258 34.6262 33.2258C35.1262 33.2258 35.6682 33.1622 36.0642 32.9899V22.4114H36.0622Z" fill="#FFD9F2"/>
<path d="M59.8999 32.0002L66.1999 18.0002H68.7599L75.0799 32.0002H72.3599L66.9399 19.3802H67.9799L62.5799 32.0002H59.8999ZM62.7999 28.7602L63.4999 26.7202H71.0599L71.7599 28.7602H62.7999ZM81.0429 32.1402C80.0159 32.1402 79.0889 31.9135 78.2629 31.4602C77.4489 30.9935 76.8089 30.3535 76.3429 29.5402C75.876 28.7269 75.6427 27.7669 75.6427 26.6602C75.6427 25.5535 75.876 24.5935 76.3429 23.7802C76.8089 22.9669 77.4489 22.3335 78.2629 21.8802C79.0889 21.4269 80.0159 21.2002 81.0429 21.2002C81.9359 21.2002 82.7359 21.4002 83.4429 21.8002C84.1489 22.1869 84.7089 22.7802 85.1229 23.5802C85.5359 24.3802 85.7429 25.4069 85.7429 26.6602C85.7429 27.9002 85.5429 28.9269 85.1429 29.7402C84.7429 30.5402 84.1889 31.1402 83.4829 31.5402C82.7759 31.9402 81.9629 32.1402 81.0429 32.1402ZM81.3429 30.0002C81.9429 30.0002 82.4759 29.8669 82.9429 29.6002C83.4229 29.3335 83.8029 28.9469 84.0829 28.4402C84.3759 27.9335 84.5229 27.3402 84.5229 26.6602C84.5229 25.9669 84.3759 25.3735 84.0829 24.8802C83.8029 24.3735 83.4229 23.9869 82.9429 23.7202C82.4759 23.4535 81.9429 23.3202 81.3429 23.3202C80.7429 23.3202 80.2029 23.4535 79.7229 23.7202C79.2559 23.9869 78.8759 24.3735 78.5829 24.8802C78.3029 25.3735 78.1629 25.9669 78.1629 26.6602C78.1629 27.3402 78.3029 27.9335 78.5829 28.4402C78.8759 28.9469 79.2559 29.3335 79.7229 29.6002C80.2029 29.8669 80.7429 30.0002 81.3429 30.0002ZM84.5829 32.0002V29.4802L84.6829 26.6402L84.4829 23.8002V17.1602H86.9629V32.0002H84.5829ZM95.0529 32.1402C93.9599 32.1402 92.9869 31.9069 92.1329 31.4402C91.2799 30.9602 90.6069 30.3069 90.1129 29.4802C89.6199 28.6535 89.3729 27.7135 89.3729 26.6602C89.3729 25.5935 89.6199 24.6535 90.1129 23.8402C90.6069 23.0135 91.2799 22.3669 92.1329 21.9002C92.9869 21.4335 93.9599 21.2002 95.0529 21.2002C96.1599 21.2002 97.1399 21.4335 97.9929 21.9002C98.8599 22.3669 99.5329 23.0069 100.013 23.8202C100.507 24.6335 100.753 25.5802 100.753 26.6602C100.753 27.7135 100.507 28.6535 100.013 29.4802C99.5329 30.3069 98.8599 30.9602 97.9929 31.4402C97.1399 31.9069 96.1599 32.1402 95.0529 32.1402ZM95.0529 30.0002C95.6669 30.0002 96.2129 29.8669 96.6929 29.6002C97.1729 29.3335 97.5469 28.9469 97.8129 28.4402C98.0929 27.9335 98.2329 27.3402 98.2329 26.6602C98.2329 25.9669 98.0929 25.3735 97.8129 24.8802C97.5469 24.3735 97.1729 23.9869 96.6929 23.7202C96.2129 23.4535 95.6729 23.3202 95.0729 23.3202C94.4599 23.3202 93.9129 23.4535 93.4329 23.7202C92.9669 23.9869 92.5929 24.3735 92.3129 24.8802C92.0329 25.3735 91.8929 25.9669 91.8929 26.6602C91.8929 27.3402 92.0329 27.9335 92.3129 28.4402C92.5929 28.9469 92.9669 29.3335 93.4329 29.6002C93.9129 29.8669 94.4529 30.0002 95.0529 30.0002ZM109.064 32.1402C108.157 32.1402 107.351 31.9402 106.644 31.5402C105.937 31.1402 105.377 30.5402 104.964 29.7402C104.564 28.9269 104.364 27.9002 104.364 26.6602C104.364 25.4069 104.571 24.3802 104.984 23.5802C105.411 22.7802 105.977 22.1869 106.684 21.8002C107.404 21.4002 108.197 21.2002 109.064 21.2002C110.117 21.2002 111.044 21.4269 111.844 21.8802C112.657 22.3335 113.297 22.9669 113.764 23.7802C114.244 24.5935 114.484 25.5535 114.484 26.6602C114.484 27.7669 114.244 28.7269 113.764 29.5402C113.297 30.3535 112.657 30.9935 111.844 31.4602C111.044 31.9135 110.117 32.1402 109.064 32.1402ZM103.144 32.0002V17.1602H105.644V23.8002L105.444 26.6402L105.524 29.4802V32.0002H103.144ZM108.784 30.0002C109.384 30.0002 109.917 29.8669 110.384 29.6002C110.864 29.3335 111.244 28.9469 111.524 28.4402C111.804 27.9335 111.944 27.3402 111.944 26.6602C111.944 25.9669 111.804 25.3735 111.524 24.8802C111.244 24.3735 110.864 23.9869 110.384 23.7202C109.917 23.4535 109.384 23.3202 108.784 23.3202C108.184 23.3202 107.644 23.4535 107.164 23.7202C106.684 23.9869 106.304 24.3735 106.024 24.8802C105.744 25.3735 105.604 25.9669 105.604 26.6602C105.604 27.3402 105.744 27.9335 106.024 28.4402C106.304 28.9469 106.684 29.3335 107.164 29.6002C107.644 29.8669 108.184 30.0002 108.784 30.0002ZM121.875 32.1402C120.688 32.1402 119.648 31.9069 118.755 31.4402C117.875 30.9602 117.188 30.3069 116.695 29.4802C116.215 28.6535 115.975 27.7135 115.975 26.6602C115.975 25.5935 116.208 24.6535 116.675 23.8402C117.155 23.0135 117.808 22.3669 118.635 21.9002C119.475 21.4335 120.428 21.2002 121.495 21.2002C122.535 21.2002 123.462 21.4269 124.275 21.8802C125.088 22.3335 125.728 22.9735 126.195 23.8002C126.662 24.6269 126.895 25.6002 126.895 26.7202C126.895 26.8269 126.888 26.9469 126.875 27.0802C126.875 27.2135 126.868 27.3402 126.855 27.4602H117.955V25.8002H125.535L124.555 26.3202C124.568 25.7069 124.442 25.1669 124.175 24.7002C123.908 24.2335 123.542 23.8669 123.075 23.6002C122.622 23.3335 122.095 23.2002 121.495 23.2002C120.882 23.2002 120.342 23.3335 119.875 23.6002C119.422 23.8669 119.062 24.2402 118.795 24.7202C118.542 25.1869 118.415 25.7402 118.415 26.3802V26.7802C118.415 27.4202 118.562 27.9869 118.855 28.4802C119.148 28.9735 119.562 29.3535 120.095 29.6202C120.628 29.8869 121.242 30.0202 121.935 30.0202C122.535 30.0202 123.075 29.9269 123.555 29.7402C124.035 29.5535 124.462 29.2602 124.835 28.8602L126.175 30.4002C125.695 30.9602 125.088 31.3935 124.355 31.7002C123.635 31.9935 122.808 32.1402 121.875 32.1402ZM133.364 32.0002L139.264 23.8802V25.8402L133.644 18.0002H136.584L140.764 23.8002L139.564 23.8202L143.704 18.0002H146.524L140.944 25.7002V23.8202L146.884 32.0002H143.884L139.484 25.8402H140.664L136.324 32.0002H133.364ZM148.462 32.0002V18.0002H154.582C156.102 18.0002 157.435 18.2935 158.582 18.8802C159.729 19.4669 160.622 20.2802 161.262 21.3202C161.902 22.3602 162.222 23.5869 162.222 25.0002C162.222 26.4002 161.902 27.6269 161.262 28.6802C160.622 29.7202 159.729 30.5335 158.582 31.1202C157.435 31.7069 156.102 32.0002 154.582 32.0002H148.462ZM151.062 29.8002H154.462C155.515 29.8002 156.422 29.6002 157.182 29.2002C157.955 28.8002 158.549 28.2402 158.962 27.5202C159.389 26.8002 159.602 25.9602 159.602 25.0002C159.602 24.0269 159.389 23.1869 158.962 22.4802C158.549 21.7602 157.955 21.2002 157.182 20.8002C156.422 20.4002 155.515 20.2002 154.462 20.2002H151.062V29.8002Z" fill="black"/>
</svg>
