<svg width="162" height="50" viewBox="0 0 162 50" fill="none" xmlns="http://www.w3.org/2000/svg">
<path fill-rule="evenodd" clip-rule="evenodd" d="M2.08203 2.13672H47.9152V47.8632H2.08203V2.13672Z" fill="#1F0040"/>
<path fill-rule="evenodd" clip-rule="evenodd" d="M0 0V50H50V0H0ZM2.0833 2.1368H47.9167V47.8632H2.0833V2.1368Z" fill="#D291FF"/>
<path fill-rule="evenodd" clip-rule="evenodd" d="M14.1312 28.3118L12.4812 34.6932C12.4466 34.8692 12.3779 34.9357 12.1716 34.9357H9.11253C8.90623 34.9357 8.87163 34.8652 8.90623 34.6186L14.8185 13.3942C14.9218 13.0066 14.9906 12.7007 15.0247 11.6432C15.0247 11.5022 15.0935 11.4316 15.1968 11.4316H19.5624C19.6995 11.4316 19.7683 11.4671 19.8028 11.6432L26.4374 34.6536C26.4716 34.8301 26.4374 34.9357 26.2653 34.9357H22.8278C22.6562 34.9357 22.5528 34.8692 22.5187 34.7286L20.7999 28.3118H14.1312ZM19.9778 24.843C19.3935 22.4808 17.9808 17.3 17.4651 14.7968H17.431C16.9841 17.3 15.8558 21.5267 14.9964 24.8408L19.9778 24.843ZM31.1455 27.0297C31.1801 29.921 32.5209 31.8598 35.6832 31.8598C36.9205 31.8598 37.9809 31.6921 39.0809 31.1983C39.2184 31.1278 39.3217 31.1633 39.3217 31.3393V34.019C39.3217 34.2306 39.253 34.3361 39.1155 34.4419C38.0157 35.0062 36.6457 35.2528 34.927 35.2528C29.4272 35.2528 27.3645 31.0928 27.3645 26.4387C27.3645 21.3972 29.908 17.2725 34.3772 17.2725C38.9144 17.2725 40.4957 21.1857 40.4957 24.3588C40.4957 25.3812 40.4269 26.2276 40.324 26.6152C40.2894 26.7913 40.2207 26.8534 40.049 26.8885C39.6365 26.959 38.399 27.0295 36.5769 27.0295L31.1455 27.0297ZM35.3736 24.0917C36.4392 24.0917 36.8178 24.0917 36.9207 24.0566C36.9207 23.9156 36.9553 23.7945 36.9553 23.6889C36.9553 22.5254 36.4051 20.39 34.2397 20.39C32.2459 20.39 31.3866 22.1878 31.1801 24.0917H35.3736Z" fill="#D291FF"/>
<path d="M59.9099 20.9996L65.5799 8.39956H67.8839L73.5719 20.9996H71.1239L66.2459 9.64155H67.1819L62.3219 20.9996H59.9099ZM62.5199 18.0836L63.1499 16.2476H69.9539L70.5839 18.0836H62.5199ZM78.9389 21.1256C78.0149 21.1256 77.1809 20.9216 76.4369 20.5136C75.7044 20.0936 75.1284 19.5176 74.7084 18.7856C74.2884 18.0536 74.0784 17.1896 74.0784 16.1936C74.0784 15.1976 74.2884 14.3336 74.7084 13.6016C75.1284 12.8696 75.7044 12.2996 76.4369 11.8916C77.1809 11.4836 78.0149 11.2796 78.9389 11.2796C79.7429 11.2796 80.4629 11.4596 81.0989 11.8196C81.7349 12.1676 82.2389 12.7016 82.6109 13.4216C82.9829 14.1416 83.1689 15.0656 83.1689 16.1936C83.1689 17.3096 82.9889 18.2336 82.6289 18.9656C82.2689 19.6856 81.7709 20.2256 81.1349 20.5856C80.4989 20.9456 79.7669 21.1256 78.9389 21.1256ZM79.2089 19.1996C79.7489 19.1996 80.2289 19.0796 80.6489 18.8396C81.0809 18.5996 81.4229 18.2516 81.6749 17.7956C81.9389 17.3396 82.0709 16.8056 82.0709 16.1936C82.0709 15.5696 81.9389 15.0356 81.6749 14.5916C81.4229 14.1356 81.0809 13.7876 80.6489 13.5476C80.2289 13.3076 79.7489 13.1876 79.2089 13.1876C78.6689 13.1876 78.1829 13.3076 77.7509 13.5476C77.3309 13.7876 76.9889 14.1356 76.7249 14.5916C76.4729 15.0356 76.3469 15.5696 76.3469 16.1936C76.3469 16.8056 76.4729 17.3396 76.7249 17.7956C76.9889 18.2516 77.3309 18.5996 77.7509 18.8396C78.1829 19.0796 78.6689 19.1996 79.2089 19.1996ZM82.1249 20.9996V18.7316L82.2149 16.1756L82.0349 13.6196V7.64355H84.2669V20.9996H82.1249ZM91.5479 21.1256C90.5639 21.1256 89.6879 20.9156 88.9199 20.4956C88.1519 20.0636 87.5459 19.4756 87.1019 18.7316C86.6579 17.9876 86.4359 17.1416 86.4359 16.1936C86.4359 15.2336 86.6579 14.3876 87.1019 13.6556C87.5459 12.9116 88.1519 12.3296 88.9199 11.9096C89.6879 11.4896 90.5639 11.2796 91.5479 11.2796C92.5439 11.2796 93.4259 11.4896 94.1939 11.9096C94.9739 12.3296 95.5799 12.9056 96.0119 13.6376C96.4559 14.3696 96.6779 15.2216 96.6779 16.1936C96.6779 17.1416 96.4559 17.9876 96.0119 18.7316C95.5799 19.4756 94.9739 20.0636 94.1939 20.4956C93.4259 20.9156 92.5439 21.1256 91.5479 21.1256ZM91.5479 19.1996C92.0999 19.1996 92.5919 19.0796 93.0239 18.8396C93.4559 18.5996 93.7919 18.2516 94.0319 17.7956C94.2839 17.3396 94.4099 16.8056 94.4099 16.1936C94.4099 15.5696 94.2839 15.0356 94.0319 14.5916C93.7919 14.1356 93.4559 13.7876 93.0239 13.5476C92.5919 13.3076 92.1059 13.1876 91.5659 13.1876C91.0139 13.1876 90.5219 13.3076 90.0899 13.5476C89.6699 13.7876 89.3339 14.1356 89.0819 14.5916C88.8299 15.0356 88.7039 15.5696 88.7039 16.1936C88.7039 16.8056 88.8299 17.3396 89.0819 17.7956C89.3339 18.2516 89.6699 18.5996 90.0899 18.8396C90.5219 19.0796 91.0079 19.1996 91.5479 19.1996ZM104.158 21.1256C103.342 21.1256 102.616 20.9456 101.98 20.5856C101.344 20.2256 100.84 19.6856 100.468 18.9656C100.108 18.2336 99.9279 17.3096 99.9279 16.1936C99.9279 15.0656 100.114 14.1416 100.486 13.4216C100.87 12.7016 101.38 12.1676 102.016 11.8196C102.664 11.4596 103.378 11.2796 104.158 11.2796C105.106 11.2796 105.94 11.4836 106.66 11.8916C107.392 12.2996 107.968 12.8696 108.388 13.6016C108.82 14.3336 109.036 15.1976 109.036 16.1936C109.036 17.1896 108.82 18.0536 108.388 18.7856C107.968 19.5176 107.392 20.0936 106.66 20.5136C105.94 20.9216 105.106 21.1256 104.158 21.1256ZM98.8299 20.9996V7.64355H101.08V13.6196L100.9 16.1756L100.972 18.7316V20.9996H98.8299ZM103.906 19.1996C104.446 19.1996 104.926 19.0796 105.346 18.8396C105.778 18.5996 106.12 18.2516 106.372 17.7956C106.624 17.3396 106.75 16.8056 106.75 16.1936C106.75 15.5696 106.624 15.0356 106.372 14.5916C106.12 14.1356 105.778 13.7876 105.346 13.5476C104.926 13.3076 104.446 13.1876 103.906 13.1876C103.366 13.1876 102.88 13.3076 102.448 13.5476C102.016 13.7876 101.674 14.1356 101.422 14.5916C101.17 15.0356 101.044 15.5696 101.044 16.1936C101.044 16.8056 101.17 17.3396 101.422 17.7956C101.674 18.2516 102.016 18.5996 102.448 18.8396C102.88 19.0796 103.366 19.1996 103.906 19.1996ZM115.687 21.1256C114.619 21.1256 113.683 20.9156 112.879 20.4956C112.087 20.0636 111.469 19.4756 111.025 18.7316C110.593 17.9876 110.377 17.1416 110.377 16.1936C110.377 15.2336 110.587 14.3876 111.007 13.6556C111.439 12.9116 112.027 12.3296 112.771 11.9096C113.527 11.4896 114.385 11.2796 115.345 11.2796C116.281 11.2796 117.115 11.4836 117.847 11.8916C118.579 12.2996 119.155 12.8756 119.575 13.6196C119.995 14.3636 120.205 15.2396 120.205 16.2476C120.205 16.3436 120.199 16.4516 120.187 16.5716C120.187 16.6916 120.181 16.8056 120.169 16.9136H112.159V15.4196H118.981L118.099 15.8876C118.111 15.3356 117.997 14.8496 117.757 14.4296C117.517 14.0096 117.187 13.6796 116.767 13.4396C116.359 13.1996 115.885 13.0796 115.345 13.0796C114.793 13.0796 114.307 13.1996 113.887 13.4396C113.479 13.6796 113.155 14.0156 112.915 14.4476C112.687 14.8676 112.573 15.3656 112.573 15.9416V16.3016C112.573 16.8776 112.705 17.3876 112.969 17.8316C113.233 18.2756 113.605 18.6176 114.085 18.8576C114.565 19.0976 115.117 19.2176 115.741 19.2176C116.281 19.2176 116.767 19.1336 117.199 18.9656C117.631 18.7976 118.015 18.5336 118.351 18.1736L119.557 19.5596C119.125 20.0636 118.579 20.4536 117.919 20.7296C117.271 20.9936 116.527 21.1256 115.687 21.1256Z" fill="black"/>
<path d="M59.9199 41.9996L64.9599 30.7996H67.0079L72.0639 41.9996H69.8879L65.5519 31.9036H66.3839L62.0639 41.9996H59.9199ZM62.2399 39.4076L62.7999 37.7756H68.8479L69.4079 39.4076H62.2399ZM73.5683 41.9996V32.9756C73.5683 32.0796 73.8296 31.3649 74.3523 30.8316C74.8856 30.2876 75.6429 30.0156 76.6239 30.0156C76.9759 30.0156 77.3069 30.0529 77.6159 30.1276C77.9359 30.2023 78.2029 30.3196 78.4159 30.4796L77.8719 31.9836C77.7229 31.8663 77.5519 31.7809 77.3599 31.7276C77.1679 31.6636 76.9709 31.6316 76.7679 31.6316C76.3519 31.6316 76.0379 31.7489 75.8243 31.9836C75.6109 32.2076 75.5043 32.5489 75.5043 33.0076V33.9676L75.5683 34.8636V41.9996H73.5683ZM72.1603 35.1196V33.5196H77.8559V35.1196H72.1603ZM82.4189 42.1116C81.4799 42.1116 80.7549 41.8716 80.2429 41.3916C79.7309 40.9009 79.4749 40.1809 79.4749 39.2316V31.5676H81.4749V39.1836C81.4749 39.5889 81.5759 39.9036 81.7789 40.1276C81.9919 40.3516 82.2849 40.4636 82.6589 40.4636C83.1069 40.4636 83.4799 40.3463 83.7789 40.1116L84.3389 41.5356C84.1039 41.7276 83.8159 41.8716 83.4749 41.9676C83.1329 42.0636 82.7809 42.1116 82.4189 42.1116ZM78.0669 35.1196V33.5196H83.7629V35.1196H78.0669ZM89.7189 42.1116C88.7689 42.1116 87.9369 41.9249 87.2229 41.5516C86.5189 41.1676 85.9689 40.6449 85.5749 39.9836C85.1909 39.3223 84.9989 38.5703 84.9989 37.7276C84.9989 36.8743 85.1849 36.1223 85.5589 35.4716C85.9429 34.8103 86.4649 34.2929 87.1269 33.9196C87.7989 33.5463 88.5609 33.3596 89.4149 33.3596C90.2469 33.3596 90.9879 33.5409 91.6389 33.9036C92.2889 34.2663 92.8009 34.7783 93.1749 35.4396C93.5479 36.1009 93.7349 36.8796 93.7349 37.7756C93.7349 37.8609 93.7289 37.9569 93.7189 38.0636C93.7189 38.1703 93.7129 38.2716 93.7029 38.3676H86.5829V37.0396H92.6469L91.8629 37.4556C91.8729 36.9649 91.7719 36.5329 91.5589 36.1596C91.3449 35.7863 91.0519 35.4929 90.6789 35.2796C90.3159 35.0663 89.8949 34.9596 89.4149 34.9596C88.9239 34.9596 88.4919 35.0663 88.1189 35.2796C87.7559 35.4929 87.4679 35.7916 87.2549 36.1756C87.0519 36.5489 86.9509 36.9916 86.9509 37.5036V37.8236C86.9509 38.3356 87.0679 38.7889 87.3029 39.1836C87.5369 39.5783 87.8679 39.8823 88.2949 40.0956C88.7209 40.3089 89.2119 40.4156 89.7669 40.4156C90.2469 40.4156 90.6789 40.3409 91.0629 40.1916C91.4469 40.0423 91.7879 39.8076 92.0869 39.4876L93.1589 40.7196C92.7749 41.1676 92.2889 41.5143 91.7029 41.7596C91.1269 41.9943 90.4649 42.1116 89.7189 42.1116ZM95.6559 41.9996V33.4556H97.5599V35.8076L97.3359 35.1196C97.5919 34.5436 97.9919 34.1063 98.5359 33.8076C99.0899 33.5089 99.7779 33.3596 100.6 33.3596V35.2636C100.514 35.2423 100.434 35.2316 100.36 35.2316C100.285 35.2209 100.21 35.2156 100.136 35.2156C99.3779 35.2156 98.7759 35.4396 98.3279 35.8876C97.8799 36.3249 97.6559 36.9809 97.6559 37.8556V41.9996H95.6559ZM108.908 35.4556H114.476V37.1676H108.908V35.4556ZM109.068 40.2556H115.388V41.9996H106.988V30.7996H115.164V32.5436H109.068V40.2556ZM117.787 41.9996V32.9756C117.787 32.0796 118.048 31.3649 118.571 30.8316C119.104 30.2876 119.862 30.0156 120.843 30.0156C121.195 30.0156 121.526 30.0529 121.835 30.1276C122.155 30.2023 122.422 30.3196 122.635 30.4796L122.091 31.9836C121.942 31.8663 121.771 31.7809 121.579 31.7276C121.387 31.6636 121.19 31.6316 120.987 31.6316C120.571 31.6316 120.256 31.7489 120.043 31.9836C119.83 32.2076 119.723 32.5489 119.723 33.0076V33.9676L119.787 34.8636V41.9996H117.787ZM116.379 35.1196V33.5196H122.075V35.1196H116.379ZM123.74 41.9996V32.9756C123.74 32.0796 124.002 31.3649 124.524 30.8316C125.058 30.2876 125.815 30.0156 126.796 30.0156C127.148 30.0156 127.479 30.0529 127.788 30.1276C128.108 30.2023 128.375 30.3196 128.588 30.4796L128.044 31.9836C127.895 31.8663 127.724 31.7809 127.532 31.7276C127.34 31.6636 127.143 31.6316 126.94 31.6316C126.524 31.6316 126.21 31.7489 125.996 31.9836C125.783 32.2076 125.676 32.5489 125.676 33.0076V33.9676L125.74 34.8636V41.9996H123.74ZM122.332 35.1196V33.5196H128.028V35.1196H122.332ZM133.266 42.1116C132.316 42.1116 131.484 41.9249 130.77 41.5516C130.066 41.1676 129.516 40.6449 129.122 39.9836C128.738 39.3223 128.546 38.5703 128.546 37.7276C128.546 36.8743 128.732 36.1223 129.106 35.4716C129.49 34.8103 130.012 34.2929 130.674 33.9196C131.346 33.5463 132.108 33.3596 132.962 33.3596C133.794 33.3596 134.535 33.5409 135.186 33.9036C135.836 34.2663 136.348 34.7783 136.722 35.4396C137.095 36.1009 137.282 36.8796 137.282 37.7756C137.282 37.8609 137.276 37.9569 137.266 38.0636C137.266 38.1703 137.26 38.2716 137.25 38.3676H130.13V37.0396H136.194L135.41 37.4556C135.42 36.9649 135.319 36.5329 135.106 36.1596C134.892 35.7863 134.599 35.4929 134.226 35.2796C133.863 35.0663 133.442 34.9596 132.962 34.9596C132.471 34.9596 132.039 35.0663 131.666 35.2796C131.303 35.4929 131.015 35.7916 130.802 36.1756C130.599 36.5489 130.498 36.9916 130.498 37.5036V37.8236C130.498 38.3356 130.615 38.7889 130.85 39.1836C131.084 39.5783 131.415 39.8823 131.842 40.0956C132.268 40.3089 132.759 40.4156 133.314 40.4156C133.794 40.4156 134.226 40.3409 134.61 40.1916C134.994 40.0423 135.335 39.8076 135.634 39.4876L136.706 40.7196C136.322 41.1676 135.836 41.5143 135.25 41.7596C134.674 41.9943 134.012 42.1116 133.266 42.1116ZM143.123 42.1116C142.227 42.1116 141.427 41.9249 140.723 41.5516C140.029 41.1676 139.485 40.6449 139.091 39.9836C138.696 39.3223 138.499 38.5703 138.499 37.7276C138.499 36.8743 138.696 36.1223 139.091 35.4716C139.485 34.8103 140.029 34.2929 140.723 33.9196C141.427 33.5463 142.227 33.3596 143.123 33.3596C143.955 33.3596 144.685 33.5303 145.315 33.8716C145.955 34.2023 146.44 34.6929 146.771 35.3436L145.235 36.2396C144.979 35.8343 144.664 35.5356 144.291 35.3436C143.928 35.1516 143.533 35.0556 143.107 35.0556C142.616 35.0556 142.173 35.1623 141.779 35.3756C141.384 35.5889 141.075 35.8983 140.851 36.3036C140.627 36.6983 140.515 37.1729 140.515 37.7276C140.515 38.2823 140.627 38.7623 140.851 39.1676C141.075 39.5623 141.384 39.8663 141.779 40.0796C142.173 40.2929 142.616 40.3996 143.107 40.3996C143.533 40.3996 143.928 40.3036 144.291 40.1116C144.664 39.9196 144.979 39.6209 145.235 39.2156L146.771 40.1116C146.44 40.7516 145.955 41.2476 145.315 41.5996C144.685 41.9409 143.955 42.1116 143.123 42.1116ZM151.825 42.1116C150.886 42.1116 150.161 41.8716 149.649 41.3916C149.137 40.9009 148.881 40.1809 148.881 39.2316V31.5676H150.881V39.1836C150.881 39.5889 150.982 39.9036 151.185 40.1276C151.398 40.3516 151.692 40.4636 152.065 40.4636C152.513 40.4636 152.886 40.3463 153.185 40.1116L153.745 41.5356C153.51 41.7276 153.222 41.8716 152.881 41.9676C152.54 42.0636 152.188 42.1116 151.825 42.1116ZM147.473 35.1196V33.5196H153.169V35.1196H147.473ZM158.03 42.1116C157.315 42.1116 156.627 42.0209 155.966 41.8396C155.315 41.6476 154.798 41.4183 154.414 41.1516L155.182 39.6316C155.566 39.8769 156.025 40.0796 156.558 40.2396C157.091 40.3996 157.625 40.4796 158.158 40.4796C158.787 40.4796 159.241 40.3943 159.518 40.2236C159.806 40.0529 159.95 39.8236 159.95 39.5356C159.95 39.3009 159.854 39.1249 159.662 39.0076C159.47 38.8796 159.219 38.7836 158.91 38.7196C158.601 38.6556 158.254 38.5969 157.87 38.5436C157.497 38.4903 157.118 38.4209 156.734 38.3356C156.361 38.2396 156.019 38.1063 155.71 37.9356C155.401 37.7543 155.15 37.5143 154.958 37.2156C154.766 36.9169 154.67 36.5223 154.67 36.0316C154.67 35.4876 154.825 35.0183 155.134 34.6236C155.443 34.2183 155.875 33.9089 156.43 33.6956C156.995 33.4716 157.662 33.3596 158.43 33.3596C159.006 33.3596 159.587 33.4236 160.174 33.5516C160.761 33.6796 161.246 33.8609 161.63 34.0956L160.862 35.6156C160.457 35.3703 160.046 35.2049 159.63 35.1196C159.225 35.0236 158.819 34.9756 158.414 34.9756C157.806 34.9756 157.353 35.0663 157.054 35.2476C156.766 35.4289 156.622 35.6583 156.622 35.9356C156.622 36.1916 156.718 36.3836 156.91 36.5116C157.102 36.6396 157.353 36.7409 157.662 36.8156C157.971 36.8903 158.313 36.9543 158.686 37.0076C159.07 37.0503 159.449 37.1196 159.822 37.2156C160.195 37.3116 160.537 37.4449 160.846 37.6156C161.166 37.7756 161.422 38.0049 161.614 38.3036C161.806 38.6023 161.902 38.9916 161.902 39.4716C161.902 40.0049 161.742 40.4689 161.422 40.8636C161.113 41.2583 160.67 41.5676 160.094 41.7916C159.518 42.0049 158.83 42.1116 158.03 42.1116Z" fill="black"/>
</svg>
