<svg width="143" height="55" viewBox="0 0 143 55" fill="none" xmlns="http://www.w3.org/2000/svg">
<path d="M6.7505 34.0986C6.7505 34.9908 6.3949 35.8464 5.7619 36.4773C5.129 37.1082 4.2704 37.4626 3.3753 37.4626C2.4801 37.4626 1.6216 37.1082 0.988602 36.4773C0.355602 35.8464 0 34.9908 0 34.0986V20.6428C0.0107 19.7577 0.371099 18.9124 1.0029 18.2903C1.6347 17.6682 2.4871 17.3193 3.3753 17.3193C4.2634 17.3193 5.1158 17.6682 5.7476 18.2903C6.3795 18.9124 6.7398 19.7577 6.7505 20.6428V34.0986ZM21.0745 51.6364C21.0745 52.5286 20.7189 53.3842 20.0859 54.0151C19.4529 54.6459 18.5944 55.0004 17.6992 55.0004C16.8041 55.0004 15.9456 54.6459 15.3126 54.0151C14.6796 53.3842 14.324 52.5286 14.324 51.6364V38.1806C14.3347 37.2954 14.6951 36.4502 15.3269 35.8281C15.9587 35.2059 16.8111 34.8571 17.6992 34.8571C18.5874 34.8571 19.4398 35.2059 20.0716 35.8281C20.7034 36.4502 21.0638 37.2954 21.0745 38.1806V51.6364ZM32.9906 51.6364C32.9906 52.5286 32.635 53.3842 32.002 54.0151C31.369 54.6459 30.5105 55.0004 29.6153 55.0004C28.7201 55.0004 27.8616 54.6459 27.2286 54.0151C26.5956 53.3842 26.24 52.5286 26.24 51.6364V38.1806C26.2508 37.2954 26.6111 36.4502 27.2429 35.8281C27.8748 35.2059 28.7271 34.8571 29.6153 34.8571C30.5035 34.8571 31.3559 35.2059 31.9877 35.8281C32.6195 36.4502 32.9798 37.2954 32.9906 38.1806V51.6364ZM47.3763 34.0986C47.3763 34.9908 47.0207 35.8464 46.3877 36.4773C45.7547 37.1082 44.8962 37.4626 44.001 37.4626C43.1058 37.4626 42.2473 37.1082 41.6143 36.4773C40.9814 35.8464 40.6258 34.9908 40.6258 34.0986V20.6428C40.6365 19.7577 40.9968 18.9124 41.6287 18.2903C42.2605 17.6682 43.1129 17.3193 44.001 17.3193C44.8892 17.3193 45.7416 17.6682 46.3734 18.2903C47.0052 18.9124 47.3656 19.7577 47.3763 20.6428V34.0986Z" fill="#96C03A"/>
<path d="M38.6108 17.2377V41.4241C38.6108 41.7926 38.538 42.1575 38.3965 42.4979C38.255 42.8383 38.0477 43.1477 37.7862 43.4082C37.5248 43.6688 37.2144 43.8755 36.8728 44.0165C36.5313 44.1575 36.1651 44.2301 35.7954 44.2301H11.6264C11.2567 44.2301 10.8905 44.1576 10.5489 44.0166C10.2072 43.8756 9.89685 43.669 9.63535 43.4084C9.37385 43.1478 9.16644 42.8385 9.02494 42.498C8.88344 42.1575 8.81055 41.7926 8.81055 41.4241V17.2377H38.6108ZM23.7114 3.28906C15.6179 3.28906 9.03825 8.66226 8.84175 15.3503H38.5812C38.3836 8.66176 31.804 3.28906 23.7114 3.28906ZM17.3096 11.0773C16.3884 11.0773 15.6406 10.3325 15.6406 9.41436C15.6512 8.98026 15.8317 8.56746 16.1435 8.26406C16.4554 7.96076 16.8739 7.79096 17.3096 7.79096C17.7453 7.79096 18.1638 7.96076 18.4757 8.26406C18.7875 8.56746 18.968 8.98026 18.9786 9.41436C18.9783 9.85546 18.8024 10.2784 18.4894 10.5902C18.1765 10.902 17.7521 11.0772 17.3096 11.0773ZM30.1207 11.0773C29.9015 11.0773 29.6845 11.0342 29.482 10.9505C29.2795 10.8669 29.0956 10.7443 28.9407 10.5898C28.7857 10.4353 28.6628 10.2519 28.579 10.0501C28.4952 9.84816 28.4521 9.63186 28.4522 9.41346C28.4522 9.19496 28.4955 8.97866 28.5794 8.77686C28.6633 8.57516 28.7863 8.39176 28.9414 8.23736C29.0964 8.08296 29.2804 7.96046 29.4829 7.87696C29.6854 7.79346 29.9025 7.75046 30.1217 7.75056C30.5643 7.75066 30.9888 7.92606 31.3017 8.23806C31.6146 8.55006 31.7903 8.97326 31.7901 9.41436C31.79 9.85556 31.6141 10.2786 31.301 10.5905C30.9879 10.9024 30.5633 11.0775 30.1207 11.0773Z" fill="#96C03A"/>
<path d="M18.1654 5.51431C18.2253 5.61301 18.2446 5.73101 18.2193 5.84351C18.194 5.95601 18.126 6.05451 18.0296 6.11821C17.9332 6.18201 17.8158 6.20611 17.7019 6.18561C17.588 6.16511 17.4865 6.10151 17.4186 6.00811L13.885 0.693511C13.8194 0.594711 13.7958 0.47391 13.8196 0.35781C13.8433 0.24161 13.9123 0.13961 14.0115 0.0742099C14.1106 0.00880993 14.2318 -0.014689 14.3483 0.00901103C14.4649 0.032611 14.5672 0.101409 14.6328 0.200209L18.1654 5.51431ZM29.2453 5.51431C29.1796 5.61311 29.1559 5.73381 29.1795 5.85001C29.2032 5.96611 29.2721 6.06821 29.3712 6.13361C29.4703 6.19911 29.5915 6.22271 29.708 6.19911C29.8245 6.17561 29.9269 6.10691 29.9926 6.00811L33.5262 0.693511C33.5918 0.594711 33.6153 0.47391 33.5916 0.35781C33.5679 0.24161 33.4989 0.13961 33.3997 0.0742099C33.3005 0.00880993 33.1794 -0.014689 33.0628 0.00901103C32.9463 0.032611 32.844 0.101409 32.7783 0.200209L29.2453 5.51431Z" fill="#96C03A"/>
<path d="M72.295 33.0207V24.3945H68.169C66.454 24.3975 65.0391 25.8074 65.0391 27.5781C65.0391 29.3478 66.454 30.7577 68.169 30.7611H70.409V33.0162H68.169C65.1769 33.0123 62.7818 30.5681 62.7754 27.5776C62.7818 24.5855 65.1769 22.1419 68.169 22.1389H74.559V33.0202L72.295 33.0207ZM85.51 33.029V27.2005C85.507 25.574 84.142 24.2163 82.409 24.2153C80.675 24.2168 79.312 25.5745 79.308 27.2005V33.029H77.075V27.2005C77.079 24.299 79.485 21.9947 82.409 21.9883C85.334 21.9947 87.74 24.299 87.744 27.2005L87.745 33.029H85.51ZM90.332 30.7567H95.098C96.769 30.7542 98.165 29.3586 98.167 27.58C98.165 25.8005 96.769 24.4054 95.098 24.4019H90.332V22.1158H95.098C98.085 22.1202 100.456 24.5855 100.462 27.58C100.456 30.5731 98.085 33.0384 95.098 33.0428L90.332 33.0438V30.7567ZM132.87 30.7572H137.635C139.307 30.7542 140.704 29.3586 140.706 27.5795C140.704 25.8005 139.307 24.4049 137.635 24.4024H132.87V22.1163H137.635C140.623 22.1202 142.994 24.586 143 27.5795C142.993 30.5731 140.623 33.0384 137.635 33.0428L132.87 33.0438V30.7572ZM114.422 27.5712C114.423 24.5127 116.913 22.037 119.983 22.037C123.053 22.037 125.543 24.5127 125.544 27.5712C125.543 30.6292 123.053 33.1053 119.983 33.1053C116.913 33.1053 114.423 30.6292 114.422 27.5712ZM116.702 27.5712C116.704 28.4373 117.051 29.2671 117.666 29.8787C118.281 30.4903 119.115 30.8339 119.984 30.834C120.853 30.8337 121.686 30.4901 122.301 29.8785C122.916 29.2669 123.263 28.4371 123.265 27.5712C123.25 26.7136 122.898 25.8961 122.284 25.2949C121.67 24.6937 120.844 24.3568 119.983 24.3568C119.123 24.3568 118.297 24.6937 117.683 25.2949C117.069 25.8961 116.717 26.7136 116.702 27.5712ZM127.886 22.1173H130.181V33.0403H127.886V22.1173ZM110.671 29.2449C111.249 28.909 111.728 28.4282 112.061 27.8505C112.394 27.2728 112.569 26.6183 112.569 25.9521C112.569 24.9392 112.165 23.9679 111.447 23.2517C110.728 22.5355 109.753 22.1329 108.737 22.1325H103.136V24.4182H108.737C109.145 24.4191 109.536 24.581 109.824 24.8685C110.113 25.156 110.275 25.5456 110.276 25.9521C110.275 26.3585 110.113 26.748 109.824 27.0354C109.536 27.3227 109.145 27.4844 108.737 27.485H103.149V29.7721L107.758 29.7712C108.772 30.3776 109.27 31.0742 109.553 31.6974C109.745 32.1207 109.855 32.5764 109.877 33.0403H112.17C112.162 32.5948 112.086 31.7481 111.647 30.7655C111.399 30.2135 111.07 29.7011 110.671 29.2449Z" fill="black"/>
</svg>
