<svg width="160" height="60" viewBox="0 0 160 60" fill="none" xmlns="http://www.w3.org/2000/svg">
<path d="M16.0851 59.996C12.4849 58.4409 9.11601 54.4885 9.10801 50.4445C9.09821 46.0354 11.8944 42.2921 15.3721 39.8321C14.954 41.4106 14.726 42.8544 15.7618 44.2663C16.7247 45.579 18.4112 46.2168 20.0036 45.8706C23.7244 45.0567 23.8952 40.9692 21.6893 38.5878C19.5083 36.2295 17.3985 33.5657 18.2286 30.1457C18.6442 28.4313 19.6976 26.8255 21.0321 25.6776C20.0063 28.3713 22.9212 31.0278 24.8417 32.351C28.1731 34.6467 31.8284 36.3817 34.8915 39.0729C38.1136 41.9012 40.493 45.7254 40.0125 50.1609C39.4918 54.9684 35.6689 58.312 31.3809 60C40.4422 58.0015 49.8049 50.9738 49.9967 40.9317C50.1556 32.6701 44.4841 26.312 37.4584 22.6719L37.0914 22.4717C37.2842 22.9392 37.3473 23.3369 37.34 23.6929C37.4029 23.4304 37.4456 23.1605 37.4577 22.8822C37.456 23.2129 37.4127 23.542 37.329 23.862L37.34 23.6929C37.2357 24.1315 37.06 24.55 36.8199 24.9317L36.9229 24.8209C35.5213 27.144 31.7268 27.6485 29.8523 25.243C26.8389 21.3736 29.9154 17.2016 30.3458 13.1041C30.8846 7.9687 27.6618 2.9833 23.6659 0C25.8667 3.5577 22.9672 8.2644 20.6474 10.8958C18.3981 13.4465 15.6625 15.5762 13.1793 17.8938C10.5119 20.383 7.94751 23.005 5.75501 25.9266C1.36991 31.7742 -1.31469 39.1287 0.658112 46.4238C2.62971 53.714 8.94891 58.3549 16.0851 59.996Z" fill="#EE4323"/>
<path d="M65.1188 32.9129C63.0859 32.9129 62.4949 31.7293 62.4949 29.9559C62.4949 29.3648 62.5691 28.698 62.6605 27.9957C63.1059 24.9289 64.193 23.1742 66.8168 23.1742C68.5914 23.1742 69.4566 23.968 69.4566 25.4094V26.1121H71.2172C71.2367 26.1121 71.2367 25.4652 71.2367 25.318C71.2367 23.2117 69.9613 21.2141 66.8195 21.2141C62.5504 21.2141 60.7949 23.5332 60.148 28.0797C60.0555 28.6898 60 29.2594 60 29.8672C60 32.5469 61.0543 34.9844 64.8238 34.9844C67.6879 34.9844 69.3891 33.5879 70.3863 31.8691L68.7043 30.7363C67.6145 32.4555 66.4309 32.9129 65.1188 32.9129ZM76.67 24.4488C73.25 24.4488 71.7727 26.2035 71.2738 29.6957C71.2153 30.0999 71.1839 30.5076 71.1801 30.916C71.1801 33.1699 72.2336 34.9637 75.153 34.9637C78.572 34.9637 80.07 33.1336 80.568 29.6957C80.624 29.2527 80.661 28.8461 80.661 28.4398C80.662 26.1488 79.572 24.4488 76.67 24.4488ZM78.093 29.6969C77.723 32.2293 76.929 33.0055 75.431 33.0055C74.23 33.0055 73.6395 32.5062 73.6395 31.0094C73.6395 30.6394 73.677 30.1965 73.7504 29.6969C74.12 27.184 74.859 26.4078 76.375 26.4078C77.595 26.4078 78.204 26.9066 78.204 28.4219C78.204 28.7914 78.166 29.2168 78.093 29.6969ZM89.257 21.3976L88.684 24.7902C88.648 25.0851 88.666 24.9871 88.778 25.2645C88.242 24.8582 87.28 24.5894 86.634 24.5894C83.566 24.5894 81.848 25.9781 81.294 29.859C81.229 30.2686 81.198 30.6829 81.201 31.0977C81.201 33.9262 82.864 34.9805 85.1 34.9805C86.043 34.9805 86.967 35 87.687 34.391L87.871 35.5406H89.645L91.715 21.3976H89.257ZM87.501 32.4687C86.67 32.9664 85.858 33.0789 85.359 33.0789C84.01 33.0789 83.64 32.3762 83.64 31.2496C83.64 30.8242 83.696 30.3265 83.77 29.789C84.195 26.8512 85.138 26.3328 86.357 26.3328C87.151 26.3328 87.761 26.4629 88.335 26.7777L87.501 32.4687ZM97.112 24.4488C93.729 24.4488 92.141 26.0555 91.604 29.6957C91.548 30.1398 91.511 30.5652 91.511 30.9715C91.511 33.4664 92.787 34.9637 95.595 34.9637C97.775 34.9637 99.403 34.0574 100.271 32.3941L98.404 31.6363C97.869 32.4488 97.148 33.0035 95.873 33.0035C94.506 33.0035 93.951 32.6355 93.951 31.4156C93.951 31.175 93.97 30.8254 94.007 30.8254H100.677C100.771 29.8824 100.88 29.216 100.88 28.6633C100.88 26.8164 100.179 24.4488 97.112 24.4488ZM98.386 28.9406H94.321C94.728 27.9976 95.411 26.5383 96.816 26.5383C97.905 26.5383 98.442 27.1754 98.442 28.2656C98.441 28.4504 98.424 28.9406 98.386 28.9406ZM107.992 24.2262L108.214 22.3406H103.002L102.781 24.2262H104.148L102.671 33.6547H101.302L101.081 35.5406H106.292L106.515 33.6547H105.146L106.624 24.2262H107.992ZM118.582 27.0547L119.248 25.1691H117.455L116.163 25.4359C115.442 24.975 114.462 24.6289 113.539 24.6289C110.895 24.6289 108.642 25.9055 108.642 28.8074C108.642 29.6215 108.937 30.2785 109.288 30.7227C108.734 31.0176 108.254 31.5117 108.254 32.1781C108.254 32.4734 108.364 32.7758 108.586 33.0523C107.477 33.7187 106.795 34.823 106.795 36.1156C106.795 38.6117 109.4 39.1441 111.396 39.1441C113.909 39.1441 116.903 38.5699 116.903 35.3726C116.903 34.2828 116.22 33.4312 114.242 33.0617L110.676 32.3953C110.27 32.3207 110.177 32.1914 110.177 32.0066C110.177 31.7293 110.345 31.5824 110.621 31.5824L110.861 31.6191C111.342 31.7297 111.896 31.7859 112.469 31.7859C115.038 31.7859 117.329 30.6766 117.329 27.7937C117.329 27.3867 117.256 27.1113 117.071 26.6672C117.385 26.8156 117.792 27.0559 117.957 27.0559H118.582V27.0547ZM113.501 34.7043C114.203 34.8344 114.443 35.0926 114.443 35.5547C114.443 37.0519 112.835 37.2367 111.671 37.2367C109.897 37.2367 109.232 36.8125 109.232 35.8687C109.232 35.0367 109.471 34.6496 110.027 34.0574L113.501 34.7043ZM112.742 29.8637C111.67 29.8637 111.079 29.4762 111.079 28.5512C111.079 27.184 111.874 26.3891 113.26 26.3891C114.369 26.3891 114.905 26.8512 114.905 27.7555C114.905 29.1234 114.128 29.8637 112.742 29.8637ZM125.147 24.4488C124.112 24.4488 123.189 24.9566 122.043 25.8613L121.877 25.1691H119.843L118.42 35.5402H120.878L121.95 27.6754C122.671 27.232 123.558 26.5883 124.316 26.5883C125.239 26.5883 125.573 27.034 125.573 27.8836C125.573 28.0871 125.553 28.6898 125.516 28.9113L124.612 35.5402H127.07L127.974 28.8574C128.012 28.5449 128.048 28.0297 128.048 27.7348C128.05 25.9769 127.217 24.4488 125.147 24.4488ZM132.718 32.9422L132.736 32.6883L133.807 25.1691H129.723L129.466 27.0547H131.257C131.109 27.0547 131.017 27.2199 130.999 27.3687L130.259 32.3766C130.223 32.6176 130.205 33.1191 130.205 33.3211C130.205 34.6145 130.906 35.5406 132.347 35.5406H133.604L133.881 33.6547H133.087C132.809 33.6547 132.718 33.1637 132.718 32.9422ZM134.306 21.3976H131.904C131.756 21.3976 131.756 20.8535 131.738 21.0383L131.404 23.6953C131.385 23.8625 131.385 24.2266 131.533 24.2266H133.937C134.085 24.2266 134.085 23.5805 134.103 23.4125L134.436 21.3617C134.455 21.1769 134.455 21.3976 134.306 21.3976ZM139.318 33.0051C138.709 33.0051 138.413 32.7461 138.413 32.1926L138.432 32.1547L139.208 27.0547H142.017L142.866 25.1691H139.466L140.039 21.0195L137.453 21.8465L136.99 25.1691H135.493L135.235 27.0547H136.972C136.806 27.9976 136.639 27.3859 136.621 27.5715L135.955 32.0433C135.919 32.2473 135.919 32.3949 135.919 32.5789C135.919 34.3348 137.212 34.9918 138.766 34.9918C140.207 34.9918 141.371 34.5711 142.277 33.8121L141.131 32.4019C140.557 32.7523 140.169 33.0051 139.318 33.0051ZM148.337 24.4488C144.955 24.4488 143.366 26.0555 142.83 29.6957C142.774 30.1398 142.737 30.5652 142.737 30.9715C142.737 33.4664 144.012 34.9637 146.821 34.9637C149.002 34.9637 150.629 34.0574 151.496 32.3941L149.63 31.6363C149.095 32.4488 148.374 33.0035 147.098 33.0035C145.732 33.0035 145.176 32.6355 145.176 31.4156C145.176 31.175 145.196 30.8254 145.233 30.8254H151.904C151.996 29.8824 152.107 29.216 152.107 28.6633C152.107 26.8164 151.405 24.4488 148.337 24.4488ZM149.613 28.9406H145.547C145.953 27.9976 146.636 26.5383 148.042 26.5383C149.132 26.5383 149.668 27.1754 149.668 28.2656C149.667 28.4504 149.649 28.9406 149.613 28.9406ZM158.908 24.4484C158.021 24.4484 157.189 24.957 156.357 25.75L156.21 25.1691H154.178L152.754 35.5402H155.231L156.321 27.509C156.968 27.1219 157.707 26.791 158.409 26.791C158.854 26.791 159.278 26.7203 159.684 26.7754L160 24.6328C159.629 24.559 159.259 24.4484 158.908 24.4484Z" fill="#EE4323"/>
</svg>
