<svg width="138" height="58" viewBox="0 0 138 58" fill="none" xmlns="http://www.w3.org/2000/svg">
<path d="M4.1867 52.0012L0 0L50 0.1045L45.573 52.0012L25.1887 58L4.1867 52.0012Z" fill="#1B73BA"/>
<path d="M25.1875 52.9774V4.95215L45.7778 5.02185L42.1061 47.9902L25.1875 52.9774Z" fill="#1C88C7"/>
<path d="M40.6668 11.0908H8.99219L9.85029 17.3683H24.8809L10.0906 23.8207L10.9482 29.8891H32.7398L31.9503 38.3639L24.572 39.829L17.8805 38.0852L17.3656 33.2721H11.2228L12.0462 43.282L25.224 47.0137L37.8531 42.9333L39.466 23.367H26.116L40.6664 17.2289L40.6668 11.0908Z" fill="white"/>
<path d="M80.0841 42.5039C78.0921 42.5039 76.2441 42.1919 74.5401 41.5679C72.8601 40.9199 71.3961 40.0079 70.1481 38.8319C68.9241 37.6559 67.9641 36.2759 67.2681 34.6919C66.5721 33.0839 66.2241 31.3199 66.2241 29.3999C66.2241 27.4799 66.5721 25.7279 67.2681 24.1439C67.9641 22.5359 68.9241 21.1439 70.1481 19.9679C71.3961 18.7919 72.8601 17.8919 74.5401 17.2679C76.2441 16.6199 78.0921 16.2959 80.0841 16.2959C82.4121 16.2959 84.4881 16.7039 86.3121 17.5199C88.1601 18.3359 89.6961 19.5119 90.9201 21.0479L86.3841 25.1519C85.5681 24.1919 84.6681 23.4599 83.6841 22.9559C82.7241 22.4519 81.6441 22.1999 80.4441 22.1999C79.4121 22.1999 78.4641 22.3679 77.6001 22.7039C76.7361 23.0399 75.9921 23.5319 75.3681 24.1799C74.7681 24.8039 74.2881 25.5599 73.9281 26.4479C73.5921 27.3359 73.4241 28.3199 73.4241 29.3999C73.4241 30.4799 73.5921 31.4639 73.9281 32.3519C74.2881 33.2399 74.7681 34.0079 75.3681 34.6559C75.9921 35.2799 76.7361 35.7599 77.6001 36.0959C78.4641 36.4319 79.4121 36.5999 80.4441 36.5999C81.6441 36.5999 82.7241 36.3479 83.6841 35.8439C84.6681 35.3399 85.5681 34.6079 86.3841 33.6479L90.9201 37.7519C89.6961 39.2639 88.1601 40.4399 86.3121 41.2799C84.4881 42.0959 82.4121 42.5039 80.0841 42.5039ZM102.708 42.5039C100.644 42.5039 98.6521 42.2519 96.7321 41.7479C94.8361 41.2199 93.2881 40.5479 92.0881 39.7319L94.4281 34.4759C95.5561 35.1959 96.8521 35.7959 98.3161 36.2759C99.8041 36.7319 101.28 36.9599 102.744 36.9599C103.728 36.9599 104.52 36.8759 105.12 36.7079C105.72 36.5159 106.152 36.2759 106.416 35.9879C106.704 35.6759 106.848 35.3159 106.848 34.9079C106.848 34.3319 106.584 33.8759 106.056 33.5399C105.528 33.2039 104.844 32.9279 104.004 32.7119C103.164 32.4959 102.228 32.2799 101.196 32.0639C100.188 31.8479 99.1681 31.5719 98.1361 31.2359C97.1281 30.8999 96.2041 30.4679 95.3641 29.9399C94.5241 29.3879 93.8401 28.6799 93.3121 27.8159C92.7841 26.9279 92.5201 25.8119 92.5201 24.4679C92.5201 22.9559 92.9281 21.5879 93.7441 20.3639C94.5841 19.1399 95.8321 18.1559 97.4881 17.4119C99.1441 16.6679 101.208 16.2959 103.68 16.2959C105.336 16.2959 106.956 16.4879 108.54 16.8719C110.148 17.2319 111.576 17.7719 112.824 18.4919L110.628 23.7839C109.428 23.1359 108.24 22.6559 107.064 22.3439C105.888 22.0079 104.748 21.8399 103.644 21.8399C102.66 21.8399 101.868 21.9479 101.268 22.1639C100.668 22.3559 100.236 22.6199 99.9721 22.9559C99.7081 23.2919 99.5761 23.6759 99.5761 24.1079C99.5761 24.6599 99.8281 25.1039 100.332 25.4399C100.86 25.7519 101.544 26.0159 102.384 26.2319C103.248 26.4239 104.184 26.6279 105.192 26.8439C106.224 27.0599 107.244 27.3359 108.252 27.6719C109.284 27.9839 110.22 28.4159 111.06 28.9679C111.9 29.4959 112.572 30.2039 113.076 31.0919C113.604 31.9559 113.868 33.0479 113.868 34.3679C113.868 35.8319 113.448 37.1879 112.608 38.4359C111.792 39.6599 110.556 40.6439 108.9 41.3879C107.268 42.1319 105.204 42.5039 102.708 42.5039ZM126.017 42.5039C123.953 42.5039 121.961 42.2519 120.041 41.7479C118.145 41.2199 116.597 40.5479 115.397 39.7319L117.737 34.4759C118.865 35.1959 120.161 35.7959 121.625 36.2759C123.113 36.7319 124.589 36.9599 126.053 36.9599C127.037 36.9599 127.829 36.8759 128.429 36.7079C129.029 36.5159 129.461 36.2759 129.725 35.9879C130.013 35.6759 130.157 35.3159 130.157 34.9079C130.157 34.3319 129.893 33.8759 129.365 33.5399C128.837 33.2039 128.153 32.9279 127.313 32.7119C126.473 32.4959 125.537 32.2799 124.505 32.0639C123.497 31.8479 122.477 31.5719 121.445 31.2359C120.437 30.8999 119.513 30.4679 118.673 29.9399C117.833 29.3879 117.149 28.6799 116.621 27.8159C116.093 26.9279 115.829 25.8119 115.829 24.4679C115.829 22.9559 116.237 21.5879 117.053 20.3639C117.893 19.1399 119.141 18.1559 120.797 17.4119C122.453 16.6679 124.517 16.2959 126.989 16.2959C128.645 16.2959 130.265 16.4879 131.849 16.8719C133.457 17.2319 134.885 17.7719 136.133 18.4919L133.937 23.7839C132.737 23.1359 131.549 22.6559 130.373 22.3439C129.197 22.0079 128.057 21.8399 126.953 21.8399C125.969 21.8399 125.177 21.9479 124.577 22.1639C123.977 22.3559 123.545 22.6199 123.281 22.9559C123.017 23.2919 122.885 23.6759 122.885 24.1079C122.885 24.6599 123.137 25.1039 123.641 25.4399C124.169 25.7519 124.853 26.0159 125.693 26.2319C126.557 26.4239 127.493 26.6279 128.501 26.8439C129.533 27.0599 130.553 27.3359 131.561 27.6719C132.593 27.9839 133.529 28.4159 134.369 28.9679C135.209 29.4959 135.881 30.2039 136.385 31.0919C136.913 31.9559 137.177 33.0479 137.177 34.3679C137.177 35.8319 136.757 37.1879 135.917 38.4359C135.101 39.6599 133.865 40.6439 132.209 41.3879C130.577 42.1319 128.513 42.5039 126.017 42.5039Z" fill="black"/>
</svg>
