<svg width="155" height="60" viewBox="0 0 155 60" fill="none" xmlns="http://www.w3.org/2000/svg">
<path d="M19.9883 30.0115C19.9883 24.4992 24.4578 20.0078 29.9936 20.0078C35.5068 20.0078 39.999 24.4766 39.999 30.0115C39.999 35.5238 35.5295 40.0153 29.9936 40.0153C24.4805 40.0153 19.9883 35.5238 19.9883 30.0115Z" fill="#1ABCFE"/>
<path d="M0 49.9959C0 44.4837 4.4695 39.9922 10.0054 39.9922H20.0107V49.9959C20.0107 55.5082 15.5412 59.9997 10.0054 59.9997C4.4695 59.9997 0 55.5309 0 49.9959Z" fill="#0ACF83"/>
<path d="M19.9883 0.0226994V20.0075H29.9936C35.5068 20.0075 39.999 15.5387 39.999 10.0037C39.999 4.4915 35.5295 0 29.9936 0H19.9883V0.0226994Z" fill="#FF7262"/>
<path d="M0 10.0263C0 15.5386 4.4695 20.03 10.0054 20.03H20.0107V0.0224609H10.0054C4.4695 0.0224609 0 4.49126 0 10.0263Z" fill="#F24E1E"/>
<path d="M0 30.0115C0 35.5238 4.4695 40.0153 10.0054 40.0153H20.0107V20.0078H10.0054C4.4695 20.0078 0 24.4992 0 30.0115Z" fill="#A259FF"/>
<path d="M55 12V40.1055L58.5969 40.1193V26.7416H67.287V23.2009H58.5969V15.5407H69.9092V12H55ZM76.403 17.7038C77.707 17.7038 78.75 16.6429 78.75 15.3479C78.75 14.0528 77.693 12.992 76.403 12.992C75.099 12.992 74.055 14.0528 74.055 15.3479C74.055 16.6429 75.112 17.7038 76.403 17.7038ZM74.577 21.2445V40.1055H78.174V21.2445H74.577Z" fill="black"/>
<path fill-rule="evenodd" clip-rule="evenodd" d="M91.532 20.6934C86.74 20.6934 83.404 24.7576 83.404 29.5797C83.404 34.4017 86.74 38.466 91.532 38.466C93.728 38.466 95.527 37.6118 96.845 36.2341V38.7277C96.845 41.8552 94.401 44.4591 91.202 44.4591C90.049 44.4591 88.909 44.0182 88.003 43.3845L86.191 46.5257C87.633 47.4625 89.349 47.9998 91.188 47.9998C96.295 47.9998 100.428 43.8529 100.428 38.7277V21.2444H96.845V22.9253C95.527 21.5475 93.728 20.6934 91.532 20.6934ZM87.015 29.5797C87.015 26.59 89.294 24.2341 91.93 24.2341C94.566 24.2341 96.845 26.59 96.845 29.5797C96.845 32.5693 94.566 34.9252 91.93 34.9252C89.294 34.9252 87.015 32.5693 87.015 29.5797Z" fill="black"/>
<path d="M113.429 24.2341C111.301 24.2341 109.571 26.0527 109.571 28.1882V40.1055H105.975V21.2444H109.571V22.9666C110.629 21.6027 112.18 20.6934 114.212 20.6934C116.738 20.6934 118.673 21.9471 119.799 23.8759C121.049 22.016 123.08 20.6934 125.538 20.6934C129.643 20.6934 132.196 24.0137 132.21 28.1193V40.1055H128.613V28.1744C128.613 26.0389 126.883 24.2203 124.755 24.2203C122.627 24.2203 120.898 26.0389 120.898 28.1744V40.1055H117.301V28.1744C117.287 26.0389 115.557 24.2341 113.429 24.2341Z" fill="black"/>
<path fill-rule="evenodd" clip-rule="evenodd" d="M151.404 23.3799C149.798 21.7129 147.601 20.6934 145.061 20.6934C139.707 20.6934 135.891 25.2536 135.891 30.6818C135.891 36.1101 139.693 40.6703 145.061 40.6703C147.601 40.6703 149.798 39.637 151.404 37.9838V40.1055H155.001V21.2444H151.404V23.3799ZM139.501 30.6818C139.501 27.086 142.247 24.2341 145.459 24.2341C148.658 24.2341 151.418 27.0722 151.418 30.6818C151.418 34.2777 148.672 37.1296 145.459 37.1296C142.247 37.1158 139.501 34.2777 139.501 30.6818Z" fill="black"/>
</svg>
