<svg width="156" height="60" viewBox="0 0 156 60" fill="none" xmlns="http://www.w3.org/2000/svg">
<path d="M26.264 21.6714L20.7233 27.2587L15.5801 16.0184L18.237 9.55535C18.9085 8.26615 20.0068 8.24905 20.6783 9.55535L26.264 21.6714Z" fill="#FFA000"/>
<path d="M20.7254 27.2574L0 48.1351L15.5823 16.0195L20.7254 27.2574Z" fill="#F57F17"/>
<path d="M32.3391 13.1268C33.3318 12.1027 34.3537 12.4481 34.612 13.9027L40 47.8524L22.1291 59.4722C21.5025 59.8517 19.8405 60.0001 19.8405 60.0001C19.8405 60.0001 18.329 59.8006 17.7496 59.4552L0 48.1346L32.3391 13.1268Z" fill="#FFCA28"/>
<path d="M15.5823 16.0189L0 48.1345L6.9444 1.19311C7.2049 -0.261485 7.9663 -0.409886 8.6536 0.879314L15.5823 16.0189Z" fill="#FFA000"/>
<path d="M56.1121 28.9277H64.4881V31.5677H56.1121V28.9277ZM56.3761 37.9997H53.2561V21.1997H65.5201V23.8157H56.3761V37.9997ZM68.2494 37.9997V25.1837H71.2494V37.9997H68.2494ZM69.7614 23.0717C69.2014 23.0717 68.7374 22.8957 68.3694 22.5437C68.0174 22.1917 67.8414 21.7677 67.8414 21.2717C67.8414 20.7597 68.0174 20.3357 68.3694 19.9997C68.7374 19.6477 69.2014 19.4717 69.7614 19.4717C70.3214 19.4717 70.7774 19.6397 71.1294 19.9757C71.4974 20.2957 71.6814 20.7037 71.6814 21.1997C71.6814 21.7277 71.5054 22.1757 71.1534 22.5437C70.8014 22.8957 70.3374 23.0717 69.7614 23.0717ZM75.1871 37.9997V25.1837H78.0431V28.7117L77.7071 27.6797C78.0911 26.8157 78.6911 26.1597 79.5071 25.7117C80.3391 25.2637 81.3711 25.0397 82.6031 25.0397V27.8957C82.4751 27.8637 82.3551 27.8477 82.2431 27.8477C82.1311 27.8317 82.0191 27.8237 81.9071 27.8237C80.7711 27.8237 79.8671 28.1597 79.1951 28.8317C78.5231 29.4877 78.1871 30.4717 78.1871 31.7837V37.9997H75.1871ZM91.0551 38.1677C89.6311 38.1677 88.3831 37.8877 87.3111 37.3277C86.2551 36.7517 85.4311 35.9677 84.8391 34.9757C84.2631 33.9837 83.9751 32.8557 83.9751 31.5917C83.9751 30.3117 84.2551 29.1837 84.8151 28.2077C85.3911 27.2157 86.1751 26.4397 87.1671 25.8797C88.1751 25.3197 89.3191 25.0397 90.5991 25.0397C91.8471 25.0397 92.9591 25.3117 93.9351 25.8557C94.9111 26.3997 95.6791 27.1677 96.2391 28.1597C96.7991 29.1517 97.0791 30.3197 97.0791 31.6637C97.0791 31.7917 97.0711 31.9357 97.0551 32.0957C97.0551 32.2557 97.0471 32.4077 97.0311 32.5517H86.3511V30.5597H95.4471L94.2711 31.1837C94.2871 30.4477 94.1351 29.7997 93.8151 29.2397C93.4951 28.6797 93.0551 28.2397 92.4951 27.9197C91.9511 27.5997 91.3191 27.4397 90.5991 27.4397C89.8631 27.4397 89.2151 27.5997 88.6551 27.9197C88.1111 28.2397 87.6791 28.6877 87.3591 29.2637C87.0551 29.8237 86.9031 30.4877 86.9031 31.2557V31.7357C86.9031 32.5037 87.0791 33.1837 87.4311 33.7757C87.7831 34.3677 88.2791 34.8237 88.9191 35.1437C89.5591 35.4637 90.2951 35.6237 91.1271 35.6237C91.8471 35.6237 92.4951 35.5117 93.0711 35.2877C93.6471 35.0637 94.1591 34.7117 94.6071 34.2317L96.2151 36.0797C95.6391 36.7517 94.9111 37.2717 94.0311 37.6397C93.1671 37.9917 92.1751 38.1677 91.0551 38.1677ZM107.064 38.1677C105.976 38.1677 105.008 37.9277 104.16 37.4477C103.312 36.9677 102.64 36.2477 102.144 35.2877C101.664 34.3117 101.424 33.0797 101.424 31.5917C101.424 30.0877 101.672 28.8557 102.168 27.8957C102.68 26.9357 103.36 26.2237 104.208 25.7597C105.072 25.2797 106.024 25.0397 107.064 25.0397C108.328 25.0397 109.44 25.3117 110.4 25.8557C111.376 26.3997 112.144 27.1597 112.704 28.1357C113.28 29.1117 113.568 30.2637 113.568 31.5917C113.568 32.9197 113.28 34.0717 112.704 35.0477C112.144 36.0237 111.376 36.7917 110.4 37.3517C109.44 37.8957 108.328 38.1677 107.064 38.1677ZM99.9601 37.9997V20.1917H102.96V28.1597L102.72 31.5677L102.816 34.9757V37.9997H99.9601ZM106.728 35.5997C107.448 35.5997 108.088 35.4397 108.648 35.1197C109.224 34.7997 109.68 34.3357 110.016 33.7277C110.352 33.1197 110.52 32.4077 110.52 31.5917C110.52 30.7597 110.352 30.0477 110.016 29.4557C109.68 28.8477 109.224 28.3837 108.648 28.0637C108.088 27.7437 107.448 27.5837 106.728 27.5837C106.008 27.5837 105.36 27.7437 104.784 28.0637C104.208 28.3837 103.752 28.8477 103.416 29.4557C103.08 30.0477 102.912 30.7597 102.912 31.5917C102.912 32.4077 103.08 33.1197 103.416 33.7277C103.752 34.3357 104.208 34.7997 104.784 35.1197C105.36 35.4397 106.008 35.5997 106.728 35.5997ZM124.145 37.9997V35.4077L123.977 34.8557V30.3197C123.977 29.4397 123.713 28.7597 123.185 28.2797C122.657 27.7837 121.857 27.5357 120.785 27.5357C120.065 27.5357 119.353 27.6477 118.649 27.8717C117.961 28.0957 117.377 28.4077 116.897 28.8077L115.721 26.6237C116.409 26.0957 117.225 25.7037 118.169 25.4477C119.129 25.1757 120.121 25.0397 121.145 25.0397C123.001 25.0397 124.433 25.4877 125.441 26.3837C126.465 27.2637 126.977 28.6317 126.977 30.4877V37.9997H124.145ZM120.113 38.1677C119.153 38.1677 118.313 38.0077 117.593 37.6877C116.873 37.3517 116.313 36.8957 115.913 36.3197C115.529 35.7277 115.337 35.0637 115.337 34.3277C115.337 33.6077 115.505 32.9597 115.841 32.3837C116.193 31.8077 116.761 31.3517 117.545 31.0157C118.329 30.6797 119.369 30.5117 120.665 30.5117H124.385V32.5037H120.881C119.857 32.5037 119.169 32.6717 118.817 33.0077C118.465 33.3277 118.289 33.7277 118.289 34.2077C118.289 34.7517 118.505 35.1837 118.937 35.5037C119.369 35.8237 119.969 35.9837 120.737 35.9837C121.473 35.9837 122.129 35.8157 122.705 35.4797C123.297 35.1437 123.721 34.6477 123.977 33.9917L124.481 35.7917C124.193 36.5437 123.673 37.1277 122.921 37.5437C122.185 37.9597 121.249 38.1677 120.113 38.1677ZM134.787 38.1677C133.715 38.1677 132.683 38.0317 131.691 37.7597C130.715 37.4717 129.939 37.1277 129.363 36.7277L130.515 34.4477C131.091 34.8157 131.779 35.1197 132.579 35.3597C133.379 35.5997 134.179 35.7197 134.979 35.7197C135.923 35.7197 136.603 35.5917 137.019 35.3357C137.451 35.0797 137.667 34.7357 137.667 34.3037C137.667 33.9517 137.523 33.6877 137.235 33.5117C136.947 33.3197 136.571 33.1757 136.107 33.0797C135.643 32.9837 135.123 32.8957 134.547 32.8157C133.987 32.7357 133.419 32.6317 132.843 32.5037C132.283 32.3597 131.771 32.1597 131.307 31.9037C130.843 31.6317 130.467 31.2717 130.179 30.8237C129.891 30.3757 129.747 29.7837 129.747 29.0477C129.747 28.2317 129.979 27.5277 130.443 26.9357C130.907 26.3277 131.555 25.8637 132.387 25.5437C133.235 25.2077 134.235 25.0397 135.387 25.0397C136.251 25.0397 137.123 25.1357 138.003 25.3277C138.883 25.5197 139.611 25.7917 140.187 26.1437L139.035 28.4237C138.427 28.0557 137.811 27.8077 137.187 27.6797C136.579 27.5357 135.971 27.4637 135.363 27.4637C134.451 27.4637 133.771 27.5997 133.323 27.8717C132.891 28.1437 132.675 28.4877 132.675 28.9037C132.675 29.2877 132.819 29.5757 133.107 29.7677C133.395 29.9597 133.771 30.1117 134.235 30.2237C134.699 30.3357 135.211 30.4317 135.771 30.5117C136.347 30.5757 136.915 30.6797 137.475 30.8237C138.035 30.9677 138.547 31.1677 139.011 31.4237C139.491 31.6637 139.875 32.0077 140.163 32.4557C140.451 32.9037 140.595 33.4877 140.595 34.2077C140.595 35.0077 140.355 35.7037 139.875 36.2957C139.411 36.8877 138.747 37.3517 137.883 37.6877C137.019 38.0077 135.987 38.1677 134.787 38.1677ZM149.203 38.1677C147.779 38.1677 146.531 37.8877 145.459 37.3277C144.403 36.7517 143.579 35.9677 142.987 34.9757C142.411 33.9837 142.123 32.8557 142.123 31.5917C142.123 30.3117 142.403 29.1837 142.963 28.2077C143.539 27.2157 144.323 26.4397 145.315 25.8797C146.323 25.3197 147.467 25.0397 148.747 25.0397C149.995 25.0397 151.107 25.3117 152.083 25.8557C153.059 26.3997 153.827 27.1677 154.387 28.1597C154.947 29.1517 155.227 30.3197 155.227 31.6637C155.227 31.7917 155.219 31.9357 155.203 32.0957C155.203 32.2557 155.195 32.4077 155.179 32.5517H144.499V30.5597H153.595L152.419 31.1837C152.435 30.4477 152.283 29.7997 151.963 29.2397C151.643 28.6797 151.203 28.2397 150.643 27.9197C150.099 27.5997 149.467 27.4397 148.747 27.4397C148.011 27.4397 147.363 27.5997 146.803 27.9197C146.259 28.2397 145.827 28.6877 145.507 29.2637C145.203 29.8237 145.051 30.4877 145.051 31.2557V31.7357C145.051 32.5037 145.227 33.1837 145.579 33.7757C145.931 34.3677 146.427 34.8237 147.067 35.1437C147.707 35.4637 148.443 35.6237 149.275 35.6237C149.995 35.6237 150.643 35.5117 151.219 35.2877C151.795 35.0637 152.307 34.7117 152.755 34.2317L154.363 36.0797C153.787 36.7517 153.059 37.2717 152.179 37.6397C151.315 37.9917 150.323 38.1677 149.203 38.1677Z" fill="black"/>
</svg>
