<svg width="149" height="50" viewBox="0 0 149 50" fill="none" xmlns="http://www.w3.org/2000/svg">
<path fill-rule="evenodd" clip-rule="evenodd" d="M25.0899 49.9998L11.6758 36.5586L19.0895 28.9502L40.0003 49.9998H25.0899Z" fill="#02539A"/>
<path fill-rule="evenodd" clip-rule="evenodd" d="M11.5098 36.5691L24.8048 23.1592H39.7514L19.0685 44.0209L11.5098 36.5691Z" fill="#45D1FD" fill-opacity="0.85"/>
<path fill-rule="evenodd" clip-rule="evenodd" d="M0 24.8721L7.5484 32.4805L39.7506 0H24.7263L0 24.8721Z" fill="#45D1FD"/>
<path d="M64.5381 24.172H73.6121V27.032H64.5381V24.172ZM64.8241 34H61.4441V15.8H74.7301V18.634H64.8241V34ZM77.6871 34V14.708H80.9371V34H77.6871ZM91.0781 34.182C89.9001 34.182 88.8601 33.9653 87.9581 33.532C87.0571 33.0813 86.3551 32.4053 85.8521 31.504C85.3501 30.5853 85.0981 29.4327 85.0981 28.046V20.116H88.3481V27.604C88.3481 28.852 88.6261 29.788 89.1801 30.412C89.7521 31.0187 90.5581 31.322 91.5981 31.322C92.3611 31.322 93.0201 31.166 93.5741 30.854C94.1461 30.542 94.5881 30.074 94.9001 29.45C95.2301 28.826 95.3941 28.0547 95.3941 27.136V20.116H98.6441V34H95.5501V30.256L96.0961 31.4C95.6281 32.3013 94.9441 32.9947 94.0421 33.48C93.1411 33.948 92.1531 34.182 91.0781 34.182ZM108.126 34.182C106.6 34.182 105.422 33.792 104.59 33.012C103.758 32.2147 103.342 31.0447 103.342 29.502V17.048H106.592V29.424C106.592 30.0827 106.756 30.594 107.086 30.958C107.432 31.322 107.909 31.504 108.516 31.504C109.244 31.504 109.85 31.3133 110.336 30.932L111.246 33.246C110.864 33.558 110.396 33.792 109.842 33.948C109.287 34.104 108.715 34.182 108.126 34.182ZM101.054 22.82V20.22H110.31V22.82H101.054ZM118.815 34.182C117.29 34.182 116.111 33.792 115.279 33.012C114.447 32.2147 114.031 31.0447 114.031 29.502V17.048H117.281V29.424C117.281 30.0827 117.446 30.594 117.775 30.958C118.122 31.322 118.598 31.504 119.205 31.504C119.933 31.504 120.54 31.3133 121.025 30.932L121.935 33.246C121.554 33.558 121.086 33.792 120.531 33.948C119.976 34.104 119.404 34.182 118.815 34.182ZM111.743 22.82V20.22H120.999V22.82H111.743ZM130.678 34.182C129.135 34.182 127.783 33.8787 126.622 33.272C125.478 32.648 124.585 31.7987 123.944 30.724C123.32 29.6493 123.008 28.4273 123.008 27.058C123.008 25.6713 123.311 24.4493 123.918 23.392C124.542 22.3173 125.391 21.4767 126.466 20.87C127.558 20.2633 128.797 19.96 130.184 19.96C131.536 19.96 132.74 20.2547 133.798 20.844C134.855 21.4333 135.687 22.2653 136.294 23.34C136.9 24.4147 137.204 25.68 137.204 27.136C137.204 27.2747 137.195 27.4307 137.178 27.604C137.178 27.7773 137.169 27.942 137.152 28.098H125.582V25.94H135.436L134.162 26.616C134.179 25.8187 134.014 25.1167 133.668 24.51C133.321 23.9033 132.844 23.4267 132.238 23.08C131.648 22.7333 130.964 22.56 130.184 22.56C129.386 22.56 128.684 22.7333 128.078 23.08C127.488 23.4267 127.02 23.912 126.674 24.536C126.344 25.1427 126.18 25.862 126.18 26.694V27.214C126.18 28.046 126.37 28.7827 126.752 29.424C127.133 30.0653 127.67 30.5593 128.364 30.906C129.057 31.2527 129.854 31.426 130.756 31.426C131.536 31.426 132.238 31.3047 132.862 31.062C133.486 30.8193 134.04 30.438 134.526 29.918L136.268 31.92C135.644 32.648 134.855 33.2113 133.902 33.61C132.966 33.9913 131.891 34.182 130.678 34.182ZM140.325 34V20.116H143.419V23.938L143.055 22.82C143.471 21.884 144.121 21.1733 145.005 20.688C145.907 20.2027 147.025 19.96 148.359 19.96V23.054C148.221 23.0193 148.091 23.002 147.969 23.002C147.848 22.9847 147.727 22.976 147.605 22.976C146.375 22.976 145.395 23.34 144.667 24.068C143.939 24.7787 143.575 25.8447 143.575 27.266V34H140.325Z" fill="black"/>
</svg>
