<svg width="151" height="58" viewBox="0 0 151 58" fill="none" xmlns="http://www.w3.org/2000/svg">
<path d="M4.28544 52.0013L0 0L51.1792 0.1045L46.6478 52.0013L25.7828 58L4.28544 52.0013Z" fill="#E34F26"/>
<path d="M25.7817 52.9777V4.95215L46.8577 5.02185L43.0994 47.99L25.7817 52.9777Z" fill="#EF652A"/>
<path d="M41.0631 16.9503L41.6599 10.6025H9.23828L11.0296 30.0639H33.4052L32.5277 38.3645L25.3618 40.2823L18.0907 38.1899L17.7044 33.2374H11.2755L12.1539 43.3518L25.3614 47.0137L38.6742 43.3518L40.4655 23.6116H16.9663L16.299 16.9503H41.0631Z" fill="white"/>
<path d="M66.5332 19H73.0801V25.2743H79.068V19H85.6149V38H79.068V31.6377H73.0801V38H66.5338L66.5332 19ZM94.2242 25.3007H88.4604V19H106.537V25.3007H100.771V38H94.2242V25.3007ZM109.406 19H116.231L120.43 25.676L124.626 19H131.454V38H124.935V28.5826L120.431 35.3381H120.319L115.811 28.5826V38H109.406V19ZM134.712 19H141.261V31.7197H150.467V38H134.712V19Z" fill="black"/>
</svg>
