<svg width="164" height="50" viewBox="0 0 164 50" fill="none" xmlns="http://www.w3.org/2000/svg">
<path d="M0 0H50V50H0V0Z" fill="#FF5722"/>
<path d="M18.2402 25.4541H22.6721L20.4562 16.6773L18.2402 25.4541ZM3.7832 3.91504V46.1094H46.281V3.91504H3.7832ZM25.1044 35.0773L23.4829 29.3734H17.4834L15.8619 35.0773H11.7541L17.5375 14.911V12.7031H23.0505L29.6445 35.0773H25.1044ZM36.0226 35.0773H31.5906V18.0575H36.0226V35.0773ZM33.8334 16.0151C32.5648 16.0151 31.5362 14.9771 31.5362 13.6968C31.5362 12.4164 32.5646 11.3783 33.8334 11.3783C35.1023 11.3783 36.1306 12.4164 36.1306 13.6968C36.1306 14.9771 35.1022 16.0151 33.8334 16.0151Z" fill="#1C0802"/>
<path d="M59.9099 17.9996L65.5799 5.39956H67.8839L73.5719 17.9996H71.1239L66.2459 6.64155H67.1819L62.3219 17.9996H59.9099ZM62.5199 15.0836L63.1499 13.2476H69.9539L70.5839 15.0836H62.5199ZM78.9389 18.1256C78.0149 18.1256 77.1809 17.9216 76.4364 17.5136C75.7044 17.0936 75.1284 16.5176 74.7084 15.7856C74.2884 15.0536 74.0784 14.1896 74.0784 13.1936C74.0784 12.1976 74.2884 11.3336 74.7084 10.6016C75.1284 9.86955 75.7044 9.29955 76.4364 8.89155C77.1809 8.48355 78.0149 8.27955 78.9389 8.27955C79.7429 8.27955 80.4629 8.45955 81.0989 8.81955C81.7349 9.16755 82.2389 9.70155 82.6109 10.4216C82.9829 11.1416 83.1689 12.0656 83.1689 13.1936C83.1689 14.3096 82.9889 15.2336 82.6289 15.9656C82.2689 16.6856 81.7709 17.2256 81.1349 17.5856C80.4989 17.9456 79.7669 18.1256 78.9389 18.1256ZM79.2089 16.1996C79.7489 16.1996 80.2289 16.0796 80.6489 15.8396C81.0809 15.5996 81.4229 15.2516 81.6749 14.7956C81.9389 14.3396 82.0709 13.8056 82.0709 13.1936C82.0709 12.5696 81.9389 12.0356 81.6749 11.5916C81.4229 11.1356 81.0809 10.7876 80.6489 10.5476C80.2289 10.3076 79.7489 10.1876 79.2089 10.1876C78.6689 10.1876 78.1829 10.3076 77.7509 10.5476C77.3309 10.7876 76.9884 11.1356 76.7244 11.5916C76.4724 12.0356 76.3464 12.5696 76.3464 13.1936C76.3464 13.8056 76.4724 14.3396 76.7244 14.7956C76.9884 15.2516 77.3309 15.5996 77.7509 15.8396C78.1829 16.0796 78.6689 16.1996 79.2089 16.1996ZM82.1249 17.9996V15.7316L82.2149 13.1756L82.0349 10.6196V4.64355H84.2669V17.9996H82.1249ZM91.5479 18.1256C90.5639 18.1256 89.6879 17.9156 88.9199 17.4956C88.1519 17.0636 87.5459 16.4756 87.1019 15.7316C86.6579 14.9876 86.4359 14.1416 86.4359 13.1936C86.4359 12.2336 86.6579 11.3876 87.1019 10.6556C87.5459 9.91155 88.1519 9.32955 88.9199 8.90955C89.6879 8.48955 90.5639 8.27955 91.5479 8.27955C92.5439 8.27955 93.4259 8.48955 94.1939 8.90955C94.9739 9.32955 95.5799 9.90555 96.0119 10.6376C96.4559 11.3696 96.6779 12.2216 96.6779 13.1936C96.6779 14.1416 96.4559 14.9876 96.0119 15.7316C95.5799 16.4756 94.9739 17.0636 94.1939 17.4956C93.4259 17.9156 92.5439 18.1256 91.5479 18.1256ZM91.5479 16.1996C92.0999 16.1996 92.5919 16.0796 93.0239 15.8396C93.4559 15.5996 93.7919 15.2516 94.0319 14.7956C94.2839 14.3396 94.4099 13.8056 94.4099 13.1936C94.4099 12.5696 94.2839 12.0356 94.0319 11.5916C93.7919 11.1356 93.4559 10.7876 93.0239 10.5476C92.5919 10.3076 92.1059 10.1876 91.5659 10.1876C91.0139 10.1876 90.5219 10.3076 90.0899 10.5476C89.6699 10.7876 89.3339 11.1356 89.0819 11.5916C88.8299 12.0356 88.7039 12.5696 88.7039 13.1936C88.7039 13.8056 88.8299 14.3396 89.0819 14.7956C89.3339 15.2516 89.6699 15.5996 90.0899 15.8396C90.5219 16.0796 91.0079 16.1996 91.5479 16.1996ZM104.158 18.1256C103.342 18.1256 102.616 17.9456 101.98 17.5856C101.344 17.2256 100.84 16.6856 100.468 15.9656C100.108 15.2336 99.9279 14.3096 99.9279 13.1936C99.9279 12.0656 100.114 11.1416 100.486 10.4216C100.87 9.70155 101.38 9.16755 102.016 8.81955C102.664 8.45955 103.378 8.27955 104.158 8.27955C105.106 8.27955 105.94 8.48355 106.66 8.89155C107.392 9.29955 107.968 9.86955 108.388 10.6016C108.82 11.3336 109.036 12.1976 109.036 13.1936C109.036 14.1896 108.82 15.0536 108.388 15.7856C107.968 16.5176 107.392 17.0936 106.66 17.5136C105.94 17.9216 105.106 18.1256 104.158 18.1256ZM98.8299 17.9996V4.64355H101.08V10.6196L100.9 13.1756L100.972 15.7316V17.9996H98.8299ZM103.906 16.1996C104.446 16.1996 104.926 16.0796 105.346 15.8396C105.778 15.5996 106.12 15.2516 106.372 14.7956C106.624 14.3396 106.75 13.8056 106.75 13.1936C106.75 12.5696 106.624 12.0356 106.372 11.5916C106.12 11.1356 105.778 10.7876 105.346 10.5476C104.926 10.3076 104.446 10.1876 103.906 10.1876C103.366 10.1876 102.88 10.3076 102.448 10.5476C102.016 10.7876 101.674 11.1356 101.422 11.5916C101.17 12.0356 101.044 12.5696 101.044 13.1936C101.044 13.8056 101.17 14.3396 101.422 14.7956C101.674 15.2516 102.016 15.5996 102.448 15.8396C102.88 16.0796 103.366 16.1996 103.906 16.1996ZM115.687 18.1256C114.619 18.1256 113.683 17.9156 112.879 17.4956C112.087 17.0636 111.469 16.4756 111.025 15.7316C110.593 14.9876 110.377 14.1416 110.377 13.1936C110.377 12.2336 110.587 11.3876 111.007 10.6556C111.439 9.91155 112.027 9.32955 112.771 8.90955C113.527 8.48955 114.385 8.27955 115.345 8.27955C116.281 8.27955 117.115 8.48355 117.847 8.89155C118.579 9.29955 119.155 9.87555 119.575 10.6196C119.995 11.3636 120.205 12.2396 120.205 13.2476C120.205 13.3436 120.199 13.4516 120.187 13.5716C120.187 13.6916 120.181 13.8056 120.169 13.9136H112.159V12.4196H118.981L118.099 12.8876C118.111 12.3356 117.997 11.8496 117.757 11.4296C117.517 11.0096 117.187 10.6796 116.767 10.4396C116.359 10.1996 115.885 10.0796 115.345 10.0796C114.793 10.0796 114.307 10.1996 113.887 10.4396C113.479 10.6796 113.155 11.0156 112.915 11.4476C112.687 11.8676 112.573 12.3656 112.573 12.9416V13.3016C112.573 13.8776 112.705 14.3876 112.969 14.8316C113.233 15.2756 113.605 15.6176 114.085 15.8576C114.565 16.0976 115.117 16.2176 115.741 16.2176C116.281 16.2176 116.767 16.1336 117.199 15.9656C117.631 15.7976 118.015 15.5336 118.351 15.1736L119.557 16.5596C119.125 17.0636 118.579 17.4536 117.919 17.7296C117.271 17.9936 116.527 18.1256 115.687 18.1256Z" fill="black"/>
<path d="M61.9741 44V29.3H64.7041V44H61.9741ZM68.4282 44V28.418H71.0532V44H68.4282ZM74.4985 44V28.418H77.1231V44H74.4985ZM85.3151 44.147C84.3631 44.147 83.5231 43.972 82.7951 43.622C82.0671 43.258 81.5001 42.712 81.0941 41.984C80.6881 41.242 80.4851 40.311 80.4851 39.191V32.786H83.1101V38.834C83.1101 39.842 83.3341 40.598 83.7821 41.102C84.2441 41.592 84.8951 41.837 85.7351 41.837C86.3511 41.837 86.8831 41.711 87.3311 41.459C87.7931 41.207 88.1501 40.829 88.4021 40.325C88.6681 39.821 88.8011 39.198 88.8011 38.456V32.786H91.4261V44H88.9271V40.976L89.3681 41.9C88.9901 42.628 88.4371 43.188 87.7091 43.58C86.9811 43.958 86.1831 44.147 85.3151 44.147ZM98.3281 44.147C97.3901 44.147 96.4871 44.028 95.6191 43.79C94.7651 43.538 94.0861 43.237 93.5821 42.887L94.5901 40.892C95.0941 41.214 95.6961 41.48 96.3961 41.69C97.0961 41.9 97.7961 42.005 98.4961 42.005C99.3221 42.005 99.9171 41.893 100.281 41.669C100.659 41.445 100.848 41.144 100.848 40.766C100.848 40.458 100.722 40.227 100.47 40.073C100.218 39.905 99.8891 39.779 99.4831 39.695C99.0771 39.611 98.6221 39.534 98.1181 39.464C97.6281 39.394 97.1311 39.303 96.6271 39.191C96.1371 39.065 95.6891 38.89 95.2831 38.666C94.8771 38.428 94.5481 38.113 94.2961 37.721C94.0441 37.329 93.9181 36.811 93.9181 36.167C93.9181 35.453 94.1211 34.837 94.5271 34.319C94.9331 33.787 95.5001 33.381 96.2281 33.101C96.9701 32.807 97.8451 32.66 98.8531 32.66C99.6091 32.66 100.372 32.744 101.142 32.912C101.912 33.08 102.549 33.318 103.053 33.626L102.045 35.621C101.513 35.299 100.974 35.082 100.428 34.97C99.8961 34.844 99.3641 34.781 98.8321 34.781C98.0341 34.781 97.4391 34.9 97.0471 35.138C96.6691 35.376 96.4801 35.677 96.4801 36.041C96.4801 36.377 96.6061 36.629 96.8581 36.797C97.1101 36.965 97.4391 37.098 97.8451 37.196C98.2511 37.294 98.6991 37.378 99.1891 37.448C99.6931 37.504 100.19 37.595 100.68 37.721C101.17 37.847 101.618 38.022 102.024 38.246C102.444 38.456 102.78 38.757 103.032 39.149C103.284 39.541 103.41 40.052 103.41 40.682C103.41 41.382 103.2 41.991 102.78 42.509C102.374 43.027 101.793 43.433 101.037 43.727C100.281 44.007 99.3781 44.147 98.3281 44.147ZM109.891 44.147C108.659 44.147 107.707 43.832 107.035 43.202C106.363 42.558 106.027 41.613 106.027 40.367V30.308H108.652V40.304C108.652 40.836 108.785 41.249 109.051 41.543C109.331 41.837 109.716 41.984 110.206 41.984C110.794 41.984 111.284 41.83 111.676 41.522L112.411 43.391C112.103 43.643 111.725 43.832 111.277 43.958C110.829 44.084 110.367 44.147 109.891 44.147ZM104.179 34.97V32.87H111.655V34.97H104.179ZM114.571 44V32.786H117.07V35.873L116.776 34.97C117.112 34.214 117.637 33.64 118.351 33.248C119.079 32.856 119.982 32.66 121.06 32.66V35.159C120.948 35.131 120.843 35.117 120.745 35.117C120.647 35.103 120.549 35.096 120.451 35.096C119.457 35.096 118.666 35.39 118.078 35.978C117.49 36.552 117.196 37.413 117.196 38.561V44H114.571ZM129.396 44V41.732L129.249 41.249V37.28C129.249 36.51 129.018 35.915 128.556 35.495C128.094 35.061 127.394 34.844 126.456 34.844C125.826 34.844 125.203 34.942 124.587 35.138C123.985 35.334 123.474 35.607 123.054 35.957L122.025 34.046C122.627 33.584 123.341 33.241 124.167 33.017C125.007 32.779 125.875 32.66 126.771 32.66C128.395 32.66 129.648 33.052 130.53 33.836C131.426 34.606 131.874 35.803 131.874 37.427V44H129.396ZM125.868 44.147C125.028 44.147 124.293 44.007 123.663 43.727C123.033 43.433 122.543 43.034 122.193 42.53C121.857 42.012 121.689 41.431 121.689 40.787C121.689 40.157 121.836 39.59 122.13 39.086C122.438 38.582 122.935 38.183 123.621 37.889C124.307 37.595 125.217 37.448 126.351 37.448H129.606V39.191H126.54C125.644 39.191 125.042 39.338 124.734 39.632C124.426 39.912 124.272 40.262 124.272 40.682C124.272 41.158 124.461 41.536 124.839 41.816C125.217 42.096 125.742 42.236 126.414 42.236C127.058 42.236 127.632 42.089 128.136 41.795C128.654 41.501 129.025 41.067 129.249 40.493L129.69 42.068C129.438 42.726 128.983 43.237 128.325 43.601C127.681 43.965 126.862 44.147 125.868 44.147ZM139.464 44.147C138.232 44.147 137.28 43.832 136.608 43.202C135.936 42.558 135.6 41.613 135.6 40.367V30.308H138.225V40.304C138.225 40.836 138.358 41.249 138.624 41.543C138.904 41.837 139.289 41.984 139.779 41.984C140.367 41.984 140.857 41.83 141.249 41.522L141.984 43.391C141.676 43.643 141.298 43.832 140.85 43.958C140.402 44.084 139.94 44.147 139.464 44.147ZM133.752 34.97V32.87H141.228V34.97H133.752ZM148.814 44.147C147.666 44.147 146.644 43.902 145.748 43.412C144.852 42.908 144.145 42.222 143.627 41.354C143.109 40.486 142.85 39.499 142.85 38.393C142.85 37.273 143.109 36.286 143.627 35.432C144.145 34.564 144.852 33.885 145.748 33.395C146.644 32.905 147.666 32.66 148.814 32.66C149.976 32.66 151.005 32.905 151.901 33.395C152.811 33.885 153.518 34.557 154.022 35.411C154.54 36.265 154.799 37.259 154.799 38.393C154.799 39.499 154.54 40.486 154.022 41.354C153.518 42.222 152.811 42.908 151.901 43.412C151.005 43.902 149.976 44.147 148.814 44.147ZM148.814 41.9C149.458 41.9 150.032 41.76 150.536 41.48C151.04 41.2 151.432 40.794 151.712 40.262C152.006 39.73 152.153 39.107 152.153 38.393C152.153 37.665 152.006 37.042 151.712 36.524C151.432 35.992 151.04 35.586 150.536 35.306C150.032 35.026 149.465 34.886 148.835 34.886C148.191 34.886 147.617 35.026 147.113 35.306C146.623 35.586 146.231 35.992 145.937 36.524C145.643 37.042 145.496 37.665 145.496 38.393C145.496 39.107 145.643 39.73 145.937 40.262C146.231 40.794 146.623 41.2 147.113 41.48C147.617 41.76 148.184 41.9 148.814 41.9ZM157.309 44V32.786H159.808V35.873L159.514 34.97C159.85 34.214 160.375 33.64 161.089 33.248C161.817 32.856 162.72 32.66 163.798 32.66V35.159C163.686 35.131 163.581 35.117 163.483 35.117C163.385 35.103 163.287 35.096 163.189 35.096C162.195 35.096 161.404 35.39 160.816 35.978C160.228 36.552 159.934 37.413 159.934 38.561V44H157.309Z" fill="black"/>
</svg>
