<svg width="115" height="48" viewBox="0 0 115 48" fill="none" xmlns="http://www.w3.org/2000/svg">
<path d="M33.3277 45.5724C30.7431 48.0778 27.9212 47.6822 25.2048 46.4954C22.3302 45.2823 19.6929 45.2295 16.66 46.4954C12.8623 48.1306 10.8579 47.6559 8.5899 45.5724C-4.2801 32.3068 -2.3813 12.1052 12.2293 11.3667C15.7897 11.5513 18.2687 13.3183 20.3522 13.4766C23.4642 12.8436 26.4443 11.0239 29.7673 11.2612C33.7496 11.5777 36.7561 13.1601 38.7341 16.0084C30.5058 20.9401 32.4573 31.7794 40 34.8122C38.4967 38.7682 36.5452 42.6977 33.3013 45.5988L33.3277 45.5724ZM20.0885 11.2085C19.6929 5.3273 24.4664 0.4747 29.9519 0C30.7167 6.8042 23.7807 11.8678 20.0885 11.2085Z" fill="black"/>
<path d="M84.7239 13.0021C82.7329 13.0284 81.0189 13.4185 79.3359 14.2574C75.0359 16.3991 72.5529 20.9094 72.5529 26.5924C72.5529 32.2884 74.9959 36.6649 79.3099 38.7122C80.4759 39.2652 81.6439 39.5663 83.4179 39.7772C84.3159 39.8132 85.1549 39.877 86.0289 39.7772C87.8029 39.5663 88.9709 39.2652 90.1369 38.7122C94.4519 36.6649 96.8939 32.2888 96.8939 26.5924C96.8939 20.9094 94.4109 16.3991 90.1119 14.2574C88.4279 13.4185 86.7139 13.0284 84.7239 13.0021ZM86.4349 17.0084C89.0169 17.6962 90.8899 20.0254 91.6069 23.4232C92.1119 25.8094 91.9739 28.5665 91.2529 30.7382C90.1289 34.1201 87.6889 36.0301 84.7239 35.9994C81.7579 36.0301 79.3189 34.1201 78.1949 30.7382C77.4739 28.5665 77.3359 25.8094 77.8399 23.4232C78.5579 20.0254 80.4309 17.6962 83.0119 17.0084C84.1829 16.7603 85.3489 16.8051 86.4349 17.0084ZM67.5809 13.0021C67.0699 13.0021 66.5709 13.1534 66.1469 13.437C65.7229 13.7206 65.3919 14.1237 65.1959 14.5953C65.0009 15.0669 64.9499 15.5858 65.0499 16.0864C65.1489 16.5871 65.3949 17.0469 65.7559 17.4079C66.1169 17.7688 66.5769 18.0146 67.0769 18.1142C67.5779 18.2138 68.0969 18.1627 68.5689 17.9673C69.0399 17.772 69.4429 17.4412 69.7269 17.0168C70.0099 16.5924 70.1619 16.0934 70.1619 15.5829C70.1619 14.8985 69.8899 14.242 69.4059 13.758C68.9219 13.274 68.2649 13.0021 67.5809 13.0021ZM65.1689 20.8766V39.8309H69.9919V20.8766H65.1689ZM103.907 39.7912C101.84 39.4372 99.8529 39.1632 98.1659 38.205C98.1429 38.1852 99.1619 34.3797 99.2079 34.3115C101.919 35.2323 105.736 36.5236 108.31 35.3404C109.713 34.6385 110.404 33.3411 110.172 31.8435C109.911 30.1603 108.745 29.1902 105.546 27.9941C101.977 26.6602 99.8859 25.0202 99.0299 22.8882C98.6089 21.8395 98.4699 20.5049 98.6589 19.339C99.1849 16.0963 101.711 13.8406 105.588 13.151C106.711 12.9512 109.113 12.9494 110.295 13.147C111.998 13.4318 113.951 14.076 113.951 14.3529C113.951 14.4549 112.953 17.9734 112.902 18.0513C111.218 17.3844 109.329 16.9078 107.731 16.8977C105.47 16.8692 103.019 18.2114 103.451 20.5824C103.757 22.0681 104.705 22.7934 108.195 24.2113C110.765 25.2567 111.999 25.9777 113.056 27.0506C114.525 28.5175 114.989 30.2386 115 31.9445C115.004 33.3652 114.871 34.0282 114.364 35.1252C113.133 37.7896 110.628 39.3342 106.85 39.7591C106.144 39.8381 104.479 39.8561 103.909 39.7912H103.907Z" fill="black"/>
</svg>
