<svg width="164" height="57" viewBox="0 0 164 57" fill="none" xmlns="http://www.w3.org/2000/svg">
<path d="M4.1867 51.1048L0 0L50 0.102699L45.573 51.1048L25.1887 57L4.1867 51.1048Z" fill="#E9CA32"/>
<path d="M25.1875 52.0646V4.86719L45.7778 4.93559L42.1061 47.1629L25.1875 52.0646Z" fill="#FFDE25"/>
<path d="M22.9853 10.4717H17.5418V41.8851L13.3079 41.0796V36.8509L8.26758 36.0454V45.5097L22.9853 49.3357V10.4717ZM27.0688 10.4717H42.1385L41.1305 16.4926H32.8216V26.3729H41.1305L40.1224 46.3152L27.0688 49.3357V43.0933L35.8885 40.0728L36.3978 31.8167L27.0688 33.1658V10.4717Z" fill="white"/>
<path d="M63.0139 34.2523C62.0899 34.2523 61.2499 34.0963 60.4939 33.7843C59.7499 33.4603 59.1319 32.9983 58.6399 32.3983L60.5839 30.0943C60.9199 30.5263 61.2679 30.8563 61.6279 31.0843C61.9879 31.3003 62.3659 31.4083 62.7619 31.4083C63.8179 31.4083 64.3459 30.7963 64.3459 29.5723V24.1543H59.9899V21.4003H67.8739V29.3563C67.8739 31.0003 67.4599 32.2303 66.6319 33.0463C65.8039 33.8503 64.5979 34.2523 63.0139 34.2523ZM76.0759 34.0003V32.1823L75.8419 31.7323V28.3843C75.8419 27.8443 75.6739 27.4303 75.3379 27.1423C75.0139 26.8423 74.4919 26.6923 73.7714 26.6923C73.3034 26.6923 72.8294 26.7703 72.3494 26.9263C71.8694 27.0703 71.4614 27.2743 71.1254 27.5383L69.9734 25.2163C70.5254 24.8563 71.1854 24.5803 71.9534 24.3883C72.7334 24.1843 73.5074 24.0823 74.2759 24.0823C75.8599 24.0823 77.0839 24.4483 77.9479 25.1803C78.8239 25.9003 79.2619 27.0343 79.2619 28.5823V34.0003H76.0759ZM73.1954 34.1623C72.4154 34.1623 71.7554 34.0303 71.2154 33.7663C70.6754 33.5023 70.2614 33.1423 69.9734 32.6863C69.6974 32.2303 69.5594 31.7203 69.5594 31.1563C69.5594 30.5563 69.7094 30.0403 70.0094 29.6083C70.3214 29.1643 70.7954 28.8283 71.4314 28.6003C72.0674 28.3603 72.8894 28.2403 73.8974 28.2403H76.2019V30.0223H74.3659C73.8134 30.0223 73.4234 30.1123 73.1954 30.2923C72.9794 30.4723 72.8714 30.7123 72.8714 31.0123C72.8714 31.3123 72.9854 31.5523 73.2134 31.7323C73.4414 31.9123 73.7534 32.0023 74.1499 32.0023C74.5219 32.0023 74.8579 31.9123 75.1579 31.7323C75.4699 31.5403 75.6979 31.2523 75.8419 30.8683L76.3099 32.1283C76.1299 32.8003 75.7759 33.3103 75.2479 33.6583C74.7319 33.9943 74.0479 34.1623 73.1954 34.1623ZM83.9619 34.0003L79.9479 24.2443H83.4579L86.6619 32.3983H84.8979L88.2639 24.2443H91.5219L87.4899 34.0003H83.9619ZM98.0309 34.0003V32.1823L97.7969 31.7323V28.3843C97.7969 27.8443 97.6289 27.4303 97.2929 27.1423C96.9689 26.8423 96.4469 26.6923 95.7269 26.6923C95.2589 26.6923 94.7849 26.7703 94.3049 26.9263C93.8249 27.0703 93.4169 27.2743 93.0809 27.5383L91.9289 25.2163C92.4809 24.8563 93.1409 24.5803 93.9089 24.3883C94.6889 24.1843 95.4629 24.0823 96.2309 24.0823C97.8149 24.0823 99.0389 24.4483 99.9029 25.1803C100.779 25.9003 101.217 27.0343 101.217 28.5823V34.0003H98.0309ZM95.1509 34.1623C94.3709 34.1623 93.7109 34.0303 93.1709 33.7663C92.6309 33.5023 92.2169 33.1423 91.9289 32.6863C91.6529 32.2303 91.5149 31.7203 91.5149 31.1563C91.5149 30.5563 91.6649 30.0403 91.9649 29.6083C92.2769 29.1643 92.7509 28.8283 93.3869 28.6003C94.0229 28.3603 94.8449 28.2403 95.8529 28.2403H98.1569V30.0223H96.3209C95.7689 30.0223 95.3789 30.1123 95.1509 30.2923C94.9349 30.4723 94.8269 30.7123 94.8269 31.0123C94.8269 31.3123 94.9409 31.5523 95.1689 31.7323C95.3969 31.9123 95.7089 32.0023 96.1049 32.0023C96.4769 32.0023 96.8129 31.9123 97.1129 31.7323C97.4249 31.5403 97.6529 31.2523 97.7969 30.8683L98.2649 32.1283C98.0849 32.8003 97.7309 33.3103 97.2029 33.6583C96.6869 33.9943 96.0029 34.1623 95.1509 34.1623ZM113.204 34.2523C112.172 34.2523 111.176 34.1263 110.216 33.8743C109.268 33.6103 108.494 33.2743 107.894 32.8663L109.064 30.2383C109.628 30.5983 110.276 30.8983 111.008 31.1383C111.752 31.3663 112.49 31.4803 113.222 31.4803C113.714 31.4803 114.11 31.4383 114.41 31.3543C114.71 31.2583 114.926 31.1383 115.058 30.9943C115.202 30.8383 115.274 30.6583 115.274 30.4543C115.274 30.1663 115.142 29.9383 114.878 29.7703C114.614 29.6023 114.272 29.4643 113.852 29.3563C113.432 29.2483 112.964 29.1403 112.448 29.0323C111.944 28.9243 111.434 28.7863 110.918 28.6183C110.414 28.4503 109.952 28.2343 109.532 27.9703C109.112 27.6943 108.77 27.3403 108.506 26.9083C108.242 26.4643 108.11 25.9063 108.11 25.2343C108.11 24.4783 108.314 23.7943 108.722 23.1823C109.142 22.5703 109.766 22.0783 110.594 21.7063C111.422 21.3343 112.454 21.1483 113.69 21.1483C114.518 21.1483 115.328 21.2443 116.12 21.4363C116.924 21.6163 117.638 21.8863 118.262 22.2463L117.164 24.8923C116.564 24.5683 115.97 24.3283 115.382 24.1723C114.794 24.0043 114.224 23.9203 113.672 23.9203C113.18 23.9203 112.784 23.9743 112.484 24.0823C112.184 24.1783 111.968 24.3103 111.836 24.4783C111.704 24.6463 111.638 24.8383 111.638 25.0543C111.638 25.3303 111.764 25.5523 112.016 25.7203C112.28 25.8763 112.622 26.0083 113.042 26.1163C113.474 26.2123 113.942 26.3143 114.446 26.4223C114.962 26.5303 115.472 26.6683 115.976 26.8363C116.492 26.9923 116.96 27.2083 117.38 27.4843C117.8 27.7483 118.136 28.1023 118.388 28.5463C118.652 28.9783 118.784 29.5243 118.784 30.1843C118.784 30.9163 118.574 31.5943 118.154 32.2183C117.746 32.8303 117.128 33.3223 116.3 33.6943C115.484 34.0663 114.452 34.2523 113.204 34.2523ZM125.254 34.1623C124.174 34.1623 123.208 33.9463 122.356 33.5143C121.516 33.0823 120.856 32.4883 120.376 31.7323C119.896 30.9643 119.656 30.0883 119.656 29.1043C119.656 28.1203 119.896 27.2503 120.376 26.4943C120.856 25.7383 121.516 25.1503 122.356 24.7303C123.208 24.2983 124.174 24.0823 125.254 24.0823C126.358 24.0823 127.312 24.3163 128.116 24.7843C128.92 25.2523 129.49 25.9123 129.826 26.7643L127.18 28.1143C126.952 27.6583 126.67 27.3283 126.334 27.1243C125.998 26.9083 125.632 26.8003 125.236 26.8003C124.84 26.8003 124.48 26.8903 124.156 27.0703C123.832 27.2503 123.574 27.5143 123.382 27.8623C123.202 28.1983 123.112 28.6123 123.112 29.1043C123.112 29.6083 123.202 30.0343 123.382 30.3823C123.574 30.7303 123.832 30.9943 124.156 31.1743C124.48 31.3543 124.84 31.4443 125.236 31.4443C125.632 31.4443 125.998 31.3423 126.334 31.1383C126.67 30.9223 126.952 30.5863 127.18 30.1303L129.826 31.4803C129.49 32.3323 128.92 32.9923 128.116 33.4603C127.312 33.9283 126.358 34.1623 125.254 34.1623ZM131.114 34.0003V24.2443H134.372V27.0883L133.886 26.2783C134.174 25.5463 134.642 25.0003 135.29 24.6403C135.938 24.2683 136.724 24.0823 137.648 24.0823V27.1603C137.492 27.1363 137.354 27.1243 137.234 27.1243C137.126 27.1123 137.006 27.1063 136.874 27.1063C136.178 27.1063 135.614 27.2983 135.182 27.6823C134.75 28.0543 134.534 28.6663 134.534 29.5183V34.0003H131.114ZM139.059 34.0003V24.2443H142.479V34.0003H139.059ZM140.769 23.1643C140.145 23.1643 139.641 22.9903 139.257 22.6423C138.873 22.2943 138.681 21.8623 138.681 21.3463C138.681 20.8303 138.873 20.3983 139.257 20.0503C139.641 19.7023 140.145 19.5283 140.769 19.5283C141.393 19.5283 141.897 19.6963 142.281 20.0323C142.665 20.3563 142.857 20.7763 142.857 21.2923C142.857 21.8323 142.665 22.2823 142.281 22.6423C141.909 22.9903 141.405 23.1643 140.769 23.1643ZM150.84 34.1623C150.012 34.1623 149.304 33.9823 148.716 33.6223C148.128 33.2503 147.678 32.6983 147.366 31.9663C147.066 31.2223 146.916 30.2743 146.916 29.1223C146.916 27.9583 147.06 27.0103 147.348 26.2783C147.636 25.5343 148.068 24.9823 148.644 24.6223C149.232 24.2623 149.964 24.0823 150.84 24.0823C151.728 24.0823 152.532 24.2923 153.252 24.7123C153.984 25.1203 154.56 25.7023 154.98 26.4583C155.412 27.2023 155.628 28.0903 155.628 29.1223C155.628 30.1543 155.412 31.0483 154.98 31.8043C154.56 32.5603 153.984 33.1423 153.252 33.5503C152.532 33.9583 151.728 34.1623 150.84 34.1623ZM144.702 37.4923V24.2443H147.96V25.9003L147.942 29.1223L148.122 32.3623V37.4923H144.702ZM150.12 31.4443C150.504 31.4443 150.846 31.3543 151.146 31.1743C151.458 30.9943 151.704 30.7303 151.884 30.3823C152.076 30.0343 152.172 29.6143 152.172 29.1223C152.172 28.6303 152.076 28.2103 151.884 27.8623C151.704 27.5143 151.458 27.2503 151.146 27.0703C150.846 26.8903 150.504 26.8003 150.12 26.8003C149.736 26.8003 149.388 26.8903 149.076 27.0703C148.776 27.2503 148.53 27.5143 148.338 27.8623C148.158 28.2103 148.068 28.6303 148.068 29.1223C148.068 29.6143 148.158 30.0343 148.338 30.3823C148.53 30.7303 148.776 30.9943 149.076 31.1743C149.388 31.3543 149.736 31.4443 150.12 31.4443ZM161.573 34.1623C160.325 34.1623 159.353 33.8563 158.657 33.2443C157.961 32.6203 157.613 31.6843 157.613 30.4363V22.0663H161.033V30.4003C161.033 30.7483 161.129 31.0243 161.321 31.2283C161.513 31.4203 161.759 31.5163 162.059 31.5163C162.467 31.5163 162.815 31.4143 163.103 31.2103L163.949 33.6043C163.661 33.7963 163.307 33.9343 162.887 34.0183C162.467 34.1143 162.029 34.1623 161.573 34.1623ZM156.191 27.1603V24.6043H163.265V27.1603H156.191Z" fill="black"/>
</svg>
