<svg width="150" height="50" viewBox="0 0 150 50" fill="none" xmlns="http://www.w3.org/2000/svg">
<path d="M49.9718 11.3113C49.9903 11.378 49.9998 11.4467 50 11.5157V22.2481C50 22.3859 49.9626 22.5212 49.8915 22.6404C49.8204 22.7596 49.7182 22.8584 49.5952 22.927L40.322 28.1132V38.3926C40.322 38.6724 40.169 38.9306 39.9192 39.0715L20.5623 49.8958C20.518 49.9202 20.4697 49.9359 20.4213 49.9525C20.4032 49.9584 20.3861 49.9692 20.3669 49.974C20.2316 50.0087 20.0894 50.0087 19.9541 49.974C19.9319 49.9682 19.9118 49.9564 19.8906 49.9486C19.8463 49.933 19.8 49.9193 19.7577 49.8958L0.4048 39.0715C0.2819 39.0029 0.179701 38.904 0.108601 38.7848C0.0376006 38.6656 0.0001 38.5304 0 38.3926V6.1955C0 6.1251 0.0101001 6.0566 0.0282001 5.9901C0.0342001 5.9676 0.0483003 5.9471 0.0564003 5.9246C0.0715003 5.8835 0.0856003 5.8414 0.1077 5.8033C0.1229 5.7779 0.144999 5.7573 0.163099 5.7338C0.186299 5.7025 0.2074 5.6703 0.2346 5.6429C0.2578 5.6204 0.287999 5.6037 0.314199 5.5842C0.343399 5.5607 0.3696 5.5353 0.4028 5.5167L10.0808 0.1045C10.2033 0.0359998 10.3422 0 10.4835 0C10.6249 0 10.7638 0.0359998 10.8863 0.1045L20.5633 5.5167H20.5653C20.5975 5.5363 20.6247 5.5607 20.6539 5.5832C20.6801 5.6028 20.7093 5.6204 20.7325 5.6419C20.7607 5.6703 20.7808 5.7025 20.805 5.7338C20.8221 5.7573 20.8452 5.7779 20.8593 5.8033C20.8825 5.8424 20.8956 5.8835 20.9117 5.9246C20.9198 5.9471 20.9339 5.9676 20.9399 5.9911C20.9584 6.0578 20.9679 6.1265 20.9681 6.1955V26.3055L29.0319 21.7952V11.5148C29.0319 11.4463 29.042 11.3768 29.0601 11.3113C29.0671 11.2878 29.0802 11.2673 29.0883 11.2448C29.1044 11.2037 29.1185 11.1617 29.1407 11.1235C29.1558 11.0981 29.1779 11.0775 29.195 11.0541C29.2192 11.0228 29.2393 10.9905 29.2675 10.9631C29.2907 10.9406 29.3199 10.924 29.3461 10.9044C29.3763 10.8809 29.4025 10.8555 29.4347 10.8369L39.1137 5.4247C39.2362 5.3562 39.3751 5.3201 39.5165 5.3201C39.6578 5.3201 39.7967 5.3562 39.9192 5.4247L49.5962 10.8369C49.6304 10.8565 49.6566 10.8809 49.6868 10.9034C49.712 10.923 49.7412 10.9406 49.7644 10.9621C49.7926 10.9905 49.8127 11.0228 49.8369 11.0541C49.855 11.0775 49.8772 11.0981 49.8912 11.1235C49.9144 11.1617 49.9275 11.2037 49.9436 11.2448C49.9527 11.2673 49.9658 11.2878 49.9718 11.3113ZM48.3868 21.7952V12.8705L45.0004 14.7642L40.322 17.3808V26.3055L48.3868 21.7952ZM38.7099 37.9397V29.0091L34.108 31.5621L20.9671 38.8475V47.8622L38.7099 37.9397ZM1.6132 7.5503V37.9397L19.3539 47.8612V38.8485L10.0858 33.7532L10.0828 33.7513L10.0787 33.7493C10.0475 33.7317 10.0213 33.7063 9.9921 33.6848C9.967 33.6652 9.9378 33.6495 9.9156 33.628L9.9136 33.6251C9.8874 33.6006 9.8693 33.5703 9.8471 33.5429C9.827 33.5165 9.8028 33.494 9.7867 33.4666L9.7857 33.4637C9.7676 33.4343 9.7565 33.3991 9.7434 33.3659C9.7303 33.3365 9.7132 33.3091 9.7052 33.2778C9.6951 33.2407 9.6931 33.2006 9.689 33.1624C9.685 33.1331 9.677 33.1037 9.677 33.0744V12.0606L4.9996 9.443L1.6132 7.5503ZM10.4846 1.6872L2.4218 6.1955L10.4825 10.7039L18.5443 6.1946L10.4825 1.6872H10.4846ZM14.6776 29.823L19.3549 27.2074V7.5503L15.9685 9.444L11.2901 12.0606V31.7177L14.6776 29.823ZM39.5165 7.0074L31.4547 11.5157L39.5165 16.0241L47.5772 11.5148L39.5165 7.0074ZM38.7099 17.3808L34.0315 14.7642L30.6451 12.8705V21.7952L35.3224 24.4108L38.7099 26.3055V17.3808ZM20.1595 37.4927L31.9843 30.9351L37.8952 27.6583L29.8395 23.1529L20.5643 28.3401L12.1108 33.0675L20.1595 37.4927Z" fill="#FF2D20"/>
<path d="M68.3392 15V32.3354H74.612V35.3212H65V15H68.3392ZM86.389 23.6188V21.7913H89.563V35.3287H86.404V33.4936C85.968 34.1705 85.366 34.697 84.584 35.073C83.802 35.4716 83.005 35.6596 82.215 35.6596C81.185 35.6596 80.245 35.4716 79.395 35.0956C78.564 34.7355 77.817 34.2081 77.199 33.5463C76.586 32.8896 76.102 32.1244 75.77 31.29C75.428 30.4182 75.257 29.4888 75.266 28.5525C75.266 27.6048 75.439 26.6948 75.777 25.845C76.105 24.9996 76.59 24.2238 77.206 23.5587C77.818 22.8932 78.561 22.3608 79.387 21.9943C80.245 21.6183 81.192 21.4303 82.208 21.4303C82.997 21.4303 83.787 21.6258 84.569 22.0094C85.351 22.4005 85.953 22.9269 86.374 23.6038L86.389 23.6188ZM86.103 30.2146C86.301 29.6854 86.403 29.125 86.404 28.56C86.404 27.9734 86.299 27.4319 86.103 26.9054C85.923 26.3989 85.648 25.9316 85.291 25.5291C84.935 25.1419 84.506 24.8299 84.028 24.6116C83.513 24.3756 82.954 24.255 82.388 24.2581C81.786 24.2581 81.245 24.386 80.764 24.6191C80.292 24.8381 79.868 25.1473 79.515 25.5291C79.16 25.9297 78.889 26.3977 78.718 26.9054C78.531 27.437 78.437 27.9966 78.44 28.56C78.44 29.1391 78.53 29.6881 78.718 30.2146C78.898 30.741 79.169 31.1923 79.515 31.5683C79.865 31.9613 80.289 32.2808 80.764 32.5084C81.245 32.734 81.786 32.8544 82.388 32.8544C82.99 32.8544 83.539 32.7416 84.028 32.5084C84.507 32.2858 84.937 31.9686 85.291 31.5758C85.645 31.18 85.921 30.7207 86.103 30.2221V30.2146ZM92.06 35.3287V21.7913H100.649V24.9049H95.219V35.3212H92.06V35.3287ZM112.118 23.6188V21.7913H115.277V35.3287H112.118V33.4936C111.697 34.1705 111.087 34.697 110.313 35.073C109.523 35.4716 108.733 35.6596 107.936 35.6596C106.906 35.6596 105.966 35.4716 105.116 35.0956C104.285 34.7355 103.538 34.2081 102.92 33.5463C102.307 32.8896 101.823 32.1244 101.491 31.29C101.152 30.4177 100.983 29.4884 100.995 28.5525C100.995 27.6048 101.16 26.6948 101.498 25.845C101.826 24.9996 102.311 24.2238 102.927 23.5587C103.539 22.8932 104.282 22.3608 105.108 21.9943C105.966 21.6183 106.913 21.4303 107.929 21.4303C108.718 21.4303 109.508 21.6258 110.29 22.0094C111.072 22.4005 111.682 22.9269 112.095 23.6038L112.118 23.6188ZM111.832 30.2146C112.025 29.6845 112.122 29.1241 112.118 28.56C112.118 27.9734 112.02 27.4319 111.832 26.9054C111.654 26.3994 111.381 25.9322 111.027 25.5291C110.667 25.1403 110.232 24.8282 109.749 24.6116C109.26 24.3859 108.711 24.2581 108.117 24.2581C107.515 24.2581 106.974 24.386 106.485 24.6191C106.013 24.8381 105.589 25.1473 105.236 25.5291C104.881 25.9297 104.61 26.3977 104.439 26.9054C104.255 27.4375 104.163 27.9971 104.168 28.56C104.168 29.1391 104.259 29.6881 104.439 30.2146C104.627 30.741 104.89 31.1923 105.236 31.5683C105.586 31.9613 106.01 32.2808 106.485 32.5084C106.974 32.734 107.515 32.8544 108.117 32.8544C108.718 32.8544 109.26 32.7416 109.756 32.5084C110.241 32.2876 110.676 31.9703 111.035 31.5758C111.386 31.1794 111.659 30.7201 111.839 30.2221L111.832 30.2146ZM127.972 21.7913H131.183L125.994 35.3287H122.008L116.818 21.7913H120.015L124.001 32.1549L127.972 21.7988V21.7913ZM138.08 21.4453C142.389 21.4453 145.33 25.2659 144.773 29.7332H134.267C134.267 30.8914 135.455 33.1477 138.253 33.1477C140.659 33.1477 142.276 31.0419 142.276 31.0419L144.412 32.6964C142.494 34.727 140.93 35.6671 138.471 35.6671C134.094 35.6671 131.13 32.8844 131.13 28.5449C131.13 24.6116 134.199 21.4303 138.072 21.4303L138.08 21.4453ZM134.282 27.3867H141.878C141.847 27.1235 141.426 23.9573 138.057 23.9573C134.673 23.9573 134.312 27.131 134.282 27.3867ZM146.841 35.3061V15H150V35.3212H146.841V35.3061Z" fill="#FF2D20"/>
</svg>
