<svg width="160" height="67" viewBox="0 0 160 67" fill="none" xmlns="http://www.w3.org/2000/svg">
<path d="M14.0469 0L15.683 3.36003C16.0508 3.98021 16.4495 4.5289 16.917 5.04004C18.2919 6.52464 19.5741 8.11073 20.753 9.78702C23.5236 13.7634 25.3935 18.1833 26.7272 22.9641C27.528 25.8806 27.9611 28.8798 27.9955 31.9053C28.1295 40.9593 25.2903 48.7318 19.5707 55.1925C18.6426 56.2148 17.6354 57.1581 16.563 58C15.9959 58 15.7277 57.5265 15.494 57.0868C15.0678 56.2749 14.7859 55.3842 14.6588 54.4597C14.4559 53.3622 14.3253 52.2684 14.3906 51.1409V50.6298C14.3459 50.5133 13.8475 0.259347 14.0469 0Z" fill="#599636"/>
<path d="M13.6239 0.072673C13.5583 -0.0743905 13.4893 0.0349992 13.4203 0.110345C13.4549 0.845663 13.2167 1.50169 12.851 2.12761C12.4473 2.74981 11.9125 3.22867 11.3743 3.74147C8.39669 6.5582 6.0505 9.9668 4.17357 13.7751C1.67207 18.8994 0.385182 24.3932 0.022823 30.1811C-0.142757 32.2662 0.626657 39.6266 1.23049 41.7494C2.87279 47.3902 5.81929 52.1148 9.64221 56.2135C10.5807 57.2014 11.5848 58.1177 12.6198 59C12.9235 59 12.9545 58.7059 13.0235 58.4872C13.1581 58.0197 13.2582 57.5445 13.3271 57.0619L14 51.5719L13.6239 0.072673Z" fill="#6CAC48"/>
<path d="M15.279 60.2422C15.3353 59.3865 15.6529 58.6805 16 57.9705C15.6529 57.7862 15.3947 57.414 15.1929 57.0035C15.0178 56.612 14.8754 56.2015 14.7626 55.7716C14.3591 54.2098 14.2731 52.5635 14.1573 50.9671V50C14.0148 50.1497 13.9822 51.4161 13.9822 51.6041C13.8992 53.2964 13.7241 54.9735 13.463 56.635C13.3769 57.3066 13.3205 57.9782 13 58.5729C13 58.6459 13 58.7226 13.0297 58.8339C13.549 60.8102 13.6914 62.8211 13.7775 64.8741V65.6224C13.7775 66.5166 13.7478 66.3284 14.3234 66.6278C14.5549 66.7391 14.8131 66.7774 15.0446 67C15.2196 67 15.2463 66.8159 15.2463 66.6623L15.1603 65.4305V61.9998C15.1335 61.4011 15.2196 60.8064 15.279 60.2422Z" fill="#C2BFBF"/>
<path d="M49.329 33.5096V36.5575C49.329 36.6799 49.329 36.8024 49.3503 36.9177C49.3857 37.278 49.6056 37.5013 49.9246 37.6022C50.2225 37.6814 50.5273 37.7391 50.8323 37.7823C51.0095 37.804 51.0662 37.8832 51.0875 38.0777C51.1087 38.7622 51.0521 38.8414 50.3997 38.7982C48.8823 38.719 47.3578 38.6973 45.8404 38.7982H45.6986C45.2235 38.8199 45.1881 38.7766 45.1881 38.2938C45.1881 38.2146 45.2093 38.1137 45.2093 38.0345C45.2093 37.8904 45.3086 37.8111 45.4433 37.8111C45.7624 37.7752 46.0531 37.6887 46.3509 37.6309C46.7622 37.5301 47.0032 37.2708 47.0387 36.8456C47.0954 36.3845 47.0954 35.9017 47.0954 35.4407L47.1167 30.0656C47.1308 29.7485 46.9607 29.4531 46.6842 29.3018C46.3297 29.1001 45.9467 28.9416 45.5567 28.8191C45.4362 28.7832 45.3227 28.7615 45.2235 28.6967C44.9327 28.5525 44.9257 28.2931 45.2022 28.1346C45.3015 28.077 45.422 28.0337 45.5355 28.0122C46.7322 27.8321 47.9081 27.5304 49.0454 27.1115C49.2794 27.0323 49.3432 27.0539 49.3645 27.2917C49.3857 27.4357 49.3645 27.6159 49.3432 27.7528C49.3078 28.0122 49.3078 28.2715 49.3078 28.5165C49.3078 28.6174 49.329 28.7183 49.4283 28.7759C49.5276 28.8334 49.6268 28.7759 49.719 28.7183C50.1303 28.394 50.5486 28.0986 51.0025 27.8392C51.6548 27.4789 52.3425 27.1547 53.0942 27.0539C54.0018 26.9313 54.7888 27.1763 55.4837 27.7744C55.7674 28.0337 56.0226 28.3291 56.2353 28.6534C56.4339 28.9488 56.4552 28.956 56.7104 28.7543C57.4621 28.1923 58.2491 27.6951 59.1 27.3276C59.9863 26.9457 60.8939 26.8882 61.8016 27.2052C62.7304 27.5438 63.3615 28.2067 63.7373 29.1073C64.0564 29.8278 64.1911 30.5772 64.1911 31.3554V36.7304C64.1911 37.0906 64.3329 37.314 64.6875 37.4941C65.0632 37.6382 65.4745 37.7175 65.8716 37.7968C66.1268 37.8544 66.1268 37.8544 66.1268 38.121C66.0914 38.7838 66.0275 38.8199 65.3965 38.7838C63.8143 38.6901 62.2281 38.6901 60.6458 38.7838C60.3267 38.8054 60.3267 38.8054 60.3125 38.4812V38.3803C60.2912 37.8399 60.2912 37.8399 60.8088 37.7175L61.3194 37.5733C61.6739 37.4869 61.9292 37.1627 61.9292 36.788L61.9859 35.2821L61.9505 31.3554C61.9363 31.0023 61.8653 30.6564 61.7306 30.3323C61.2343 29.1073 60.1494 28.6678 59.107 28.7902C58.32 28.8695 57.6251 29.1938 56.9728 29.655C56.8309 29.7558 56.7387 29.8783 56.7529 30.0728C56.9302 31.3553 56.8097 32.6379 56.8309 33.9203V36.7088C56.8309 37.2132 57.0295 37.4509 57.5045 37.5733L58.4121 37.7752C58.554 37.7968 58.632 37.8544 58.632 38.0129V38.1569C58.6107 38.719 58.5753 38.7406 58.0222 38.7406C56.441 38.6613 54.8668 38.6829 53.3069 38.7406C52.7751 38.7622 52.7326 38.7045 52.7538 38.157C52.7751 37.8327 52.8105 37.8183 53.1083 37.7535L53.7607 37.6309C54.3351 37.5085 54.5478 37.2923 54.5904 36.6656L54.647 35.3181L54.6115 31.2905C54.5761 30.7861 54.4698 30.3106 54.2003 29.8495C53.8032 29.1073 53.1863 28.7254 52.3425 28.6895C51.4916 28.6318 50.7472 28.9488 50.031 29.3523C49.5346 29.6477 49.322 29.9935 49.3574 30.5773V33.5025L49.329 33.5096ZM86.5053 33.6322V36.4566C86.5053 36.6583 86.5195 36.8601 86.5407 37.0546C86.5548 37.3283 86.7536 37.559 87.0159 37.6166C87.3559 37.7176 87.704 37.7751 88.0582 37.7968C88.257 37.8183 88.2923 37.8976 88.3135 38.0561V38.2003C88.2923 38.8992 88.2146 38.9856 87.5406 38.9424C86.0372 38.8415 84.5418 38.863 83.0455 38.9424L82.4714 38.964C82.3503 38.964 82.3291 38.9063 82.2938 38.8199C82.2373 38.5419 82.2373 38.2549 82.2938 37.9769C82.315 37.8544 82.3927 37.8327 82.5137 37.7968C82.8043 37.7608 83.0455 37.6959 83.322 37.6526C83.8184 37.5302 83.995 37.3283 84.0101 36.8096L84.0666 35.1236V30.188C84.0666 29.8278 83.9243 29.6045 83.6125 29.4459C83.2584 29.2442 82.882 29.1073 82.4855 28.9632C82.3644 28.9272 82.2514 28.884 82.1515 28.8191C81.8962 28.639 81.8609 28.3795 82.1162 28.1778C82.2302 28.0841 82.3644 28.0265 82.5137 28.0193C83.776 27.8176 85.0019 27.5367 86.1865 27.0539C86.3288 26.9962 86.3853 27.0323 86.4418 27.1547C86.4983 27.2772 86.5195 27.4141 86.4983 27.5583L86.4418 28.5021C86.4418 28.6246 86.3853 28.7975 86.4771 28.8407C86.5982 28.9199 86.6759 28.7399 86.7747 28.6967C87.3559 28.1993 88.0007 27.7827 88.6898 27.4573C89.2992 27.162 89.9299 26.9746 90.6392 27.0178C91.965 27.0971 92.9084 27.7815 93.5179 28.9632C93.8377 29.5829 93.9719 30.2673 94.0284 30.9662L94.0859 32.4361L94.1071 36.8673C94.1283 37.2059 94.2484 37.4293 94.5814 37.5518C94.9295 37.667 95.2846 37.7537 95.6458 37.8111C95.9647 37.8472 95.9788 37.9121 96 38.2146V38.3155C95.9647 39 95.9223 39.0144 95.2483 38.9784C93.7772 38.8992 92.302 38.8992 90.8309 38.9784C90.6321 39 90.4334 38.9784 90.2568 39C90.1357 39 90.058 38.9784 90.0368 38.8559C90.0015 38.5964 89.9591 38.3371 90.0156 38.0561C90.0368 37.9337 90.0933 37.876 90.2356 37.8543L91.1427 37.7102C91.4615 37.6309 91.6391 37.4148 91.6744 37.1267L91.7097 36.5647L91.6886 32.3713C91.6886 31.8886 91.6674 31.4058 91.5685 30.9303C91.3344 29.9 90.5615 29.1722 89.5192 29.0641C88.6111 28.9631 87.7888 29.2082 87.03 29.7053C86.6547 29.9431 86.4983 30.289 86.4983 30.7069V33.733C86.4983 33.6753 86.4983 33.6753 86.5195 33.6753L86.5053 33.6322Z" fill="#47474A"/>
<path d="M143.787 27.9842C143.57 26.5085 143.044 25.1928 142.127 24.0367C141.327 23.0191 140.297 22.2267 139.12 21.7323C137.893 21.209 136.582 21.0417 135.258 21.0054C134.711 20.9836 127.26 21.1071 126.713 21.0054C126.574 20.9836 126.482 21.0272 126.398 21.1508C126.3 21.2961 126.201 21.456 126.146 21.616C125.914 22.1612 125.914 22.1249 126.475 22.2048C126.945 22.2848 127.393 22.3284 127.842 22.4665C128.248 22.612 128.542 22.8519 128.641 23.3171C128.676 23.5425 128.718 30.6595 128.718 33.9744L128.641 36.3442C128.62 36.5259 128.606 36.7077 128.542 36.8676C128.466 37.1076 128.325 37.3111 128.095 37.4129C127.835 37.5364 127.562 37.6165 127.274 37.6383C126.748 37.6963 126.671 37.7182 126.496 38.3289L126.44 38.5542C126.405 38.8159 126.419 38.8595 126.671 38.8595L132.503 38.9176L134.788 38.8814L136.365 38.6778C138.159 38.3361 139.757 37.5655 141.124 36.3297C141.902 35.6173 142.54 34.7522 142.996 33.7781C143.542 32.644 143.773 31.4081 143.836 30.1578C143.942 29.4381 143.907 28.7112 143.787 27.9842ZM140.963 30.8557C140.886 32.1496 140.634 33.4073 139.988 34.5341C139.169 36.0098 137.998 37.0421 136.379 37.4057C135.678 37.551 134.978 37.6309 134.241 37.5292C133.716 37.471 133.211 37.4055 132.72 37.2239C131.844 36.8967 131.529 36.3369 131.515 35.4501L131.494 23.2516C131.494 22.5248 131.809 22.3648 132.313 22.343C133.077 22.2848 133.855 22.3066 134.612 22.3792C135.425 22.4593 136.217 22.6629 136.974 22.9682C137.536 23.2081 138.054 23.5425 138.516 23.9568C139.568 24.8873 140.269 26.0577 140.655 27.4317C140.97 28.544 141.026 29.6779 140.97 30.812L140.963 30.8557ZM160 32.8402C160 32.7167 160 32.615 159.979 32.4987C159.804 31.3863 159.236 30.5358 158.359 29.8888C157.792 29.4672 157.153 29.1837 156.488 28.9802C156.368 28.9438 156.271 28.9001 156.159 28.8783C156.18 28.7765 156.236 28.7547 156.299 28.733C156.692 28.5293 157.063 28.3113 157.392 28.0061C157.995 27.4826 158.394 26.8356 158.598 26.0432C158.717 25.6216 158.717 25.1927 158.674 24.7492C158.612 23.6952 158.086 22.7283 157.252 22.1176C156.355 21.427 155.303 21.1435 154.21 21.1289C152.101 21.0927 149.976 21.1289 147.874 21.1289C147.271 21.1289 146.668 21.1653 146.038 21.0708C145.918 21.049 145.75 21.0127 145.666 21.1508C145.526 21.4124 145.35 21.6742 145.294 21.9795C145.274 22.1249 145.315 22.2049 145.47 22.2193L146.816 22.423C147.341 22.503 147.712 22.8082 147.755 23.2953C147.79 23.6297 147.811 23.9714 147.811 24.3057L147.776 28.086L147.755 35.5664C147.755 36.0098 147.698 36.4388 147.614 36.8822C147.573 37.1729 147.376 37.4055 147.11 37.4855C146.718 37.6091 146.346 37.7254 145.94 37.7254C145.715 37.7036 145.505 37.8491 145.435 38.0672C145.357 38.2489 145.294 38.4524 145.26 38.6342C145.225 38.874 145.281 38.9613 145.512 38.9323C145.687 38.9104 152.122 39.0776 153.334 38.9541C154.056 38.8741 154.764 38.7723 155.479 38.547C156.706 38.1398 157.841 37.5582 158.738 36.5623C159.481 35.7554 159.908 34.7813 159.943 33.6472C160 33.3855 160 33.1238 160 32.8402ZM150.538 24.5456L150.594 22.9246C150.594 22.6192 150.712 22.4811 151 22.4157C151.469 22.3139 151.939 22.3574 152.402 22.3793C152.872 22.4157 153.319 22.4812 153.789 22.6193C154.645 22.8809 155.31 23.3898 155.703 24.2403C155.878 24.6256 155.977 25.0473 155.977 25.4762C155.997 26.0431 155.956 26.5884 155.745 27.1337C155.416 27.8824 154.89 28.3695 154.126 28.5076C153.362 28.653 151.203 28.5876 150.867 28.5876C150.573 28.5876 150.552 28.5513 150.552 28.2459V26.3412C150.502 25.7525 150.502 25.1563 150.531 24.5602L150.538 24.5456ZM156.873 35.4283C156.544 36.3369 155.935 36.9694 155.079 37.3111C154.609 37.4928 154.14 37.6091 153.65 37.5728C153.046 37.551 152.444 37.5728 151.834 37.4492C151.014 37.2674 150.642 36.4605 150.587 35.8717C150.488 34.8394 150.552 33.7853 150.531 33.022V30.354C150.531 30.0269 150.566 29.9324 150.902 29.9324L152.738 29.9543L153.986 30.0996C154.861 30.3032 155.661 30.6448 156.285 31.35C156.789 31.917 157.063 32.6004 157.126 33.3491C157.182 34.0543 157.146 34.7449 156.894 35.4137L156.873 35.4283Z" fill="#C2BFBF"/>
<path d="M107.223 29.3388L107.735 29.4187C108.29 29.4406 108.943 29.2372 109.142 28.4455C109.249 28.0683 109.249 27.6681 109.142 27.2908C109.021 27.2908 108.964 27.3925 108.908 27.4361C108.609 27.6757 108.276 27.821 107.919 27.8572C107.208 27.9372 106.498 27.8935 105.801 27.6322L104.834 27.2908C104.159 27.0656 103.448 26.9713 102.737 27.0075C101.728 27.0874 100.783 27.4288 99.8865 27.9153C98.9347 28.4383 98.266 29.23 97.9463 30.2975C97.7683 30.9221 97.7471 31.5685 97.825 32.2149C98.0242 33.6892 98.7779 34.7205 100.121 35.2652C100.199 35.287 100.264 35.3233 100.342 35.3451C100.52 35.4467 100.541 35.5485 100.377 35.6864L99.8795 36.0278L98.6929 36.7758C98.3935 36.9573 98.3581 37.1026 98.4582 37.4222C98.5786 37.7998 98.792 38.1339 99.0904 38.3953C99.3605 38.635 99.666 38.8239 100.001 38.9618C100.22 39.0636 100.22 39.1071 100.022 39.2886L98.8912 40.1166C98.5148 40.4144 98.1375 40.7049 97.825 41.0898C97.6054 41.3287 97.4466 41.6196 97.3637 41.9364C97.2807 42.2532 97.2757 42.5862 97.3485 42.9055C97.4982 43.61 97.8533 44.2418 98.3793 44.7211C98.8932 45.2093 99.5193 45.5567 100.199 45.7307C101.309 46.0575 102.453 46.0721 103.583 45.8542C105.204 45.5491 106.626 44.8156 107.735 43.5736C108.51 42.7457 108.957 41.7725 109 40.6177C109.093 39.2305 108.182 37.9886 106.86 37.6692L105.794 37.4658L102.531 37.1679C102.176 37.1462 101.821 37.0881 101.521 36.9066C101.145 36.6669 101.046 36.202 101.288 35.897C101.465 35.6719 101.685 35.5339 101.962 35.5121L102.596 35.454C103.846 35.3241 105.019 34.778 105.937 33.8998C106.426 33.4356 106.776 32.8387 106.945 32.1787C107.18 31.3071 107.18 30.4064 106.982 29.5204C106.924 29.2953 106.945 29.2807 107.215 29.317L107.223 29.3388ZM102.375 39.4049C102.495 39.4267 102.61 39.4049 102.73 39.4049C103.562 39.4411 104.415 39.5066 105.226 39.7317C105.489 39.8116 105.752 39.9132 106 40.0368C106.79 40.4798 107.088 41.2497 106.989 42.0776C106.867 42.9854 106.377 43.6317 105.602 44.0603C105.09 44.358 104.514 44.4815 103.918 44.5468C103.697 44.5686 103.505 44.5468 103.284 44.5468C102.596 44.5686 101.92 44.4887 101.265 44.2055C100.811 44.0239 100.434 43.7625 100.1 43.3994C99.4101 42.6949 99.0834 41.4021 100.121 40.349C100.754 39.7462 101.465 39.3251 102.375 39.4049ZM104.636 33.1009C104.223 34.1685 103.306 34.4953 102.403 34.3501C101.572 34.2266 100.96 33.7618 100.562 32.992C100.05 31.9607 99.9078 30.8931 100.206 29.7818C100.427 28.9539 100.917 28.3294 101.792 28.1841C102.901 27.9807 103.96 28.3875 104.522 29.5204C104.813 30.0651 104.934 30.7333 104.934 31.6848C104.913 32.0696 104.834 32.5926 104.636 33.1009ZM79.7118 31.7211C79.5347 30.6316 79.1362 29.6366 78.4038 28.8086C77.3164 27.574 75.9305 27.0366 74.3666 27.0293C73.0014 27.0075 71.7146 27.4142 70.5701 28.1406C69.4398 28.8304 68.6152 29.9343 68.2526 31.2345C67.9186 32.4037 67.9327 33.602 68.1958 34.7931C68.8853 37.9887 71.3024 39.3613 74.1886 39.158C75.0413 39.0999 75.8516 38.8166 76.6194 38.4317C77.7645 37.8871 78.596 37.0154 79.1716 35.8679C79.6268 34.9166 79.8261 33.9071 79.8048 32.7523L79.7118 31.7211ZM76.9036 36.2094C76.6123 37.139 75.8162 37.8071 74.8643 37.9088C73.9964 38.0323 73.1791 37.8071 72.4539 37.2841C71.9279 36.8848 71.5013 36.3691 71.2099 35.7663C70.3995 34.0668 70.2573 32.2947 70.6768 30.4719C70.8119 29.9054 71.0961 29.3969 71.5085 28.9975C72.2406 28.3075 73.0938 28.1478 74.0389 28.3511C74.9493 28.5546 75.6382 29.0556 76.2077 29.8255C76.7762 30.5953 77.0392 31.4813 77.196 32.4109C77.2739 32.8758 77.2739 33.3624 77.2951 33.6602C77.2951 34.6334 77.2172 35.4323 76.9178 36.2094H76.9036ZM122.933 31.8881C122.792 30.7188 122.358 29.6439 121.547 28.7579C120.481 27.5667 119.094 27.0584 117.552 27.0366C116.222 27.0148 115 27.3997 113.869 28.0679C112.604 28.8377 111.73 29.9271 111.396 31.4015C110.998 33.0138 111.162 34.7132 111.872 36.2094C112.526 37.6255 113.635 38.5334 115.1 38.9401C116.72 39.3832 118.263 39.1798 119.77 38.4317C121.078 37.7853 122.003 36.7758 122.543 35.4033C122.862 34.597 122.976 33.7255 122.997 32.716C123.012 32.5345 122.969 32.2077 122.933 31.8881ZM120.204 35.9478C119.883 37.0372 119.216 37.749 118.085 37.9088C117.253 38.0323 116.464 37.8289 115.753 37.3423C115.142 36.9211 114.708 36.3546 114.388 35.6864C114.033 34.9819 113.834 34.2339 113.756 33.464C113.635 32.5126 113.635 31.583 113.855 30.6316C113.898 30.4428 113.955 30.2612 114.033 30.087C114.588 28.6707 115.811 28.0243 117.26 28.3511C118.227 28.5763 118.96 29.121 119.514 29.9489C120.047 30.755 120.303 31.6484 120.424 32.6071C120.481 32.992 120.502 33.3987 120.481 33.74C120.481 34.5317 120.424 35.2579 120.19 35.9625L120.204 35.9478Z" fill="#47474A"/>
</svg>
