<svg width="212" height="112" viewBox="0 0 212 112" fill="none" xmlns="http://www.w3.org/2000/svg">
<path fill-rule="evenodd" clip-rule="evenodd" d="M42 81.5123H46.3235V64.4823L52.9904 79.3339C53.7819 81.115 54.8389 81.7423 56.9507 81.7423C59.0633 81.7423 60.1196 81.115 60.9111 79.3339L67.5779 64.4823V81.5123H71.8682V64.5148C71.8682 62.8653 71.2076 62.0716 69.8547 61.6426C66.5875 60.6196 64.3758 61.5109 63.3861 63.7226L56.8516 78.3434L50.5154 63.7226C49.5582 61.5109 47.314 60.6196 44.0467 61.6426C42.6605 62.0716 42.0007 62.8645 42.0007 64.5148L42 81.5123ZM75.4653 67.6496H79.7555V77.023C79.723 77.5505 79.9205 78.7391 82.2971 78.7724C83.4851 78.8042 91.5707 78.7724 91.6365 78.7724V67.6163H95.96C95.9926 67.6163 95.96 82.8304 95.96 82.897C95.9926 86.6591 91.3066 87.4505 89.1615 87.5171H75.5644V84.6131C75.5644 84.6131 89.129 84.6464 89.1615 84.6131C91.9339 84.349 91.604 82.9635 91.604 82.5012V81.3784H82.4621C78.2044 81.3133 75.4978 79.464 75.4653 77.3189C75.4653 77.1214 75.5644 67.7495 75.4653 67.6496ZM168.171 56.8575C165.532 56.7916 163.518 57.0224 161.769 57.7813C161.274 57.9796 160.515 57.9796 160.416 58.6069C160.68 58.8694 160.746 59.2992 160.944 59.6631C161.373 60.3237 162.067 61.2135 162.693 61.6759C163.354 62.2047 164.047 62.7321 164.772 63.1944C166.093 63.9859 167.545 64.4149 168.765 65.2086C169.525 65.6695 170.251 66.2649 170.977 66.7923C171.306 67.0564 171.571 67.4529 172 67.6171V67.552C171.769 67.2546 171.703 66.8256 171.504 66.4942L170.515 65.5045C169.558 64.2507 168.336 63.1279 167.048 62.2047C166.025 61.4784 163.715 60.4554 163.286 59.2674C163.253 59.2341 163.22 59.2341 163.22 59.2008C163.946 59.101 164.805 58.8384 165.465 58.6719C166.588 58.3761 167.61 58.4412 168.765 58.1445C169.293 57.9789 169.821 57.8472 170.35 57.6822V57.3849C169.756 56.7909 169.36 55.9661 168.7 55.438C167.017 53.986 165.168 52.5665 163.287 51.3785C162.231 50.6855 160.944 50.2564 159.822 49.6957C159.458 49.5308 158.798 49.4317 158.535 49.1018C157.94 48.3754 157.644 47.4182 157.182 46.5602C156.213 44.6778 155.311 42.7623 154.476 40.8172C153.915 39.5301 153.518 38.243 152.826 37.0543C149.393 31.4438 145.73 28.0449 140.021 24.711C138.8 24.018 137.348 23.7213 135.796 23.3581C134.972 23.2916 134.147 23.259 133.321 23.1924C132.826 22.9942 132.298 22.3677 131.803 22.0703C129.922 20.8824 125.07 18.275 123.683 21.7071C122.792 23.8523 125.003 25.9648 125.795 27.0544C126.357 27.8133 127.049 28.6721 127.446 29.5294C127.709 30.0901 127.742 30.6515 127.973 31.2455C128.534 32.7308 128.996 34.3478 129.689 35.7007C130.052 36.3938 130.448 37.1202 130.91 37.7474C131.174 38.1106 131.67 38.2756 131.735 38.8696C131.272 39.5294 131.241 40.5198 130.977 41.3446C129.821 45.0741 130.25 49.6617 131.966 52.4334C132.495 53.2581 133.716 55.0733 135.432 54.381C136.918 53.7537 136.587 51.9052 137.016 50.2224C137.116 49.8592 137.049 49.5951 137.247 49.3311V49.3969C137.676 50.3208 138.138 51.2121 138.601 52.1027C139.59 53.7204 141.373 55.4365 142.892 56.5579C143.65 57.1519 144.277 58.1756 145.3 58.5048V58.4382H145.202C145.003 58.1423 144.706 58.0099 144.475 57.7784C143.881 57.1844 143.221 56.458 142.726 55.7982C141.374 53.9497 140.152 51.9037 139.03 49.7912C138.501 48.7682 138.039 47.646 137.612 46.623C137.445 46.2273 137.445 45.6333 137.083 45.4018C136.587 46.1607 135.895 46.788 135.498 47.6793C134.904 49.0988 134.805 50.8474 134.608 52.6301C134.475 52.6959 134.508 52.6627 134.441 52.7292C133.386 52.4652 133.022 51.3756 132.627 50.4517C131.67 48.1084 131.471 44.3463 132.329 41.6397C132.56 40.9466 133.585 38.7682 133.156 38.1084C132.956 37.4812 132.329 37.0854 131.967 36.5906C131.505 35.9966 131.076 35.2044 130.746 34.5113C129.955 32.6628 129.591 30.6168 128.732 28.769C128.303 27.8777 127.644 26.9863 127.083 26.2274C126.455 25.3361 125.762 24.7096 125.268 23.6533C125.103 23.2901 124.873 22.6961 125.103 22.2996C125.202 22.0356 125.302 21.9364 125.564 21.8373C125.993 21.5074 127.215 21.9697 127.676 22.1339C128.865 22.6621 129.888 23.1244 130.911 23.8175C131.406 24.1474 131.902 24.7739 132.496 24.9396H133.156C134.213 25.1704 135.4 25.0054 136.39 25.3028C138.139 25.8302 139.723 26.6557 141.143 27.5803C145.499 30.3194 149.031 34.2139 151.473 38.8673C151.868 39.6263 152.033 40.3194 152.364 41.1116C153.058 42.7293 153.948 44.3788 154.641 45.93C155.301 47.5144 155.994 49.0988 156.951 50.3851C157.48 51.0782 159.459 51.4414 160.351 51.8039C160.978 52.0679 162 52.3646 162.596 52.7285C163.75 53.3883 164.839 54.2138 165.929 54.9727C166.455 55.3396 168.105 56.1644 168.171 56.8575Z" fill="#00678C"/>
<path fill-rule="evenodd" clip-rule="evenodd" d="M134.508 28.1777C134.053 28.1779 133.599 28.2335 133.156 28.3434V28.4092H133.255C133.519 28.9374 133.981 29.3006 134.311 29.7621C134.542 30.2903 134.807 30.8184 135.037 31.3466L135.136 31.2475C135.598 30.9508 135.796 30.4227 135.796 29.5979C135.631 29.3997 135.598 29.1689 135.434 28.9374C135.202 28.6067 134.807 28.4418 134.508 28.1777Z" fill="#00678C"/>
<path fill-rule="evenodd" clip-rule="evenodd" d="M99.293 81.5119H111.669C113.121 81.5119 114.54 81.2145 115.662 80.6856C117.509 79.829 118.434 78.673 118.434 77.1551V73.9869C118.434 72.7664 117.378 71.5785 115.366 70.8188C114.276 70.3898 112.956 70.1916 111.669 70.1916H106.455C104.705 70.1916 103.881 69.6628 103.682 68.5088C103.649 68.3772 103.649 68.2448 103.649 68.1131V66.1655C103.649 66.0338 103.649 65.9346 103.682 65.8029C103.881 64.9116 104.342 64.6476 105.861 64.516C105.992 64.516 106.157 64.4827 106.29 64.4827H118.6V61.6119H106.488C104.739 61.6119 103.847 61.7435 103.023 61.9743C100.448 62.799 99.3263 64.0537 99.3263 66.2653V68.7736C99.3263 70.7213 101.537 72.3707 105.201 72.7664C105.63 72.7664 106.026 72.7998 106.455 72.7998H110.911C111.076 72.7998 111.24 72.7998 111.371 72.8331C112.758 72.9648 113.319 73.1956 113.748 73.6897C113.979 73.9537 114.079 74.1853 114.079 74.4826V76.9909C114.079 77.2883 113.881 77.6847 113.451 78.0138C113.088 78.3445 112.46 78.5427 111.636 78.6078C111.471 78.6078 111.34 78.6412 111.173 78.6412H99.293V81.5119ZM145.299 76.4939C145.299 79.4645 147.477 81.1139 151.933 81.4445C152.329 81.4778 152.758 81.5111 153.154 81.5111H164.375V78.6389H153.087C150.546 78.6389 149.589 78.0117 149.589 76.4939V61.6104H145.298L145.299 76.4939ZM121.174 76.6588V66.4287C121.174 63.8213 122.988 62.2377 126.619 61.7421C126.983 61.6755 127.412 61.6754 127.774 61.6754H135.958C136.354 61.6754 136.718 61.6755 137.147 61.7421C140.744 62.2377 142.592 63.8213 142.592 66.4287V76.6588C142.592 78.7721 141.8 79.8935 140.018 80.6199L144.275 84.4484H139.259L135.827 81.3788L132.36 81.577H127.773C126.982 81.577 126.156 81.4786 125.232 81.2145C122.494 80.4874 121.174 79.0354 121.174 76.6588ZM125.827 76.3961C125.827 76.5611 125.861 76.6921 125.894 76.8585C126.158 78.0457 127.279 78.7063 128.962 78.7063H132.891L129.294 75.4715H134.309L137.444 78.2773C138.006 77.9799 138.402 77.5176 138.534 76.9236C138.567 76.7587 138.567 76.6277 138.567 76.4946V66.6602C138.567 66.5604 138.567 66.4295 138.534 66.2963C138.27 65.1749 137.148 64.5484 135.497 64.5484H128.963C127.049 64.5484 125.828 65.3732 125.828 66.6602L125.827 76.3961ZM166.356 81.5119H166.983V79.1352H167.841V78.6396H165.498V79.1352H166.356V81.5119ZM171.174 81.5119H171.735V78.6396H170.877L170.119 80.6206L169.361 78.6396H168.469V81.5119H169.063V79.3335L169.888 81.5119H170.317L171.142 79.3335H171.175V81.5119H171.174Z" fill="#CE8B2C"/>
<path fill-rule="evenodd" clip-rule="evenodd" d="M44.6072 54.8115L42.1973 43.6562H43.4185L44.8047 50.9829C44.9696 51.7418 45.1021 52.5007 45.2012 53.2596L45.6302 51.1803L47.3796 43.6554H48.7983L50.1187 49.2993C50.4486 50.6855 50.6794 52.0051 50.8443 53.2596C50.9434 52.534 51.1084 51.7085 51.3066 50.8179L52.7254 43.6562H53.9799L51.439 54.8115H50.2836L48.3367 46.3294L48.0394 45.0091C47.9735 45.5039 47.8744 45.9337 47.7753 46.3294L45.8277 54.8115H44.6072ZM54.7395 49.3992C54.7395 47.4848 55.1686 46.0328 55.9933 45.0091C56.8188 43.9861 57.8744 43.4912 59.1289 43.4912C59.9204 43.4912 60.68 43.6895 61.3398 44.151C61.9997 44.6126 62.5278 45.2731 62.9243 46.1312C63.2875 47.0218 63.4857 48.0448 63.4857 49.266C63.4857 50.9163 63.1225 52.2366 62.3628 53.2922C61.5381 54.4476 60.4493 55.0083 59.1289 55.0083C57.7753 55.0083 56.6864 54.4143 55.8617 53.2589C55.102 52.1715 54.7395 50.8845 54.7395 49.3992ZM55.9933 49.3992C55.9933 50.7854 56.2899 51.8416 56.8847 52.6006C57.5119 53.3595 58.2376 53.756 59.0956 53.756C59.9869 53.756 60.7459 53.3595 61.3398 52.6006C61.9338 51.8416 62.2312 50.7195 62.2312 49.2342C62.2312 48.2445 62.0995 47.419 61.7689 46.6608C61.5381 46.0668 61.1749 45.6045 60.7126 45.2746C60.2565 44.9298 59.6999 44.7443 59.1282 44.7465C58.2035 44.7465 57.4446 45.1089 56.8839 45.8686C56.2899 46.6268 55.9933 47.8147 55.9933 49.3992ZM65.0028 54.8115V43.6562H69.0623C69.887 43.6562 70.5143 43.7553 70.9108 43.9861C71.3398 44.1843 71.6697 44.5142 71.9005 45.0091C72.1646 45.5039 72.297 46.0654 72.297 46.6919C72.297 47.5507 72.0987 48.2105 71.6371 48.7386C71.2074 49.2668 70.5809 49.5967 69.7228 49.7616C70.086 49.9599 70.3168 50.1581 70.515 50.3556C70.8782 50.7846 71.1756 51.2469 71.4722 51.7743L73.0559 54.8108H71.538L70.3168 52.5C69.8219 51.6086 69.492 50.9821 69.228 50.6848C68.9972 50.3548 68.7656 50.1233 68.5349 50.0242C68.3041 49.9251 68.0067 49.8592 67.611 49.8592H66.2248V54.81H65.0028V54.8115ZM66.2241 48.5737H68.7982C69.3589 48.5737 69.7879 48.5078 70.0853 48.3754C70.3819 48.2438 70.6127 48.0122 70.8109 47.7482C70.9759 47.4508 71.0417 47.0876 71.0417 46.6919C71.0417 46.1312 70.8767 45.7022 70.5468 45.3723C70.2169 45.0424 69.7546 44.8774 69.0948 44.8774H66.2233L66.2241 48.5737ZM74.178 54.8115V43.6562H75.3992V49.2009L79.921 43.6562H81.5705L77.7093 48.1779L81.7355 54.8115H80.1185L76.8845 49.2009L75.3992 50.9503V54.8115H74.178ZM82.2969 51.2144L83.4523 51.1153C83.5181 51.7092 83.6505 52.2041 83.8813 52.534C84.0796 52.8972 84.4095 53.1613 84.8052 53.3588C85.2017 53.5895 85.6633 53.6887 86.1589 53.6887C86.8845 53.6887 87.4126 53.4904 87.8091 53.1613C88.2048 52.7981 88.4031 52.3358 88.4031 51.7751C88.4031 51.4452 88.3373 51.1811 88.2048 50.917C88.0732 50.6862 87.8417 50.488 87.5443 50.323C87.2477 50.1581 86.6204 49.9273 85.6633 49.6632C84.8052 49.3992 84.1779 49.1351 83.8148 48.871C83.4473 48.6356 83.1507 48.3048 82.9567 47.9139C82.7585 47.5174 82.6594 47.0558 82.6594 46.5609C82.6594 45.6363 82.9567 44.9107 83.5174 44.3493C84.1114 43.7553 84.9036 43.4912 85.8933 43.4912C86.5531 43.4912 87.1471 43.6229 87.6752 43.887C88.1701 44.151 88.5666 44.5468 88.8632 45.0424C89.1517 45.5916 89.2991 46.2039 89.2922 46.8243L88.1368 46.9234C88.1035 46.1978 87.8727 45.6696 87.5095 45.3064C87.1131 44.9432 86.6182 44.7783 85.9258 44.7783C85.232 44.7783 84.7046 44.9432 84.374 45.2406C84.1949 45.3817 84.0511 45.5624 83.9538 45.7686C83.8565 45.9747 83.8084 46.2006 83.8133 46.4285C83.8133 46.8909 83.9457 47.2208 84.2098 47.4848C84.4731 47.7156 85.0678 47.9797 85.9917 48.2438C86.9156 48.4745 87.5428 48.7061 87.906 48.871C88.4674 49.1676 88.8957 49.5308 89.1598 49.9931C89.4572 50.4554 89.5888 51.0161 89.5888 51.6434C89.5928 52.257 89.4332 52.8606 89.1265 53.392C88.8292 53.9202 88.4334 54.3167 87.9053 54.58C87.4104 54.8766 86.7832 55.009 86.0568 55.009C84.9347 55.009 84.0108 54.6791 83.351 53.986C82.6912 53.2929 82.3294 52.369 82.2969 51.2144ZM96.752 54.8115L94.3428 43.6562H95.5641L96.9503 50.9829C97.1152 51.7418 97.2469 52.5007 97.3468 53.2596L97.7758 51.1803L99.5244 43.6554H100.944L102.264 49.2993C102.574 50.606 102.816 51.9279 102.99 53.2596C103.089 52.534 103.254 51.7085 103.419 50.8179L104.871 43.6562H106.125L103.584 54.8115H102.428L100.481 46.3294L100.184 45.0091C100.118 45.5039 100.019 45.9337 99.9201 46.3294L97.9733 54.8115H96.752ZM107.445 54.8115V43.6562H108.666V54.8115H107.445ZM113.121 54.8115V44.9765H110.118V43.6562H117.346V44.9765H114.311V54.8115H113.121ZM118.535 54.8115V43.6562H119.756V48.2438H124.508V43.6562H125.73V54.8115H124.508V49.5641H119.756V54.8115H118.535Z" fill="#00678C"/>
</svg>
