<svg width="155" height="60" viewBox="0 0 155 60" fill="none" xmlns="http://www.w3.org/2000/svg">
<path d="M28.0352 0.0161386C27.9062 0.0279386 27.4956 0.0689385 27.1261 0.0982385C18.6041 0.866539 10.6217 5.46404 5.566 12.5304C2.7507 16.4595 0.9501 20.9163 0.2698 25.637C0.0293002 27.2849 0 27.7716 0 30.0059C0 32.2402 0.0293002 32.7269 0.2698 34.3747C1.9003 45.6399 9.9179 55.1048 20.7918 58.6116C22.739 59.2391 24.7918 59.6672 27.1261 59.9252C28.0352 60.0249 31.9648 60.0249 32.8739 59.9252C36.9032 59.4796 40.3167 58.4826 43.6833 56.7644C44.1994 56.5005 44.2991 56.4301 44.2287 56.3715C44.1818 56.3363 41.9824 53.3866 39.3431 49.8211L34.5455 43.3412L28.5337 34.4451C25.2258 29.5543 22.5044 25.5549 22.4809 25.5549C22.4575 25.5491 22.434 29.5016 22.4223 34.3278C22.4047 42.7782 22.3988 43.1183 22.2933 43.3177C22.1408 43.605 22.0235 43.7223 21.7771 43.8513C21.5894 43.9452 21.4252 43.9628 20.5396 43.9628H19.5249L19.2551 43.7927C19.0792 43.6813 18.9501 43.5347 18.8622 43.3646L18.739 43.1007L18.7507 31.3429L18.7683 19.5793L18.9501 19.3505C19.044 19.2274 19.2434 19.0691 19.3842 18.9928C19.6246 18.8755 19.7185 18.8638 20.7331 18.8638C21.9296 18.8638 22.129 18.9107 22.4399 19.2509C22.5279 19.3447 25.783 24.2472 29.6774 30.1525C33.5718 36.0578 38.8974 44.1211 41.5132 48.0795L46.2639 55.2749L46.5044 55.1166C48.6334 53.7326 50.8856 51.7622 52.6686 49.7097C56.4633 45.3526 58.9091 40.0396 59.7302 34.3747C59.9707 32.7269 60 32.2402 60 30.0059C60 27.7716 59.9707 27.2849 59.7302 25.637C58.0997 14.3718 50.0821 4.90694 39.2082 1.40014C37.2903 0.778539 35.2493 0.350438 32.9619 0.0924383C32.3988 0.0337383 28.522 -0.0307614 28.0352 0.0161386ZM40.3167 18.1601C40.5982 18.3008 40.827 18.5706 40.9091 18.8521C40.956 19.0046 40.9677 22.2651 40.956 29.613L40.9384 40.1569L39.0792 37.3069L37.2141 34.4568V26.7923C37.2141 21.837 37.2375 19.0515 37.2727 18.9166C37.3666 18.5882 37.5718 18.3302 37.8534 18.1777C38.0938 18.0546 38.1818 18.0428 39.1026 18.0428C39.9707 18.0428 40.1232 18.0546 40.3167 18.1601Z" fill="black"/>
<path d="M93.877 18.5191H108.965V19.7119H95.26V28.6888H108.148V29.8815H95.26V39.7374H109.123V40.93H93.877V18.5191ZM110.317 18.5191H111.92L119.025 28.3749L126.286 18.5189L136.163 6L119.936 29.4108L128.298 40.93H126.632L119.025 30.4465L111.386 40.93H109.751L118.176 29.4107L110.317 18.5191ZM128.895 19.7119V18.5189H146.09V19.7118H138.168V40.9299H136.785V19.7119H128.895ZM75 18.5189H76.729L100.57 54L90.718 40.9299L76.446 20.214L76.383 40.9302H75V18.5189ZM145.951 39.3771C145.668 39.3771 145.456 39.1596 145.456 38.878C145.456 38.5967 145.668 38.3789 145.951 38.3789C146.237 38.3789 146.445 38.5966 146.445 38.878C146.445 39.1594 146.237 39.3771 145.951 39.3771ZM147.31 38.064H148.05C148.06 38.4626 148.353 38.7307 148.783 38.7307C149.264 38.7307 149.537 38.4426 149.537 37.9032V34.486H150.29V37.9065C150.29 38.878 149.725 39.4376 148.79 39.4376C147.912 39.4376 147.31 38.8949 147.31 38.064ZM151.276 38.0205H152.023C152.087 38.4794 152.537 38.7708 153.187 38.7708C153.792 38.7708 154.236 38.4592 154.236 38.0305C154.236 37.662 153.954 37.4409 153.311 37.2901L152.685 37.1394C151.807 36.9349 151.407 36.5128 151.407 35.8027C151.407 34.9418 152.114 34.3688 153.173 34.3688C154.159 34.3688 154.879 34.9416 154.923 35.7557H154.189C154.119 35.3102 153.728 35.032 153.163 35.032C152.568 35.032 152.171 35.3169 152.171 35.7523C152.171 36.0973 152.426 36.2951 153.059 36.4424L153.594 36.5731C154.59 36.8044 155 37.2064 155 37.9333C155 38.858 154.28 39.4376 153.13 39.4376C152.053 39.4376 151.33 38.8848 151.276 38.0205Z" fill="black"/>
</svg>
