<svg width="141" height="55" viewBox="0 0 141 55" fill="none" xmlns="http://www.w3.org/2000/svg">
<path d="M29.9873 23.1221C29.8468 23.0421 29.6879 23 29.5262 23C29.3645 23 29.2056 23.0421 29.0651 23.1221L21.4521 27.516C21.1627 27.6787 21 27.9862 21 28.3116V37.1182C21 37.4437 21.1808 37.7511 21.4521 37.9138L29.0651 42.3081C29.2056 42.388 29.3645 42.4301 29.5262 42.4301C29.6879 42.4301 29.8468 42.388 29.9873 42.3081L37.6004 37.9138C37.8897 37.7511 38.0526 37.4437 38.0526 37.1182V28.3118C38.0526 27.9863 37.8715 27.6789 37.6004 27.5162L29.9873 23.1221Z" fill="url(#paint0_linear_50_94)"/>
<path d="M113.744 0.586801C115.11 -0.193799 116.89 -0.197399 118.255 0.586801C125.122 4.4602 131.992 8.3275 138.858 12.2033C140.149 12.9295 141.013 14.3641 141 15.8495V39.1535C141.009 40.7004 140.06 42.1693 138.698 42.879C131.853 46.7311 125.012 50.5878 118.168 54.4399C116.774 55.2358 114.959 55.1745 113.608 54.3134C111.556 53.1259 109.5 51.9443 107.448 50.7581C107.028 50.5085 106.556 50.3099 106.26 49.904C106.521 49.5518 106.989 49.5079 107.37 49.3542C108.226 49.0823 109.013 48.6458 109.8 48.2223C109.999 48.0864 110.242 48.1385 110.433 48.2601C112.187 49.2644 113.927 50.2979 115.687 51.2926C116.063 51.5091 116.443 51.2217 116.764 51.0431C123.481 47.2537 130.206 43.4786 136.922 39.688C137.17 39.5686 137.308 39.3049 137.288 39.0328C137.293 31.3453 137.289 23.6565 137.29 15.969C137.319 15.6603 137.14 15.3764 136.86 15.2501C130.039 11.4157 123.222 7.5753 116.402 3.7399C116.284 3.6588 116.144 3.6153 116 3.6151C115.857 3.6149 115.717 3.658 115.598 3.7387C108.778 7.5753 101.962 11.4192 95.1419 15.2534C94.8639 15.38 94.6769 15.6591 94.7099 15.969C94.7109 23.6565 94.7099 31.3453 94.7099 39.034C94.6979 39.1667 94.7269 39.2999 94.7939 39.4156C94.8599 39.5313 94.9599 39.6239 95.0809 39.681C96.9009 40.7112 98.7229 41.7341 100.544 42.7607C101.57 43.3119 102.83 43.6394 103.96 43.2171C104.957 42.86 105.657 41.8439 105.638 40.7868C105.647 33.1441 105.633 25.5003 105.645 17.8589C105.62 17.5196 105.942 17.2393 106.273 17.2712C107.147 17.2654 108.023 17.2595 108.897 17.2736C109.262 17.2654 109.513 17.6307 109.468 17.9725C109.465 25.6635 109.477 33.3547 109.462 41.0457C109.465 43.0955 108.621 45.3258 106.722 46.3287C104.382 47.5387 101.489 47.2821 99.1779 46.1219C97.1769 45.1248 95.2669 43.9481 93.3009 42.88C91.9349 42.1742 90.9909 40.6994 90.9999 39.1537V15.8495C90.9859 14.3334 91.8839 12.8726 93.2159 12.1571C100.059 8.3019 106.902 4.4437 113.744 0.586801Z" fill="#8CC84B"/>
<path d="M119.715 16.7292C122.699 16.5375 125.895 16.6156 128.581 18.0834C130.66 19.2081 131.813 21.5687 131.85 23.8749C131.792 24.186 131.466 24.3576 131.168 24.3362C130.302 24.335 129.436 24.348 128.57 24.3303C128.203 24.3444 127.989 24.0063 127.943 23.6821C127.694 22.5787 127.092 21.4859 126.051 20.9537C124.454 20.1554 122.602 20.1957 120.86 20.2123C119.589 20.2797 118.222 20.3895 117.145 21.1358C116.318 21.7012 116.067 22.8424 116.362 23.7615C116.64 24.4214 117.403 24.6343 118.028 24.8306C121.625 25.7697 125.436 25.6762 128.965 26.9121C130.425 27.4159 131.854 28.3953 132.354 29.922C133.008 31.9682 132.722 34.4141 131.263 36.0568C130.081 37.4085 128.358 38.1443 126.64 38.5439C124.354 39.0526 121.983 39.0655 119.661 38.8397C117.479 38.5913 115.208 38.0189 113.523 36.5345C112.082 35.2857 111.378 33.34 111.448 31.4621C111.465 31.1449 111.781 30.9238 112.085 30.9498C112.958 30.9428 113.83 30.9405 114.702 30.9511C115.05 30.9262 115.308 31.2266 115.326 31.5543C115.487 32.6057 115.883 33.7091 116.801 34.3324C118.574 35.4738 120.798 35.3957 122.827 35.4277C124.508 35.3532 126.396 35.3306 127.768 34.2213C128.492 33.5886 128.706 32.5301 128.511 31.6195C128.299 30.8506 127.493 30.4923 126.801 30.258C123.25 29.1367 119.396 29.5437 115.879 28.2757C114.452 27.7721 113.071 26.8198 112.523 25.3558C111.757 23.2837 112.108 20.7208 113.719 19.1335C115.29 17.5547 117.558 16.9469 119.715 16.7292Z" fill="#8CC84B"/>
<path d="M17.179 28.3835C17.179 28.058 16.9982 27.7504 16.7089 27.5877L9.0416 23.1755C8.9149 23.103 8.7703 23.0669 8.6257 23.0487H8.5533C8.4087 23.0487 8.264 23.103 8.1374 23.1755L0.4702 27.5877C0.1807 27.7504 0 28.0579 0 28.3835L0.0181007 40.2459C0.0181007 40.4086 0.108601 40.5714 0.253201 40.6438C0.397901 40.7342 0.578599 40.7342 0.705299 40.6438L5.2623 38.0398C5.5516 37.8771 5.7324 37.5696 5.7324 37.2442V31.6926C5.7324 31.3672 5.9132 31.0597 6.2026 30.897L8.1374 29.7758C8.2821 29.6854 8.4449 29.6491 8.6076 29.6491C8.7703 29.6491 8.933 29.6854 9.0598 29.7758L10.9946 30.897C11.284 31.0597 11.4647 31.367 11.4647 31.6926V37.2442C11.4647 37.5696 11.6456 37.8771 11.9349 38.0398L16.4919 40.6438C16.6366 40.7342 16.8173 40.7342 16.962 40.6438C17.1067 40.5714 17.1972 40.4086 17.1972 40.2459L17.179 28.3835ZM54.0325 12.0543C53.8879 11.9819 53.7071 11.9819 53.5803 12.0543C53.4358 12.1448 53.3453 12.2893 53.3453 12.4521V24.2062C53.3453 24.3147 53.2912 24.4231 53.1826 24.4955C53.0742 24.5497 52.9656 24.5497 52.8572 24.4955L50.9404 23.3925C50.7998 23.3125 50.6409 23.2704 50.4792 23.2704C50.3175 23.2704 50.1585 23.3125 50.018 23.3925L42.3508 27.8229C42.0615 27.9856 41.8806 28.293 41.8806 28.6185V37.4611C41.8806 37.7865 42.0615 38.0941 42.3508 38.2568L50.018 42.6872C50.1585 42.7672 50.3175 42.8093 50.4792 42.8093C50.6409 42.8093 50.7998 42.7672 50.9404 42.6872L58.6076 38.2568C58.8969 38.0941 59.0778 37.7867 59.0778 37.4611V15.4178C59.0778 15.0742 58.8969 14.7669 58.6076 14.604L54.0325 12.0543ZM53.3273 34.5498C53.3273 34.6402 53.2912 34.7125 53.2188 34.7486L50.5968 36.2676C50.5601 36.2854 50.5199 36.2947 50.4792 36.2947C50.4384 36.2947 50.3982 36.2854 50.3616 36.2676L47.7396 34.7486C47.6672 34.7125 47.631 34.6221 47.631 34.5498V31.5118C47.631 31.4213 47.6672 31.349 47.7396 31.3129L50.3616 29.7938C50.3982 29.7759 50.4384 29.7667 50.4792 29.7667C50.5199 29.7667 50.5601 29.7759 50.5968 29.7938L53.2188 31.3129C53.2912 31.3489 53.3273 31.4395 53.3273 31.5118V34.5498ZM79.548 31.4395C79.837 31.2768 80 30.9693 80 30.6437V28.4919C80 28.1665 79.819 27.859 79.548 27.6963L71.935 23.2841C71.794 23.2041 71.635 23.162 71.474 23.162C71.312 23.162 71.153 23.2041 71.013 23.2841L63.345 27.7143C63.056 27.877 62.875 28.1844 62.875 28.51V37.3526C62.875 37.6781 63.056 37.9855 63.345 38.1482L70.958 42.4882C71.248 42.6509 71.591 42.6509 71.863 42.4882L76.474 39.9206C76.618 39.8482 76.709 39.6855 76.709 39.5228C76.709 39.36 76.618 39.1973 76.474 39.1249L68.77 34.6945C68.626 34.6042 68.535 34.4595 68.535 34.2968V31.5301C68.535 31.3673 68.626 31.2046 68.77 31.1322L71.175 29.7578C71.246 29.7135 71.327 29.69 71.41 29.69C71.494 29.69 71.575 29.7135 71.646 29.7578L74.051 31.1322C74.195 31.2226 74.286 31.3672 74.286 31.5301V33.7C74.286 33.8628 74.376 34.0255 74.521 34.0978C74.665 34.1882 74.846 34.1882 74.991 34.0978L79.548 31.4395Z" fill="#333333"/>
<path d="M71.3551 31.0232C71.3811 31.0056 71.4131 30.9961 71.4451 30.9961C71.4771 30.9961 71.5081 31.0056 71.5351 31.0232L73.0001 31.8731C73.0541 31.9091 73.0901 31.9634 73.0901 32.0358V33.7356C73.0901 33.8079 73.0541 33.8622 73.0001 33.8984L71.5351 34.7483C71.5081 34.7659 71.4771 34.7753 71.4451 34.7753C71.4131 34.7753 71.3811 34.7659 71.3551 34.7483L69.8901 33.8984C69.8351 33.8622 69.7991 33.8079 69.7991 33.7356V32.0358C69.7991 31.9634 69.8351 31.9091 69.8901 31.8731L71.3551 31.0232Z" fill="#539E43"/>
<mask id="mask0_50_94" style="mask-type:luminance" maskUnits="userSpaceOnUse" x="21" y="23" width="18" height="20">
<path d="M29.9966 23.3202C29.8561 23.2403 29.6972 23.1982 29.5355 23.1982C29.3738 23.1982 29.2149 23.2403 29.0744 23.3202L21.4615 27.7142C21.172 27.8769 21.0093 28.1843 21.0093 28.5098V37.3164C21.0093 37.6418 21.1901 37.9493 21.4615 38.112L29.0744 42.5062C29.2149 42.5862 29.3738 42.6283 29.5355 42.6283C29.6972 42.6283 29.8561 42.5862 29.9966 42.5062L37.6097 38.112C37.899 37.9493 38.0619 37.6418 38.0619 37.3164V28.5099C38.0619 28.1845 37.8809 27.877 37.6097 27.7143L29.9966 23.3202Z" fill="white"/>
</mask>
<g mask="url(#mask0_50_94)">
<path fill-rule="evenodd" clip-rule="evenodd" d="M37.6509 38.1132C37.8679 37.9866 38.0306 37.7696 38.103 37.5346L29.7122 23.2127C29.4951 23.1766 29.26 23.1946 29.0613 23.3211L21.4663 27.6974L29.6579 42.634C29.777 42.6145 29.8927 42.578 30.0015 42.5256L37.6509 38.1132Z" fill="url(#paint1_linear_50_94)"/>
<path fill-rule="evenodd" clip-rule="evenodd" d="M37.6485 38.1134L30.0174 42.5076C29.9097 42.5625 29.7936 42.5992 29.6738 42.616L29.8186 42.8873L38.2814 37.9869V37.8784L38.0644 37.5166C38.0283 37.7698 37.8655 37.9868 37.6485 38.1134Z" fill="url(#paint2_linear_50_94)"/>
<path fill-rule="evenodd" clip-rule="evenodd" d="M37.6485 38.1134L30.0174 42.5076C29.9097 42.5625 29.7936 42.5992 29.6738 42.616L29.8186 42.8873L38.2814 37.9869V37.8784L38.0644 37.5166C38.0283 37.7698 37.8655 37.9868 37.6485 38.1134Z" fill="url(#paint3_linear_50_94)"/>
</g>
<defs>
<linearGradient id="paint0_linear_50_94" x1="1183.78" y1="362.774" x2="349.329" y2="1673.95" gradientUnits="userSpaceOnUse">
<stop stop-color="#41873F"/>
<stop offset="0.3288" stop-color="#418B3D"/>
<stop offset="0.6352" stop-color="#419637"/>
<stop offset="0.9319" stop-color="#3FA92D"/>
<stop offset="1" stop-color="#3FAE2A"/>
</linearGradient>
<linearGradient id="paint1_linear_50_94" x1="-51.5523" y1="995.021" x2="1710.08" y2="995.021" gradientUnits="userSpaceOnUse">
<stop offset="0.09192" stop-color="#6CC04A"/>
<stop offset="0.2864" stop-color="#66B848"/>
<stop offset="0.5968" stop-color="#54A044"/>
<stop offset="0.8624" stop-color="#41873F"/>
</linearGradient>
<linearGradient id="paint2_linear_50_94" x1="-864.319" y1="307.529" x2="897.294" y2="307.529" gradientUnits="userSpaceOnUse">
<stop offset="0.09192" stop-color="#6CC04A"/>
<stop offset="0.2864" stop-color="#66B848"/>
<stop offset="0.5968" stop-color="#54A044"/>
<stop offset="0.8624" stop-color="#41873F"/>
</linearGradient>
<linearGradient id="paint3_linear_50_94" x1="1153.94" y1="-1096.07" x2="707.653" y2="1242.45" gradientUnits="userSpaceOnUse">
<stop stop-color="#41873F"/>
<stop offset="0.3288" stop-color="#418B3D"/>
<stop offset="0.6352" stop-color="#419637"/>
<stop offset="0.9319" stop-color="#3FA92D"/>
<stop offset="1" stop-color="#3FAE2A"/>
</linearGradient>
</defs>
</svg>
