<svg width="168" height="50" viewBox="0 0 168 50" fill="none" xmlns="http://www.w3.org/2000/svg">
<path d="M60.9099 17.9996L66.5799 5.39956H68.8839L74.5719 17.9996H72.1239L67.2459 6.64155H68.1819L63.3219 17.9996H60.9099ZM63.5199 15.0836L64.1499 13.2476H70.9539L71.5839 15.0836H63.5199ZM79.9389 18.1256C79.0149 18.1256 78.1804 17.9216 77.4364 17.5136C76.7044 17.0936 76.1284 16.5176 75.7084 15.7856C75.2884 15.0536 75.0784 14.1896 75.0784 13.1936C75.0784 12.1976 75.2884 11.3336 75.7084 10.6016C76.1284 9.86955 76.7044 9.29955 77.4364 8.89155C78.1804 8.48355 79.0149 8.27955 79.9389 8.27955C80.7429 8.27955 81.4629 8.45955 82.0989 8.81955C82.7349 9.16755 83.2389 9.70155 83.6109 10.4216C83.9829 11.1416 84.1689 12.0656 84.1689 13.1936C84.1689 14.3096 83.9889 15.2336 83.6289 15.9656C83.2689 16.6856 82.7709 17.2256 82.1349 17.5856C81.4989 17.9456 80.7669 18.1256 79.9389 18.1256ZM80.2089 16.1996C80.7489 16.1996 81.2289 16.0796 81.6489 15.8396C82.0809 15.5996 82.4229 15.2516 82.6749 14.7956C82.9389 14.3396 83.0709 13.8056 83.0709 13.1936C83.0709 12.5696 82.9389 12.0356 82.6749 11.5916C82.4229 11.1356 82.0809 10.7876 81.6489 10.5476C81.2289 10.3076 80.7489 10.1876 80.2089 10.1876C79.6689 10.1876 79.1829 10.3076 78.7504 10.5476C78.3304 10.7876 77.9884 11.1356 77.7244 11.5916C77.4724 12.0356 77.3464 12.5696 77.3464 13.1936C77.3464 13.8056 77.4724 14.3396 77.7244 14.7956C77.9884 15.2516 78.3304 15.5996 78.7504 15.8396C79.1829 16.0796 79.6689 16.1996 80.2089 16.1996ZM83.1249 17.9996V15.7316L83.2149 13.1756L83.0349 10.6196V4.64355H85.2669V17.9996H83.1249ZM92.5479 18.1256C91.5639 18.1256 90.6879 17.9156 89.9199 17.4956C89.1519 17.0636 88.5459 16.4756 88.1019 15.7316C87.6579 14.9876 87.4359 14.1416 87.4359 13.1936C87.4359 12.2336 87.6579 11.3876 88.1019 10.6556C88.5459 9.91155 89.1519 9.32955 89.9199 8.90955C90.6879 8.48955 91.5639 8.27955 92.5479 8.27955C93.5439 8.27955 94.4259 8.48955 95.1939 8.90955C95.9739 9.32955 96.5799 9.90555 97.0119 10.6376C97.4559 11.3696 97.6779 12.2216 97.6779 13.1936C97.6779 14.1416 97.4559 14.9876 97.0119 15.7316C96.5799 16.4756 95.9739 17.0636 95.1939 17.4956C94.4259 17.9156 93.5439 18.1256 92.5479 18.1256ZM92.5479 16.1996C93.0999 16.1996 93.5919 16.0796 94.0239 15.8396C94.4559 15.5996 94.7919 15.2516 95.0319 14.7956C95.2839 14.3396 95.4099 13.8056 95.4099 13.1936C95.4099 12.5696 95.2839 12.0356 95.0319 11.5916C94.7919 11.1356 94.4559 10.7876 94.0239 10.5476C93.5919 10.3076 93.1059 10.1876 92.5659 10.1876C92.0139 10.1876 91.5219 10.3076 91.0899 10.5476C90.6699 10.7876 90.3339 11.1356 90.0819 11.5916C89.8299 12.0356 89.7039 12.5696 89.7039 13.1936C89.7039 13.8056 89.8299 14.3396 90.0819 14.7956C90.3339 15.2516 90.6699 15.5996 91.0899 15.8396C91.5219 16.0796 92.0079 16.1996 92.5479 16.1996ZM105.158 18.1256C104.342 18.1256 103.616 17.9456 102.98 17.5856C102.344 17.2256 101.84 16.6856 101.468 15.9656C101.108 15.2336 100.928 14.3096 100.928 13.1936C100.928 12.0656 101.114 11.1416 101.486 10.4216C101.87 9.70155 102.38 9.16755 103.016 8.81955C103.664 8.45955 104.378 8.27955 105.158 8.27955C106.106 8.27955 106.94 8.48355 107.66 8.89155C108.392 9.29955 108.968 9.86955 109.388 10.6016C109.82 11.3336 110.036 12.1976 110.036 13.1936C110.036 14.1896 109.82 15.0536 109.388 15.7856C108.968 16.5176 108.392 17.0936 107.66 17.5136C106.94 17.9216 106.106 18.1256 105.158 18.1256ZM99.8299 17.9996V4.64355H102.08V10.6196L101.9 13.1756L101.972 15.7316V17.9996H99.8299ZM104.906 16.1996C105.446 16.1996 105.926 16.0796 106.346 15.8396C106.778 15.5996 107.12 15.2516 107.372 14.7956C107.624 14.3396 107.75 13.8056 107.75 13.1936C107.75 12.5696 107.624 12.0356 107.372 11.5916C107.12 11.1356 106.778 10.7876 106.346 10.5476C105.926 10.3076 105.446 10.1876 104.906 10.1876C104.366 10.1876 103.88 10.3076 103.448 10.5476C103.016 10.7876 102.674 11.1356 102.422 11.5916C102.17 12.0356 102.044 12.5696 102.044 13.1936C102.044 13.8056 102.17 14.3396 102.422 14.7956C102.674 15.2516 103.016 15.5996 103.448 15.8396C103.88 16.0796 104.366 16.1996 104.906 16.1996ZM116.687 18.1256C115.619 18.1256 114.683 17.9156 113.879 17.4956C113.087 17.0636 112.469 16.4756 112.025 15.7316C111.593 14.9876 111.377 14.1416 111.377 13.1936C111.377 12.2336 111.587 11.3876 112.007 10.6556C112.439 9.91155 113.027 9.32955 113.771 8.90955C114.527 8.48955 115.385 8.27955 116.345 8.27955C117.281 8.27955 118.115 8.48355 118.847 8.89155C119.579 9.29955 120.155 9.87555 120.575 10.6196C120.995 11.3636 121.205 12.2396 121.205 13.2476C121.205 13.3436 121.199 13.4516 121.187 13.5716C121.187 13.6916 121.181 13.8056 121.169 13.9136H113.159V12.4196H119.981L119.099 12.8876C119.111 12.3356 118.997 11.8496 118.757 11.4296C118.517 11.0096 118.187 10.6796 117.767 10.4396C117.359 10.1996 116.885 10.0796 116.345 10.0796C115.793 10.0796 115.307 10.1996 114.887 10.4396C114.479 10.6796 114.155 11.0156 113.915 11.4476C113.687 11.8676 113.573 12.3656 113.573 12.9416V13.3016C113.573 13.8776 113.705 14.3876 113.969 14.8316C114.233 15.2756 114.605 15.6176 115.085 15.8576C115.565 16.0976 116.117 16.2176 116.741 16.2176C117.281 16.2176 117.767 16.1336 118.199 15.9656C118.631 15.7976 119.015 15.5336 119.351 15.1736L120.557 16.5596C120.125 17.0636 119.579 17.4536 118.919 17.7296C118.271 17.9936 117.527 18.1256 116.687 18.1256Z" fill="black"/>
<path d="M62.7859 41.0003V27.7003H68.2579C69.4359 27.7003 70.4429 27.8903 71.2789 28.2703C72.1276 28.6503 72.7799 29.195 73.2359 29.9043C73.6919 30.6136 73.9199 31.456 73.9199 32.4313C73.9199 33.4066 73.6919 34.249 73.2359 34.9583C72.7799 35.6676 72.1276 36.2123 71.2789 36.5923C70.4429 36.9723 69.4359 37.1623 68.2579 37.1623H64.1539L65.2559 36.0033V41.0003H62.7859ZM65.2559 36.2693L64.1539 35.0723H68.1439C69.2332 35.0723 70.0502 34.8443 70.5949 34.3883C71.1522 33.9196 71.4309 33.2673 71.4309 32.4313C71.4309 31.5826 71.1522 30.9303 70.5949 30.4743C70.0502 30.0183 69.2332 29.7903 68.1439 29.7903H64.1539L65.2559 28.5743V36.2693ZM82.1009 30.7403C82.9119 30.7403 83.6339 30.8986 84.2669 31.2153C84.9129 31.532 85.4199 32.0196 85.7869 32.6783C86.1539 33.3243 86.3379 34.1603 86.3379 35.1863V41.0003H83.9629V35.4903C83.9629 34.591 83.7479 33.9196 83.3169 33.4763C82.8989 33.033 82.3099 32.8113 81.5499 32.8113C80.9929 32.8113 80.4989 32.9253 80.0679 33.1533C79.6369 33.3813 79.3019 33.7233 79.0609 34.1793C78.833 34.6226 78.719 35.1863 78.719 35.8703V41.0003H76.344V26.9023H78.719V33.5903L78.206 32.7543C78.5607 32.1083 79.0739 31.6143 79.7449 31.2723C80.4289 30.9176 81.2139 30.7403 82.1009 30.7403ZM93.9299 41.1333C92.8909 41.1333 91.9659 40.9116 91.1559 40.4683C90.3449 40.0123 89.7049 39.3916 89.2369 38.6063C88.7679 37.821 88.5339 36.928 88.5339 35.9273C88.5339 34.914 88.7679 34.021 89.2369 33.2483C89.7049 32.463 90.3449 31.8486 91.1559 31.4053C91.9659 30.962 92.8909 30.7403 93.9299 30.7403C94.9809 30.7403 95.9119 30.962 96.7229 31.4053C97.5459 31.8486 98.1859 32.4566 98.6419 33.2293C99.1099 34.002 99.3449 34.9013 99.3449 35.9273C99.3449 36.928 99.1099 37.821 98.6419 38.6063C98.1859 39.3916 97.5459 40.0123 96.7229 40.4683C95.9119 40.9116 94.9809 41.1333 93.9299 41.1333ZM93.9299 39.1003C94.5119 39.1003 95.0319 38.9736 95.4879 38.7203C95.9439 38.467 96.2979 38.0996 96.5519 37.6183C96.8179 37.137 96.9509 36.5733 96.9509 35.9273C96.9509 35.2686 96.8179 34.705 96.5519 34.2363C96.2979 33.755 95.9439 33.3876 95.4879 33.1343C95.0319 32.881 94.5189 32.7543 93.9489 32.7543C93.3659 32.7543 92.8469 32.881 92.3909 33.1343C91.9469 33.3876 91.5929 33.755 91.3269 34.2363C91.0609 34.705 90.9279 35.2686 90.9279 35.9273C90.9279 36.5733 91.0609 37.137 91.3269 37.6183C91.5929 38.0996 91.9469 38.467 92.3909 38.7203C92.8469 38.9736 93.3599 39.1003 93.9299 39.1003ZM105.435 41.1333C104.32 41.1333 103.459 40.8483 102.851 40.2783C102.243 39.6956 101.939 38.8406 101.939 37.7133V28.6123H104.314V37.6563C104.314 38.1376 104.434 38.5113 104.675 38.7773C104.928 39.0433 105.276 39.1763 105.72 39.1763C106.252 39.1763 106.695 39.037 107.05 38.7583L107.715 40.4493C107.436 40.6773 107.094 40.8483 106.689 40.9623C106.283 41.0763 105.865 41.1333 105.435 41.1333ZM100.267 32.8303V30.9303H107.031V32.8303H100.267ZM113.894 41.1333C112.856 41.1333 111.931 40.9116 111.12 40.4683C110.31 40.0123 109.67 39.3916 109.201 38.6063C108.733 37.821 108.498 36.928 108.498 35.9273C108.498 34.914 108.733 34.021 109.201 33.2483C109.67 32.463 110.31 31.8486 111.12 31.4053C111.931 30.962 112.856 30.7403 113.894 30.7403C114.946 30.7403 115.877 30.962 116.687 31.4053C117.511 31.8486 118.15 32.4566 118.606 33.2293C119.075 34.002 119.309 34.9013 119.309 35.9273C119.309 36.928 119.075 37.821 118.606 38.6063C118.15 39.3916 117.511 40.0123 116.687 40.4683C115.877 40.9116 114.946 41.1333 113.894 41.1333ZM113.894 39.1003C114.477 39.1003 114.996 38.9736 115.452 38.7203C115.908 38.467 116.263 38.0996 116.516 37.6183C116.782 37.137 116.915 36.5733 116.915 35.9273C116.915 35.2686 116.782 34.705 116.516 34.2363C116.263 33.755 115.908 33.3876 115.452 33.1343C114.996 32.881 114.483 32.7543 113.913 32.7543C113.331 32.7543 112.811 32.881 112.355 33.1343C111.912 33.3876 111.557 33.755 111.291 34.2363C111.025 34.705 110.892 35.2686 110.892 35.9273C110.892 36.5733 111.025 37.137 111.291 37.6183C111.557 38.0996 111.912 38.467 112.355 38.7203C112.811 38.9736 113.324 39.1003 113.894 39.1003ZM124.715 41.1333C123.867 41.1333 123.05 41.0256 122.264 40.8103C121.492 40.5823 120.877 40.31 120.421 39.9933L121.333 38.1883C121.789 38.4796 122.334 38.7203 122.967 38.9103C123.601 39.1003 124.234 39.1953 124.867 39.1953C125.615 39.1953 126.153 39.094 126.482 38.8913C126.824 38.6886 126.995 38.4163 126.995 38.0743C126.995 37.7956 126.881 37.5866 126.653 37.4473C126.425 37.2953 126.128 37.1813 125.76 37.1053C125.393 37.0293 124.981 36.9596 124.525 36.8963C124.082 36.833 123.632 36.7506 123.176 36.6493C122.733 36.5353 122.328 36.377 121.96 36.1743C121.593 35.959 121.295 35.674 121.067 35.3193C120.839 34.9646 120.725 34.496 120.725 33.9133C120.725 33.2673 120.909 32.71 121.276 32.2413C121.644 31.76 122.157 31.3926 122.815 31.1393C123.487 30.8733 124.278 30.7403 125.19 30.7403C125.874 30.7403 126.565 30.8163 127.261 30.9683C127.958 31.1203 128.534 31.3356 128.99 31.6143L128.078 33.4193C127.597 33.128 127.109 32.9316 126.615 32.8303C126.134 32.7163 125.653 32.6593 125.171 32.6593C124.449 32.6593 123.911 32.767 123.556 32.9823C123.214 33.1976 123.043 33.47 123.043 33.7993C123.043 34.1033 123.157 34.3313 123.385 34.4833C123.613 34.6353 123.911 34.7556 124.278 34.8443C124.646 34.933 125.051 35.009 125.494 35.0723C125.95 35.123 126.4 35.2053 126.843 35.3193C127.287 35.4333 127.692 35.5916 128.059 35.7943C128.439 35.9843 128.743 36.2566 128.971 36.6113C129.199 36.966 129.313 37.4283 129.313 37.9983C129.313 38.6316 129.123 39.1826 128.743 39.6513C128.376 40.12 127.85 40.4873 127.166 40.7533C126.482 41.0066 125.665 41.1333 124.715 41.1333ZM137.116 30.7403C137.926 30.7403 138.648 30.8986 139.282 31.2153C139.928 31.532 140.434 32.0196 140.802 32.6783C141.169 33.3243 141.353 34.1603 141.353 35.1863V41.0003H138.978V35.4903C138.978 34.591 138.762 33.9196 138.332 33.4763C137.914 33.033 137.325 32.8113 136.565 32.8113C136.007 32.8113 135.513 32.9253 135.083 33.1533C134.652 33.3813 134.316 33.7233 134.076 34.1793C133.848 34.6226 133.734 35.1863 133.734 35.8703V41.0003H131.359V26.9023H133.734V33.5903L133.221 32.7543C133.575 32.1083 134.088 31.6143 134.76 31.2723C135.444 30.9176 136.229 30.7403 137.116 30.7403ZM148.944 41.1333C147.906 41.1333 146.981 40.9116 146.17 40.4683C145.36 40.0123 144.72 39.3916 144.251 38.6063C143.783 37.821 143.548 36.928 143.548 35.9273C143.548 34.914 143.783 34.021 144.251 33.2483C144.72 32.463 145.36 31.8486 146.17 31.4053C146.981 30.962 147.906 30.7403 148.944 30.7403C149.996 30.7403 150.927 30.962 151.737 31.4053C152.561 31.8486 153.2 32.4566 153.656 33.2293C154.125 34.002 154.359 34.9013 154.359 35.9273C154.359 36.928 154.125 37.821 153.656 38.6063C153.2 39.3916 152.561 40.0123 151.737 40.4683C150.927 40.9116 149.996 41.1333 148.944 41.1333ZM148.944 39.1003C149.527 39.1003 150.046 38.9736 150.502 38.7203C150.958 38.467 151.313 38.0996 151.566 37.6183C151.832 37.137 151.965 36.5733 151.965 35.9273C151.965 35.2686 151.832 34.705 151.566 34.2363C151.313 33.755 150.958 33.3876 150.502 33.1343C150.046 32.881 149.533 32.7543 148.963 32.7543C148.381 32.7543 147.861 32.881 147.405 33.1343C146.962 33.3876 146.607 33.755 146.341 34.2363C146.075 34.705 145.942 35.2686 145.942 35.9273C145.942 36.5733 146.075 37.137 146.341 37.6183C146.607 38.0996 146.962 38.467 147.405 38.7203C147.861 38.9736 148.374 39.1003 148.944 39.1003ZM162.254 41.1333C161.431 41.1333 160.677 40.9433 159.993 40.5633C159.322 40.1833 158.784 39.6133 158.378 38.8533C157.986 38.0806 157.789 37.1053 157.789 35.9273C157.789 34.7366 157.979 33.7613 158.359 33.0013C158.752 32.2413 159.284 31.6776 159.955 31.3103C160.627 30.9303 161.393 30.7403 162.254 30.7403C163.255 30.7403 164.135 30.9556 164.895 31.3863C165.668 31.817 166.276 32.4186 166.719 33.1913C167.175 33.964 167.403 34.876 167.403 35.9273C167.403 36.9786 167.175 37.897 166.719 38.6823C166.276 39.455 165.668 40.0566 164.895 40.4873C164.135 40.918 163.255 41.1333 162.254 41.1333ZM156.63 44.6863V30.8543H158.891V33.2483L158.815 35.9463L159.005 38.6443V44.6863H156.63ZM161.988 39.1003C162.558 39.1003 163.065 38.9736 163.508 38.7203C163.964 38.467 164.325 38.0996 164.591 37.6183C164.857 37.137 164.99 36.5733 164.99 35.9273C164.99 35.2686 164.857 34.705 164.591 34.2363C164.325 33.755 163.964 33.3876 163.508 33.1343C163.065 32.881 162.558 32.7543 161.988 32.7543C161.418 32.7543 160.905 32.881 160.449 33.1343C159.993 33.3876 159.632 33.755 159.366 34.2363C159.1 34.705 158.967 35.2686 158.967 35.9273C158.967 36.5733 159.1 37.137 159.366 37.6183C159.632 38.0996 159.993 38.467 160.449 38.7203C160.905 38.9736 161.418 39.1003 161.988 39.1003Z" fill="black"/>
<path d="M2.08203 2.13672H47.9154V47.8632H2.08203V2.13672Z" fill="url(#paint0_radial_50_290)"/>
<path d="M2.0833 2.1367H47.9167V47.8632H2.0833V2.1367ZM0 50H50V0H0V50ZM33.7083 20.5128C32.0625 20.5128 31.5 21.3675 31.5 22.0726C31.5 22.8418 31.875 23.376 34.0834 24.5512C37.3542 26.1752 38.375 27.735 38.375 30.0213C38.375 33.4401 35.8334 35.2777 32.3958 35.2777C30.5833 35.2777 29.0208 34.8931 28.125 34.3589C27.9792 34.2949 27.9584 34.188 27.9584 34.017V30.876C27.9584 30.6624 28.0625 30.5982 28.2084 30.7051C29.5209 31.5812 31.0209 31.9658 32.3958 31.9658C34.0417 31.9658 34.7292 31.2606 34.7292 30.2991C34.7292 29.5299 34.25 28.8461 32.1458 27.735C29.1874 26.282 27.9584 24.8077 27.9584 22.3504C27.9584 19.5939 30.0626 17.3077 33.7083 17.3077C35.5 17.3077 36.75 17.5855 37.4375 17.906C37.6042 18.0128 37.6458 18.1837 37.6458 18.3333V21.2605C37.6458 21.4315 37.5417 21.5384 37.3333 21.4742C36.4166 20.8761 35.0625 20.5128 33.7083 20.5128ZM15.7916 23.0555C16.2708 23.0982 16.6459 23.0982 17.4792 23.0982C19.9168 23.0982 22.2084 22.2222 22.2084 18.8248C22.2084 16.1112 20.5625 14.7436 17.7917 14.7436C16.9584 14.7436 16.1667 14.7863 15.7916 14.8077V23.0555ZM12.0834 11.7094C12.0834 11.5598 12.3751 11.4529 12.5417 11.4529C13.8751 11.3888 15.8542 11.3461 17.9167 11.3461C23.6875 11.3461 25.9375 14.5939 25.9375 18.7393C25.9375 24.1666 22.1041 26.4957 17.3958 26.4957C16.6042 26.4957 16.3334 26.4529 15.7708 26.4529V34.6581C15.7708 34.829 15.7083 34.9144 15.5208 34.9144H12.3334C12.1667 34.9144 12.0833 34.8503 12.0833 34.6581L12.0834 11.7094Z" fill="#31C5F0"/>
<defs>
<radialGradient id="paint0_radial_50_290" cx="0" cy="0" r="1" gradientUnits="userSpaceOnUse" gradientTransform="translate(17.1773 12.3841) scale(34.8334 34.5897)">
<stop stop-color="#34364E" stop-opacity="0.98"/>
<stop offset="1" stop-color="#0C0824"/>
</radialGradient>
</defs>
</svg>
