<svg width="102" height="53" viewBox="0 0 102 53" fill="none" xmlns="http://www.w3.org/2000/svg">
<path d="M51 53C79.167 53 102 41.1355 102 26.5C102 11.8645 79.167 0 51 0C22.8335 0 0 11.8645 0 26.5C0 41.1355 22.8335 53 51 53Z" fill="#8993BE"/>
<path fill-rule="evenodd" clip-rule="evenodd" d="M17.3223 44.1906L22.9115 15.947H35.8357C41.4245 16.2958 44.2192 19.085 44.2192 23.967C44.2192 32.3354 37.5824 37.217 31.6437 36.8682H25.3568L23.9594 44.1906H17.3223ZM26.7537 31.6382L28.5004 21.1774H33.0414C35.4866 21.1774 37.233 22.2234 37.233 24.3154C36.884 30.2434 34.0893 31.2894 30.9456 31.6382H26.7537ZM42.9207 36.8682L48.51 8.625H55.147L53.749 15.947H60.037C65.626 16.2958 67.722 19.085 67.023 22.5722L64.578 36.8682H57.592L60.037 23.967C60.386 22.2234 60.386 21.1774 57.941 21.1774H52.702L49.558 36.8682H42.9207ZM64.131 44.1906L69.72 15.947H82.644C88.233 16.2958 91.028 19.085 91.028 23.967C91.028 32.3354 84.391 37.217 78.453 36.8682H72.165L70.767 44.1906H64.131ZM73.562 31.6382L75.308 21.1774H79.85C82.295 21.1774 84.041 22.2234 84.041 24.3154C83.692 30.2434 80.898 31.2894 77.754 31.6382H73.562Z" fill="#232531"/>
</svg>
