<svg width="174" height="53" viewBox="0 0 174 53" fill="none" xmlns="http://www.w3.org/2000/svg">
<path d="M49.8677 31.7481C49.5672 30.8123 48.7799 30.1606 47.7619 30.0042C47.2818 29.9305 46.732 29.9619 46.0815 30.0998C44.9475 30.3403 44.1062 30.4319 43.4922 30.4496C45.8097 26.4268 47.6941 21.8393 48.7789 17.521C50.5331 10.5384 49.5957 7.35731 48.5003 5.91851C45.6014 2.11011 41.3719 0.0641141 36.2695 0.00151408C33.5475 -0.0326859 31.158 0.519815 29.9115 0.917215C28.7509 0.706615 27.503 0.589116 26.1936 0.567316C23.7391 0.527116 21.5704 1.07721 19.7173 2.20791C18.6914 1.85121 17.0449 1.34842 15.1435 1.02752C10.6714 0.272715 7.06706 0.860815 4.43066 2.77571C1.23826 5.09421 -0.241641 9.12252 0.0320587 14.7486C0.118959 16.5349 1.09076 21.9698 2.62106 27.1241C3.50046 30.0867 4.43826 32.5469 5.40836 34.437C6.78416 37.1172 8.25626 38.6956 9.90876 39.2624C10.8351 39.5796 12.518 39.8019 14.2881 38.2861C14.5125 38.5655 14.8118 38.8431 15.2091 39.101C15.7136 39.4281 16.3305 39.6954 16.9466 39.8538C19.167 40.4245 21.2468 40.2817 23.0211 39.4818C23.0321 39.8063 23.0405 40.1163 23.0476 40.384C23.0593 40.8182 23.0711 41.2439 23.0865 41.6421C23.1917 44.3342 23.3698 46.4274 23.8976 47.892C23.9266 47.9725 23.9656 48.0953 24.0067 48.2255C24.27 49.0545 24.7103 50.4422 25.8306 51.529C26.9906 52.6548 28.3938 53 29.6789 53C30.3234 53 30.9383 52.913 31.4777 52.7943C33.4003 52.3706 35.5838 51.7252 37.1634 49.4128C38.6568 47.2267 39.3828 43.9342 39.5142 38.7463C39.5312 38.5995 39.5469 38.4594 39.5619 38.326L39.5933 38.0518L39.9451 38.0836L40.0357 38.0899C41.9939 38.1817 44.3883 37.7547 45.8589 37.0524C47.0208 36.498 50.7444 34.4769 49.8677 31.7481Z" fill="black"/>
<path d="M46.5198 32.2792C40.6973 33.5142 40.2969 31.4873 40.2969 31.4873C46.4444 22.1085 49.0144 10.2035 46.7968 7.28977C40.7464 -0.658232 30.2731 3.10067 30.0982 3.19807L30.042 3.20857C28.8916 2.96297 27.6044 2.81687 26.1573 2.79247C23.5229 2.74817 21.5244 3.50267 20.0078 4.68507C20.0078 4.68507 1.32437 -3.22853 2.19347 14.6378C2.37827 18.4386 7.49207 43.397 13.5915 35.8584C15.8208 33.1017 17.975 30.771 17.975 30.771C19.0448 31.5016 20.3256 31.8744 21.6683 31.7406L21.7726 31.6496C21.7401 31.9918 21.755 32.3265 21.8143 32.7229C20.243 34.5279 20.7048 34.8447 17.5637 35.5096C14.3852 36.1831 16.2524 37.382 17.4715 37.6956C18.9494 38.0755 22.3686 38.6137 24.6788 35.2886L24.5868 35.668C25.2023 36.175 25.6346 38.9658 25.5622 41.4958C25.4897 44.0257 25.4414 45.7626 25.9263 47.1193C26.4117 48.476 26.895 51.5286 31.0245 50.619C34.4747 49.8587 36.2628 47.8887 36.5116 44.6024C36.688 42.2662 37.0876 42.6116 37.1127 40.5228L37.4332 39.534C37.8026 36.3671 37.4919 35.3453 39.6175 35.8206L40.1344 35.8673C41.6987 35.9403 43.7465 35.6084 44.9485 35.0341C47.5363 33.7994 49.0716 31.7376 46.5198 32.2792Z" fill="#336791"/>
<path d="M21.1005 16.3373C20.5758 16.2622 20.1006 16.3316 19.8602 16.5188C19.7251 16.6241 19.6832 16.7461 19.6719 16.83C19.6417 17.0524 19.7933 17.2984 19.8864 17.4252C20.15 17.7843 20.5349 18.0311 20.9159 18.0855C20.9711 18.0935 21.0261 18.0972 21.0807 18.0972C21.716 18.0972 22.2938 17.5885 22.3447 17.2131C22.4083 16.7429 21.7444 16.4292 21.1005 16.3373ZM38.4828 16.3522C38.4326 15.9836 37.7948 15.8785 37.1894 15.9651C36.5849 16.0516 35.9987 16.3322 36.0476 16.7016C36.0868 16.9888 36.5913 17.4792 37.1884 17.4792C37.239 17.4792 37.2899 17.4758 37.3412 17.4683C37.7398 17.4116 38.0323 17.1513 38.1713 17.0013C38.3827 16.7727 38.5053 16.5178 38.4828 16.3522Z" fill="white"/>
<path d="M48.4563 32.139C48.2343 31.4487 47.5196 31.2267 46.3324 31.4787C42.8074 32.2267 41.545 31.7086 41.1305 31.3948C43.8705 27.1032 46.1245 21.9155 47.3405 17.0755C47.9165 14.7827 48.2346 12.6535 48.2607 10.9179C48.2895 9.01314 47.9739 7.61334 47.3231 6.75824C44.6992 3.31114 40.8482 1.46204 36.1866 1.41134C32.9819 1.37424 30.2742 2.21744 29.7493 2.45464C28.644 2.17204 27.4389 1.99844 26.127 1.97634C23.7212 1.93624 21.6416 2.52844 19.9199 3.73564C19.172 3.44944 17.2393 2.76724 14.8756 2.37574C10.7893 1.69934 7.54201 2.21184 5.22481 3.89974C2.45971 5.91384 1.18321 9.51415 1.43051 14.6004C1.51371 16.3115 2.46211 21.5757 3.95861 26.6171C5.92861 33.2525 8.07001 37.0088 10.3231 37.7816C10.5868 37.872 10.8909 37.9352 11.2262 37.9352C12.0481 37.9352 13.0558 37.5543 14.1042 36.2584C15.383 34.6812 16.7058 33.1423 18.071 31.6436C18.9567 32.1323 19.9297 32.4053 20.9249 32.4327C20.9268 32.4594 20.9294 32.4862 20.9317 32.5128C20.7604 32.7228 20.5927 32.9359 20.4286 33.1519C19.739 34.0519 19.5955 34.2393 17.3759 34.7091C16.7445 34.8431 15.0677 35.1984 15.043 36.407C15.0164 37.7275 17.0253 38.282 17.2542 38.3408C18.0518 38.5461 18.8202 38.6474 19.553 38.6474C21.3352 38.6474 22.9036 38.0451 24.157 36.8798C24.1185 41.5872 24.3093 46.2258 24.8591 47.6391C25.3094 48.7961 26.4093 51.6237 29.8836 51.6235C30.3935 51.6235 30.9546 51.5625 31.5719 51.4264C35.1979 50.6273 36.7726 48.9795 37.3817 45.3468C37.7077 43.4053 38.267 38.7693 38.5301 36.2826C39.0854 36.4607 39.8002 36.5422 40.5729 36.542C42.1846 36.542 44.0443 36.19 45.2106 35.6334C46.5208 35.0078 48.885 33.4727 48.4563 32.139ZM39.8211 15.3351C39.8092 16.0692 39.7109 16.7357 39.6067 17.4313C39.4946 18.1795 39.3787 18.9531 39.3495 19.8921C39.3207 20.806 39.4317 21.7561 39.539 22.675C39.7559 24.5309 39.9785 26.4416 39.1169 28.3269C38.9738 28.0661 38.8463 27.7967 38.7351 27.5199C38.628 27.253 38.3954 26.8242 38.0734 26.2308C36.8206 23.9208 33.8868 18.5113 35.3886 16.3039C35.836 15.6469 36.9713 14.9713 39.8211 15.3351ZM36.3668 2.89784C40.5436 2.99264 43.8476 4.59914 46.1868 7.67254C47.9809 10.0298 46.0053 20.7561 40.2859 30.0097C40.2284 29.9345 40.1706 29.8596 40.1124 29.7849L40.04 29.6919C41.518 27.1823 41.229 24.6994 40.9717 22.4981C40.866 21.5947 40.7662 20.7414 40.7916 19.9398C40.8179 19.0904 40.9271 18.3617 41.0328 17.6572C41.1626 16.789 41.2948 15.8906 41.2584 14.8316C41.2856 14.7205 41.2965 14.5893 41.2822 14.4335C41.1892 13.418 40.0615 10.3787 37.7631 7.62784C36.5058 6.12314 34.6723 4.43934 32.1688 3.30364C33.2456 3.07424 34.7181 2.86024 36.3668 2.89784ZM12.9947 35.3099C11.8396 36.7379 11.042 36.4641 10.7797 36.3744C9.07051 35.7882 7.08721 32.074 5.33871 26.1841C3.82571 21.0878 2.94151 15.9631 2.87151 14.5261C2.65061 9.98134 3.72211 6.81404 6.05641 5.11184C9.85541 2.34204 16.1012 3.99994 18.6109 4.84074C18.5749 4.87734 18.5373 4.91155 18.5017 4.94885C14.3832 9.22505 14.4809 16.5312 14.4911 16.9778C14.4907 17.1501 14.5048 17.3941 14.524 17.7297C14.5949 18.9585 14.7268 21.2456 14.3744 23.8357C14.0471 26.2425 14.7687 28.5982 16.354 30.299C16.5166 30.4732 16.6876 30.639 16.8663 30.7957C16.1607 31.5727 14.6272 33.291 12.9947 35.3099ZM17.3957 29.2726C16.118 27.9018 15.5377 25.9951 15.8034 24.041C16.1754 21.305 16.0382 18.9221 15.9644 17.6419C15.954 17.4627 15.9448 17.3057 15.9395 17.1819C16.5411 16.6334 19.3293 15.0975 21.3176 15.566C22.2249 15.7795 22.7778 16.4148 23.0076 17.5074C24.1972 23.1643 23.165 25.5221 22.3357 27.4168C22.1648 27.8072 22.0032 28.1761 21.8654 28.5578L21.7585 28.8529C21.4879 29.5989 21.2362 30.2925 21.0801 30.9511C19.7218 30.9471 18.4005 30.3507 17.3957 29.2726ZM17.6042 36.9015C17.2076 36.7997 16.8509 36.6228 16.6416 36.476C16.8164 36.3915 17.1275 36.2763 17.6671 36.162C20.2782 35.6095 20.6815 35.2194 21.5621 34.0698C21.764 33.8061 21.9929 33.5074 22.3098 33.1434C22.7819 32.5999 22.9982 32.6917 23.3898 32.8588C23.7071 32.9937 24.0163 33.4027 24.1416 33.8528C24.2009 34.0653 24.2675 34.4687 24.0495 34.7827C22.21 37.4309 19.5293 37.3969 17.6042 36.9015ZM31.2696 49.9759C28.0752 50.6796 26.9442 49.0039 26.1988 47.0882C25.7178 45.8514 25.4813 40.2744 25.6491 34.1155C25.6512 34.0335 25.6399 33.9544 25.618 33.88C25.5983 33.7329 25.5685 33.5874 25.5287 33.4448C25.2793 32.5486 24.6713 31.799 23.9421 31.4882C23.6523 31.3648 23.1206 31.1383 22.4815 31.3064C22.6178 30.7291 22.8541 30.0771 23.1104 29.3712L23.2179 29.0743C23.3389 28.7395 23.4908 28.3927 23.6513 28.0256C24.5192 26.0432 25.7078 23.328 24.4178 17.194C23.9346 14.8965 22.321 13.7745 19.8749 14.0351C18.4085 14.1911 17.0668 14.7994 16.3976 15.1483C16.2537 15.2232 16.1222 15.2956 15.9992 15.3661C16.186 13.0512 16.8916 8.72504 19.5311 5.98794C21.1931 4.26484 23.4064 3.41375 26.1031 3.45965C31.4166 3.54905 34.824 6.35265 36.747 8.68905C38.4041 10.7021 39.3013 12.7302 39.6594 13.824C36.9664 13.5424 35.1349 14.0889 34.2065 15.4536C32.1866 18.4223 35.3115 24.1841 36.8133 26.9533C37.0888 27.4607 37.3265 27.8993 37.4013 28.0857C37.8903 29.3044 38.5235 30.118 38.9857 30.7118C39.1275 30.8938 39.2649 31.0703 39.3695 31.2245C38.5538 31.4663 37.0888 32.0248 37.2223 34.817C37.1146 36.218 36.3489 42.7773 35.9599 45.0948C35.4464 48.1564 34.3506 49.2965 31.2696 49.9759ZM44.6031 34.288C43.7691 34.6859 42.3733 34.9844 41.0475 35.0487C39.5831 35.1191 38.8375 34.88 38.6621 34.7328C38.5799 32.9929 39.2097 32.8111 39.8763 32.6187C39.9811 32.5885 40.0833 32.5589 40.182 32.5234C40.2432 32.5748 40.3104 32.6257 40.384 32.6756C41.561 33.4743 43.6604 33.5605 46.6243 32.9315L46.6568 32.9248C46.2571 33.3091 45.573 33.8248 44.6031 34.288Z" fill="white"/>
<path d="M59.7859 32.9998V19.6998H65.2579C66.4359 19.6998 67.4429 19.8898 68.2789 20.2698C69.1276 20.6498 69.7799 21.1945 70.2359 21.9038C70.6919 22.6131 70.9199 23.4555 70.9199 24.4308C70.9199 25.4061 70.6919 26.2485 70.2359 26.9578C69.7799 27.6671 69.1276 28.2118 68.2789 28.5918C67.4429 28.9718 66.4359 29.1618 65.2579 29.1618H61.1539L62.2559 28.0028V32.9998H59.7859ZM62.2559 28.2688L61.1539 27.0718H65.1439C66.2332 27.0718 67.0502 26.8438 67.5949 26.3878C68.1522 25.9191 68.4309 25.2668 68.4309 24.4308C68.4309 23.5821 68.1522 22.9298 67.5949 22.4738C67.0502 22.0178 66.2332 21.7898 65.1439 21.7898H61.1539L62.2559 20.5738V28.2688ZM77.6814 33.1328C76.6427 33.1328 75.718 32.9111 74.9074 32.4678C74.0967 32.0118 73.457 31.3911 72.9884 30.6058C72.5197 29.8205 72.2854 28.9275 72.2854 27.9268C72.2854 26.9135 72.5197 26.0205 72.9884 25.2478C73.457 24.4625 74.0967 23.8481 74.9074 23.4048C75.718 22.9615 76.6427 22.7398 77.6814 22.7398C78.7327 22.7398 79.6637 22.9615 80.4744 23.4048C81.2979 23.8481 81.9369 24.4561 82.3929 25.2288C82.8619 26.0015 83.0959 26.9008 83.0959 27.9268C83.0959 28.9275 82.8619 29.8205 82.3929 30.6058C81.9369 31.3911 81.2979 32.0118 80.4744 32.4678C79.6637 32.9111 78.7327 33.1328 77.6814 33.1328ZM77.6814 31.0998C78.264 31.0998 78.7834 30.9731 79.2394 30.7198C79.6954 30.4665 80.05 30.0991 80.3034 29.6178C80.5694 29.1365 80.7024 28.5728 80.7024 27.9268C80.7024 27.2681 80.5694 26.7045 80.3034 26.2358C80.05 25.7545 79.6954 25.3871 79.2394 25.1338C78.7834 24.8805 78.2704 24.7538 77.7004 24.7538C77.1177 24.7538 76.5984 24.8805 76.1424 25.1338C75.699 25.3871 75.3444 25.7545 75.0784 26.2358C74.8124 26.7045 74.6794 27.2681 74.6794 27.9268C74.6794 28.5728 74.8124 29.1365 75.0784 29.6178C75.3444 30.0991 75.699 30.4665 76.1424 30.7198C76.5984 30.9731 77.1114 31.0998 77.6814 31.0998ZM88.5029 33.1328C87.6539 33.1328 86.8369 33.0251 86.0519 32.8098C85.2789 32.5818 84.6649 32.3095 84.2089 31.9928L85.1209 30.1878C85.5769 30.4791 86.1209 30.7198 86.7549 30.9098C87.3879 31.0998 88.0209 31.1948 88.6549 31.1948C89.4019 31.1948 89.9399 31.0935 90.2699 30.8908C90.6119 30.6881 90.7829 30.4158 90.7829 30.0738C90.7829 29.7951 90.6689 29.5861 90.4409 29.4468C90.2129 29.2948 89.9149 29.1808 89.5479 29.1048C89.1799 29.0288 88.7689 28.9591 88.3129 28.8958C87.8689 28.8325 87.4199 28.7501 86.9639 28.6488C86.5199 28.5348 86.1149 28.3765 85.7479 28.1738C85.3799 27.9585 85.0829 27.6735 84.8549 27.3188C84.6269 26.9641 84.5129 26.4955 84.5129 25.9128C84.5129 25.2668 84.6959 24.7095 85.0639 24.2408C85.4309 23.7595 85.9439 23.3921 86.6029 23.1388C87.2739 22.8728 88.0659 22.7398 88.9779 22.7398C89.6619 22.7398 90.3519 22.8158 91.0489 22.9678C91.7449 23.1198 92.3219 23.3351 92.7779 23.6138L91.8659 25.4188C91.3839 25.1275 90.8969 24.9311 90.4029 24.8298C89.9209 24.7158 89.4399 24.6588 88.9589 24.6588C88.2369 24.6588 87.6979 24.7665 87.3439 24.9818C87.0019 25.1971 86.8309 25.4695 86.8309 25.7988C86.8309 26.1028 86.9449 26.3308 87.1729 26.4828C87.4009 26.6348 87.6979 26.7551 88.0659 26.8438C88.4329 26.9325 88.8379 27.0085 89.2819 27.0718C89.7379 27.1225 90.1869 27.2048 90.6309 27.3188C91.0739 27.4328 91.4789 27.5911 91.8469 27.7938C92.2269 27.9838 92.5309 28.2561 92.7589 28.6108C92.9869 28.9655 93.1009 29.4278 93.1009 29.9978C93.1009 30.6311 92.9109 31.1821 92.5309 31.6508C92.1629 32.1195 91.6379 32.4868 90.9539 32.7528C90.2699 33.0061 89.4529 33.1328 88.5029 33.1328ZM98.9649 33.1328C97.8499 33.1328 96.9889 32.8478 96.3809 32.2778C95.7729 31.6951 95.4689 30.8401 95.4689 29.7128V20.6118H97.8439V29.6558C97.8439 30.1371 97.9639 30.5108 98.2049 30.7768C98.4579 31.0428 98.8069 31.1758 99.2499 31.1758C99.7819 31.1758 100.225 31.0365 100.58 30.7578L101.245 32.4488C100.966 32.6768 100.624 32.8478 100.219 32.9618C99.8139 33.0758 99.3959 33.1328 98.9649 33.1328ZM93.7969 24.8298V22.9298H100.561V24.8298H93.7969ZM107.463 36.8188C106.525 36.8188 105.607 36.6921 104.708 36.4388C103.821 36.1981 103.093 35.8435 102.523 35.3748L103.587 33.5888C104.03 33.9561 104.587 34.2475 105.259 34.4628C105.943 34.6908 106.633 34.8048 107.33 34.8048C108.444 34.8048 109.261 34.5451 109.781 34.0258C110.3 33.5191 110.56 32.7528 110.56 31.7268V29.9218L110.75 27.6228L110.674 25.3238V22.8538H112.935V31.4608C112.935 33.2975 112.466 34.6465 111.529 35.5078C110.591 36.3818 109.236 36.8188 107.463 36.8188ZM107.159 32.5438C106.196 32.5438 105.322 32.3411 104.537 31.9358C103.764 31.5178 103.15 30.9415 102.694 30.2068C102.25 29.4721 102.029 28.6108 102.029 27.6228C102.029 26.6475 102.25 25.7925 102.694 25.0578C103.15 24.3231 103.764 23.7531 104.537 23.3478C105.322 22.9425 106.196 22.7398 107.159 22.7398C108.02 22.7398 108.793 22.9108 109.477 23.2528C110.161 23.5948 110.705 24.1268 111.111 24.8488C111.529 25.5708 111.738 26.4955 111.738 27.6228C111.738 28.7501 111.529 29.6811 111.111 30.4158C110.705 31.1378 110.161 31.6761 109.477 32.0308C108.793 32.3728 108.02 32.5438 107.159 32.5438ZM107.52 30.5298C108.115 30.5298 108.647 30.4095 109.116 30.1688C109.584 29.9155 109.945 29.5735 110.199 29.1428C110.465 28.6995 110.598 28.1928 110.598 27.6228C110.598 27.0528 110.465 26.5525 110.199 26.1218C109.945 25.6785 109.584 25.3428 109.116 25.1148C108.647 24.8741 108.115 24.7538 107.52 24.7538C106.924 24.7538 106.386 24.8741 105.905 25.1148C105.436 25.3428 105.069 25.6785 104.803 26.1218C104.549 26.5525 104.423 27.0528 104.423 27.6228C104.423 28.1928 104.549 28.6995 104.803 29.1428C105.069 29.5735 105.436 29.9155 105.905 30.1688C106.386 30.4095 106.924 30.5298 107.52 30.5298ZM116.057 32.9998V22.8538H118.318V25.6468L118.052 24.8298C118.356 24.1458 118.831 23.6265 119.477 23.2718C120.136 22.9171 120.953 22.7398 121.928 22.7398V25.0008C121.827 24.9755 121.732 24.9628 121.643 24.9628C121.554 24.9501 121.466 24.9438 121.377 24.9438C120.478 24.9438 119.762 25.2098 119.23 25.7418C118.698 26.2611 118.432 27.0401 118.432 28.0788V32.9998H116.057ZM128.619 33.1328C127.492 33.1328 126.504 32.9111 125.655 32.4678C124.819 32.0118 124.167 31.3911 123.698 30.6058C123.242 29.8205 123.014 28.9275 123.014 27.9268C123.014 26.9135 123.236 26.0205 123.679 25.2478C124.135 24.4625 124.756 23.8481 125.541 23.4048C126.339 22.9615 127.245 22.7398 128.258 22.7398C129.246 22.7398 130.126 22.9551 130.899 23.3858C131.672 23.8165 132.28 24.4245 132.723 25.2098C133.166 25.9951 133.388 26.9198 133.388 27.9838C133.388 28.0851 133.382 28.1991 133.369 28.3258C133.369 28.4525 133.363 28.5728 133.35 28.6868H124.895V27.1098H132.096L131.165 27.6038C131.178 27.0211 131.057 26.5081 130.804 26.0648C130.551 25.6215 130.202 25.2731 129.759 25.0198C129.328 24.7665 128.828 24.6398 128.258 24.6398C127.675 24.6398 127.162 24.7665 126.719 25.0198C126.288 25.2731 125.946 25.6278 125.693 26.0838C125.452 26.5271 125.332 27.0528 125.332 27.6608V28.0408C125.332 28.6488 125.471 29.1871 125.75 29.6558C126.029 30.1245 126.421 30.4855 126.928 30.7388C127.435 30.9921 128.017 31.1188 128.676 31.1188C129.246 31.1188 129.759 31.0301 130.215 30.8528C130.671 30.6755 131.076 30.3968 131.431 30.0168L132.704 31.4798C132.248 32.0118 131.672 32.4235 130.975 32.7148C130.291 32.9935 129.506 33.1328 128.619 33.1328ZM140.02 33.1898C138.982 33.1898 137.987 33.0441 137.037 32.7528C136.087 32.4488 135.334 32.0625 134.776 31.5938L135.631 29.6748C136.163 30.0928 136.822 30.4411 137.607 30.7198C138.393 30.9985 139.197 31.1378 140.02 31.1378C140.717 31.1378 141.281 31.0618 141.711 30.9098C142.142 30.7578 142.459 30.5551 142.661 30.3018C142.864 30.0358 142.965 29.7381 142.965 29.4088C142.965 29.0035 142.82 28.6805 142.528 28.4398C142.237 28.1865 141.857 27.9901 141.388 27.8508C140.932 27.6988 140.419 27.5595 139.849 27.4328C139.292 27.3061 138.728 27.1605 138.158 26.9958C137.601 26.8185 137.088 26.5968 136.619 26.3308C136.163 26.0521 135.79 25.6848 135.498 25.2288C135.207 24.7728 135.061 24.1901 135.061 23.4808C135.061 22.7588 135.251 22.1001 135.631 21.5048C136.024 20.8968 136.613 20.4155 137.398 20.0608C138.196 19.6935 139.203 19.5098 140.419 19.5098C141.217 19.5098 142.009 19.6111 142.794 19.8138C143.58 20.0165 144.264 20.3078 144.846 20.6878L144.067 22.6068C143.472 22.2521 142.858 21.9925 142.224 21.8278C141.591 21.6505 140.983 21.5618 140.4 21.5618C139.716 21.5618 139.159 21.6441 138.728 21.8088C138.31 21.9735 138 22.1888 137.797 22.4548C137.607 22.7208 137.512 23.0248 137.512 23.3668C137.512 23.7721 137.652 24.1015 137.93 24.3548C138.222 24.5955 138.595 24.7855 139.051 24.9248C139.52 25.0641 140.039 25.2035 140.609 25.3428C141.179 25.4695 141.743 25.6151 142.3 25.7798C142.87 25.9445 143.383 26.1598 143.839 26.4258C144.308 26.6918 144.682 27.0528 144.96 27.5088C145.252 27.9648 145.397 28.5411 145.397 29.2378C145.397 29.9471 145.201 30.6058 144.808 31.2138C144.428 31.8091 143.839 32.2905 143.041 32.6578C142.243 33.0125 141.236 33.1898 140.02 33.1898ZM154.079 33.1898C153.04 33.1898 152.084 33.0188 151.21 32.6768C150.336 32.3348 149.576 31.8598 148.93 31.2518C148.284 30.6311 147.783 29.9091 147.429 29.0858C147.074 28.2498 146.897 27.3378 146.897 26.3498C146.897 25.3618 147.074 24.4561 147.429 23.6328C147.783 22.7968 148.284 22.0748 148.93 21.4668C149.576 20.8461 150.336 20.3648 151.21 20.0228C152.084 19.6808 153.034 19.5098 154.06 19.5098C155.098 19.5098 156.048 19.6808 156.91 20.0228C157.784 20.3648 158.544 20.8398 159.19 21.4478C159.836 22.0558 160.336 22.7778 160.691 23.6138C161.045 24.4498 161.223 25.3618 161.223 26.3498C161.223 27.3378 161.045 28.2498 160.691 29.0858C160.336 29.9218 159.836 30.6438 159.19 31.2518C158.544 31.8598 157.784 32.3348 156.91 32.6768C156.048 33.0188 155.105 33.1898 154.079 33.1898ZM158.411 35.9068C157.942 35.9068 157.486 35.8498 157.043 35.7358C156.612 35.6345 156.181 35.4571 155.751 35.2038C155.333 34.9631 154.896 34.6401 154.44 34.2348C153.984 33.8421 153.483 33.3545 152.939 32.7718L155.561 32.0878C155.915 32.5565 156.251 32.9301 156.568 33.2088C156.897 33.5001 157.214 33.7091 157.518 33.8358C157.822 33.9625 158.138 34.0258 158.468 34.0258C159.342 34.0258 160.102 33.6711 160.748 32.9618L161.888 34.3298C161.001 35.3811 159.842 35.9068 158.411 35.9068ZM154.06 31.0238C154.731 31.0238 155.352 30.9098 155.922 30.6818C156.492 30.4538 156.986 30.1308 157.404 29.7128C157.822 29.2821 158.145 28.7818 158.373 28.2118C158.613 27.6418 158.734 27.0211 158.734 26.3498C158.734 25.6658 158.613 25.0451 158.373 24.4878C158.145 23.9178 157.822 23.4238 157.404 23.0058C156.986 22.5751 156.492 22.2458 155.922 22.0178C155.352 21.7898 154.731 21.6758 154.06 21.6758C153.388 21.6758 152.768 21.7898 152.198 22.0178C151.628 22.2458 151.134 22.5751 150.716 23.0058C150.298 23.4238 149.968 23.9178 149.728 24.4878C149.5 25.0451 149.386 25.6658 149.386 26.3498C149.386 27.0211 149.5 27.6418 149.728 28.2118C149.968 28.7818 150.298 29.2821 150.716 29.7128C151.134 30.1308 151.628 30.4538 152.198 30.6818C152.768 30.9098 153.388 31.0238 154.06 31.0238ZM163.841 32.9998V19.6998H166.311V30.9098H173.265V32.9998H163.841Z" fill="black"/>
</svg>
