<svg width="151" height="55" viewBox="0 0 151 55" fill="none" xmlns="http://www.w3.org/2000/svg">
<path d="M27.1713 0.000481132C24.9034 0.0107811 22.7378 0.202082 20.8325 0.535782C15.219 1.51698 14.1998 3.56988 14.1998 7.35648V12.3573H27.4652V14.024H9.2211C5.3659 14.024 1.9897 16.3162 0.933897 20.6764C-0.284203 25.6742 -0.338103 28.7929 0.933897 34.0114C1.8769 37.896 4.129 40.6638 7.9842 40.6638H12.5453V34.6691C12.5453 30.3383 16.3337 26.5184 20.8325 26.5184H34.0826C37.771 26.5184 40.7153 23.5147 40.7153 19.8508V7.35598C40.7153 3.80038 37.6824 1.12888 34.0826 0.535281C31.8032 0.160481 29.4393 -0.0103189 27.1713 0.000481132ZM19.9974 4.02198C21.3678 4.02198 22.4865 5.14708 22.4865 6.52998C22.4865 7.90798 21.3673 9.02278 19.9974 9.02278C18.6224 9.02278 17.5082 7.90848 17.5082 6.52998C17.5082 5.14708 18.6224 4.02198 19.9974 4.02198Z" fill="url(#paint0_linear_50_90)"/>
<path d="M42.3731 14.0234V19.8497C42.3731 24.367 38.5011 28.1689 34.0859 28.1689H20.8358C17.2063 28.1689 14.2031 31.241 14.2031 34.8364V47.3302C14.2031 50.8864 17.329 52.9779 20.8358 53.9977C25.0348 55.2192 29.0617 55.4399 34.0859 53.9977C37.4255 53.0415 40.7186 51.1164 40.7186 47.3302V42.3299H27.4685V40.6632H47.3513C51.207 40.6632 52.6432 38.003 53.984 34.0108C55.3693 29.9012 55.3105 25.9481 53.984 20.6758C53.0311 16.8798 51.2114 14.0234 47.3513 14.0234H42.3731ZM34.9206 45.6634C36.2955 45.6634 37.4097 46.7777 37.4097 48.1562C37.4097 49.5392 36.2955 50.6642 34.9206 50.6642C33.5501 50.6642 32.4314 49.5392 32.4314 48.1562C32.4314 46.7782 33.5506 45.6634 34.9206 45.6634Z" fill="url(#paint1_linear_50_90)"/>
<path d="M79.793 27.9092C79.793 23.9603 78.667 21.933 76.415 21.8221C75.519 21.7798 74.644 21.9224 73.7932 22.253C73.1139 22.4959 72.6567 22.7367 72.4162 22.98V32.4056C73.8567 33.3097 75.136 33.73 76.251 33.6639C78.612 33.5074 79.793 31.5913 79.793 27.9092ZM82.571 28.073C82.571 30.0792 82.101 31.7445 81.154 33.0686C80.1 34.5674 78.638 35.3392 76.769 35.3815C75.361 35.4263 73.9093 34.985 72.4159 34.0598V42.6266L70 41.7648V22.7498C70.3965 22.2635 70.9068 21.8459 71.5251 21.4915C72.9632 20.6536 74.71 20.2229 76.767 20.2018L76.801 20.2359C78.68 20.2124 80.128 20.9841 81.146 22.5488C82.095 23.9842 82.571 25.8238 82.571 28.073ZM97.336 33.6953C97.336 36.3862 97.067 38.2495 96.527 39.2857C95.986 40.3216 94.955 41.1489 93.432 41.765C92.198 42.2513 90.863 42.5157 89.43 42.5607L89.031 41.0383C90.488 40.8403 91.513 40.6418 92.108 40.4436C93.279 40.0471 94.082 39.4394 94.524 38.6251C94.878 37.9618 95.052 36.6956 95.052 34.8218V34.1927C93.4 34.9436 91.669 35.3162 89.859 35.3162C88.669 35.3162 87.62 34.9436 86.716 34.1927C85.701 33.3759 85.193 32.34 85.193 31.0844V21.0291L87.609 20.2018V30.3224C87.609 31.4033 87.958 32.2361 88.656 32.8202C89.353 33.4043 90.258 33.6847 91.365 33.6633C92.473 33.6395 93.659 33.2113 94.92 32.3733V20.5662H97.336V33.6953ZM106.767 35.2494C106.502 35.2718 106.237 35.2832 105.971 35.2836C104.605 35.2836 103.539 34.9587 102.778 34.3057C102.02 33.653 101.639 32.7519 101.639 31.6018V22.0862H99.984V20.5665H101.639V16.5303L104.052 15.6712V20.5665H106.767V22.0862H104.052V31.5357C104.052 32.4425 104.295 33.0846 104.782 33.4602C105.199 33.7694 105.863 33.9464 106.767 33.9914V35.2494ZM121.394 35.0512H118.979V25.7259C118.979 24.7771 118.757 23.9603 118.315 23.2786C117.805 22.5065 117.097 22.1206 116.187 22.1206C115.08 22.1206 113.695 22.7048 112.032 23.873V35.0512H109.617V12.7612L112.032 12V22.1524C113.576 21.0289 115.262 20.4659 117.094 20.4659C118.374 20.4659 119.409 20.8968 120.203 21.7559C120.998 22.6147 121.395 23.6853 121.395 24.9647L121.394 35.0512ZM134.235 27.5287C134.235 26.0115 133.947 24.7587 133.373 23.7675C132.691 22.5597 131.631 21.9224 130.199 21.8565C127.55 22.0097 126.228 23.9074 126.228 27.5447C126.228 29.2125 126.503 30.6055 127.059 31.7236C127.767 33.1484 128.83 33.8515 130.247 33.8277C132.905 33.8062 134.235 31.7076 134.235 27.5287ZM136.881 27.5445C136.881 29.7041 136.329 31.5015 135.226 32.9366C134.013 34.5438 132.337 35.3498 130.199 35.3498C128.079 35.3498 126.427 34.5436 125.235 32.9366C124.154 31.5015 123.614 29.7041 123.614 27.5445C123.614 25.5147 124.198 23.8071 125.367 22.4168C126.601 20.9418 128.224 20.2018 130.231 20.2018C132.236 20.2018 133.87 20.9418 135.128 22.4168C136.297 23.8071 136.881 25.5147 136.881 27.5445ZM150.731 35.0512H148.315V25.1974C148.315 24.1165 147.99 23.2731 147.34 22.6652C146.69 22.0599 145.822 21.7665 144.742 21.7901C143.595 21.8112 142.503 22.1865 141.467 22.9136V35.0512H139.051V22.615C140.441 21.603 141.721 20.9418 142.889 20.6327C143.991 20.3447 144.964 20.2018 145.802 20.2018C146.375 20.2018 146.915 20.2571 147.422 20.3683C148.371 20.5877 149.143 20.9947 149.737 21.5921C150.401 22.253 150.731 23.0456 150.731 23.9736V35.0512Z" fill="#646464"/>
<defs>
<linearGradient id="paint0_linear_50_90" x1="-1.3083" y1="1.56198" x2="28.9989" y2="27.6695" gradientUnits="userSpaceOnUse">
<stop stop-color="#5A9FD4"/>
<stop offset="1" stop-color="#306998"/>
</linearGradient>
<linearGradient id="paint1_linear_50_90" x1="40.7632" y1="43.4118" x2="29.9471" y2="28.0896" gradientUnits="userSpaceOnUse">
<stop stop-color="#FFD43B"/>
<stop offset="1" stop-color="#FFE873"/>
</linearGradient>
</defs>
</svg>
