<svg width="169" height="54" viewBox="0 0 169 54" fill="none" xmlns="http://www.w3.org/2000/svg">
<path d="M60 27.0062C60 22.9893 55.0225 19.1825 47.391 16.8218C49.1521 8.9609 48.3695 2.7068 44.9204 0.7045C44.1254 0.2348 43.1962 0.0123997 42.181 0.0123997V2.7686C42.7436 2.7686 43.1962 2.8799 43.5752 3.09C45.2385 4.054 45.9602 7.7249 45.3974 12.4464C45.2631 13.6082 45.0429 14.8318 44.7738 16.0802C42.3766 15.4869 39.7594 15.0296 37.0077 14.7329C35.3568 12.4464 33.6446 10.3699 31.9201 8.553C35.907 4.808 39.6495 2.7562 42.1933 2.7562V0C38.8299 0 34.4273 2.4225 29.9757 6.6249C25.5238 2.4472 21.1211 0.0494003 17.758 0.0494003V2.8057C20.2895 2.8057 24.044 4.8451 28.031 8.5654C26.3188 10.3823 24.6066 12.4464 22.9799 14.7329C20.216 15.0296 17.5988 15.4869 15.2018 16.0925C14.9204 14.8565 14.7126 13.6576 14.5657 12.5082C13.9912 7.7867 14.7003 4.1158 16.3515 3.1394C16.7182 2.9169 17.1952 2.8181 17.758 2.8181V0.0618C16.7305 0.0618 15.801 0.2843 14.994 0.754C11.5572 2.7562 10.7869 8.998 12.5601 16.8341C4.9531 19.2072 0 23.0017 0 27.0062C0 31.0233 4.9776 34.8302 12.609 37.1907C10.8479 45.0517 11.6305 51.3056 15.0796 53.308C15.8746 53.7775 16.8038 54 17.8313 54C21.1944 54 25.5974 51.5776 30.049 47.3752C34.5005 51.553 38.9035 53.9508 42.2666 53.9508C43.2938 53.9508 44.2233 53.7283 45.0306 53.2585C48.4671 51.2561 49.2377 45.0144 47.4643 37.1785C55.0469 34.8177 60 31.0109 60 27.0062ZM44.0768 18.7622C43.6242 20.3568 43.0616 22.0004 42.4255 23.6443C41.9243 22.6557 41.3984 21.6668 40.8235 20.6779C40.261 19.6892 39.6615 18.7252 39.0624 17.7858C40.7989 18.0454 42.4745 18.3667 44.0768 18.7622ZM38.4752 31.9254C37.5213 33.5942 36.5431 35.1762 35.528 36.6471C33.7056 36.8076 31.8591 36.8941 30 36.8941C28.1532 36.8941 26.3065 36.8076 24.4966 36.6592C23.4815 35.1883 22.4907 33.6188 21.5368 31.9625C20.6073 30.3434 19.7636 28.6995 18.993 27.0435C19.7513 25.3871 20.6073 23.7308 21.5248 22.1118C22.4787 20.4433 23.4569 18.8611 24.472 17.3903C26.2944 17.2296 28.1409 17.1431 30 17.1431C31.8468 17.1431 33.6935 17.2296 35.5034 17.3779C36.5185 18.8488 37.5093 20.4184 38.4632 22.0747C39.3927 23.6938 40.2364 25.3377 41.007 26.994C40.2364 28.6501 39.3927 30.3064 38.4752 31.9254ZM42.4255 30.3188C43.0675 31.9296 43.6308 33.5712 44.1134 35.2378C42.5111 35.6333 40.8235 35.9672 39.0747 36.2267C39.6738 35.2751 40.273 34.2987 40.8358 33.2974C41.3984 32.3087 41.9243 31.3074 42.4255 30.3188ZM30.0243 43.5068C28.887 42.32 27.7496 40.9975 26.6245 39.5515C27.7253 39.601 28.8503 39.638 29.9877 39.638C31.1374 39.638 32.2747 39.6134 33.3878 39.5515C32.338 40.9302 31.2152 42.2506 30.0243 43.5068ZM20.9253 36.2267C19.1888 35.9672 17.5132 35.6457 15.9112 35.2502C16.3635 33.6558 16.9263 32.0119 17.5622 30.368C18.0637 31.3569 18.5896 32.3458 19.1642 33.3344C19.739 34.3233 20.3262 35.2873 20.9253 36.2267ZM29.9634 10.5059C31.1007 11.6924 32.2381 13.0149 33.3632 14.461C32.2624 14.4116 31.1374 14.3745 30 14.3745C28.8503 14.3745 27.7129 14.3992 26.6002 14.461C27.6499 13.0823 28.7726 11.762 29.9634 10.5059ZM20.913 17.7858C20.3139 18.7375 19.7147 19.7139 19.1521 20.715C18.5896 21.7038 18.0637 22.6927 17.5622 23.6813C16.9201 22.0706 16.3569 20.4289 15.8746 18.7622C17.4766 18.3791 19.1642 18.0454 20.913 17.7858ZM9.845 33.2603C5.5157 31.3939 2.715 28.9469 2.715 27.0062C2.715 25.0657 5.5157 22.6062 9.845 20.7523C10.8968 20.2949 12.0465 19.887 13.2328 19.5038C13.9299 21.9263 14.8471 24.4477 15.9845 27.031C14.8594 29.6019 13.9542 32.1109 13.2695 34.5212C12.0588 34.1378 10.9091 33.7177 9.845 33.2603ZM16.4248 50.9226C14.7615 49.9585 14.0398 46.2877 14.6026 41.566C14.7372 40.4044 14.9571 39.1806 15.2262 37.9322C17.6234 38.5256 20.2406 38.983 22.9923 39.2796C24.6432 41.566 26.3554 43.6425 28.0799 45.4594C24.093 49.2046 20.3505 51.2561 17.8067 51.2561C17.2564 51.244 16.7918 51.1326 16.4248 50.9226ZM45.4343 41.5044C46.0088 46.2258 45.2997 49.8966 43.6485 50.8731C43.2818 51.0956 42.8048 51.1945 42.242 51.1945C39.7105 51.1945 35.956 49.1551 31.969 45.4348C33.6812 43.6179 35.3934 41.5539 37.0201 39.2671C39.784 38.9706 42.4012 38.5132 44.7982 37.9076C45.0796 39.156 45.2997 40.355 45.4343 41.5044ZM50.1427 33.2603C49.0909 33.7177 47.9412 34.1257 46.7549 34.5087C46.0578 32.0863 45.1406 29.5649 44.0032 26.9816C45.1285 24.4107 46.0335 21.9017 46.7182 19.4915C47.9292 19.8746 49.0786 20.2949 50.155 20.7523C54.4843 22.6184 57.285 25.0657 57.285 27.0062C57.2727 28.9469 54.472 31.4064 50.1427 33.2603Z" fill="#61DAFB"/>
<path d="M29.9835 32.6544C33.0705 32.6544 35.5727 30.1255 35.5727 27.0058C35.5727 23.8863 33.0705 21.3574 29.9835 21.3574C26.8968 21.3574 24.3945 23.8863 24.3945 27.0058C24.3945 30.1255 26.8968 32.6544 29.9835 32.6544Z" fill="#61DAFB"/>
<path d="M73.745 27.8667H70.7117V33.0907H69V20.1771H73.2749C74.7295 20.1771 75.847 20.5085 76.6275 21.1708C77.4139 21.8326 77.8071 22.7965 77.8071 24.0617C77.8071 24.8661 77.5883 25.5666 77.1508 26.1641C76.7191 26.7612 76.116 27.2076 75.3415 27.503L78.3747 32.9841V33.0907H76.5477L73.745 27.8667ZM70.7117 26.4743H73.3282C74.1737 26.4743 74.8448 26.2554 75.3415 25.8179C75.844 25.3804 76.0953 24.795 76.0953 24.0617C76.0953 23.2637 75.8559 22.6518 75.3769 22.226C74.9039 21.8002 74.218 21.5844 73.3193 21.5786H70.7117V26.4743ZM83.927 33.2683C82.626 33.2683 81.568 32.8425 80.752 31.991C79.936 31.1336 79.528 29.9893 79.528 28.5587V28.257C79.528 27.3052 79.708 26.4568 80.069 25.7118C80.435 24.9605 80.944 24.3751 81.594 23.9556C82.251 23.5299 82.96 23.3167 83.723 23.3167C84.971 23.3167 85.94 23.7277 86.632 24.5496C87.324 25.3714 87.67 26.548 87.67 28.0794V28.7624H81.168C81.192 29.7088 81.467 30.4745 81.993 31.0598C82.525 31.6389 83.2 31.9289 84.016 31.9289C84.595 31.9289 85.086 31.8107 85.488 31.5742C85.89 31.3377 86.242 31.0243 86.543 30.6341L87.545 31.4146C86.741 32.6501 85.535 33.2683 83.927 33.2683ZM83.723 24.6651C83.061 24.6651 82.505 24.9074 82.055 25.3921C81.606 25.8714 81.328 26.5453 81.222 27.4144H86.029V27.2904C85.982 26.4568 85.757 25.812 85.355 25.3566C84.953 24.8958 84.409 24.6651 83.723 24.6651ZM95.501 33.0907C95.406 32.9014 95.329 32.5647 95.271 32.0795C94.508 32.8717 93.597 33.2683 92.539 33.2683C91.593 33.2683 90.815 33.0021 90.206 32.4698C89.603 31.9316 89.302 31.2518 89.302 30.4299C89.302 29.4309 89.68 28.6562 90.437 28.1064C91.199 27.5502 92.27 27.2724 93.647 27.2724H95.244V26.5188C95.244 25.9451 95.072 25.4897 94.73 25.1529C94.387 24.8099 93.881 24.6386 93.213 24.6386C92.627 24.6386 92.137 24.7861 91.741 25.0819C91.345 25.3773 91.146 25.7352 91.146 26.1551H89.497C89.497 25.6763 89.665 25.215 90.002 24.7712C90.345 24.3221 90.806 23.9673 91.386 23.707C91.971 23.4471 92.612 23.3167 93.31 23.3167C94.416 23.3167 95.282 23.5946 95.909 24.1507C96.536 24.7006 96.861 25.4605 96.885 26.4298V30.8467C96.885 31.728 96.997 32.4284 97.222 32.9486V33.0907H95.501ZM92.778 31.8404C93.293 31.8404 93.781 31.7073 94.242 31.4411C94.703 31.1749 95.037 30.8292 95.244 30.4034V28.4346H93.958C91.948 28.4346 90.942 29.0227 90.942 30.1993C90.942 30.7136 91.114 31.116 91.457 31.4056C91.8 31.6951 92.24 31.8404 92.778 31.8404ZM103.306 31.9289C103.891 31.9289 104.403 31.7513 104.84 31.3966C105.278 31.0419 105.52 30.5985 105.567 30.0662H107.12C107.09 30.6161 106.901 31.1394 106.552 31.6362C106.203 32.133 105.736 32.5292 105.151 32.8245C104.571 33.1204 103.956 33.2683 103.306 33.2683C101.999 33.2683 100.959 32.8335 100.184 31.9644C99.415 31.0891 99.031 29.8949 99.031 28.3811V28.1064C99.031 27.1721 99.202 26.3412 99.545 25.6142C99.888 24.8868 100.379 24.3221 101.018 23.9201C101.662 23.5177 102.422 23.3167 103.297 23.3167C104.373 23.3167 105.266 23.6391 105.976 24.2838C106.691 24.9281 107.072 25.7648 107.12 26.7935H105.567C105.52 26.1726 105.284 25.6641 104.858 25.268C104.438 24.8661 103.918 24.6651 103.297 24.6651C102.463 24.6651 101.816 24.9663 101.355 25.5697C100.9 26.1668 100.672 27.0332 100.672 28.1684V28.4787C100.672 29.5842 100.9 30.4358 101.355 31.0329C101.81 31.6304 102.461 31.9289 103.306 31.9289ZM111.191 21.1708V23.4943H112.982V24.7627H111.191V30.7136C111.191 31.0981 111.271 31.3876 111.43 31.5827C111.59 31.772 111.862 31.8669 112.246 31.8669C112.435 31.8669 112.695 31.8314 113.026 31.7603V33.0907C112.595 33.209 112.175 33.2683 111.767 33.2683C111.034 33.2683 110.481 33.0462 110.108 32.6029C109.736 32.1596 109.55 31.5297 109.55 30.7136V24.7627H107.802V23.4943H109.55V21.1708H111.191ZM129.594 33.0907H127.882L121.381 23.1396V33.0907H119.67V20.1771H121.381L127.9 30.1728V20.1771H129.594V33.0907ZM138.286 33.0907C138.191 32.9014 138.114 32.5647 138.055 32.0795C137.292 32.8717 136.382 33.2683 135.324 33.2683C134.378 33.2683 133.6 33.0021 132.991 32.4698C132.388 31.9316 132.086 31.2518 132.086 30.4299C132.086 29.4309 132.465 28.6562 133.222 28.1064C133.984 27.5502 135.055 27.2724 136.432 27.2724H138.029V26.5188C138.029 25.9451 137.857 25.4897 137.514 25.1529C137.172 24.8099 136.666 24.6386 135.998 24.6386C135.412 24.6386 134.922 24.7861 134.526 25.0819C134.13 25.3773 133.931 25.7352 133.931 26.1551H132.282C132.282 25.6763 132.45 25.215 132.787 24.7712C133.13 24.3221 133.591 23.9673 134.171 23.707C134.756 23.4471 135.397 23.3167 136.095 23.3167C137.201 23.3167 138.067 23.5946 138.694 24.1507C139.321 24.7006 139.646 25.4605 139.67 26.4298V30.8467C139.67 31.728 139.782 32.4284 140.007 32.9486V33.0907H138.286ZM135.563 31.8404C136.078 31.8404 136.565 31.7073 137.027 31.4411C137.488 31.1749 137.822 30.8292 138.029 30.4034V28.4346H136.743C134.732 28.4346 133.727 29.0227 133.727 30.1993C133.727 30.7136 133.899 31.116 134.241 31.4056C134.584 31.6951 135.025 31.8404 135.563 31.8404ZM144.468 21.1708V23.4943H146.259V24.7627H144.468V30.7136C144.468 31.0981 144.548 31.3876 144.707 31.5827C144.867 31.772 145.139 31.8669 145.523 31.8669C145.712 31.8669 145.973 31.8314 146.304 31.7603V33.0907C145.872 33.209 145.452 33.2683 145.044 33.2683C144.311 33.2683 143.758 33.0462 143.386 32.6029C143.013 32.1596 142.827 31.5297 142.827 30.7136V24.7627H141.08V23.4943H142.827V21.1708H144.468ZM149.967 33.0907H148.326V23.4943H149.967V33.0907ZM148.193 20.9487C148.193 20.6829 148.273 20.4581 148.432 20.2747C148.598 20.0913 148.84 20 149.159 20C149.479 20 149.721 20.0913 149.887 20.2747C150.052 20.4581 150.135 20.6829 150.135 20.9487C150.135 21.2148 150.052 21.4365 149.887 21.6141C149.721 21.7912 149.479 21.8802 149.159 21.8802C148.84 21.8802 148.598 21.7912 148.432 21.6141C148.273 21.4365 148.193 21.2148 148.193 20.9487ZM155.767 30.8647L158.144 23.4943H159.82L156.379 33.0907H155.128L151.652 23.4943H153.328L155.767 30.8647ZM165.257 33.2683C163.956 33.2683 162.898 32.8425 162.082 31.991C161.266 31.1336 160.858 29.9893 160.858 28.5587V28.257C160.858 27.3052 161.038 26.4568 161.399 25.7118C161.765 24.9605 162.274 24.3751 162.924 23.9556C163.581 23.5299 164.29 23.3167 165.053 23.3167C166.301 23.3167 167.27 23.7277 167.962 24.5496C168.654 25.3714 169 26.548 169 28.0794V28.7624H162.499C162.523 29.7088 162.797 30.4745 163.324 31.0598C163.856 31.6389 164.53 31.9289 165.346 31.9289C165.925 31.9289 166.416 31.8107 166.818 31.5742C167.22 31.3377 167.572 31.0243 167.874 30.6341L168.876 31.4146C168.072 32.6501 166.865 33.2683 165.257 33.2683ZM165.053 24.6651C164.391 24.6651 163.835 24.9074 163.386 25.3921C162.936 25.8714 162.658 26.5453 162.552 27.4144H167.359V27.2904C167.312 26.4568 167.087 25.812 166.685 25.3566C166.283 24.8958 165.739 24.6651 165.053 24.6651Z" fill="#00C8FF"/>
</svg>
