<svg width="169" height="54" viewBox="0 0 169 54" fill="none" xmlns="http://www.w3.org/2000/svg">
<path d="M60 27.0062C60 22.9893 55.0225 19.1825 47.391 16.8218C49.1521 8.9609 48.3695 2.7068 44.9204 0.7045C44.1254 0.2348 43.1962 0.0123997 42.181 0.0123997V2.7686C42.7436 2.7686 43.1962 2.8799 43.5752 3.09C45.2385 4.054 45.9602 7.7249 45.3974 12.4464C45.2631 13.6082 45.0429 14.8318 44.7738 16.0802C42.3766 15.4869 39.7594 15.0296 37.0077 14.7329C35.3568 12.4464 33.6446 10.3699 31.9201 8.553C35.907 4.808 39.6495 2.7562 42.1933 2.7562V0C38.8299 0 34.4273 2.4225 29.9757 6.6249C25.5238 2.4472 21.1211 0.0494003 17.758 0.0494003V2.8057C20.2895 2.8057 24.044 4.8451 28.031 8.5654C26.3188 10.3823 24.6066 12.4464 22.9799 14.7329C20.216 15.0296 17.5988 15.4869 15.2018 16.0925C14.9204 14.8565 14.7126 13.6576 14.5657 12.5082C13.9912 7.7867 14.7003 4.1158 16.3515 3.1394C16.7182 2.9169 17.1952 2.8181 17.758 2.8181V0.0618C16.7305 0.0618 15.801 0.2843 14.994 0.754C11.5572 2.7562 10.7869 8.998 12.5601 16.8341C4.9531 19.2072 0 23.0017 0 27.0062C0 31.0233 4.9776 34.8302 12.609 37.1907C10.8479 45.0517 11.6305 51.3056 15.0796 53.308C15.8746 53.7775 16.8038 54 17.8313 54C21.1944 54 25.5974 51.5776 30.049 47.3752C34.5005 51.553 38.9035 53.9508 42.2666 53.9508C43.2938 53.9508 44.2233 53.7283 45.0306 53.2585C48.4671 51.2561 49.2377 45.0144 47.4643 37.1785C55.0469 34.8177 60 31.0109 60 27.0062ZM44.0768 18.7622C43.6242 20.3568 43.0616 22.0004 42.4255 23.6443C41.9243 22.6557 41.3984 21.6668 40.8235 20.6779C40.261 19.6892 39.6615 18.7252 39.0624 17.7858C40.7989 18.0454 42.4745 18.3667 44.0768 18.7622ZM38.4752 31.9254C37.5213 33.5942 36.5431 35.1762 35.528 36.6471C33.7056 36.8076 31.8591 36.8941 30 36.8941C28.1532 36.8941 26.3065 36.8076 24.4966 36.6592C23.4815 35.1883 22.4907 33.6188 21.5368 31.9625C20.6073 30.3434 19.7636 28.6995 18.993 27.0435C19.7513 25.3871 20.6073 23.7308 21.5248 22.1118C22.4787 20.4433 23.4569 18.8611 24.472 17.3903C26.2944 17.2296 28.1409 17.1431 30 17.1431C31.8468 17.1431 33.6935 17.2296 35.5034 17.3779C36.5185 18.8488 37.5093 20.4184 38.4632 22.0747C39.3927 23.6938 40.2364 25.3377 41.007 26.994C40.2364 28.6501 39.3927 30.3064 38.4752 31.9254ZM42.4255 30.3188C43.0675 31.9296 43.6308 33.5712 44.1134 35.2378C42.5111 35.6333 40.8235 35.9672 39.0747 36.2267C39.6738 35.2751 40.273 34.2987 40.8358 33.2974C41.3984 32.3087 41.9243 31.3074 42.4255 30.3188ZM30.0243 43.5068C28.887 42.32 27.7496 40.9975 26.6245 39.5515C27.7253 39.601 28.8503 39.638 29.9877 39.638C31.1374 39.638 32.2747 39.6134 33.3878 39.5515C32.338 40.9302 31.2152 42.2506 30.0243 43.5068ZM20.9253 36.2267C19.1888 35.9672 17.5132 35.6457 15.9112 35.2502C16.3635 33.6558 16.9263 32.0119 17.5622 30.368C18.0637 31.3569 18.5896 32.3458 19.1642 33.3344C19.739 34.3233 20.3262 35.2873 20.9253 36.2267ZM29.9634 10.5059C31.1007 11.6924 32.2381 13.0149 33.3632 14.461C32.2624 14.4116 31.1374 14.3745 30 14.3745C28.8503 14.3745 27.7129 14.3992 26.6002 14.461C27.6499 13.0823 28.7726 11.762 29.9634 10.5059ZM20.913 17.7858C20.3139 18.7375 19.7147 19.7139 19.1521 20.715C18.5896 21.7038 18.0637 22.6927 17.5622 23.6813C16.9201 22.0706 16.3569 20.4289 15.8746 18.7622C17.4766 18.3791 19.1642 18.0454 20.913 17.7858ZM9.845 33.2603C5.5157 31.3939 2.715 28.9469 2.715 27.0062C2.715 25.0657 5.5157 22.6062 9.845 20.7523C10.8968 20.2949 12.0465 19.887 13.2328 19.5038C13.9299 21.9263 14.8471 24.4477 15.9845 27.031C14.8594 29.6019 13.9542 32.1109 13.2695 34.5212C12.0588 34.1378 10.9091 33.7177 9.845 33.2603ZM16.4248 50.9226C14.7615 49.9585 14.0398 46.2877 14.6026 41.566C14.7372 40.4044 14.9571 39.1806 15.2262 37.9322C17.6234 38.5256 20.2406 38.983 22.9923 39.2796C24.6432 41.566 26.3554 43.6425 28.0799 45.4594C24.093 49.2046 20.3505 51.2561 17.8067 51.2561C17.2564 51.244 16.7918 51.1326 16.4248 50.9226ZM45.4343 41.5044C46.0088 46.2258 45.2997 49.8966 43.6485 50.8731C43.2818 51.0956 42.8048 51.1945 42.242 51.1945C39.7105 51.1945 35.956 49.1551 31.969 45.4348C33.6812 43.6179 35.3934 41.5539 37.0201 39.2671C39.784 38.9706 42.4012 38.5132 44.7982 37.9076C45.0796 39.156 45.2997 40.355 45.4343 41.5044ZM50.1427 33.2603C49.0909 33.7177 47.9412 34.1257 46.7549 34.5087C46.0578 32.0863 45.1406 29.5649 44.0032 26.9816C45.1285 24.4107 46.0335 21.9017 46.7182 19.4915C47.9292 19.8746 49.0786 20.2949 50.155 20.7523C54.4843 22.6184 57.285 25.0657 57.285 27.0062C57.2727 28.9469 54.472 31.4064 50.1427 33.2603Z" fill="#61DAFB"/>
<path d="M29.9835 32.6544C33.0705 32.6544 35.5727 30.1255 35.5727 27.0058C35.5727 23.8863 33.0705 21.3574 29.9835 21.3574C26.8968 21.3574 24.3945 23.8863 24.3945 27.0058C24.3945 30.1255 26.8968 32.6544 29.9835 32.6544Z" fill="#61DAFB"/>
<path d="M72.1135 35.9998V18.5453H78.0113C79.3749 18.5453 80.4939 18.7782 81.3689 19.2441C82.2439 19.7043 82.8919 20.3379 83.3119 21.1447C83.7329 21.9515 83.9429 22.8691 83.9429 23.8975C83.9429 24.9259 83.7329 25.8379 83.3119 26.6333C82.8919 27.4288 82.2469 28.0538 81.3779 28.5083C80.5089 28.9572 79.3979 29.1816 78.0454 29.1816H73.2726V27.2725H77.9772C78.909 27.2725 79.6589 27.1362 80.2269 26.8634C80.8009 26.5907 81.2159 26.2043 81.4719 25.7043C81.7329 25.1987 81.8639 24.5964 81.8639 23.8975C81.8639 23.1987 81.7329 22.5879 81.4719 22.0651C81.2099 21.5424 80.7929 21.139 80.2189 20.8549C79.6449 20.5651 78.8863 20.4203 77.9431 20.4203H74.2272V35.9998H72.1135ZM80.3299 28.1589L84.6249 35.9998H82.1699L77.9431 28.1589H80.3299ZM92.5399 36.2725C91.2789 36.2725 90.1909 35.9941 89.2759 35.4373C88.3669 34.8748 87.6649 34.0907 87.1709 33.085C86.6829 32.0737 86.4379 30.8975 86.4379 29.5566C86.4379 28.2157 86.6829 27.0339 87.1709 26.0112C87.6649 24.9828 88.3529 24.1816 89.2339 23.6078C90.1199 23.0282 91.1539 22.7384 92.3359 22.7384C93.0179 22.7384 93.6909 22.8521 94.3559 23.0793C95.0209 23.3066 95.6259 23.6759 96.1709 24.1873C96.7169 24.693 97.1509 25.3634 97.4749 26.1987C97.7989 27.0339 97.9609 28.0623 97.9609 29.2839V30.1362H87.8699V28.3975H95.9149C95.9149 27.6589 95.7679 26.9998 95.4719 26.4203C95.1829 25.8407 94.7679 25.3833 94.2279 25.0481C93.6939 24.7129 93.0629 24.5453 92.3359 24.5453C91.5349 24.5453 90.8419 24.7441 90.2559 25.1418C89.6769 25.5339 89.2309 26.0453 88.9179 26.6759C88.6059 27.3066 88.4499 27.9828 88.4499 28.7043V29.8634C88.4499 30.8521 88.6199 31.6901 88.9609 32.3776C89.3079 33.0595 89.7879 33.5793 90.4009 33.9373C91.0149 34.2896 91.7279 34.4657 92.5399 34.4657C93.0689 34.4657 93.5459 34.3918 93.9719 34.2441C94.4039 34.0907 94.7759 33.8634 95.0889 33.5623C95.4009 33.2555 95.6429 32.8748 95.8129 32.4203L97.7559 32.9657C97.5519 33.6248 97.2079 34.2043 96.7249 34.7043C96.2419 35.1987 95.6459 35.585 94.9349 35.8634C94.2249 36.1362 93.4269 36.2725 92.5399 36.2725ZM104.873 36.3066C104.043 36.3066 103.29 36.1504 102.614 35.8379C101.938 35.5197 101.401 35.0623 101.004 34.4657C100.606 33.8634 100.407 33.1362 100.407 32.2839C100.407 31.5339 100.555 30.9259 100.85 30.46C101.146 29.9884 101.54 29.6191 102.035 29.3521C102.529 29.085 103.075 28.8862 103.671 28.7555C104.273 28.6191 104.879 28.5112 105.487 28.4316C106.282 28.3293 106.927 28.2526 107.421 28.2015C107.921 28.1447 108.285 28.0509 108.512 27.9203C108.745 27.7896 108.862 27.5623 108.862 27.2384V27.1703C108.862 26.3293 108.631 25.6759 108.171 25.21C107.717 24.7441 107.026 24.5112 106.1 24.5112C105.14 24.5112 104.387 24.7214 103.842 25.1418C103.296 25.5623 102.913 26.0112 102.691 26.4884L100.782 25.8066C101.123 25.0112 101.577 24.3918 102.146 23.9487C102.719 23.4998 103.344 23.1873 104.021 23.0112C104.702 22.8293 105.373 22.7384 106.032 22.7384C106.452 22.7384 106.935 22.7896 107.481 22.8918C108.032 22.9884 108.563 23.1901 109.075 23.497C109.592 23.8038 110.021 24.2668 110.362 24.8862C110.702 25.5055 110.873 26.335 110.873 27.3748V35.9998H108.862V34.2271H108.759C108.623 34.5112 108.396 34.8151 108.077 35.139C107.759 35.4629 107.336 35.7384 106.808 35.9657C106.279 36.193 105.634 36.3066 104.873 36.3066ZM105.18 34.4998C105.975 34.4998 106.646 34.3436 107.191 34.031C107.742 33.7186 108.157 33.3151 108.435 32.8208C108.719 32.3265 108.862 31.8066 108.862 31.2612V29.4203C108.776 29.5225 108.589 29.6163 108.299 29.7015C108.015 29.781 107.685 29.8521 107.31 29.9146C106.941 29.9714 106.58 30.0225 106.228 30.068C105.881 30.1078 105.6 30.1418 105.384 30.1703C104.862 30.2384 104.373 30.3492 103.918 30.5026C103.469 30.6504 103.106 30.8748 102.827 31.1759C102.555 31.4714 102.418 31.8748 102.418 32.3862C102.418 33.085 102.677 33.6134 103.194 33.9714C103.717 34.3237 104.379 34.4998 105.18 34.4998ZM119.862 36.2725C118.635 36.2725 117.578 35.9828 116.692 35.4032C115.805 34.8237 115.124 34.0254 114.646 33.0083C114.169 31.9913 113.93 30.8293 113.93 29.5225C113.93 28.193 114.175 27.0197 114.663 26.0026C115.158 24.9799 115.845 24.1816 116.726 23.6078C117.612 23.0282 118.646 22.7384 119.828 22.7384C120.749 22.7384 121.578 22.9089 122.317 23.2498C123.055 23.5907 123.661 24.068 124.132 24.6816C124.604 25.2953 124.896 26.0112 125.01 26.8293H122.999C122.845 26.2328 122.504 25.7043 121.976 25.2441C121.453 24.7782 120.749 24.5453 119.862 24.5453C119.078 24.5453 118.391 24.7498 117.8 25.1589C117.214 25.5623 116.757 26.1333 116.428 26.872C116.104 27.6049 115.942 28.4657 115.942 29.4543C115.942 30.4657 116.101 31.3464 116.419 32.0964C116.743 32.8464 117.197 33.4288 117.783 33.8436C118.374 34.2583 119.067 34.4657 119.862 34.4657C120.385 34.4657 120.859 34.3748 121.286 34.193C121.712 34.0112 122.072 33.7498 122.368 33.4089C122.663 33.068 122.874 32.6589 122.999 32.1816H125.01C124.896 32.9543 124.615 33.6504 124.166 34.2697C123.723 34.8833 123.135 35.372 122.402 35.7356C121.675 36.0936 120.828 36.2725 119.862 36.2725ZM133.643 22.9089V24.6134H126.859V22.9089H133.643ZM128.837 19.7725H130.848V32.2498C130.848 32.818 130.93 33.2441 131.095 33.5282C131.266 33.8066 131.482 33.9941 131.743 34.0907C132.01 34.1816 132.291 34.2271 132.587 34.2271C132.808 34.2271 132.99 34.2157 133.132 34.193C133.274 34.1646 133.388 34.1418 133.473 34.1248L133.882 35.9316C133.746 35.9828 133.555 36.0339 133.311 36.085C133.067 36.1418 132.757 36.1703 132.382 36.1703C131.814 36.1703 131.257 36.0481 130.712 35.8038C130.172 35.5595 129.723 35.1873 129.365 34.6873C129.013 34.1873 128.837 33.5566 128.837 32.7953V19.7725ZM150.374 18.5453H152.487V31.0225C152.487 32.1362 152.283 33.0822 151.874 33.8606C151.464 34.639 150.888 35.2299 150.143 35.6333C149.399 36.0367 148.521 36.2384 147.51 36.2384C146.555 36.2384 145.706 36.0651 144.962 35.7186C144.217 35.3663 143.632 34.8663 143.206 34.2186C142.78 33.5708 142.567 32.8009 142.567 31.9089H144.646C144.646 32.4032 144.768 32.835 145.013 33.2043C145.263 33.568 145.604 33.8521 146.036 34.0566C146.467 34.2612 146.959 34.3634 147.51 34.3634C148.118 34.3634 148.635 34.2356 149.061 33.9799C149.487 33.7242 149.811 33.3492 150.033 32.8549C150.26 32.3549 150.374 31.7441 150.374 31.0225V18.5453ZM166.268 22.9089C166.166 22.0453 165.751 21.3748 165.024 20.8975C164.297 20.4203 163.405 20.1816 162.348 20.1816C161.575 20.1816 160.899 20.3066 160.32 20.5566C159.746 20.8066 159.297 21.1504 158.973 21.5879C158.655 22.0254 158.496 22.5225 158.496 23.0793C158.496 23.5453 158.607 23.9458 158.828 24.281C159.055 24.6106 159.345 24.8862 159.697 25.1078C160.05 25.3237 160.419 25.5026 160.805 25.6447C161.192 25.781 161.547 25.8918 161.871 25.9771L163.643 26.4543C164.098 26.5737 164.604 26.7384 165.161 26.9487C165.723 27.1589 166.26 27.4458 166.771 27.8095C167.288 28.1674 167.714 28.6276 168.05 29.1901C168.385 29.7526 168.553 30.443 168.553 31.2612C168.553 32.2043 168.305 33.0566 167.811 33.818C167.322 34.5793 166.607 35.1845 165.663 35.6333C164.726 36.0822 163.587 36.3066 162.246 36.3066C160.996 36.3066 159.913 36.1049 158.999 35.7015C158.089 35.2981 157.374 34.7356 156.851 34.014C156.334 33.2924 156.041 32.4543 155.973 31.4998H158.155C158.212 32.1589 158.433 32.7043 158.82 33.1362C159.212 33.5623 159.706 33.8805 160.303 34.0907C160.905 34.2953 161.553 34.3975 162.246 34.3975C163.053 34.3975 163.777 34.2668 164.419 34.0055C165.061 33.7384 165.57 33.3691 165.945 32.8975C166.32 32.4203 166.507 31.8634 166.507 31.2271C166.507 30.6475 166.345 30.1759 166.021 29.8123C165.697 29.4487 165.271 29.1532 164.743 28.9259C164.214 28.6987 163.643 28.4998 163.03 28.3293L160.882 27.7157C159.518 27.3237 158.439 26.764 157.643 26.0367C156.848 25.3095 156.45 24.3578 156.45 23.1816C156.45 22.2043 156.714 21.3521 157.243 20.6248C157.777 19.8918 158.493 19.3237 159.391 18.9203C160.294 18.5112 161.303 18.3066 162.416 18.3066C163.541 18.3066 164.541 18.5083 165.416 18.9117C166.291 19.3095 166.984 19.8549 167.496 20.5481C168.013 21.2413 168.286 22.0282 168.314 22.9089H166.268Z" fill="#00C8FF"/>
</svg>
