<svg width="147" height="52" viewBox="0 0 147 52" fill="none" xmlns="http://www.w3.org/2000/svg">
<path d="M76.041 16.7949H78.352L83.633 31.9531L88.889 16.7949H91.225L84.801 35H82.465L76.041 16.7949ZM93.789 31.0264V22H95.947V31.0264C95.947 31.7542 96.265 32.3171 96.899 32.7148C97.543 33.1126 98.292 33.3115 99.146 33.3115C100.01 33.3115 100.759 33.1126 101.394 32.7148C102.028 32.3171 102.346 31.7542 102.346 31.0264V22H104.529V31.0264C104.529 32.3805 103.975 33.4469 102.866 34.2256C101.766 35.0042 100.522 35.3936 99.134 35.3936C97.754 35.3936 96.519 35.0085 95.427 34.2383C94.335 33.4681 93.789 32.3975 93.789 31.0264ZM107.97 28.4492C107.97 26.3672 108.524 24.7083 109.633 23.4727C110.742 22.2285 112.206 21.6064 114.025 21.6064C117.648 21.6064 119.459 24.1624 119.459 29.2744H110.128C110.213 30.3493 110.606 31.3099 111.309 32.1562C112.011 32.9941 113.082 33.4131 114.521 33.4131C116.188 33.4131 117.618 33.138 118.812 32.5879V34.6318C117.508 35.1312 116.171 35.3851 114.8 35.3936C113.606 35.3936 112.561 35.2074 111.664 34.835C110.775 34.4626 110.064 33.9505 109.531 33.2988C109.007 32.6471 108.613 31.915 108.351 31.1025C108.097 30.29 107.97 29.4056 107.97 28.4492ZM110.204 27.5605H117.225C117.106 26.401 116.785 25.4489 116.26 24.7041C115.735 23.9593 114.973 23.5869 113.975 23.5869C112.984 23.5869 112.142 23.9508 111.448 24.6787C110.754 25.4066 110.34 26.3672 110.204 27.5605ZM122.15 35V32.2197H124.753V35H122.15ZM128.993 39.5195C129.425 39.5195 129.797 39.3164 130.11 38.9102C130.424 38.5039 130.58 37.9876 130.58 37.3613V22H132.738V37.3613C132.738 38.5547 132.37 39.5407 131.634 40.3193C130.897 41.1064 130.017 41.5 128.993 41.5V39.5195ZM130.58 18.8008V16.7949H132.738V18.8008H130.58ZM135.976 33.3115L137.372 31.8262C137.702 32.0885 138.13 32.3594 138.654 32.6387C139.661 33.1549 140.525 33.4131 141.244 33.4131C141.887 33.4131 142.522 33.2354 143.148 32.8799C143.775 32.5244 144.088 32.0251 144.088 31.3818C144.088 30.7894 143.787 30.307 143.187 29.9346C142.586 29.5537 141.574 29.1009 140.152 28.5762C139.56 28.3646 139.099 28.1911 138.769 28.0557C138.447 27.9202 138.075 27.7171 137.651 27.4463C137.228 27.1755 136.915 26.8581 136.712 26.4941C136.509 26.1302 136.407 25.7155 136.407 25.25C136.407 24.1582 136.911 23.278 137.918 22.6094C138.925 21.9408 140.059 21.6064 141.32 21.6064C142.26 21.6064 143.267 21.835 144.342 22.292C144.79 22.4867 145.214 22.7109 145.611 22.9648L144.291 24.5518C144.012 24.3825 143.707 24.2259 143.377 24.082C142.615 23.752 141.93 23.5869 141.32 23.5869C140.609 23.5869 139.97 23.7435 139.403 24.0566C138.845 24.3698 138.565 24.7676 138.565 25.25C138.565 25.4023 138.633 25.5547 138.769 25.707C138.912 25.8509 139.137 25.9948 139.441 26.1387C139.746 26.2741 140.004 26.3841 140.216 26.4688C140.436 26.5534 140.745 26.6676 141.143 26.8115C142.116 27.1755 142.84 27.4674 143.313 27.6875C143.787 27.8991 144.287 28.1868 144.812 28.5508C145.345 28.9147 145.717 29.3252 145.929 29.7822C146.14 30.2308 146.246 30.764 146.246 31.3818C146.246 32.262 145.95 33.0195 145.357 33.6543C144.765 34.2891 144.105 34.7376 143.377 35C142.649 35.2624 141.938 35.3936 141.244 35.3936C140.186 35.3936 138.984 35.0465 137.639 34.3525C137.046 34.0394 136.492 33.6924 135.976 33.3115Z" fill="black"/>
<path d="M30.0499 52L0 0H11.8802L30.1497 31.2201L47.9201 0H60L30.0499 52Z" fill="#41B883"/>
<path d="M30.0506 11.8456L23.0622 0H11.8809L30.1504 31.2201L47.9208 0H36.9391L30.0506 11.8456Z" fill="#35495E"/>
</svg>
