<svg width="160" height="50" viewBox="0 0 160 50" fill="none" xmlns="http://www.w3.org/2000/svg">
<path d="M3.5533 24.9985C3.5533 33.4876 8.4869 40.8232 15.6405 44.2999L5.41 16.2706C4.1836 19.0169 3.5509 21.9908 3.5533 24.9985ZM39.4773 23.9169C39.4773 21.2666 38.5253 19.4309 37.7084 18.002C36.6212 16.2357 35.6025 14.7397 35.6025 12.9733C35.6025 11.0017 37.0977 9.1665 39.2036 9.1665C39.2987 9.1665 39.3887 9.1786 39.4816 9.1837C35.6662 5.6881 30.5828 3.5542 24.9994 3.5542C17.5071 3.5542 10.9156 7.398 7.0808 13.2208C7.5844 13.2354 8.0582 13.2462 8.4611 13.2462C10.7043 13.2462 14.1767 12.9738 14.1767 12.9738C15.3327 12.9058 15.4687 14.6037 14.3144 14.7405C14.3144 14.7405 13.1524 14.8774 11.8595 14.945L19.6694 38.1745L24.3624 24.099L21.0212 14.9445C19.8665 14.8765 18.7724 14.7397 18.7724 14.7397C17.6164 14.6721 17.7524 12.9049 18.9076 12.9733C18.9076 12.9733 22.4497 13.2453 24.5569 13.2453C26.7993 13.2453 30.2725 12.9733 30.2725 12.9733C31.429 12.9049 31.565 14.6028 30.4098 14.7397C30.4098 14.7397 29.2456 14.8765 27.9553 14.9441L35.7054 37.9976L37.8444 30.8488C38.7715 27.883 39.4773 25.753 39.4773 23.9169ZM25.3755 26.8746L18.9411 45.5721C20.9084 46.1515 22.9486 46.4458 24.9994 46.4458C27.425 46.4466 29.8331 46.0355 32.1211 45.23C32.0617 45.1362 32.0107 45.0374 31.9687 44.9347L25.3755 26.8746ZM43.8174 14.7095C43.9095 15.3926 43.962 16.1255 43.962 16.9149C43.962 19.0909 43.5553 21.5373 42.3308 24.5961L35.7803 43.5364C42.1561 39.8182 46.4445 32.9108 46.4445 24.9994C46.4503 21.4028 45.5466 17.8631 43.8174 14.7095ZM24.9994 0C11.2152 0 0 11.2143 0 24.9985C0 38.7848 11.2152 49.9987 24.9994 49.9987C38.7835 49.9987 50 38.7848 50 24.9985C50 11.2143 38.7835 0 24.9994 0ZM24.9994 48.8526C11.8474 48.8526 1.1461 38.1517 1.1461 24.9985C1.1461 11.8466 11.847 1.1461 24.9994 1.1461C38.1513 1.1461 48.8517 11.8466 48.8517 24.9985C48.8517 38.1517 38.1513 48.8526 24.9994 48.8526Z" fill="#32373C"/>
<path d="M105.021 21.8788H99.868V22.4254C101.48 22.4254 101.739 22.7708 101.739 24.8148V28.4997C101.739 30.5434 101.48 30.9177 99.868 30.9177C98.631 30.7452 97.795 30.0827 96.644 28.8162L95.32 27.3771C97.104 27.06 98.054 25.9377 98.054 24.6709C98.054 23.0881 96.702 21.8791 94.168 21.8791H89.102V22.4254C90.714 22.4254 90.973 22.7708 90.973 24.8148V28.4997C90.973 30.5434 90.714 30.9177 89.102 30.9177V31.4646H94.83V30.9175C93.218 30.9175 92.959 30.5434 92.959 28.4997V27.4635H93.449L96.644 31.4646H105.021C109.137 31.4646 110.922 29.2772 110.922 26.6571C110.922 24.0376 109.137 21.8788 105.021 21.8788ZM92.96 26.5707V22.7424H94.14C95.435 22.7424 96.011 23.6347 96.011 24.6711C96.011 25.6787 95.435 26.5707 94.14 26.5707H92.96ZM105.107 30.5723H104.906C103.87 30.5723 103.726 30.3133 103.726 28.989V22.7424H105.107C108.101 22.7424 108.648 24.9299 108.648 26.6285C108.648 28.3844 108.101 30.5723 105.107 30.5723ZM73.0689 27.6363L75.055 21.7635C75.631 20.0651 75.372 19.5761 73.5296 19.5761V19H78.941V19.5761C77.128 19.5761 76.696 20.0076 75.977 22.1092L72.6946 31.9539H72.3206L69.3841 22.9434L66.3903 31.9539H66.016L62.8212 22.1092C62.1304 20.0076 61.6697 19.5761 60 19.5761V19H66.3905V19.5761C64.6922 19.5761 64.2312 19.979 64.8361 21.7635L66.7646 27.6361L69.672 19H70.2191L73.0689 27.6363ZM82.856 31.8386C79.689 31.8386 77.099 29.507 77.099 26.6569C77.099 23.8361 79.69 21.504 82.856 21.504C86.022 21.504 88.613 23.8361 88.613 26.6569C88.613 29.507 86.022 31.8386 82.856 31.8386ZM82.856 22.397C80.208 22.397 79.286 24.7859 79.286 26.6571C79.286 28.5575 80.208 30.9177 82.856 30.9177C85.533 30.9177 86.454 28.5575 86.454 26.6571C86.454 24.7859 85.533 22.397 82.856 22.397Z" fill="#32373C"/>
<path d="M118.031 30.8891V31.4648H111.439V30.8891C113.368 30.8891 113.714 30.3997 113.714 27.5207V22.9155C113.714 20.0362 113.368 19.576 111.439 19.576V19H117.398C120.363 19 122.004 20.5258 122.004 22.5698C122.004 24.5563 120.363 26.1105 117.398 26.1105H115.757V27.5205C115.757 30.3997 116.102 30.8891 118.031 30.8891ZM117.398 20.0362H115.757V25.0454H117.398C119.01 25.0454 119.759 23.9228 119.759 22.5698C119.759 21.1882 119.01 20.0362 117.398 20.0362ZM141.78 28.7589L141.636 29.2771C141.377 30.2269 141.06 30.5725 139.016 30.5725H138.613C137.116 30.5725 136.857 30.2269 136.857 28.1834V26.8591C139.103 26.8591 139.275 27.0605 139.275 28.5577H139.822V24.2679H139.275C139.275 25.7648 139.103 25.9663 136.857 25.9663V22.7424H138.44C140.484 22.7424 140.8 23.088 141.06 24.0378L141.204 24.5844H141.664L141.463 21.8788H133V22.4254C134.611 22.4254 134.871 22.7708 134.871 24.8148V28.4996C134.871 30.3693 134.651 30.8402 133.38 30.9075C132.172 30.7229 131.343 30.064 130.208 28.8161L128.884 27.377C130.669 27.06 131.619 25.9376 131.619 24.6708C131.619 23.088 130.266 21.879 127.733 21.879H122.666V22.4254C124.278 22.4254 124.537 22.7708 124.537 24.8148V28.4996C124.537 30.5434 124.278 30.9177 122.666 30.9177V31.4646H128.395V30.9174C126.783 30.9174 126.524 30.5434 126.524 28.4996V27.4637H127.013L130.208 31.4648H142.039L142.212 28.7591L141.78 28.7589ZM126.524 26.5709V22.7426H127.703C128.999 22.7426 129.575 23.6349 129.575 24.6714C129.575 25.6789 128.999 26.5709 127.703 26.5709H126.524ZM147.623 31.8388C146.472 31.8388 145.464 31.2345 145.032 30.8599C144.888 31.0041 144.629 31.4359 144.572 31.8388H144.025V27.8666H144.601C144.831 29.7662 146.155 30.8891 147.853 30.8891C148.775 30.8891 149.523 30.3711 149.523 29.5075C149.523 28.7591 148.861 28.1831 147.681 27.6365L146.04 26.8593C144.888 26.3119 144.025 25.3619 144.025 24.0956C144.025 22.714 145.32 21.5339 147.105 21.5339C148.055 21.5339 148.861 21.8793 149.351 22.2822C149.494 22.1671 149.638 21.8501 149.725 21.5045H150.272V24.902H149.667C149.465 23.5487 148.717 22.4261 147.192 22.4261C146.386 22.4261 145.637 22.8868 145.637 23.6068C145.637 24.3551 146.241 24.7578 147.623 25.3913L149.206 26.1685C150.588 26.8304 151.135 27.896 151.135 28.7594C151.135 30.5728 149.552 31.8388 147.623 31.8388ZM156.489 31.8391C155.337 31.8391 154.33 31.2347 153.898 30.8602C153.754 31.0044 153.495 31.4362 153.438 31.8391H152.891V27.8666H153.466C153.697 29.7662 155.021 30.8891 156.719 30.8891C157.64 30.8891 158.389 30.3711 158.389 29.5075C158.389 28.7591 157.727 28.1831 156.546 27.6365L154.906 26.8593C153.754 26.3119 152.89 25.3619 152.89 24.0956C152.89 22.714 154.186 21.5339 155.971 21.5339C156.921 21.5339 157.727 21.8793 158.216 22.2822C158.36 22.1671 158.504 21.8501 158.59 21.5045H159.137V24.902H158.533C158.331 23.5487 157.583 22.4261 156.057 22.4261C155.251 22.4261 154.502 22.8868 154.502 23.6068C154.502 24.3551 155.107 24.7578 156.489 25.3913L158.072 26.1685C159.454 26.8304 160 27.896 160 28.7594C160 30.5728 158.417 31.8391 156.489 31.8391Z" fill="#32373C"/>
</svg>
