<svg width="194" height="59" viewBox="0 0 194 59" fill="none" xmlns="http://www.w3.org/2000/svg">
<path d="M56.4987 47.6705H54.2335V51.7687H53.2051V47.6705H50.9358V46.763H56.4987V47.6705ZM67.3639 49.2447C67.3639 49.3707 67.3386 49.5065 67.2885 49.6531C67.2389 49.7974 67.1569 49.9323 67.0436 50.0583C66.9327 50.1816 66.7865 50.2853 66.6048 50.3689C66.4256 50.4529 66.2065 50.4944 65.9484 50.4944H64.0941V49.6325H65.9484C66.0881 49.6325 66.1964 49.595 66.2728 49.5208C66.3492 49.444 66.3872 49.3497 66.3872 49.238C66.3872 49.1191 66.3436 49.0262 66.2566 48.9587C66.1726 48.8912 66.0698 48.8573 65.9484 48.8573H64.0941C63.9544 48.8573 63.8461 48.8957 63.7697 48.9726C63.6932 49.0472 63.6553 49.1401 63.6553 49.2518V50.519C63.6553 50.6401 63.6973 50.7344 63.7818 50.8018C63.8689 50.8693 63.9756 50.9028 64.1022 50.9028H65.9484V51.7687H64.0941C63.9519 51.7687 63.7975 51.7464 63.6315 51.7022C63.468 51.6579 63.3152 51.5873 63.173 51.4895C63.0333 51.3894 62.9159 51.2603 62.8208 51.1021C62.7261 50.9412 62.6785 50.7469 62.6785 50.519V49.2447C62.6785 49.1191 62.7038 48.9842 62.754 48.8399C62.8041 48.6933 62.884 48.5584 62.9948 48.435C63.1082 48.3095 63.2545 48.2045 63.4336 48.1209C63.6158 48.0369 63.836 47.9954 64.0941 47.9954H65.9484C66.0906 47.9954 66.2434 48.0173 66.4069 48.0615C66.5729 48.1057 66.7262 48.1777 66.8659 48.2778C67.0081 48.3756 67.1266 48.5047 67.2217 48.6656C67.3163 48.8238 67.3639 49.0168 67.3639 49.2447ZM78.2686 51.7687H75.481C75.3388 51.7687 75.183 51.7464 75.0144 51.7022C74.8459 51.6579 74.689 51.586 74.5438 51.4859C74.4016 51.3836 74.2816 51.2522 74.1839 51.0914C74.0893 50.9287 74.0417 50.7294 74.0417 50.4944V49.2657C74.0417 49.1799 74.0524 49.0887 74.0736 48.9936C74.0974 48.8979 74.1328 48.8037 74.1804 48.7107C74.2275 48.6156 74.2882 48.5244 74.3621 48.4386C74.4385 48.3524 74.5296 48.2769 74.6349 48.2116C74.7432 48.1464 74.8667 48.0941 75.0063 48.0543C75.1465 48.015 75.3044 47.9954 75.481 47.9954H78.2686V48.9029H75.481C75.3464 48.9029 75.2437 48.9328 75.1728 48.9936C75.104 49.0539 75.0696 49.1473 75.0696 49.2728V50.4944C75.0696 50.6133 75.1055 50.704 75.1764 50.767C75.2477 50.8295 75.352 50.8613 75.4891 50.8613H78.2686V51.7687ZM89.944 51.7687H88.9162V49.2657C88.9162 49.1473 88.8817 49.0575 88.8134 48.9971C88.7446 48.9341 88.6419 48.9029 88.5047 48.9029H86.6504V47.9954H88.5047C88.6024 47.9954 88.7051 48.0056 88.8134 48.0266C88.9212 48.045 89.028 48.0753 89.1338 48.1174C89.2416 48.1594 89.3443 48.2139 89.442 48.2813C89.5397 48.3466 89.6252 48.427 89.6991 48.5222C89.773 48.6156 89.8322 48.7237 89.8767 48.847C89.9218 48.9703 89.944 49.1097 89.944 49.2657V51.7687ZM86.2354 51.7687H85.2076V46.3998H86.2354V51.7687ZM101.695 51.7687H100.667V49.6741C100.667 49.5557 100.643 49.4498 100.596 49.3564C100.551 49.2612 100.489 49.1799 100.41 49.1124C100.331 49.0445 100.237 48.9936 100.129 48.9587C100.024 48.9212 99.9089 48.9029 99.7849 48.9029H97.9863V51.7687H96.9579V48.4453C96.9579 48.3828 96.9716 48.3242 96.9979 48.2711C97.0242 48.2152 97.0611 48.1674 97.1082 48.1276C97.1558 48.0861 97.2109 48.0535 97.2742 48.0302C97.3375 48.007 97.4048 47.9954 97.4761 47.9954H99.793C99.922 47.9954 100.058 48.0079 100.2 48.0333C100.345 48.0593 100.487 48.1008 100.627 48.1593C100.77 48.2152 100.904 48.2871 101.03 48.3756C101.16 48.4618 101.273 48.5677 101.37 48.6933C101.471 48.8166 101.55 48.9596 101.608 49.1227C101.666 49.2858 101.695 49.4694 101.695 49.6741V51.7687ZM113.319 50.4944C113.319 50.6504 113.296 50.7911 113.252 50.9171C113.207 51.0404 113.148 51.1495 113.074 51.2451C113 51.338 112.914 51.4184 112.817 51.4859C112.719 51.5511 112.617 51.6048 112.508 51.6463C112.403 51.6883 112.295 51.7196 112.184 51.7406C112.076 51.7594 111.974 51.7687 111.876 51.7687H110.022C109.879 51.7687 109.723 51.7464 109.555 51.7022C109.386 51.6579 109.23 51.586 109.084 51.4859C108.942 51.3836 108.822 51.2522 108.724 51.0914C108.63 50.9287 108.582 50.7294 108.582 50.4944V49.2657C108.582 49.0329 108.63 48.8363 108.724 48.6759C108.822 48.5128 108.942 48.3814 109.084 48.2813C109.23 48.179 109.386 48.1057 109.555 48.0615C109.723 48.0173 109.879 47.9954 110.022 47.9954H111.876C112.14 47.9954 112.364 48.0369 112.548 48.1209C112.733 48.2045 112.881 48.3104 112.995 48.4386C113.108 48.5642 113.19 48.7013 113.24 48.8506C113.293 48.9994 113.319 49.1379 113.319 49.2657V50.4944ZM112.291 49.2728C112.291 49.1473 112.255 49.0539 112.184 48.9936C112.113 48.9328 112.01 48.9029 111.876 48.9029H110.03C109.892 48.9029 109.788 48.9341 109.717 48.9971C109.646 49.0575 109.61 49.1473 109.61 49.2657V50.4944C109.61 50.6133 109.646 50.704 109.717 50.767C109.788 50.8295 109.892 50.8613 110.03 50.8613H111.876C112.016 50.8613 112.12 50.8295 112.188 50.767C112.257 50.704 112.291 50.6133 112.291 50.4944V49.2728ZM122.148 51.7687H121.689C121.542 51.7687 121.384 51.7464 121.215 51.7022C121.049 51.6579 120.893 51.586 120.748 51.4859C120.603 51.3836 120.483 51.2522 120.388 51.0914C120.294 50.9287 120.246 50.7294 120.246 50.4944V46.3998H121.274V50.4944C121.274 50.6061 121.313 50.6959 121.393 50.7634C121.472 50.8286 121.57 50.8613 121.689 50.8613H122.148V51.7687ZM133.531 50.4944C133.531 50.6504 133.509 50.7911 133.464 50.9171C133.419 51.0404 133.36 51.1495 133.286 51.2451C133.212 51.338 133.126 51.4184 133.029 51.4859C132.931 51.5511 132.828 51.6048 132.721 51.6463C132.615 51.6883 132.507 51.7196 132.396 51.7406C132.288 51.7594 132.185 51.7687 132.088 51.7687H130.233C130.091 51.7687 129.936 51.7464 129.767 51.7022C129.598 51.6579 129.441 51.586 129.296 51.4859C129.154 51.3836 129.034 51.2522 128.937 51.0914C128.841 50.9287 128.794 50.7294 128.794 50.4944V49.2657C128.794 49.0329 128.841 48.8363 128.937 48.6759C129.034 48.5128 129.154 48.3814 129.296 48.2813C129.441 48.179 129.598 48.1057 129.767 48.0615C129.936 48.0173 130.091 47.9954 130.233 47.9954H132.088C132.351 47.9954 132.575 48.0369 132.76 48.1209C132.944 48.2045 133.094 48.3104 133.206 48.4386C133.32 48.5642 133.402 48.7013 133.452 48.8506C133.505 48.9994 133.531 49.1379 133.531 49.2657V50.4944ZM132.503 49.2728C132.503 49.1473 132.468 49.0539 132.396 48.9936C132.325 48.9328 132.222 48.9029 132.088 48.9029H130.241C130.104 48.9029 130 48.9341 129.929 48.9971C129.858 49.0575 129.822 49.1473 129.822 49.2657V50.4944C129.822 50.6133 129.858 50.704 129.929 50.767C130 50.8295 130.104 50.8613 130.241 50.8613H132.088C132.228 50.8613 132.331 50.8295 132.4 50.767C132.469 50.704 132.503 50.6133 132.503 50.4944V49.2728ZM145.131 52.1316C145.131 52.2875 145.109 52.4274 145.064 52.5507C145.02 52.6762 144.96 52.7857 144.886 52.8786C144.813 52.9743 144.727 53.0542 144.629 53.1195C144.532 53.1869 144.429 53.2419 144.321 53.2835C144.215 53.3255 144.108 53.3558 143.997 53.3746C143.888 53.3952 143.786 53.4059 143.688 53.4059H141.834V52.4984H143.688C143.828 52.4984 143.932 52.4667 144.001 52.4041C144.069 52.3411 144.104 52.2504 144.104 52.1316V49.2657C144.104 49.1473 144.069 49.0575 144.001 48.9971C143.932 48.9341 143.828 48.9029 143.688 48.9029H141.834C141.707 48.9029 141.607 48.9377 141.534 49.0074C141.46 49.0749 141.423 49.1611 141.423 49.2657V50.4944C141.423 50.6133 141.458 50.704 141.53 50.767C141.6 50.8295 141.705 50.8613 141.842 50.8613H143.688V51.7687H141.834C141.737 51.7687 141.634 51.7594 141.526 51.7406C141.417 51.7196 141.309 51.6883 141.201 51.6463C141.096 51.6048 140.995 51.5511 140.897 51.4859C140.799 51.4184 140.714 51.338 140.64 51.2451C140.566 51.1495 140.507 51.0404 140.462 50.9171C140.417 50.7911 140.395 50.6504 140.395 50.4944V49.2657C140.395 49.1799 140.405 49.0887 140.426 48.9936C140.45 48.8979 140.485 48.8037 140.533 48.7107C140.581 48.6156 140.641 48.5244 140.715 48.4386C140.791 48.3524 140.882 48.2769 140.988 48.2116C141.096 48.1464 141.22 48.0941 141.36 48.0543C141.499 48.015 141.657 47.9954 141.834 47.9954H143.688C143.786 47.9954 143.888 48.0056 143.997 48.0266C144.108 48.045 144.215 48.0753 144.321 48.1174C144.429 48.1594 144.532 48.2139 144.629 48.2813C144.727 48.3466 144.813 48.427 144.886 48.5222C144.96 48.6156 145.02 48.7237 145.064 48.847C145.109 48.9703 145.131 49.1097 145.131 49.2657V52.1316ZM153.189 47.2201H152.161V46.3998H153.189V47.2201ZM153.189 51.7687H152.161V47.9954H153.189V51.7687ZM164.849 49.2447C164.849 49.3707 164.824 49.5065 164.774 49.6531C164.724 49.7974 164.642 49.9323 164.529 50.0583C164.418 50.1816 164.272 50.2853 164.09 50.3689C163.911 50.4529 163.692 50.4944 163.434 50.4944H161.579V49.6325H163.434C163.573 49.6325 163.682 49.595 163.758 49.5208C163.834 49.444 163.872 49.3497 163.872 49.238C163.872 49.1191 163.829 49.0262 163.742 48.9587C163.658 48.8912 163.555 48.8573 163.434 48.8573H161.579C161.44 48.8573 161.331 48.8957 161.255 48.9726C161.178 49.0472 161.14 49.1401 161.14 49.2518V50.519C161.14 50.6401 161.182 50.7344 161.267 50.8018C161.354 50.8693 161.461 50.9028 161.587 50.9028H163.434V51.7687H161.579C161.437 51.7687 161.283 51.7464 161.117 51.7022C160.953 51.6579 160.8 51.5873 160.658 51.4895C160.518 51.3894 160.401 51.2603 160.306 51.1021C160.211 50.9412 160.164 50.7469 160.164 50.519V49.2447C160.164 49.1191 160.189 48.9842 160.239 48.8399C160.289 48.6933 160.369 48.5584 160.48 48.435C160.593 48.3095 160.74 48.2045 160.919 48.1209C161.101 48.0369 161.321 47.9954 161.579 47.9954H163.434C163.576 47.9954 163.729 48.0173 163.892 48.0615C164.058 48.1057 164.211 48.1777 164.351 48.2778C164.493 48.3756 164.612 48.5047 164.707 48.6656C164.801 48.8238 164.849 49.0168 164.849 49.2447ZM175.746 50.4944C175.746 50.6504 175.723 50.7911 175.678 50.9171C175.634 51.0404 175.575 51.1495 175.501 51.2451C175.427 51.338 175.341 51.4184 175.244 51.4859C175.146 51.5511 175.043 51.6048 174.935 51.6463C174.83 51.6883 174.722 51.7196 174.611 51.7406C174.503 51.7594 174.4 51.7687 174.303 51.7687H171.519V50.8613H174.295C174.434 50.8613 174.54 50.8295 174.611 50.767C174.682 50.704 174.718 50.6133 174.718 50.4944C174.705 50.2527 174.566 50.1316 174.303 50.1316H172.709C172.482 50.1316 172.29 50.0968 172.132 50.0266C171.974 49.9569 171.845 49.8698 171.745 49.7648C171.647 49.6602 171.576 49.5472 171.531 49.4265C171.489 49.3054 171.468 49.1924 171.468 49.0878C171.468 48.8854 171.509 48.7152 171.59 48.578C171.672 48.4386 171.775 48.3256 171.899 48.2393C172.022 48.1535 172.157 48.0919 172.302 48.0543C172.447 48.015 172.583 47.9954 172.709 47.9954H175.236V48.9029H172.717C172.665 48.9029 172.622 48.9087 172.591 48.9203C172.562 48.9297 172.539 48.9435 172.523 48.9623C172.51 48.9784 172.502 48.9971 172.5 49.0181C172.497 49.0365 172.496 49.0552 172.496 49.074C172.499 49.1111 172.506 49.1401 172.519 49.1611C172.532 49.1821 172.548 49.1973 172.567 49.2062C172.588 49.2156 172.61 49.2214 172.634 49.2241C172.661 49.2241 172.685 49.2241 172.709 49.2241H174.303C174.566 49.2241 174.79 49.2657 174.975 49.3497C175.159 49.4332 175.308 49.5391 175.422 49.6674C175.535 49.7929 175.617 49.9301 175.667 50.0793C175.719 50.2281 175.746 50.3666 175.746 50.4944Z" fill="#114D71"/>
<path d="M42.4696 34.3247H39.2572V18.6816H42.4696V34.3247ZM166.743 21.5179H159.663V34.3247H156.451V21.5179H149.358V18.6816H166.743V21.5179Z" fill="#027DC0"/>
<path d="M63.9324 33.1105C63.9324 33.3141 63.8868 33.5032 63.7963 33.6778C63.7138 33.8523 63.5984 34.0051 63.4506 34.1359C63.3104 34.2596 63.1414 34.3577 62.944 34.4305C62.7461 34.5032 62.5361 34.5395 62.3134 34.5395C62.116 34.5395 61.9141 34.5068 61.7081 34.4414C61.5108 34.3759 61.3336 34.2705 61.1767 34.125L49.4391 23.3037V34.3214H46.2266V19.8893C46.2266 19.5983 46.3172 19.3366 46.4984 19.1038C46.6879 18.8638 46.9267 18.6857 47.215 18.5693C47.5198 18.4602 47.8328 18.4348 48.154 18.493C48.4753 18.5438 48.7512 18.6748 48.9819 18.8857L60.7197 29.6961V18.6784H63.9324V33.1105ZM85.3814 33.1105C85.3814 33.3141 85.3364 33.5032 85.2458 33.6778C85.1633 33.8523 85.0479 34.0051 84.8996 34.1359C84.7599 34.2596 84.5909 34.3577 84.393 34.4305C84.1956 34.5032 83.9856 34.5395 83.7629 34.5395C83.5656 34.5395 83.3636 34.5068 83.1577 34.4414C82.9598 34.3759 82.7826 34.2705 82.6263 34.125L70.8886 23.3037V34.3214H67.6759V19.8893C67.6759 19.5983 67.7665 19.3366 67.9477 19.1038C68.1375 18.8638 68.3763 18.6857 68.6643 18.5693C68.969 18.4602 69.2822 18.4348 69.6036 18.493C69.9245 18.5438 70.2008 18.6748 70.4311 18.8857L82.1693 29.6961V18.6784H85.3814V33.1105ZM107.721 27.9944C107.721 28.9471 107.535 29.8234 107.164 30.6234C106.794 31.4233 106.279 32.1142 105.62 32.696C104.961 33.2778 104.179 33.7323 103.273 34.0596C102.375 34.3796 101.395 34.5395 100.332 34.5395H95.9829C94.9201 34.5395 93.9358 34.3796 93.0299 34.0596C92.1235 33.7323 91.3411 33.2778 90.6822 32.696C90.0232 32.1142 89.5045 31.4233 89.1254 30.6234C88.755 29.8234 88.5692 28.9471 88.5692 27.9944V25.0054C88.5692 24.06 88.755 23.1873 89.1254 22.3873C89.5045 21.5801 90.0232 20.8892 90.6822 20.3147C91.3411 19.7329 92.1235 19.2784 93.0299 18.9511C93.9358 18.6238 94.9201 18.4602 95.9829 18.4602H100.332C101.395 18.4602 102.375 18.6238 103.273 18.9511C104.179 19.2784 104.961 19.7329 105.62 20.3147C106.279 20.8892 106.794 21.5801 107.164 22.3873C107.535 23.1873 107.721 24.06 107.721 25.0054V27.9944ZM104.508 25.0054C104.508 24.4454 104.405 23.94 104.199 23.4891C104.001 23.0309 103.717 22.6418 103.347 22.3219C102.984 21.9946 102.544 21.7437 102.025 21.5692C101.514 21.3874 100.95 21.2965 100.332 21.2965H95.9829C95.3569 21.2965 94.7845 21.3874 94.2653 21.5692C93.7546 21.7437 93.3138 21.9946 92.9434 22.3219C92.5724 22.6418 92.2844 23.0309 92.0785 23.4891C91.8806 23.94 91.7819 24.4454 91.7819 25.0054V27.9944C91.7819 28.5544 91.8806 29.0634 92.0785 29.5216C92.2844 29.9725 92.5724 30.3616 92.9434 30.6888C93.3138 31.0088 93.7546 31.2597 94.2653 31.4415C94.7845 31.6161 95.3569 31.7033 95.9829 31.7033H100.307C100.933 31.7033 101.502 31.6161 102.012 31.4415C102.531 31.2597 102.976 31.0088 103.347 30.6888C103.717 30.3616 104.001 29.9725 104.199 29.5216C104.405 29.0634 104.508 28.5544 104.508 27.9944V25.0054ZM128.256 18.6784L119.866 33.765C119.735 33.9978 119.537 34.1832 119.273 34.3214C119.018 34.4668 118.734 34.5395 118.421 34.5395C118.116 34.5395 117.832 34.4668 117.568 34.3214C117.313 34.1832 117.115 33.9978 116.975 33.765L108.598 18.6784H112.193L118.421 29.947L124.673 18.6784H128.256ZM146.987 34.3214H143.774V30.4815H132.481V34.3214H129.269V26.4999C129.269 25.3581 129.491 24.3073 129.936 23.3473C130.381 22.3873 130.999 21.5619 131.79 20.871C132.58 20.1801 133.515 19.642 134.594 19.2565C135.673 18.8711 136.851 18.6784 138.128 18.6784H145.368C145.591 18.6784 145.801 18.7148 145.999 18.7875C146.196 18.8602 146.369 18.962 146.517 19.0929C146.666 19.2238 146.781 19.3765 146.863 19.5511C146.946 19.7256 146.987 19.9111 146.987 20.1074V34.3214ZM132.481 27.6453H143.774V21.5147H138.128C138.029 21.5147 137.819 21.5292 137.498 21.5583C137.185 21.5801 136.818 21.6419 136.398 21.7437C135.986 21.8455 135.55 22.0019 135.088 22.2128C134.627 22.4237 134.203 22.7146 133.816 23.0855C133.429 23.4564 133.107 23.9218 132.852 24.4818C132.605 25.0345 132.481 25.7072 132.481 26.4999V27.6453ZM172.353 34.3214H169.14V18.6784H172.353V34.3214ZM184.202 24.2636L189.614 18.6784H194L186.377 26.5217L193.951 34.3214H189.589L184.202 28.7798L178.84 34.3214H174.466L182.027 26.5217L174.441 18.6784H178.79L184.202 24.2636Z" fill="#114D71"/>
<path d="M20.2559 13.816C24.0411 13.816 27.1097 10.7232 27.1097 6.90799C27.1097 3.09281 24.0411 0 20.2559 0C16.4706 0 13.4021 3.09281 13.4021 6.90799C13.4021 10.7232 16.4706 13.816 20.2559 13.816Z" fill="#00B6E8"/>
<path fill-rule="evenodd" clip-rule="evenodd" d="M24.1848 11.7249C25.6942 10.577 26.6699 8.75395 26.6699 6.70122C26.6699 3.2277 23.8761 0.411865 20.4299 0.411865C18.3941 0.411865 16.5861 1.39442 15.4471 2.91468C16.4918 2.12012 17.7923 1.64899 19.202 1.64899C22.6482 1.64899 25.442 4.46484 25.442 7.93837C25.442 9.36002 24.974 10.6715 24.1848 11.7249Z" fill="#01FFFF"/>
<path fill-rule="evenodd" clip-rule="evenodd" d="M25.5857 11.2494C24.4088 12.2088 22.9104 12.7834 21.2789 12.7834C17.4936 12.7834 14.4251 9.69053 14.4251 5.87537C14.4251 4.22977 14.996 2.71857 15.949 1.53198C14.3955 2.79839 13.4021 4.73526 13.4021 6.906C13.4021 10.7212 16.4706 13.814 20.2559 13.814C22.4084 13.814 24.3292 12.8138 25.5857 11.2494Z" fill="#0597C0"/>
<path d="M6.10352e-05 16.7008V15.876H12.3778C17.1243 16.0425 20.0499 17.835 21.5843 19.3108C21.9253 19.6231 23.221 20.7042 24.3463 22.5778C25.5071 24.5106 26.1876 26.805 26.2899 28.5745V30.7603V33.0502V37.7341C25.1646 35.3401 23.7666 33.6747 23.221 33.1543C21.257 30.9893 18.5837 29.8235 17.4925 29.5113C16.981 29.3725 15.4466 29.0533 13.4007 28.8867C11.3548 28.7202 10.0932 28.4704 9.71807 28.3663C6.60833 27.7002 3.85317 24.8274 2.86432 23.4743C0.654748 20.7264 6.10352e-05 17.8111 6.10352e-05 16.7008Z" fill="#00B6E8"/>
<path d="M13.6052 14.9507H0V15.9817L13.5817 15.9818C16.2649 16.1879 18.1308 17.0128 19.5383 17.8377C23.9371 20.4153 25.9829 24.9518 26.1875 28.6636V30.9319V33.2002V37.7368C26.699 38.5615 27.0059 40.0737 27.1082 41.3454V40.8299V39.902V38.0461V34.3343V32.5816V30.7257V27.0139C26.4944 21.6525 23.221 18.7655 20.5613 17.0128C18.1062 15.4663 16.0839 14.9507 13.6052 14.9507Z" fill="#01FFFF"/>
<path d="M27.1091 42.8921V58.1517C24.5517 58.4609 21.9943 57.2236 20.9714 56.8112C18.8232 55.78 17.8002 54.5427 16.8796 53.5119C15.7749 52.2747 14.8337 48.2533 14.8337 46.2945V31.3444C14.8337 30.0818 16.7432 30.4851 17.5956 30.7258C18.326 30.9319 19.1642 31.2413 19.6415 31.4475C21.3601 32.1898 23.1196 33.8532 23.9379 34.8499C25.4928 36.4996 26.9045 40.1082 27.1091 42.8921Z" fill="#027DC0"/>
<path d="M13.4021 44.8823V28.8875C16.1641 28.8685 18.7214 29.7965 20.0513 30.5182C20.0513 30.5182 21.4451 31.2399 22.7109 32.3741C24.5523 34.0238 25.8821 36.6013 26.2913 37.7355C26.8641 39.0552 27.3142 41.5503 27.1096 42.9937C26.946 41.509 26.3254 39.557 26.0867 38.7666C25.848 38.1135 25.2274 36.4982 24.2454 35.261C23.2633 34.0238 21.9949 32.9583 21.4834 32.5803C21.1083 32.3053 19.8415 31.4445 17.5962 30.7244C15.3457 30.0027 14.8342 30.9306 14.8342 31.5492V46.1901C14.8342 48.6646 16.2322 52.2387 16.8801 53.5103C14.425 51.3656 13.4021 46.9117 13.4021 44.8823Z" fill="#114D71"/>
</svg>
